<svg height='100px' width='100px'  fill="#FFDD00" xmlns="http://www.w3.org/2000/svg" xmlns:xlink="http://www.w3.org/1999/xlink" version="1.1" x="0px" y="0px" viewBox="0 0 512 512" style="enable-background:new 0 0 512 512;" xml:space="preserve"><g><g><g><path d="M218.412,110.721C218.412,110.721,218.412,110.721,218.412,110.721c-4.573,0-8.862-1.771-12.077-4.987l-38.422-38.422     c-6.646-6.666-6.646-17.505-0.004-24.167l24.874-24.86c3.209-3.217,7.5-4.992,12.078-4.992s8.869,1.774,12.082,4.996     l38.419,38.418c3.226,3.226,4.998,7.525,4.992,12.106c-0.006,4.567-1.782,8.844-5,12.044l-24.86,24.875     C227.275,108.95,222.985,110.721,218.412,110.721z M204.86,21.293c-2.437,0-4.716,0.939-6.418,2.646l-24.873,24.86     c-3.531,3.542-3.531,9.313,0.005,12.86l38.418,38.418c1.704,1.705,3.983,2.643,6.419,2.644h0c2.437,0,4.719-0.939,6.425-2.644     l24.867-24.882c1.708-1.699,2.646-3.966,2.65-6.392c0.003-2.44-0.938-4.727-2.649-6.438l-38.422-38.421     C209.577,22.233,207.297,21.293,204.86,21.293z"></path></g><g><path d="M185.879,126.99c-1.024,0-2.047-0.391-2.829-1.171l-35.221-35.222c-1.562-1.562-1.562-4.094,0-5.656l21.685-21.698     c0.75-0.75,1.768-1.172,2.829-1.172c1.061,0,2.079,0.421,2.829,1.172l35.222,35.237c1.562,1.562,1.561,4.094-0.001,5.656     l-21.686,21.684C187.926,126.599,186.902,126.99,185.879,126.99z M156.313,87.767l29.565,29.566l16.03-16.028l-29.565-29.578     L156.313,87.767z"></path></g><g><path d="M124.294,224.739c-5.735,0-11.112-2.224-15.141-6.263l-51.142-51.125c-8.337-8.338-8.338-21.917-0.003-30.271     l58.672-58.673c4.028-4.029,9.404-6.248,15.138-6.248c5.731,0,11.111,2.218,15.146,6.246l51.132,51.148     c4.036,4.026,6.26,9.403,6.26,15.137s-2.225,11.11-6.264,15.14l-58.65,58.651C135.408,222.516,130.028,224.739,124.294,224.739z      M131.819,80.158c-3.596,0-6.963,1.387-9.48,3.905l-58.669,58.67c-5.22,5.231-5.221,13.739,0,18.96l51.145,51.128     c2.521,2.528,5.886,3.917,9.48,3.917c3.596,0,6.967-1.391,9.492-3.916l58.654-58.654c2.527-2.521,3.917-5.887,3.917-9.48     s-1.39-6.958-3.914-9.477l-51.133-51.148C138.789,81.546,135.417,80.158,131.819,80.158z"></path></g><g><path d="M34.239,273.092c-0.268,0-0.539-0.027-0.808-0.083c-1.57-0.323-2.795-1.554-3.113-3.124     c-7.955-39.329,9.819-75.794,28.254-106.277c1.144-1.891,3.603-2.495,5.493-1.353c1.891,1.144,2.496,3.603,1.353,5.493     c-16.122,26.657-31.737,57.986-28.643,91.152c18.208-23.272,40.302-38.279,70.462-48.089c2.102-0.683,4.358,0.466,5.041,2.566     c0.684,2.101-0.466,4.358-2.566,5.041c-31.676,10.304-53.939,26.635-72.187,52.954C36.769,272.462,35.533,273.092,34.239,273.092     z"></path></g><g><path d="M312.059,376.744L312.059,376.744c-1.061,0-2.078-0.422-2.828-1.172l-26.348-26.351c-1.563-1.562-1.563-4.095,0-5.657     c1.563-1.561,4.096-1.561,5.656,0.001l23.52,23.522l34.632-34.632l-23.077-23.077c-1.563-1.563-1.563-4.096,0-5.657     c1.563-1.562,4.096-1.562,5.657,0l25.905,25.905c1.563,1.563,1.563,4.096,0,5.658l-40.288,40.287     C314.137,376.322,313.12,376.744,312.059,376.744z M211.327,276.025c-1.024,0-2.048-0.391-2.829-1.172l-65.527-65.543     c-1.562-1.562-1.562-4.094,0-5.656l40.288-40.301c0.75-0.75,1.768-1.172,2.829-1.172s2.079,0.421,2.829,1.172l65.792,65.808     c1.562,1.563,1.562,4.095,0,5.657c-1.562,1.563-4.095,1.562-5.657,0l-62.963-62.978l-34.632,34.643l62.7,62.715     c1.562,1.563,1.562,4.096,0,5.656C213.374,275.635,212.35,276.025,211.327,276.025z"></path></g><g><path d="M409.729,482.27c-8.065,0-15.629-3.122-21.299-8.793l-88.559-88.545c-1.563-1.562-1.563-4.094,0-5.656l58.994-59.01     c0.75-0.75,1.768-1.172,2.829-1.172c1.061,0,2.078,0.422,2.829,1.172l87.327,87.33c6,5.999,9.305,13.999,9.305,22.528     c0,8.528-3.305,16.528-9.305,22.528l-20.824,20.824C425.357,479.147,417.794,482.27,409.729,482.27z M308.355,382.104     l85.73,85.716c4.159,4.16,9.715,6.45,15.643,6.45s11.482-2.29,15.641-6.449l20.825-20.825c4.489-4.488,6.961-10.48,6.961-16.871     c0-6.392-2.472-12.384-6.961-16.871l-84.499-84.501L308.355,382.104z"></path></g><g><path d="M141.985,500.706c-12.362,0-24.326-2.511-34.597-7.261c-1.187-0.549-2.03-1.644-2.259-2.931     c-0.229-1.287,0.186-2.605,1.111-3.529l49.515-49.486l-1.122-33.33l-33.918-1.646l-49.462,49.479     c-0.924,0.924-2.242,1.338-3.529,1.11c-1.287-0.229-2.381-1.072-2.93-2.258c-14.363-31.023-6.666-74.272,17.522-98.46     c17.578-17.577,36.362-25.765,59.115-25.765c3.383,0,6.83,0.172,10.485,0.525l159.366-159.351     c-2.333-25.891,6.796-51.157,25.216-69.591c16.504-16.504,38.439-25.593,61.767-25.593c12.606,0,25.29,2.784,36.678,8.051     c1.187,0.548,2.03,1.643,2.26,2.929c0.229,1.287-0.186,2.604-1.109,3.529l-49.462,49.477l1.658,33.907l33.331,1.119     l49.488-49.485c0.924-0.923,2.24-1.337,3.529-1.109c1.287,0.229,2.381,1.072,2.93,2.259c15.298,33.078,8.25,72.639-17.539,98.442     c-16.503,16.49-38.434,25.57-61.753,25.57c-2.607,0-5.236-0.118-7.842-0.351L231.069,406.321     c2.676,27.994-5.153,49.527-25.239,69.6C190.551,491.209,166.087,500.706,141.985,500.706z M116.151,488.391     c7.928,2.834,16.747,4.315,25.834,4.315c22.057,0,44.354-8.599,58.188-22.441c18.915-18.902,25.717-38.336,22.746-64.982     c-0.134-1.208,0.288-2.412,1.147-3.271l162.054-162.052c0.86-0.86,2.068-1.281,3.273-1.146c2.938,0.329,5.926,0.496,8.883,0.496     c21.184,0,41.106-8.249,56.097-23.227c22.047-22.06,29.017-55.191,18.178-84.062l-46.501,46.498     c-0.783,0.783-1.859,1.195-2.963,1.169l-38.747-1.301c-2.08-0.07-3.759-1.723-3.86-3.802l-1.925-39.355     c-0.056-1.127,0.368-2.225,1.166-3.023l46.499-46.513c-8.89-3.329-18.445-5.071-27.954-5.071     c-21.19,0-41.117,8.257-56.108,23.249c-17.148,17.162-25.433,40.845-22.729,64.977c0.136,1.209-0.287,2.414-1.146,3.274     l-162.056,162.04c-0.859,0.859-2.067,1.279-3.271,1.146c-4.083-0.455-7.853-0.676-11.523-0.676     c-20.772,0-37.259,7.224-53.458,23.422c-20.604,20.602-28.037,56.425-18.129,84.043l46.465-46.48     c0.797-0.799,1.893-1.227,3.023-1.168l39.369,1.912c2.08,0.1,3.734,1.779,3.804,3.86l1.304,38.748     c0.038,1.107-0.386,2.181-1.17,2.964L116.151,488.391z"></path></g><g><path d="M183.332,336.575c-1.024,0-2.047-0.391-2.829-1.171c-1.562-1.563-1.562-4.096,0-5.658l67.866-67.867     c1.563-1.563,4.095-1.563,5.657,0c1.562,1.562,1.562,4.094,0,5.656l-67.866,67.869     C185.379,336.185,184.356,336.575,183.332,336.575z"></path></g></g></g></svg>