<svg xmlns="http://www.w3.org/2000/svg" width="70" height="70" viewBox="0 0 70 70">
  <g id="Grupo_36" data-name="Grupo 36" transform="translate(-2317 -2020)">
    <circle id="Elipse_2" data-name="Elipse 2" cx="35" cy="35" r="35" transform="translate(2317 2020)" fill="#97a19e"/>
    <g id="Grupo_25" data-name="Grupo 25" transform="translate(-6 110)">
      <g id="construction" transform="translate(2311.41 1912.192)">
        <g id="Grupo_22" data-name="Grupo 22" transform="translate(28.368 13.293)">
          <g id="Grupo_14" data-name="Grupo 14" transform="translate(10.819 0)">
            <path id="Trazado_11" data-name="Trazado 11" d="M167.389,21.126h0a1.363,1.363,0,0,1-.971-.4l-3.089-3.089a1.378,1.378,0,0,1,0-1.943l2-2a1.375,1.375,0,0,1,1.943,0l3.089,3.089a1.374,1.374,0,0,1,0,1.942l-2,2A1.364,1.364,0,0,1,167.389,21.126Zm-1.09-7.19a.723.723,0,0,0-.516.213l-2,2a.734.734,0,0,0,0,1.034l3.089,3.089a.724.724,0,0,0,.516.213h0a.725.725,0,0,0,.517-.213l2-2a.731.731,0,0,0,0-1.032l-3.089-3.089A.723.723,0,0,0,166.3,13.936Z" transform="translate(-162.928 -13.293)" fill="#fff" stroke="#fff" stroke-width="0.5"/>
          </g>
          <g id="Grupo_15" data-name="Grupo 15" transform="translate(9.511 3.922)">
            <path id="Trazado_12" data-name="Trazado 12" d="M149.811,67.291a.321.321,0,0,1-.227-.094l-2.832-2.832a.322.322,0,0,1,0-.455l1.744-1.745a.322.322,0,0,1,.455,0L151.782,65a.322.322,0,0,1,0,.455L150.038,67.2A.321.321,0,0,1,149.811,67.291Zm-2.377-3.154,2.377,2.377,1.289-1.289-2.377-2.378Z" transform="translate(-146.658 -62.071)" fill="#fff" stroke="#fff" stroke-width="0.5"/>
          </g>
          <g id="Grupo_16" data-name="Grupo 16" transform="translate(1.881 4.733)">
            <path id="Trazado_13" data-name="Trazado 13" d="M57.59,84.427a1.707,1.707,0,0,1-1.217-.5L52.26,79.813a1.724,1.724,0,0,1,0-2.434l4.717-4.717a1.727,1.727,0,0,1,2.435,0l4.111,4.112a1.723,1.723,0,0,1,0,2.434l-4.716,4.716A1.71,1.71,0,0,1,57.59,84.427ZM58.195,72.8a1.07,1.07,0,0,0-.762.314l-4.717,4.717a1.08,1.08,0,0,0,0,1.524l4.112,4.111a1.081,1.081,0,0,0,1.525,0l4.716-4.716a1.08,1.08,0,0,0,0-1.524l-4.111-4.112A1.073,1.073,0,0,0,58.195,72.8Z" transform="translate(-51.758 -72.159)" fill="#fff" stroke="#fff" stroke-width="0.5"/>
          </g>
          <g id="Grupo_17" data-name="Grupo 17" transform="translate(0 11.931)">
            <path id="Trazado_14" data-name="Trazado 14" d="M28.84,170.636a.318.318,0,0,1-.065-.007.322.322,0,0,1-.25-.251c-.64-3.162.789-6.094,2.272-8.545a.322.322,0,1,1,.55.333c-1.3,2.143-2.552,4.662-2.3,7.329a11.188,11.188,0,0,1,5.665-3.866.322.322,0,1,1,.2.612,10.613,10.613,0,0,0-5.8,4.258A.322.322,0,0,1,28.84,170.636Z" transform="translate(-28.368 -161.678)" fill="#fff" stroke="#fff" stroke-width="0.5"/>
          </g>
          <g id="Grupo_18" data-name="Grupo 18" transform="translate(9.12 11.971)">
            <path id="Trazado_15" data-name="Trazado 15" d="M155.489,179.432h0a.322.322,0,0,1-.227-.094l-2.118-2.119a.322.322,0,1,1,.455-.455l1.891,1.891,2.785-2.785-1.855-1.855a.322.322,0,0,1,.455-.455l2.083,2.083a.322.322,0,0,1,0,.455l-3.239,3.239A.322.322,0,0,1,155.489,179.432Zm-8.1-8.1a.321.321,0,0,1-.227-.094l-5.269-5.27a.322.322,0,0,1,0-.455l3.239-3.24a.322.322,0,0,1,.455,0l5.29,5.291a.322.322,0,0,1-.455.455l-5.062-5.064-2.785,2.785,5.041,5.042a.322.322,0,0,1-.228.549Z" transform="translate(-141.8 -162.181)" fill="#fff" stroke="#fff" stroke-width="0.5"/>
          </g>
          <g id="Grupo_19" data-name="Grupo 19" transform="translate(21.735 24.587)">
            <path id="Trazado_16" data-name="Trazado 16" d="M307.626,332.214a2.4,2.4,0,0,1-1.712-.707l-7.12-7.119a.321.321,0,0,1,0-.455l4.743-4.745a.322.322,0,0,1,.455,0l7.021,7.022a2.567,2.567,0,0,1,0,3.623l-1.674,1.674A2.4,2.4,0,0,1,307.626,332.214Zm-8.151-8.054,6.893,6.892a1.784,1.784,0,0,0,2.515,0l1.674-1.674a1.924,1.924,0,0,0,0-2.713l-6.794-6.794Z" transform="translate(-298.699 -319.094)" fill="#fff" stroke="#fff" stroke-width="0.5"/>
          </g>
          <g id="Grupo_20" data-name="Grupo 20" transform="translate(2.348 4.77)">
            <path id="Trazado_17" data-name="Trazado 17" d="M64.362,107.038a6.669,6.669,0,0,1-2.782-.584.322.322,0,0,1-.092-.519l3.981-3.979-.09-2.68-2.727-.132-3.977,3.978a.322.322,0,0,1-.519-.092,7.436,7.436,0,0,1,1.409-7.916,6.4,6.4,0,0,1,4.753-2.072c.272,0,.549.014.843.042L77.974,80.272a7.022,7.022,0,0,1,6.994-7.653,7.073,7.073,0,0,1,2.949.647.322.322,0,0,1,.093.519l-3.977,3.978.133,2.726,2.68.09L90.825,76.6a.322.322,0,0,1,.519.092,7.051,7.051,0,0,1-1.41,7.915,6.979,6.979,0,0,1-4.965,2.056c-.21,0-.421-.009-.631-.028L71.525,99.45a6.459,6.459,0,0,1-2.029,5.6A7.463,7.463,0,0,1,64.362,107.038Zm-2.077-.99a6.2,6.2,0,0,0,2.077.347,6.8,6.8,0,0,0,4.678-1.8,5.822,5.822,0,0,0,1.829-5.225.322.322,0,0,1,.092-.263l13.03-13.029a.322.322,0,0,1,.263-.092,6.443,6.443,0,0,0,.714.04,6.34,6.34,0,0,0,4.51-1.868A6.409,6.409,0,0,0,90.94,77.4L87.2,81.134a.326.326,0,0,1-.238.094l-3.115-.1a.321.321,0,0,1-.31-.306l-.155-3.164a.321.321,0,0,1,.094-.243l3.739-3.74a6.44,6.44,0,0,0-2.248-.408,6.379,6.379,0,0,0-6.339,7.094.322.322,0,0,1-.092.263L65.507,93.648a.322.322,0,0,1-.263.092,8.3,8.3,0,0,0-.926-.054,5.723,5.723,0,0,0-4.3,1.883,6.8,6.8,0,0,0-1.458,6.757L62.3,98.589a.32.32,0,0,1,.243-.094l3.165.154a.321.321,0,0,1,.306.31l.1,3.115a.321.321,0,0,1-.094.238Z" transform="translate(-57.575 -72.619)" fill="#fff" stroke="#fff" stroke-width="0.5"/>
          </g>
          <g id="Grupo_21" data-name="Grupo 21" transform="translate(12.138 19.893)">
            <path id="Trazado_18" data-name="Trazado 18" d="M179.653,266.807a.322.322,0,0,1-.227-.549l5.457-5.457a.322.322,0,1,1,.455.455l-5.457,5.457A.32.32,0,0,1,179.653,266.807Z" transform="translate(-179.332 -260.707)" fill="#fff" stroke="#fff" stroke-width="0.5"/>
          </g>
        </g>
      </g>
    </g>
  </g>
</svg>
