<svg xmlns="http://www.w3.org/2000/svg" width="70" height="70" viewBox="0 0 70 70">
  <g id="Grupo_42" data-name="Grupo 42" transform="translate(-2395 -2105)">
    <circle id="Elipse_8" data-name="Elipse 8" cx="35" cy="35" r="35" transform="translate(2395 2105)" fill="#951eba"/>
    <g id="outfall" transform="translate(2403.25 2111.099)">
      <path id="Trazado_19" data-name="Trazado 19" d="M43.4,25.767H44.73v3.385H42.015A11.41,11.41,0,0,1,43.4,25.767Z" transform="translate(-19.288 -8.41)" fill="#fff"/>
      <rect id="Rectángulo_2" data-name="Rectángulo 2" width="3.384" height="3.385" transform="translate(27.036 17.357)" fill="#fff"/>
      <path id="Trazado_20" data-name="Trazado 20" d="M54.333,15.4v3.407H50.948V17.175A11.334,11.334,0,0,1,54.333,15.4Z" transform="translate(-23.912 -3.044)" fill="#fff"/>
      <path id="Trazado_21" data-name="Trazado 21" d="M64.66,14.28v3.906H61.269V14.377a11.79,11.79,0,0,1,3.391-.1Z" transform="translate(-29.254 -2.423)" fill="#fff"/>
      <path id="Trazado_22" data-name="Trazado 22" d="M74.986,16.5v2.1H71.6v-3.6A11.429,11.429,0,0,1,74.986,16.5Z" transform="translate(-34.602 -2.833)" fill="#fff"/>
      <rect id="Rectángulo_3" data-name="Rectángulo 3" width="3.391" height="3.385" transform="translate(32.015 17.357)" fill="#fff"/>
      <rect id="Rectángulo_4" data-name="Rectángulo 4" width="3.385" height="3.385" transform="translate(36.999 17.357)" fill="#fff"/>
      <path id="Trazado_23" data-name="Trazado 23" d="M85.3,29.151h-3.38V25.766h1.992A11.447,11.447,0,0,1,85.3,29.151Z" transform="translate(-39.945 -8.409)" fill="#fff"/>
      <path id="Trazado_24" data-name="Trazado 24" d="M41.424,36.088H44.4v3.39H41.615a11.172,11.172,0,0,1-.239-2.327C41.376,36.795,41.392,36.438,41.424,36.088Z" transform="translate(-18.958 -13.752)" fill="#fff"/>
      <rect id="Rectángulo_5" data-name="Rectángulo 5" width="3.384" height="3.39" transform="translate(27.036 22.336)" fill="#fff"/>
      <rect id="Rectángulo_6" data-name="Rectángulo 6" width="3.391" height="3.39" transform="translate(32.015 22.336)" fill="#fff"/>
      <rect id="Rectángulo_7" data-name="Rectángulo 7" width="3.385" height="3.39" transform="translate(36.999 22.336)" fill="#fff"/>
      <path id="Trazado_25" data-name="Trazado 25" d="M85.611,37.151a11.577,11.577,0,0,1-.234,2.327H81.924v-3.39h3.641C85.6,36.438,85.611,36.795,85.611,37.151Z" transform="translate(-39.945 -13.752)" fill="#fff"/>
      <path id="Trazado_26" data-name="Trazado 26" d="M52.242,12.021a12.554,12.554,0,0,0-1.594-.961A13.718,13.718,0,0,0,44.3,9.519,13.9,13.9,0,0,0,30.423,23.4a14.16,14.16,0,0,0,.4,3.31c.053.207.107.41.165.611a14.147,14.147,0,0,0,.574,1.594h-2.2A4.612,4.612,0,0,0,24.578,33.7v8.5h1.594V33.7a3.069,3.069,0,0,1,3.188-3.189h22.02c-.233.234-.478.468-.734.691a11.045,11.045,0,0,1-1.148.9,7.61,7.61,0,0,1-2.238,1.084,5.808,5.808,0,0,1-1.594.239.6.6,0,0,1-.1.006H43.176c-.064,0-.133,0-.2.005a1.439,1.439,0,0,0-.154.011h-.027a2.4,2.4,0,0,0-.255.031.388.388,0,0,0-.111.016c-.048,0-.1.016-.15.027a.841.841,0,0,0-.116.021,1.984,1.984,0,0,0-.255.059c-.1.026-.2.053-.3.085a.255.255,0,0,1-.027.011c-.01,0-.016,0-.027.01a1.435,1.435,0,0,0-.239.085,3.268,3.268,0,0,0-.325.133c-.106.048-.207.1-.309.154a.227.227,0,0,0-.047.027,3.861,3.861,0,0,0-.372.229,4.424,4.424,0,0,0-1.87,3.879V42.2h1.594V38.213a3.48,3.48,0,0,1,.308-1.52c.127.043.255.08.387.112a12.739,12.739,0,0,0,1.594.329,13.463,13.463,0,0,0,2.025.15,12.7,12.7,0,0,0,1.638-.1,12.384,12.384,0,0,0,1.322-.218,13.548,13.548,0,0,0,3.385-1.222,12.44,12.44,0,0,0,1.594-.961A13.864,13.864,0,0,0,55.111,32.1a13.145,13.145,0,0,0,1.111-1.595,13.852,13.852,0,0,0-3.981-18.487Zm3.709,15.3a11.872,11.872,0,0,1-1.631,3.188A12.019,12.019,0,0,1,52.975,32.1q-.351.35-.734.67a11.607,11.607,0,0,1-1.594,1.153,12.225,12.225,0,0,1-3.385,1.4,10.523,10.523,0,0,1-1.594.281,11.489,11.489,0,0,1-1.366.08,12.174,12.174,0,0,1-2.025-.17c-.222-.031-.44-.074-.658-.127a3.4,3.4,0,0,1,.658-.24,3.7,3.7,0,0,1,.9-.128h1.063c.091,0,.176,0,.266-.006.393-.01.781-.037,1.164-.085a11.279,11.279,0,0,0,1.594-.308c.154-.043.309-.085.457-.133a11.945,11.945,0,0,0,2.928-1.381,11.667,11.667,0,0,0,1.323-1.01c.09-.08.18-.165.272-.25a11.661,11.661,0,0,0,1.222-1.345c.2-.255.393-.521.568-.792a.17.17,0,0,1,.037-.005,11.569,11.569,0,0,0,1.179-2.391H52.241v1.594H50.646V27.32H47.261v1.594H45.667V27.32H42.276v1.594H40.682V27.32H37.3v1.594H35.7V27.32H33.36a11.285,11.285,0,0,0,.712,1.594h-.754a12.223,12.223,0,0,1-.664-1.594,12.8,12.8,0,0,1-.42-1.594,12.618,12.618,0,0,1-.218-2.327c0-.356.016-.713.048-1.063a11.4,11.4,0,0,1,.245-1.594,12.023,12.023,0,0,1,1.3-3.385,11.677,11.677,0,0,1,1.084-1.594,12.393,12.393,0,0,1,2.609-2.45,12.171,12.171,0,0,1,3.384-1.658,11.221,11.221,0,0,1,1.594-.372,12.13,12.13,0,0,1,2.025-.17,11.591,11.591,0,0,1,1.366.08,10.644,10.644,0,0,1,1.594.282,12.26,12.26,0,0,1,3.385,1.4,11.611,11.611,0,0,1,1.594,1.153,11.757,11.757,0,0,1,1.679,1.732A11.547,11.547,0,0,1,55,17.357a12,12,0,0,1,1.3,3.385,11.4,11.4,0,0,1,.245,1.594c.031.351.048.707.048,1.063a11.937,11.937,0,0,1-.224,2.327A10.946,10.946,0,0,1,55.95,27.32Z" transform="translate(-10.263 0)" fill="#fff"/>
      <path id="Trazado_27" data-name="Trazado 27" d="M22.517,78.031c-10.627,0-17.767-2.669-17.767-6.643,0-1.4.911-3.4,5.248-4.916a.8.8,0,0,1,.526,1.506c-2.656.929-4.18,2.172-4.18,3.411,0,2.482,6.049,5.048,16.173,5.048a48.857,48.857,0,0,0,6.956-.466.8.8,0,0,1,.23,1.577A50.233,50.233,0,0,1,22.517,78.031Z" transform="translate(0 -29.456)" fill="#fff"/>
      <path id="Trazado_28" data-name="Trazado 28" d="M35.845,70.148v1.626c2.115.526,3.188,1.164,3.188,1.54,0,.717-3.9,2.392-11.456,2.392a32.818,32.818,0,0,1-9.055-1.063c-.075-.022-.144-.042-.213-.069-1.461-.452-2.194-.946-2.194-1.26s.733-.807,2.194-1.259V70.4c-2.269.654-3.789,1.616-3.789,2.912,0,2.738,6.764,3.986,13.056,3.986s13.05-1.248,13.05-3.986C40.627,71.837,38.65,70.791,35.845,70.148Z" transform="translate(-5.057 -31.382)" fill="#fff"/>
      <rect id="Rectángulo_8" data-name="Rectángulo 8" width="1.594" height="2.989" transform="translate(18.3 39.21)" fill="#fff"/>
      <rect id="Rectángulo_9" data-name="Rectángulo 9" width="1.594" height="2.989" transform="translate(23.68 39.21)" fill="#fff"/>
    </g>
  </g>
</svg>
