<?xml version="1.0" encoding="utf-8"?>
<!-- Generator: Adobe Illustrator 22.0.0, SVG Export Plug-In . SVG Version: 6.00 Build 0)  -->
<svg version="1.1"
	 id="Layer_1" xmlns:cc="http://creativecommons.org/ns#" xmlns:dc="http://purl.org/dc/elements/1.1/" xmlns:inkscape="http://www.inkscape.org/namespaces/inkscape" xmlns:rdf="http://www.w3.org/1999/02/22-rdf-syntax-ns#" xmlns:sodipodi="http://sodipodi.sourceforge.net/DTD/sodipodi-0.dtd" xmlns:svg="http://www.w3.org/2000/svg"
	 xmlns="http://www.w3.org/2000/svg" xmlns:xlink="http://www.w3.org/1999/xlink" x="0px" y="0px" viewBox="0 0 100 100"
	 style="enable-background:new 0 0 100 100;" xml:space="preserve">
<style type="text/css">
	.st0{fill:#FFC700;}
</style>
<g transform="translate(0,-952.36218)">
	<path class="st0" d="M74.7,1041.3c1.1,0,2-0.9,2.1-1.9c0-0.1,0-0.3,0-0.4l-5.5-26l20.2-17.9c0.8-0.7,0.9-2,0.1-2.8
		c-0.3-0.4-0.8-0.6-1.3-0.6l-27.1-3l-11.3-24.2c-0.5-1-1.7-1.4-2.7-1c-0.4,0.2-0.8,0.5-1,1l-11.3,24.2l-27.1,3
		c-1.1,0.1-1.9,1.1-1.8,2.2c0.1,0.5,0.3,0.9,0.7,1.2l20.2,17.9l-5.5,26c-0.2,1.1,0.5,2.1,1.6,2.3c0.5,0.1,1,0,1.4-0.2L50,1028
		l23.7,13.1C74,1041.2,74.4,1041.3,74.7,1041.3z M71.8,1035.5L51,1024c-0.6-0.3-1.4-0.3-2,0l-20.8,11.5l4.8-22.8
		c0.1-0.7-0.1-1.4-0.6-1.9l-17.7-15.7l23.8-2.6c0.7-0.1,1.3-0.5,1.6-1.1l9.9-21.2l9.9,21.2c0.3,0.6,0.9,1.1,1.6,1.1l23.8,2.6
		l-17.7,15.7c-0.5,0.5-0.8,1.2-0.6,1.9L71.8,1035.5L71.8,1035.5z"/>
</g>
</svg>
