<svg xmlns="http://www.w3.org/2000/svg" width="42.124" height="39.036" viewBox="0 0 42.124 39.036">
  <g id="star" transform="translate(-7.991 -963.347)">
    <path id="Trazado_29" data-name="Trazado 29" d="M41.38,1002.363a1.08,1.08,0,0,0,1.051-.951v-.2L39.678,988.2l10.11-8.959a.967.967,0,0,0,.05-1.4.807.807,0,0,0-.651-.3l-13.564-1.5-5.656-12.112a1.07,1.07,0,0,0-1.351-.5.976.976,0,0,0-.5.5l-5.656,12.112L8.9,977.538a1.01,1.01,0,0,0-.9,1.1.929.929,0,0,0,.35.6l10.11,8.959L15.7,1001.212a.977.977,0,0,0,.8,1.151,1.1,1.1,0,0,0,.7-.1l11.812-6.557,11.862,6.557A1.781,1.781,0,0,0,41.38,1002.363Zm-1.451-2.9L29.518,993.7a1.169,1.169,0,0,0-1,0L18.106,999.46l2.4-11.412a1.107,1.107,0,0,0-.3-.951l-8.859-7.858,11.912-1.3a1.044,1.044,0,0,0,.8-.55l4.955-10.611,4.955,10.611a.94.94,0,0,0,.8.55l11.912,1.3L37.826,987.1a.978.978,0,0,0-.3.951l2.4,11.412Z" transform="translate(0)" fill="#f2552e"/>
  </g>
</svg>
