<svg xmlns="http://www.w3.org/2000/svg" width="70" height="70" viewBox="0 0 70 70">
  <g id="Grupo_40" data-name="Grupo 40" transform="translate(-2556 -2105)">
    <circle id="Elipse_6" data-name="Elipse 6" cx="35" cy="35" r="35" transform="translate(2556 2105)" fill="#29c499"/>
    <g id="Grupo_31" data-name="Grupo 31" transform="translate(-781 654)">
      <g id="waterfall" transform="translate(3352 1466)">
        <path id="Trazado_30" data-name="Trazado 30" d="M96.265,32.152h-8.3a.436.436,0,0,1-.461-.461,1.851,1.851,0,0,1,1.845-1.845,1.569,1.569,0,0,1,.461.046,3.695,3.695,0,0,1,6.92,1.8A.436.436,0,0,1,96.265,32.152Zm-7.7-.923h7.2a2.768,2.768,0,0,0-5.305-.554.416.416,0,0,1-.277.277.348.348,0,0,1-.369-.046A.894.894,0,0,0,88.561,31.229Z" transform="translate(-56.637 -24.771)" fill="#fff" stroke="#fff" stroke-width="0.5"/>
        <path id="Trazado_31" data-name="Trazado 31" d="M24.106,40.613a2.2,2.2,0,0,1-1.569-.646,1.681,1.681,0,1,1,0-3.322A2.2,2.2,0,0,1,24.106,36a2.284,2.284,0,0,1,2.307,2.307A2.313,2.313,0,0,1,24.106,40.613ZM22.676,39a.42.42,0,0,1,.369.185,1.379,1.379,0,0,0,1.061.507,1.384,1.384,0,0,0,0-2.768,1.312,1.312,0,0,0-1.061.507.437.437,0,0,1-.507.138.585.585,0,0,0-.277-.046.778.778,0,0,0-.784.784.751.751,0,0,0,.784.784.585.585,0,0,0,.277-.046C22.538,39,22.584,39,22.676,39Z" transform="translate(-20.6 -29.08)" fill="#fff" stroke="#fff" stroke-width="0.5"/>
        <path id="Trazado_32" data-name="Trazado 32" d="M26.575,40.533H21.5V39.61h4.613a6,6,0,0,1,6-5.536,5.694,5.694,0,0,1,1.938.323,9.686,9.686,0,0,1,18.361,3.829H59.79v.923H51.947a.436.436,0,0,1-.461-.461,8.761,8.761,0,0,0-16.792-3.506.458.458,0,0,1-.6.231A4.936,4.936,0,0,0,32.11,35a5.06,5.06,0,0,0-5.075,5.075A.436.436,0,0,1,26.575,40.533Z" transform="translate(-21.085 -25.309)" fill="#fff" stroke="#fff" stroke-width="0.5"/>
        <path id="Trazado_33" data-name="Trazado 33" d="M42.42,77.373H41.036A2.776,2.776,0,0,1,38.268,74.6V54.768a1.851,1.851,0,0,0-1.845-1.845H35.5V52h.923a2.776,2.776,0,0,1,2.768,2.768V74.6a1.851,1.851,0,0,0,1.845,1.845H42.42Z" transform="translate(-28.626 -37.699)" fill="#fff" stroke="#fff" stroke-width="0.5"/>
        <path id="Trazado_34" data-name="Trazado 34" d="M52.42,72.76H51.036a2.776,2.776,0,0,1-2.768-2.768V54.768a1.851,1.851,0,0,0-1.845-1.845H45.5V52h.923a2.776,2.776,0,0,1,2.768,2.768V69.992a1.851,1.851,0,0,0,1.845,1.845H52.42Z" transform="translate(-34.013 -37.699)" fill="#fff" stroke="#fff" stroke-width="0.5"/>
        <path id="Trazado_35" data-name="Trazado 35" d="M62.42,77.373H61.036A2.776,2.776,0,0,1,58.268,74.6V54.768a1.851,1.851,0,0,0-1.845-1.845H55.5V52h.923a2.776,2.776,0,0,1,2.768,2.768V74.6a1.851,1.851,0,0,0,1.845,1.845H62.42Z" transform="translate(-39.4 -37.699)" fill="#fff" stroke="#fff" stroke-width="0.5"/>
        <path id="Trazado_36" data-name="Trazado 36" d="M72.42,71.837H71.036a2.776,2.776,0,0,1-2.768-2.768v-14.3a1.851,1.851,0,0,0-1.845-1.845H65.5V52h.923a2.776,2.776,0,0,1,2.768,2.768v14.3a1.851,1.851,0,0,0,1.845,1.845H72.42Z" transform="translate(-44.787 -37.699)" fill="#fff" stroke="#fff" stroke-width="0.5"/>
        <path id="Trazado_37" data-name="Trazado 37" d="M82.42,77.373H81.036A2.776,2.776,0,0,1,78.268,74.6V54.768a1.851,1.851,0,0,0-1.845-1.845H75.5V52h.923a2.776,2.776,0,0,1,2.768,2.768V74.6a1.851,1.851,0,0,0,1.845,1.845H82.42Z" transform="translate(-50.173 -37.699)" fill="#fff" stroke="#fff" stroke-width="0.5"/>
        <path id="Trazado_38" data-name="Trazado 38" d="M92.42,77.373H91.036A2.776,2.776,0,0,1,88.268,74.6V54.768a1.851,1.851,0,0,0-1.845-1.845H85.5V52h.923a2.776,2.776,0,0,1,2.768,2.768V74.6a1.851,1.851,0,0,0,1.845,1.845H92.42Z" transform="translate(-55.56 -37.699)" fill="#fff" stroke="#fff" stroke-width="0.5"/>
        <path id="Trazado_39" data-name="Trazado 39" d="M86.961,69.613a.436.436,0,0,1-.461-.461V65.461a.461.461,0,0,1,.923,0v3.691A.436.436,0,0,1,86.961,69.613Z" transform="translate(-56.099 -44.702)" fill="#fff" stroke="#fff" stroke-width="0.5"/>
        <path id="Trazado_40" data-name="Trazado 40" d="M46.961,68.691a.436.436,0,0,1-.461-.461V65.461a.461.461,0,1,1,.923,0v2.768A.436.436,0,0,1,46.961,68.691Z" transform="translate(-34.552 -44.702)" fill="#fff" stroke="#fff" stroke-width="0.5"/>
        <path id="Trazado_41" data-name="Trazado 41" d="M56.961,86.845a.436.436,0,0,1-.461-.461v-.923a.461.461,0,1,1,.923,0v.923A.436.436,0,0,1,56.961,86.845Z" transform="translate(-39.938 -55.475)" fill="#fff" stroke="#fff" stroke-width="0.5"/>
        <path id="Trazado_42" data-name="Trazado 42" d="M31.729,27.459a3.229,3.229,0,1,1,3.229-3.229A3.209,3.209,0,0,1,31.729,27.459Zm0-5.536a2.307,2.307,0,1,0,2.307,2.307A2.284,2.284,0,0,0,31.729,21.923Z" transform="translate(-24.856 -21)" fill="#fff" stroke="#fff" stroke-width="0.5"/>
      </g>
    </g>
  </g>
</svg>
