<svg height='100px' width='100px'  fill="#FFC700" xmlns="http://www.w3.org/2000/svg" xmlns:xlink="http://www.w3.org/1999/xlink" version="1.1" x="0px" y="0px" viewBox="0 0 128 128" style="enable-background:new 0 0 128 128;" xml:space="preserve"><path d="M106.5,37h-18c-0.6,0-1-0.4-1-1c0-2.2,1.8-4,4-4c0.3,0,0.7,0,1,0.1c1.4-2.5,4-4.1,7-4.1c4.4,0,8,3.6,8,8  C107.5,36.6,107.1,37,106.5,37z M89.8,35h15.6c-0.5-2.8-2.9-5-5.9-5c-2.5,0-4.7,1.5-5.6,3.8c-0.1,0.3-0.3,0.5-0.6,0.6  c-0.3,0.1-0.6,0.1-0.8-0.1C91.5,33.7,90.3,34.1,89.8,35z"></path><path d="M28.2,46c-1.3,0-2.5-0.5-3.4-1.4c-2.2,0.4-4.2-1.4-4.2-3.6c0-2.2,2-4,4.2-3.6c0.9-0.9,2.1-1.4,3.4-1.4c2.8,0,5,2.2,5,5  S30.9,46,28.2,46z M25.1,42.5c0.3,0,0.6,0.1,0.8,0.4c0.6,0.7,1.4,1.1,2.3,1.1c1.7,0,3-1.3,3-3s-1.3-3-3-3c-0.9,0-1.8,0.4-2.3,1.1  c-0.3,0.3-0.7,0.5-1.1,0.3c-0.2-0.1-0.4-0.1-0.6-0.1c-0.9,0-1.7,0.7-1.7,1.7s0.7,1.7,1.7,1.7c0.2,0,0.4,0,0.6-0.1  C24.8,42.5,24.9,42.5,25.1,42.5z"></path><path d="M32.5,54h-11v-2h10c0.5-6.7,6.1-12,13-12c1.4,0,2.8,0.2,4.2,0.7C52.2,33.6,59.5,29,67.5,29c11.2,0,20.5,8.9,21,20h16v2h-17  c-0.6,0-1-0.4-1-1c0-10.5-8.5-19-19-19c-7.5,0-14.4,4.5-17.4,11.4c-0.2,0.5-0.8,0.7-1.3,0.5C47.4,42.3,46,42,44.5,42  c-6.1,0-11,4.9-11,11C33.5,53.6,33.1,54,32.5,54z"></path><path d="M50.5,107h-3c-3.3,0-6-2.7-6-6V58c0-2.2-1.8-4-4-4h-2v-2h2c3.3,0,6,2.7,6,6v43c0,2.2,1.8,4,4,4h3V107z"></path><path d="M60.5,97h-3c-3.3,0-6-2.7-6-6V58c0-2.2-1.8-4-4-4h-2v-2h2c3.3,0,6,2.7,6,6v33c0,2.2,1.8,4,4,4h3V97z"></path><path d="M70.5,107h-3c-3.3,0-6-2.7-6-6V58c0-2.2-1.8-4-4-4h-2v-2h2c3.3,0,6,2.7,6,6v43c0,2.2,1.8,4,4,4h3V107z"></path><path d="M80.5,95h-3c-3.3,0-6-2.7-6-6V58c0-2.2-1.8-4-4-4h-2v-2h2c3.3,0,6,2.7,6,6v31c0,2.2,1.8,4,4,4h3V95z"></path><path d="M90.5,107h-3c-3.3,0-6-2.7-6-6V58c0-2.2-1.8-4-4-4h-2v-2h2c3.3,0,6,2.7,6,6v43c0,2.2,1.8,4,4,4h3V107z"></path><path d="M100.5,107h-3c-3.3,0-6-2.7-6-6V58c0-2.2-1.8-4-4-4h-2v-2h2c3.3,0,6,2.7,6,6v43c0,2.2,1.8,4,4,4h3V107z"></path><path d="M87.5,75c-0.6,0-1-0.4-1-1v-8c0-0.6,0.4-1,1-1s1,0.4,1,1v8C88.5,74.6,88.1,75,87.5,75z"></path><path d="M47.5,73c-0.6,0-1-0.4-1-1v-6c0-0.6,0.4-1,1-1s1,0.4,1,1v6C48.5,72.6,48.1,73,47.5,73z"></path><path d="M57.5,89c-0.6,0-1-0.4-1-1v-2c0-0.6,0.4-1,1-1s1,0.4,1,1v2C58.5,88.6,58.1,89,57.5,89z"></path><path d="M35.5,35c-3.9,0-7-3.1-7-7s3.1-7,7-7s7,3.1,7,7S39.4,35,35.5,35z M35.5,23c-2.8,0-5,2.2-5,5s2.2,5,5,5s5-2.2,5-5  S38.3,23,35.5,23z"></path></svg>