<svg width="34" height="34" viewBox="0 0 34 34" fill="none" xmlns="http://www.w3.org/2000/svg">
<path fill-rule="evenodd" clip-rule="evenodd" d="M0 17C0 7.61116 7.61116 0 17 0C26.3888 0 34 7.61116 34 17C34 26.3888 26.3888 34 17 34C7.61116 34 0 26.3888 0 17Z" fill="#FFDD00"/>
<mask id="mask0_205_14071" style="mask-type:luminance" maskUnits="userSpaceOnUse" x="0" y="0" width="34" height="34">
<path fill-rule="evenodd" clip-rule="evenodd" d="M0 17C0 7.61116 7.61116 0 17 0C26.3888 0 34 7.61116 34 17C34 26.3888 26.3888 34 17 34C7.61116 34 0 26.3888 0 17Z" fill="white"/>
</mask>
<g mask="url(#mask0_205_14071)">
<path d="M22.8565 23.8V22.2889C22.8565 20.6198 21.5034 19.2667 19.8342 19.2667H13.7898C12.1207 19.2667 10.7676 20.6198 10.7676 22.2889V23.8" stroke="#251863" stroke-width="1.5" stroke-linecap="round" stroke-linejoin="round"/>
<ellipse cx="16.8113" cy="13.2222" rx="3.02222" ry="3.02222" stroke="#251863" stroke-width="1.5" stroke-linecap="round" stroke-linejoin="round"/>
</g>
<path fill-rule="evenodd" clip-rule="evenodd" d="M0 17C0 7.61116 7.61116 0 17 0V0C26.3888 0 34 7.61116 34 17V17C34 26.3888 26.3888 34 17 34V34C7.61116 34 0 26.3888 0 17V17Z" fill="#5D3DC7"/>
<mask id="mask1_205_14071" style="mask-type:luminance" maskUnits="userSpaceOnUse" x="0" y="0" width="34" height="34">
<path fill-rule="evenodd" clip-rule="evenodd" d="M0 17C0 7.61116 7.61116 0 17 0V0C26.3888 0 34 7.61116 34 17V17C34 26.3888 26.3888 34 17 34V34C7.61116 34 0 26.3888 0 17V17Z" fill="white"/>
</mask>
<g mask="url(#mask1_205_14071)">
<path fill-rule="evenodd" clip-rule="evenodd" d="M22.8565 23.8V22.2889C22.8565 20.6198 21.5034 19.2667 19.8342 19.2667H13.7898C12.1207 19.2667 10.7676 20.6198 10.7676 22.2889V23.8" fill="#5D3DC7"/>
<path d="M22.8565 23.8V22.2889C22.8565 20.6198 21.5034 19.2667 19.8342 19.2667H13.7898C12.1207 19.2667 10.7676 20.6198 10.7676 22.2889V23.8" stroke="white" stroke-width="1.5" stroke-linecap="round" stroke-linejoin="round"/>
<ellipse cx="16.8113" cy="13.2222" rx="3.02222" ry="3.02222" stroke="white" stroke-width="1.5" stroke-linecap="round" stroke-linejoin="round"/>
</g>
</svg>
