<svg width="16" height="16" viewBox="0 0 16 16" fill="none" xmlns="http://www.w3.org/2000/svg">
<path d="M2.51443 5.94291H5.25661C5.43851 5.94291 5.61308 5.87058 5.74176 5.74201C5.87033 5.61334 5.94265 5.43876 5.94265 5.25686V2.51469C5.94265 2.33278 5.87033 2.15821 5.74176 2.02954C5.61309 1.90097 5.43851 1.82865 5.25661 1.82865H2.51443C2.33253 1.82865 2.15796 1.90097 2.02928 2.02954C1.90071 2.15821 1.82839 2.33279 1.82839 2.51469V5.25686C1.82839 5.63646 2.13494 5.94291 2.51443 5.94291ZM2.51443 6.97148C1.56812 6.97148 0.799805 6.20416 0.799805 5.25685V2.51468C0.799805 1.56837 1.56712 0.800049 2.51443 0.800049H5.25661C6.20292 0.800049 6.97123 1.56736 6.97123 2.51468V5.25685C6.97123 6.20316 6.20392 6.97148 5.25661 6.97148H2.51443ZM2.51443 14.1715H5.25661C5.43851 14.1715 5.61308 14.0992 5.74176 13.9706C5.87033 13.8419 5.94265 13.6673 5.94265 13.4854V10.7433C5.94265 10.5614 5.87033 10.3868 5.74176 10.2581C5.61309 10.1295 5.43851 10.0572 5.25661 10.0572H2.51443C2.33253 10.0572 2.15796 10.1295 2.02928 10.2581C1.90071 10.3868 1.82839 10.5614 1.82839 10.7433V13.4854C1.82839 13.865 2.13494 14.1715 2.51443 14.1715ZM2.51443 15.2C1.56812 15.2 0.799805 14.4327 0.799805 13.4854V10.7432C0.799805 9.79694 1.56712 9.02862 2.51443 9.02862H5.25661C6.20292 9.02862 6.97123 9.79593 6.97123 10.7432V13.4854C6.97123 14.4317 6.20392 15.2 5.25661 15.2H2.51443ZM10.743 5.94291H13.4852C13.6671 5.94291 13.8417 5.87058 13.9703 5.74201C14.0989 5.61334 14.1712 5.43876 14.1712 5.25686V2.51469C14.1712 2.33278 14.0989 2.15821 13.9703 2.02954C13.8417 1.90097 13.6671 1.82865 13.4852 1.82865H10.743C10.5611 1.82865 10.3865 1.90097 10.2579 2.02954C10.1293 2.15821 10.057 2.33279 10.057 2.51469V5.25686C10.057 5.63646 10.3635 5.94291 10.743 5.94291ZM10.743 6.97148C9.79669 6.97148 9.02838 6.20416 9.02838 5.25685V2.51468C9.02838 1.56837 9.79569 0.800049 10.743 0.800049H13.4852C14.4315 0.800049 15.1998 1.56736 15.1998 2.51468V5.25685C15.1998 6.20316 14.4325 6.97148 13.4852 6.97148H10.743ZM10.743 14.1715H13.4852C13.6671 14.1715 13.8417 14.0992 13.9703 13.9706C14.0989 13.8419 14.1712 13.6673 14.1712 13.4854V10.7433C14.1712 10.5614 14.0989 10.3868 13.9703 10.2581C13.8417 10.1295 13.6671 10.0572 13.4852 10.0572H10.743C10.5611 10.0572 10.3865 10.1295 10.2579 10.2581C10.1293 10.3868 10.057 10.5614 10.057 10.7433V13.4854C10.057 13.865 10.3635 14.1715 10.743 14.1715ZM10.743 15.2C9.79669 15.2 9.02838 14.4327 9.02838 13.4854V10.7432C9.02838 9.79694 9.79569 9.02862 10.743 9.02862H13.4852C14.4315 9.02862 15.1998 9.79593 15.1998 10.7432V13.4854C15.1998 14.4317 14.4325 15.2 13.4852 15.2H10.743Z" fill="#928BB1" stroke="#928BB1" stroke-width="0.1"/>
</svg>
