<svg width="24" height="24" viewBox="0 0 24 24" fill="none" xmlns="http://www.w3.org/2000/svg">
<path d="M11.5485 2.9V2.89993L11.5448 2.90007C11.4648 2.90306 11.3922 2.92665 11.3402 2.96654L11.3402 2.96652L11.3385 2.9679L4.02604 8.83703L4.02603 8.83702L4.02477 8.83807C3.94404 8.90508 3.89743 9.00999 3.90011 9.11514V19.8738C3.90011 20.0537 4.0539 20.2184 4.23606 20.2184H9.18966C9.37194 20.2184 9.52538 20.0536 9.52561 19.874V19.8738V13.8602H13.5716V19.8738C13.5716 20.0537 13.7253 20.2184 13.9075 20.2184H18.8611C19.0434 20.2184 19.1969 20.0536 19.1969 19.8738V9.11513C19.1996 9.01013 19.1532 8.90516 19.0724 8.83807L19.0724 8.83806L19.0711 8.83703L11.7587 2.9679L11.7587 2.9679L11.7579 2.96729C11.7225 2.93947 11.6891 2.92248 11.6512 2.913C11.625 2.90647 11.5962 2.9039 11.5727 2.9018C11.5677 2.90135 11.5629 2.90092 11.5585 2.90048L11.5585 2.9H11.5487H11.5485ZM18.5251 9.28398V19.5293H14.2433V13.5156C14.2433 13.3357 14.0895 13.171 13.9073 13.171H9.18959C9.00732 13.171 8.85387 13.3358 8.85364 13.5155V13.5156V19.5293H4.57181V9.28398L11.5485 3.6786L18.5251 9.28398Z" fill="#251863" stroke="#251863" stroke-width="0.2"/>
</svg>
