<svg width="16" height="16" viewBox="0 0 16 16" fill="none" xmlns="http://www.w3.org/2000/svg">
<path d="M12.1164 1C11.3791 1 10.6415 1.28005 10.0797 1.84165L8.30093 3.62029C7.73444 4.18652 7.45389 4.93298 7.45927 5.67395V6.02738C7.45664 6.21713 7.6286 6.39159 7.81835 6.39159C8.0081 6.39159 8.18018 6.21712 8.17742 6.02738V5.66831C8.17329 5.1116 8.3832 4.55887 8.8114 4.13092L10.5902 2.35216C11.4411 1.50175 12.7973 1.50175 13.6482 2.35216C14.4991 3.20257 14.4991 4.55412 13.6482 5.40453L11.8695 7.18329C11.4444 7.60812 10.89 7.82291 10.3378 7.82291H9.97308C9.78333 7.82028 9.60888 7.99224 9.60888 8.18199C9.60888 8.37173 9.78334 8.54382 9.97308 8.54106H10.3378C11.074 8.54106 11.8123 8.25575 12.3745 7.69376L14.1533 5.91513C15.277 4.79206 15.277 2.9646 14.1533 1.84153C13.5915 1.28004 12.8537 1 12.1164 1ZM10.1077 5.48305C10.0293 5.49432 9.95507 5.53252 9.90008 5.58963L5.59082 9.8989C5.45279 10.0302 5.44904 10.2763 5.58292 10.4117C5.71681 10.547 5.96303 10.5459 6.0958 10.4095L10.4051 6.10026C10.5155 5.99655 10.5485 5.81908 10.4827 5.68257C10.417 5.54605 10.2577 5.46126 10.1077 5.48305ZM5.65804 7.46368C4.92184 7.46368 4.18352 7.74335 3.6213 8.30533L1.84254 10.0841C0.718828 11.2072 0.718828 13.0346 1.84254 14.1577C2.96625 15.2808 4.79246 15.2808 5.91615 14.1577L7.69491 12.3789C8.26139 11.8127 8.54195 11.0662 8.53656 10.3253V9.97745C8.53919 9.7877 8.36723 9.61325 8.17749 9.61325C7.98774 9.61325 7.81565 9.78771 7.81841 9.97745V10.3309C7.82255 10.8876 7.61263 11.4403 7.18443 11.8683L5.40557 13.647C4.55465 14.4974 3.19848 14.4974 2.34756 13.647C1.49664 12.7966 1.49664 11.4451 2.34756 10.5947L4.12632 8.8159C4.55142 8.39107 5.10588 8.18192 5.65807 8.18192H6.02279C6.21254 8.18455 6.38699 8.01259 6.38699 7.82285C6.38699 7.6331 6.21252 7.46102 6.02279 7.46377L5.65804 7.46368Z" fill="#928BB1" stroke="#928BB1" stroke-width="0.2"/>
</svg>
