<svg width="14" height="12" viewBox="0 0 14 12" fill="none" xmlns="http://www.w3.org/2000/svg">
<path d="M0.999756 6.95698C0.627592 6.95698 0.249756 6.5745 0.249756 6.00009C0.249756 5.42568 0.627592 5.04319 0.999756 5.04319H12.9998C13.3719 5.04319 13.7498 5.42568 13.7498 6.00009C13.7498 6.5745 13.3719 6.95698 12.9998 6.95698H0.999756ZM0.999756 11.75C0.627551 11.75 0.249756 11.3678 0.249756 10.7931C0.249756 10.2187 0.627592 9.83621 0.999756 9.83621H12.9998C13.3719 9.83621 13.7498 10.2187 13.7498 10.7931C13.7498 11.3678 13.372 11.75 12.9998 11.75H0.999756ZM0.999756 2.16379C0.627592 2.16379 0.249756 1.78131 0.249756 1.2069C0.249756 0.632198 0.627551 0.25 0.999756 0.25H12.9998C13.372 0.25 13.7498 0.632198 13.7498 1.2069C13.7498 1.78131 13.3719 2.16379 12.9998 2.16379H0.999756Z" fill="#928BB1" stroke="white" stroke-width="0.5"/>
</svg>
