<svg width="13" height="13" viewBox="0 0 13 13" fill="none" xmlns="http://www.w3.org/2000/svg">
<path fill-rule="evenodd" clip-rule="evenodd" d="M9.71551 8.95143L12.8408 12.0767C13.0531 12.2863 13.0531 12.6312 12.8408 12.8408C12.6286 13.0531 12.2863 13.0531 12.0741 12.8408L8.94878 9.71816C8.00429 10.4929 6.79714 10.9571 5.47857 10.9571C2.45143 10.9571 0 8.50306 0 5.47857C0 2.45408 2.45143 0 5.47857 0C8.50306 0 10.9571 2.45408 10.9571 5.47857C10.9571 6.79714 10.4902 8.00694 9.71551 8.95143ZM1.08789 5.47858C1.08789 7.89818 3.05646 9.86675 5.47871 9.86675C7.8983 9.86675 9.86952 7.89818 9.86952 5.47858C9.86952 3.05899 7.8983 1.08777 5.47871 1.08777C3.05646 1.08777 1.08789 3.05899 1.08789 5.47858Z" fill="#928BB1"/>
</svg>
