<?xml version="1.0" encoding="utf-8"?>
<!-- Generator: Adobe Illustrator 24.0.0, SVG Export Plug-In . SVG Version: 6.00 Build 0)  -->
<svg version="1.1" id="Capa_1" xmlns="http://www.w3.org/2000/svg" xmlns:xlink="http://www.w3.org/1999/xlink" x="0px" y="0px"
	 viewBox="0 0 48 48" style="enable-background:new 0 0 48 48;" xml:space="preserve">
<style type="text/css">
	.st0{fill:none;stroke:#0F0505;stroke-width:3;stroke-miterlimit:10;}
</style>
<path id="overlay" class="st0" d="M5.6,4.9V1.7h-2v6.7H3.3v3.7h2.5V31l-0.2,3.7h4.9v1.7c-0.1,0.1-0.2,0.2-0.2,0.3s0.2,0.3,0.2,0.4
	c0,0.1,0,0.5,0,1c-0.1,1.2-0.2,1.9-0.2,2.1s0.1,0.9,0.2,2h4.7l0.1,4.7h8.5v-2h12.1v-8.4h8.7l0.1-28.2H17V1h-2.3l-0.1,0.7h-2.4v0.6
	h-1v1.8h-0.9V2.3h-1v2.1L9.1,4.7h-2L5.6,4.9z"/>
</svg>
