<svg width="22" height="20" viewBox="0 0 22 20" fill="none" xmlns="http://www.w3.org/2000/svg">
<g opacity="0.5">
<path d="M2.09521 6.11235L13.132 6.11235V3.92188L2.09521 3.92188C1.49037 3.92188 1 4.41225 1 5.01709C1 5.62193 1.49037 6.11235 2.09521 6.11235Z" fill="#29C499" stroke="white"/>
<path d="M2.09521 10.5069L13.132 10.5069V8.31641L2.09521 8.31641C1.49037 8.31641 1 8.80678 1 9.41166C1 10.0165 1.49037 10.5069 2.09521 10.5069Z" fill="#29C499" stroke="white"/>
<path d="M2.09521 12.7109V12.711C1.49037 12.711 1 13.2013 1 13.8062C1 14.4111 1.49037 14.9014 2.09521 14.9014H9.76279C9.67617 14.6347 9.63044 14.3533 9.63044 14.0647C9.63044 13.5814 9.75717 13.1178 9.99387 12.7109L2.09521 12.7109V12.7109Z" fill="#29C499" stroke="white"/>
<path d="M20.313 13.0858C19.7722 12.5449 18.8952 12.5449 18.3543 13.0858L17.2171 14.223V2.38501C17.2171 1.62006 16.597 1 15.832 1C15.067 1 14.4469 1.6201 14.4469 2.38501L14.4469 14.223L13.3097 13.0858C12.7688 12.5449 11.8919 12.5449 11.351 13.0858C10.8101 13.6267 10.8101 14.5036 11.351 15.0445L14.8524 18.5459C15.3922 19.0859 16.2703 19.0878 16.8116 18.5459L20.313 15.0445C20.8539 14.5036 20.8539 13.6267 20.313 13.0858Z" fill="#29C499" stroke="white" stroke-width="1.5"/>
</g>
</svg>
