<svg width="18" height="18" viewBox="0 0 18 18" fill="none" xmlns="http://www.w3.org/2000/svg">
<g opacity="0.5">
<path d="M1.88869 5.55573H10.8443V3.60339H1.88869C1.3979 3.60339 1 4.04045 1 4.57954C1 5.11863 1.3979 5.55573 1.88869 5.55573Z" fill="#11093C" stroke="white"/>
<path d="M1.88869 9.47296H10.8443V7.52063H1.88869C1.3979 7.52063 1 7.95769 1 8.49682C1 9.03594 1.3979 9.47296 1.88869 9.47296Z" fill="#11093C" stroke="white"/>
<path d="M1.88869 11.4381V11.4381C1.3979 11.4381 1 11.8752 1 12.4143C1 12.9534 1.3979 13.3904 1.88869 13.3904H8.11038C8.04009 13.1527 8.00299 12.9019 8.00299 12.6447C8.00299 12.2139 8.10582 11.8008 8.29789 11.4381H1.88869V11.4381Z" fill="#11093C" stroke="white"/>
<path d="M16.6708 11.7719C16.2319 11.2898 15.5203 11.2898 15.0814 11.7719L14.1587 12.7855V2.23444C14.1587 1.55265 13.6555 1 13.0348 1C12.4141 1 11.9109 1.55269 11.9109 2.23444V12.7855L10.9881 11.7719C10.5492 11.2898 9.83766 11.2898 9.39876 11.7719C8.95985 12.254 8.95985 13.0356 9.39876 13.5177L12.2399 16.6384C12.6779 17.1197 13.3904 17.1214 13.8296 16.6384L16.6708 13.5177C17.1097 13.0356 17.1097 12.254 16.6708 11.7719Z" fill="#11093C" stroke="white" stroke-width="1.5"/>
</g>
</svg>
