<svg width="16" height="16" viewBox="0 0 16 16" fill="none" xmlns="http://www.w3.org/2000/svg">
<path fill-rule="evenodd" clip-rule="evenodd" d="M3.41643 3.91672H1.58333C1.26116 3.91672 1 3.65556 1 3.3334C1 3.01124 1.26116 2.75007 1.58333 2.75007H3.41643C3.6779 1.7207 4.60455 1 5.66661 1C6.72868 1 7.65532 1.7207 7.91679 2.75007H14.4165C14.7387 2.75007 14.9998 3.01124 14.9998 3.3334C14.9998 3.65556 14.7387 3.91672 14.4165 3.91672H7.91679C7.65532 4.9461 6.72868 5.6668 5.66661 5.6668C4.60455 5.6668 3.6779 4.9461 3.41643 3.91672ZM6.83331 3.33342C6.83331 2.68909 6.31098 2.16676 5.66666 2.16676C5.02233 2.16676 4.50001 2.68909 4.50001 3.33342C4.50001 3.97774 5.02233 4.50007 5.66666 4.50007C6.31098 4.50007 6.83331 3.97774 6.83331 3.33342Z" fill="#928BB1"/>
<path d="M3.41643 3.91672L3.51335 3.89211L3.4942 3.81672H3.41643V3.91672ZM3.41643 2.75007V2.85007H3.4942L3.51335 2.77469L3.41643 2.75007ZM7.91679 2.75007L7.81987 2.77469L7.83902 2.85007H7.91679V2.75007ZM7.91679 3.91672V3.81672H7.83902L7.81987 3.89211L7.91679 3.91672ZM1.58333 4.01672H3.41643V3.81672H1.58333V4.01672ZM0.9 3.3334C0.9 3.71079 1.20594 4.01672 1.58333 4.01672V3.81672C1.31639 3.81672 1.1 3.60033 1.1 3.3334H0.9ZM1.58333 2.65007C1.20594 2.65007 0.9 2.95601 0.9 3.3334H1.1C1.1 3.06646 1.31639 2.85007 1.58333 2.85007V2.65007ZM3.41643 2.65007H1.58333V2.85007H3.41643V2.65007ZM5.66661 0.9C4.5588 0.9 3.59224 1.65174 3.31951 2.72545L3.51335 2.77469C3.76356 1.78965 4.6503 1.1 5.66661 1.1V0.9ZM8.01372 2.72545C7.74098 1.65174 6.77442 0.9 5.66661 0.9V1.1C6.68293 1.1 7.56966 1.78965 7.81987 2.77469L8.01372 2.72545ZM14.4165 2.65007H7.91679V2.85007H14.4165V2.65007ZM15.0998 3.3334C15.0998 2.95601 14.7939 2.65007 14.4165 2.65007V2.85007C14.6834 2.85007 14.8998 3.06646 14.8998 3.3334H15.0998ZM14.4165 4.01672C14.7939 4.01672 15.0998 3.71079 15.0998 3.3334H14.8998C14.8998 3.60033 14.6834 3.81672 14.4165 3.81672V4.01672ZM7.91679 4.01672H14.4165V3.81672H7.91679V4.01672ZM5.66661 5.7668C6.77442 5.7668 7.74098 5.01506 8.01372 3.94134L7.81987 3.89211C7.56966 4.87714 6.68293 5.5668 5.66661 5.5668V5.7668ZM3.31951 3.94134C3.59224 5.01506 4.5588 5.7668 5.66661 5.7668V5.5668C4.6503 5.5668 3.76356 4.87714 3.51335 3.89211L3.31951 3.94134ZM5.66666 2.26676C6.25575 2.26676 6.73331 2.74432 6.73331 3.33342H6.93331C6.93331 2.63386 6.36621 2.06676 5.66666 2.06676V2.26676ZM4.6 3.33342C4.6 2.74432 5.07756 2.26676 5.66666 2.26676V2.06676C4.96711 2.06676 4.40001 2.63386 4.40001 3.33342H4.6ZM5.66666 4.40007C5.07756 4.40007 4.6 3.92251 4.6 3.33342H4.40001C4.40001 4.03297 4.96711 4.60007 5.66666 4.60007V4.40007ZM6.73331 3.33342C6.73331 3.92251 6.25575 4.40007 5.66666 4.40007V4.60007C6.36621 4.60007 6.93331 4.03297 6.93331 3.33342H6.73331Z" fill="white"/>
<path fill-rule="evenodd" clip-rule="evenodd" d="M8.08304 8.58323H1.58333C1.26116 8.58323 1 8.32206 1 7.9999C1 7.67774 1.26116 7.41657 1.58333 7.41657H8.08304C8.34451 6.3872 9.27116 5.6665 10.3332 5.6665C11.3953 5.6665 12.3219 6.3872 12.5834 7.41657H14.4165C14.7387 7.41657 14.9998 7.67774 14.9998 7.9999C14.9998 8.32206 14.7387 8.58323 14.4165 8.58323H12.5834C12.3219 9.6126 11.3953 10.3333 10.3332 10.3333C9.27116 10.3333 8.34451 9.6126 8.08304 8.58323ZM11.5003 7.99991C11.5003 7.35558 10.978 6.83325 10.3336 6.83325C9.68932 6.83325 9.16699 7.35558 9.16699 7.99991C9.16699 8.64423 9.68932 9.16656 10.3336 9.16656C10.978 9.16656 11.5003 8.64423 11.5003 7.99991Z" fill="#928BB1"/>
<path d="M8.08304 8.58323L8.17997 8.55861L8.16082 8.48323H8.08304V8.58323ZM8.08304 7.41657V7.51657H8.16082L8.17997 7.44119L8.08304 7.41657ZM12.5834 7.41657L12.4865 7.44119L12.5056 7.51657H12.5834V7.41657ZM12.5834 8.58323V8.48323H12.5056L12.4865 8.55861L12.5834 8.58323ZM1.58333 8.68323H8.08304V8.48323H1.58333V8.68323ZM0.9 7.9999C0.9 8.37729 1.20594 8.68323 1.58333 8.68323V8.48323C1.31639 8.48323 1.1 8.26684 1.1 7.9999H0.9ZM1.58333 7.31657C1.20594 7.31657 0.9 7.62251 0.9 7.9999H1.1C1.1 7.73297 1.31639 7.51657 1.58333 7.51657V7.31657ZM8.08304 7.31657H1.58333V7.51657H8.08304V7.31657ZM10.3332 5.5665C9.22542 5.5665 8.25885 6.31824 7.98612 7.39196L8.17997 7.44119C8.43017 6.45616 9.31691 5.7665 10.3332 5.7665V5.5665ZM12.6803 7.39196C12.4076 6.31824 11.441 5.5665 10.3332 5.5665V5.7665C11.3495 5.7665 12.2363 6.45616 12.4865 7.44119L12.6803 7.39196ZM14.4165 7.31657H12.5834V7.51657H14.4165V7.31657ZM15.0998 7.9999C15.0998 7.62251 14.7939 7.31657 14.4165 7.31657V7.51657C14.6834 7.51657 14.8998 7.73297 14.8998 7.9999H15.0998ZM14.4165 8.68323C14.7939 8.68323 15.0998 8.37729 15.0998 7.9999H14.8998C14.8998 8.26684 14.6834 8.48323 14.4165 8.48323V8.68323ZM12.5834 8.68323H14.4165V8.48323H12.5834V8.68323ZM10.3332 10.4333C11.441 10.4333 12.4076 9.68156 12.6803 8.60785L12.4865 8.55861C12.2363 9.54364 11.3495 10.2333 10.3332 10.2333V10.4333ZM7.98612 8.60785C8.25885 9.68156 9.22542 10.4333 10.3332 10.4333V10.2333C9.31691 10.2333 8.43017 9.54364 8.17997 8.55861L7.98612 8.60785ZM10.3336 6.93325C10.9227 6.93325 11.4003 7.41081 11.4003 7.99991H11.6003C11.6003 7.30035 11.0332 6.73325 10.3336 6.73325V6.93325ZM9.26699 7.99991C9.26699 7.41081 9.74455 6.93325 10.3336 6.93325V6.73325C9.63409 6.73325 9.06699 7.30035 9.06699 7.99991H9.26699ZM10.3336 9.06656C9.74455 9.06656 9.26699 8.589 9.26699 7.99991H9.06699C9.06699 8.69946 9.63409 9.26656 10.3336 9.26656V9.06656ZM11.4003 7.99991C11.4003 8.589 10.9227 9.06656 10.3336 9.06656V9.26656C11.0332 9.26656 11.6003 8.69946 11.6003 7.99991H11.4003Z" fill="white"/>
<path fill-rule="evenodd" clip-rule="evenodd" d="M3.41643 13.25H1.58333C1.26116 13.25 1 12.9888 1 12.6666C1 12.3445 1.26116 12.0833 1.58333 12.0833H3.41643C3.6779 11.0539 4.60455 10.3333 5.66661 10.3333C6.72868 10.3333 7.65532 11.0539 7.91679 12.0833H14.4165C14.7387 12.0833 14.9998 12.3445 14.9998 12.6666C14.9998 12.9888 14.7387 13.25 14.4165 13.25H7.91679C7.65532 14.2793 6.72868 15 5.66661 15C4.60455 15 3.6779 14.2793 3.41643 13.25ZM6.83331 12.6667C6.83331 12.0224 6.31098 11.5 5.66666 11.5C5.02233 11.5 4.50001 12.0224 4.50001 12.6667C4.50001 13.311 5.02233 13.8333 5.66666 13.8333C6.31098 13.8333 6.83331 13.311 6.83331 12.6667Z" fill="#928BB1"/>
<path d="M3.41643 13.25L3.51335 13.2254L3.4942 13.15H3.41643V13.25ZM3.41643 12.0833V12.1833H3.4942L3.51335 12.1079L3.41643 12.0833ZM7.91679 12.0833L7.81987 12.1079L7.83902 12.1833H7.91679V12.0833ZM7.91679 13.25V13.15H7.83902L7.81987 13.2254L7.91679 13.25ZM1.58333 13.35H3.41643V13.15H1.58333V13.35ZM0.9 12.6666C0.9 13.044 1.20594 13.35 1.58333 13.35V13.15C1.31639 13.15 1.1 12.9336 1.1 12.6666H0.9ZM1.58333 11.9833C1.20594 11.9833 0.9 12.2893 0.9 12.6666H1.1C1.1 12.3997 1.31639 12.1833 1.58333 12.1833V11.9833ZM3.41643 11.9833H1.58333V12.1833H3.41643V11.9833ZM5.66661 10.2333C4.5588 10.2333 3.59224 10.985 3.31951 12.0587L3.51335 12.1079C3.76356 11.1229 4.6503 10.4333 5.66661 10.4333V10.2333ZM8.01372 12.0587C7.74098 10.985 6.77442 10.2333 5.66661 10.2333V10.4333C6.68293 10.4333 7.56966 11.1229 7.81987 12.1079L8.01372 12.0587ZM14.4165 11.9833H7.91679V12.1833H14.4165V11.9833ZM15.0998 12.6666C15.0998 12.2893 14.7939 11.9833 14.4165 11.9833V12.1833C14.6834 12.1833 14.8998 12.3997 14.8998 12.6666H15.0998ZM14.4165 13.35C14.7939 13.35 15.0998 13.044 15.0998 12.6666H14.8998C14.8998 12.9336 14.6834 13.15 14.4165 13.15V13.35ZM7.91679 13.35H14.4165V13.15H7.91679V13.35ZM5.66661 15.1C6.77442 15.1 7.74098 14.3483 8.01372 13.2746L7.81987 13.2254C7.56966 14.2104 6.68293 14.9 5.66661 14.9V15.1ZM3.31951 13.2746C3.59224 14.3483 4.5588 15.1 5.66661 15.1V14.9C4.6503 14.9 3.76356 14.2104 3.51335 13.2254L3.31951 13.2746ZM5.66666 11.6C6.25575 11.6 6.73331 12.0776 6.73331 12.6667H6.93331C6.93331 11.9671 6.36621 11.4 5.66666 11.4V11.6ZM4.6 12.6667C4.6 12.0776 5.07756 11.6 5.66666 11.6V11.4C4.96711 11.4 4.40001 11.9671 4.40001 12.6667H4.6ZM5.66666 13.7333C5.07756 13.7333 4.6 13.2558 4.6 12.6667H4.40001C4.40001 13.3662 4.96711 13.9333 5.66666 13.9333V13.7333ZM6.73331 12.6667C6.73331 13.2558 6.25575 13.7333 5.66666 13.7333V13.9333C6.36621 13.9333 6.93331 13.3662 6.93331 12.6667H6.73331Z" fill="white"/>
</svg>
