<svg width="30" height="28" viewBox="0 0 30 28" fill="none" xmlns="http://www.w3.org/2000/svg">
<g filter="url(#filter0_d_3693_172909)">
<path fill-rule="evenodd" clip-rule="evenodd" d="M19.6293 3C21.0159 3 22.3484 3.56905 23.3802 4.60194C24.0757 5.29696 25.206 6.82332 24.9675 9.23217C24.7164 11.7699 22.8195 15.86 15.2059 20.9378C15.143 20.98 15.0718 21 15 21C14.9282 21 14.857 20.9793 14.7948 20.9378C7.18197 15.8607 5.28431 11.7699 5.03248 9.23217C4.79397 6.82332 5.92427 5.29696 6.61904 4.60194C7.65157 3.56905 8.98408 3 10.3707 3C12.1765 3 13.8704 3.96176 15 5.60075C16.1296 3.96176 17.8235 3 19.6293 3ZM14.9993 20.1835C22.2003 15.3324 23.9957 11.515 24.2291 9.15881C24.4379 7.05302 23.458 5.72819 22.8551 5.1258C21.964 4.23295 20.8182 3.74095 19.6293 3.74095C17.9124 3.74095 16.3014 4.76495 15.3215 6.48026C15.1896 6.71144 14.8104 6.71144 14.6785 6.48026C13.6986 4.76569 12.0883 3.74095 10.3707 3.74095C9.18185 3.74095 8.03525 4.23295 7.14272 5.1258C6.54053 5.72819 5.56133 7.05376 5.76947 9.15881C6.00279 11.515 7.79897 15.3324 14.9993 20.1835Z" fill="#E7E7E7"/>
<path d="M23.3802 4.60194L23.2387 4.74329L23.2388 4.74341L23.3802 4.60194ZM24.9675 9.23217L24.7685 9.21246L24.7685 9.21247L24.9675 9.23217ZM15.2059 20.9378L15.0949 20.7714L15.0945 20.7717L15.2059 20.9378ZM14.7948 20.9378L14.9058 20.7714H14.9058L14.7948 20.9378ZM5.03248 9.23217L4.83345 9.25187L4.83346 9.25192L5.03248 9.23217ZM6.61904 4.60194L6.4776 4.46055L6.61904 4.60194ZM15 5.60075L14.8353 5.71424L15 5.95319L15.1647 5.71424L15 5.60075ZM24.2291 9.15881L24.03 9.13907L24.03 9.1391L24.2291 9.15881ZM14.9993 20.1835L14.8875 20.3493L14.9993 20.4246L15.111 20.3493L14.9993 20.1835ZM22.8551 5.1258L22.7135 5.26708L22.7137 5.26728L22.8551 5.1258ZM15.3215 6.48026L15.1478 6.38105L15.1477 6.38118L15.3215 6.48026ZM14.6785 6.48026L14.8523 6.38118L14.8522 6.38102L14.6785 6.48026ZM7.14272 5.1258L7.00127 4.9844L7.14272 5.1258ZM5.76947 9.15881L5.57044 9.17849L5.57044 9.17852L5.76947 9.15881ZM23.5217 4.4606C22.4546 3.39236 21.072 2.8 19.6293 2.8V3.2C20.9598 3.2 22.2422 3.74575 23.2387 4.74329L23.5217 4.4606ZM25.1665 9.25187C25.4129 6.76382 24.2433 5.18167 23.5216 4.46047L23.2388 4.74341C23.9081 5.41224 24.9992 6.88282 24.7685 9.21246L25.1665 9.25187ZM15.3169 21.1041C22.9546 16.0103 24.9071 11.8743 25.1666 9.25186L24.7685 9.21247C24.5258 11.6655 22.6844 15.7097 15.0949 20.7714L15.3169 21.1041ZM15 21.2C15.1096 21.2 15.2199 21.1692 15.3173 21.1038L15.0945 20.7717C15.0661 20.7907 15.0341 20.8 15 20.8V21.2ZM14.6839 21.1042C14.7795 21.1679 14.8893 21.2 15 21.2V20.8C14.967 20.8 14.9346 20.7906 14.9058 20.7714L14.6839 21.1042ZM4.83346 9.25192C5.09369 11.8744 7.04683 16.011 14.6839 21.1042L14.9058 20.7714C7.31712 15.7105 5.47493 11.6655 5.2315 9.21242L4.83346 9.25192ZM6.4776 4.46055C5.7567 5.1817 4.5871 6.76382 4.83345 9.25187L5.2315 9.21246C5.00084 6.88282 6.09185 5.41222 6.76049 4.74334L6.4776 4.46055ZM10.3707 2.8C8.92795 2.8 7.54541 3.39236 6.4776 4.46055L6.76049 4.74334C7.75774 3.74574 9.04021 3.2 10.3707 3.2V2.8ZM15.1647 5.48726C14.003 3.80159 12.2509 2.8 10.3707 2.8V3.2C12.1021 3.2 13.7379 4.12192 14.8353 5.71424L15.1647 5.48726ZM19.6293 2.8C17.7491 2.8 15.997 3.80159 14.8353 5.48726L15.1647 5.71424C16.2621 4.12192 17.8979 3.2 19.6293 3.2V2.8ZM24.03 9.1391C23.8052 11.4098 22.0663 15.1816 14.8875 20.0176L15.111 20.3493C22.3343 15.4833 24.1863 11.6203 24.4281 9.17852L24.03 9.1391ZM22.7137 5.26728C23.29 5.84307 24.2311 7.11208 24.03 9.13907L24.4281 9.17855C24.6448 6.99396 23.626 5.61331 22.9964 4.98431L22.7137 5.26728ZM19.6293 3.94095C20.7615 3.94095 21.8574 4.40926 22.7135 5.26708L22.9966 4.98452C22.0706 4.05663 20.8748 3.54095 19.6293 3.54095V3.94095ZM15.4951 6.57947C16.4459 4.91528 17.9962 3.94095 19.6293 3.94095V3.54095C17.8286 3.54095 16.1569 4.61462 15.1478 6.38105L15.4951 6.57947ZM14.5048 6.57934C14.6138 6.77038 14.8168 6.85365 15 6.85365C15.1832 6.85365 15.3862 6.77038 15.4952 6.57934L15.1477 6.38118C15.1248 6.42132 15.0723 6.45365 15 6.45365C14.9277 6.45365 14.8752 6.42132 14.8523 6.38118L14.5048 6.57934ZM10.3707 3.94095C12.0045 3.94095 13.5541 4.91597 14.5049 6.5795L14.8522 6.38102C13.8431 4.61542 12.1722 3.54095 10.3707 3.54095V3.94095ZM7.28416 5.26719C8.14178 4.40928 9.23846 3.94095 10.3707 3.94095V3.54095C9.12524 3.54095 7.92873 4.05662 7.00127 4.9844L7.28416 5.26719ZM5.9685 9.13913C5.76814 7.11279 6.70858 5.84298 7.28416 5.26719L7.00127 4.9844C6.37249 5.6134 5.35452 6.99474 5.57044 9.17849L5.9685 9.13913ZM15.111 20.0176C7.93295 15.1816 6.19334 11.4097 5.9685 9.1391L5.57044 9.17852C5.81224 11.6203 7.66499 15.4833 14.8875 20.3493L15.111 20.0176Z" fill="#E7E7E7"/>
</g>
<defs>
<filter id="filter0_d_3693_172909" x="0.796875" y="0.799805" width="28.4062" height="26.4004" filterUnits="userSpaceOnUse" color-interpolation-filters="sRGB">
<feFlood flood-opacity="0" result="BackgroundImageFix"/>
<feColorMatrix in="SourceAlpha" type="matrix" values="0 0 0 0 0 0 0 0 0 0 0 0 0 0 0 0 0 0 127 0" result="hardAlpha"/>
<feOffset dy="2"/>
<feGaussianBlur stdDeviation="2"/>
<feColorMatrix type="matrix" values="0 0 0 0 0 0 0 0 0 0 0 0 0 0 0 0 0 0 0.5 0"/>
<feBlend mode="normal" in2="BackgroundImageFix" result="effect1_dropShadow_3693_172909"/>
<feBlend mode="normal" in="SourceGraphic" in2="effect1_dropShadow_3693_172909" result="shape"/>
</filter>
</defs>
</svg>
