<svg width="11" height="14" viewBox="0 0 11 14" fill="none" xmlns="http://www.w3.org/2000/svg">
<path d="M9.5625 2.47925H8.52188V3.398H9.52031V13.0084H0.871875V3.398H1.82812V2.47925H0.84375C0.379688 2.47925 0 2.873 0 3.35425V13.0522C0 13.5334 0.379688 13.9272 0.84375 13.9272H9.5625C10.0266 13.9272 10.4062 13.5334 10.4062 13.0522V3.35425C10.4062 2.873 10.0266 2.47925 9.5625 2.47925Z" fill="#928BB1"/>
<path d="M2.81203 6.825C2.85422 6.88333 2.91047 6.9125 2.98078 6.9125C3.0511 6.9125 3.10735 6.88333 3.14953 6.83958L4.2886 5.46875C4.35891 5.38125 4.35891 5.23542 4.27453 5.14792L4.11985 4.9875C4.03547 4.9 3.89485 4.9 3.81047 4.9875L2.98078 5.84792L2.61516 5.46875C2.53078 5.39583 2.39016 5.39583 2.30578 5.48333L2.1511 5.64375C2.06672 5.73125 2.06672 5.8625 2.13703 5.95L2.81203 6.825Z" fill="#928BB1"/>
<path d="M5.03442 5.86243V6.28535C5.03442 6.38743 5.1188 6.47493 5.21724 6.47493H8.1563C8.25474 6.47493 8.33911 6.38743 8.33911 6.28535V5.86243C8.33911 5.76035 8.25474 5.67285 8.1563 5.67285H5.21724C5.1188 5.67285 5.03442 5.76035 5.03442 5.86243Z" fill="#928BB1"/>
<path d="M2.79817 9.1876C2.84035 9.24593 2.8966 9.2751 2.96692 9.2751C3.03723 9.2751 3.09348 9.24593 3.13567 9.1876L4.30285 7.7876C4.37317 7.7001 4.37317 7.55426 4.28879 7.46676L4.1341 7.30635C4.04973 7.21885 3.89504 7.21885 3.81067 7.30635L2.95285 8.19593L2.58723 7.81676C2.50285 7.72926 2.34817 7.72926 2.26379 7.81676L2.1091 7.97718C2.02473 8.06468 2.02473 8.19593 2.09504 8.28343L2.79817 9.1876Z" fill="#928BB1"/>
<path d="M8.33911 8.21034C8.33911 8.10825 8.25474 8.02075 8.1563 8.02075H5.21724C5.1188 8.02075 5.03442 8.10825 5.03442 8.21034V8.63325C5.03442 8.73534 5.1188 8.82284 5.21724 8.82284H8.1563C8.25474 8.82284 8.33911 8.73534 8.33911 8.63325V8.21034Z" fill="#928BB1"/>
<path d="M2.79817 11.5353C2.84035 11.5936 2.8966 11.6228 2.96692 11.6228C3.03723 11.6228 3.09348 11.5936 3.13567 11.5353L4.30285 10.1353C4.37317 10.0478 4.37317 9.90192 4.28879 9.81442L4.1341 9.654C4.04973 9.5665 3.89504 9.5665 3.81067 9.654L2.95285 10.5436L2.58723 10.1644C2.50285 10.0769 2.36223 10.0769 2.26379 10.1644L2.1091 10.3248C2.02473 10.4123 2.02473 10.5436 2.09504 10.6311L2.79817 11.5353Z" fill="#928BB1"/>
<path d="M8.1563 10.3689H5.21724C5.1188 10.3689 5.03442 10.4564 5.03442 10.5585V10.9814C5.03442 11.0835 5.1188 11.171 5.21724 11.171H8.1563C8.25474 11.171 8.33911 11.0835 8.33911 10.9814V10.5585C8.33911 10.4564 8.25474 10.3689 8.1563 10.3689Z" fill="#928BB1"/>
<path fill-rule="evenodd" clip-rule="evenodd" d="M7.52305 3.71859H2.81211C2.6293 3.71859 2.48867 3.55817 2.47461 3.36859V1.98317C2.47461 1.79359 2.6293 1.63317 2.81211 1.63317H3.59961C3.6418 0.772754 4.33086 0.0727539 5.17461 0.0727539C6.01836 0.0727539 6.70742 0.75817 6.74961 1.63317H7.52305C7.70586 1.63317 7.86055 1.79359 7.86055 1.98317V3.36859C7.86055 3.55817 7.70586 3.71859 7.52305 3.71859ZM5.77969 1.72071C5.77969 1.37071 5.5125 1.09363 5.175 1.09363C4.8375 1.09363 4.57031 1.37071 4.57031 1.72071C4.57031 2.07071 4.8375 2.34779 5.175 2.34779C5.5125 2.34779 5.77969 2.07071 5.77969 1.72071Z" fill="#928BB1"/>
</svg>
