<svg width="14" height="14" viewBox="0 0 14 14" fill="none" xmlns="http://www.w3.org/2000/svg">
<path d="M13.8998 10.5V13.9H0.0997559V10.5C0.0997559 10.1686 0.368408 9.89995 0.699809 9.89995C1.0311 9.89995 1.29976 10.1686 1.29976 10.5V12.6V12.7H1.39976H12.5998H12.6998V12.6V10.5C12.6998 10.1686 12.9684 9.89995 13.2998 9.89995C13.6311 9.89995 13.8998 10.1686 13.8998 10.5ZM3.19818 8.21875L3.19167 8.21478C2.91167 8.04404 2.82073 7.67998 2.98744 7.39757C3.15585 7.11229 3.5235 7.01752 3.80886 7.18575C3.80896 7.18581 3.80907 7.18587 3.80917 7.18593L6.24832 8.64949L6.39977 8.74036V8.56374V0.700053C6.39977 0.36865 6.66842 0.1 6.99982 0.1C7.33122 0.1 7.59988 0.368673 7.59988 0.700053V8.56374V8.74036L7.75133 8.64949L10.1905 7.18592C10.1906 7.18586 10.1907 7.1858 10.1908 7.18575C10.4731 7.01921 10.8369 7.11015 11.0077 7.39006C11.1802 7.6729 11.0909 8.04194 10.8082 8.21462C10.8081 8.21468 10.808 8.21473 10.8079 8.21479L6.99976 10.4995L3.19818 8.21875Z" fill="#928BB1" stroke="white" stroke-width="0.2"/>
</svg>
