<svg width="15" height="15" viewBox="0 0 15 15" fill="none" xmlns="http://www.w3.org/2000/svg">
<path d="M1 12.3328C1 12.1476 1.15007 11.9976 1.3352 11.9976H13.6648C13.8499 11.9976 14 12.1476 14 12.3328C14 12.5179 13.8499 12.668 13.6648 12.668H1.3352C1.15007 12.668 1 12.5179 1 12.3328Z" fill="#928BB1" stroke="#928BB1" stroke-width="0.2"/>
<path fill-rule="evenodd" clip-rule="evenodd" d="M10.7463 12.6676H12.6348V3.12915H10.7463V12.6676ZM12.018 11.9972H11.3632V3.79954H12.018V11.9972Z" fill="#928BB1" stroke="#928BB1" stroke-width="0.2"/>
<path fill-rule="evenodd" clip-rule="evenodd" d="M8.31348 12.6677H10.2018V4.56372H8.31348V12.6677ZM9.58492 11.9973H8.93032V5.23411H9.58492V11.9973Z" fill="#928BB1" stroke="#928BB1" stroke-width="0.2"/>
<path fill-rule="evenodd" clip-rule="evenodd" d="M5.88037 12.6678H7.76887V5.73755H5.88037V12.6678ZM7.15202 11.9974H6.49722V6.40794H7.15202V11.9974Z" fill="#928BB1" stroke="#928BB1" stroke-width="0.2"/>
<path fill-rule="evenodd" clip-rule="evenodd" d="M3.44751 12.6678H5.33581V7.10693H3.44751V12.6678ZM4.71896 11.9974H4.06436V7.77733H4.71896V11.9974Z" fill="#928BB1" stroke="#928BB1" stroke-width="0.2"/>
<path d="M2.01929 1.30842C2.01929 1.13809 2.15737 1 2.32771 1C2.49805 1 2.63614 1.13809 2.63614 1.30842V13.6916C2.63614 13.8619 2.49805 14 2.32771 14C2.15737 14 2.01929 13.8619 2.01929 13.6916V1.30842Z" fill="#928BB1" stroke="#928BB1" stroke-width="0.2"/>
</svg>
