<?xml version="1.0" encoding="utf-8"?>
<!-- Generator: Adobe Illustrator 24.0.0, SVG Export Plug-In . SVG Version: 6.00 Build 0)  -->
<svg version="1.1" id="Capa_1" xmlns="http://www.w3.org/2000/svg" xmlns:xlink="http://www.w3.org/1999/xlink" x="0px" y="0px"
	 viewBox="0 0 22 20" style="enable-background:new 0 0 22 20;" xml:space="preserve">
<style type="text/css">
	.st0{fill:#E7E7E7;stroke:#E7E7E7;stroke-width:0.4;}
</style>
<title>ic_like-selected</title>
<g id="Symbols">
	<g id="_x2D_Card1-2ROW" transform="translate(-74.000000, -291.000000)">
		<g id="_x30_4" transform="translate(58.000000, 161.000000)">
			<g id="ic_like" transform="translate(10.000000, 10.000000)">
				<g>
					<path id="path-1" d="M25.4,122.6c-1-1-2.4-1.6-3.8-1.6c-1.8,0-3.5,1-4.6,2.6c-1.1-1.6-2.8-2.6-4.6-2.6c-1.4,0-2.7,0.6-3.8,1.6
						c-0.7,0.7-1.8,2.2-1.6,4.6c0.3,2.5,2.1,6.6,9.8,11.7c0.1,0,0.1,0.1,0.2,0.1s0.1,0,0.2-0.1c7.6-5.1,9.5-9.2,9.8-11.7
						C27.2,124.8,26.1,123.3,25.4,122.6z M26.2,127.2c-0.2,2.4-2,6.2-9.2,11c-7.2-4.9-9-8.7-9.2-11c-0.2-2.1,0.8-3.4,1.4-4
						c0.9-0.9,2-1.4,3.2-1.4c1.7,0,3.3,1,4.3,2.7c0.1,0.2,0.5,0.2,0.6,0c1-1.7,2.6-2.7,4.3-2.7c1.2,0,2.3,0.5,3.2,1.4
						C25.5,123.7,26.4,125.1,26.2,127.2z"/>
				</g>
				<g>
					<path id="path-1_1_" class="st0" d="M25.4,122.6c-1-1-2.4-1.6-3.8-1.6c-1.8,0-3.5,1-4.6,2.6c-1.1-1.6-2.8-2.6-4.6-2.6
						c-1.4,0-2.7,0.6-3.8,1.6c-0.7,0.7-1.8,2.2-1.6,4.6c0.3,2.5,2.1,6.6,9.8,11.7c0.1,0,0.1,0.1,0.2,0.1s0.1,0,0.2-0.1
						c7.6-5.1,9.5-9.2,9.8-11.7C27.2,124.8,26.1,123.3,25.4,122.6z M26.2,127.2c-0.2,2.4-2,6.2-9.2,11c-7.2-4.9-9-8.7-9.2-11
						c-0.2-2.1,0.8-3.4,1.4-4c0.9-0.9,2-1.4,3.2-1.4c1.7,0,3.3,1,4.3,2.7c0.1,0.2,0.5,0.2,0.6,0c1-1.7,2.6-2.7,4.3-2.7
						c1.2,0,2.3,0.5,3.2,1.4C25.5,123.7,26.4,125.1,26.2,127.2z"/>
				</g>
			</g>
		</g>
	</g>
</g>
</svg>
