<?xml version="1.0" encoding="UTF-8"?>
<svg width="22px" height="20px" viewBox="0 0 22 20" version="1.1" xmlns="http://www.w3.org/2000/svg" xmlns:xlink="http://www.w3.org/1999/xlink">
    <title>ic_like-selected</title>
    <g id="Page-1" stroke="none" stroke-width="1" fill="none" fill-rule="evenodd">
        <g id="05---Cards-Favorites" transform="translate(-979.000000, -350.000000)" fill="#EB4D60" fill-rule="nonzero" stroke="#FFFFFF">
            <path d="M998.380215,352.601943 C997.348428,351.569053 996.015919,351 994.629339,351 C992.823527,351 991.129559,351.961759 990,353.600749 C988.870442,351.961759 987.176474,351 985.370661,351 C983.984082,351 982.651573,351.569053 981.619045,352.601943 C980.924274,353.296958 979.793974,354.823324 980.032478,357.232166 C980.284314,359.769934 982.181972,363.860742 989.794828,368.93776 C989.857046,368.979253 989.928153,369 990,369 C990.071848,369 990.142954,368.979994 990.205913,368.93776 C997.81951,363.860001 999.716428,359.769934 999.967523,357.232166 C1000.20603,354.823324 999.075727,353.296958 998.380215,352.601943 Z" id="ic_like-selected"></path>
        </g>
    </g>
</svg>