<svg width="24" height="24" viewBox="0 0 24 24" fill="none" xmlns="http://www.w3.org/2000/svg">
<path d="M14 4H6C5.46957 4 4.96086 4.21071 4.58579 4.58579C4.21071 4.96086 4 5.46957 4 6V20C4 20.5304 4.21071 21.0391 4.58579 21.4142C4.96086 21.7893 5.46957 22 6 22H18C18.5304 22 19.0391 21.7893 19.4142 21.4142C19.7893 21.0391 20 20.5304 20 20V6C20 4.89543 19.1046 4 18 4H14Z" stroke="#251863" stroke-linecap="round" stroke-linejoin="round"/>
<path d="M16 17H8" stroke="#251863" stroke-linecap="round" stroke-linejoin="round"/>
<path d="M16 13H8" stroke="#251863" stroke-linecap="round" stroke-linejoin="round"/>
<path d="M10 9H9H8" stroke="#251863" stroke-linecap="round" stroke-linejoin="round"/>
<path d="M8 3L8 4L8 5" stroke="#251863" stroke-linecap="round" stroke-linejoin="round"/>
<path d="M12 3L12 4L12 5" stroke="#251863" stroke-linecap="round" stroke-linejoin="round"/>
<path d="M16 3L16 4L16 5" stroke="#251863" stroke-linecap="round" stroke-linejoin="round"/>
</svg>
