<svg width="16" height="16" viewBox="0 0 16 16" fill="none" xmlns="http://www.w3.org/2000/svg">
<path d="M2.16654 14.6667H5.69859C5.80822 14.6673 5.9169 14.6463 6.0184 14.6048C6.11989 14.5634 6.2122 14.5023 6.29004 14.4251L12.0546 8.65218L14.4204 6.33636C14.4985 6.25892 14.5605 6.16678 14.6028 6.06527C14.6451 5.96376 14.6668 5.85488 14.6668 5.74491C14.6668 5.63494 14.6451 5.52605 14.6028 5.42454C14.5605 5.32303 14.4985 5.23089 14.4204 5.15345L10.8884 1.57975C10.8109 1.50167 10.7188 1.4397 10.6173 1.39741C10.5158 1.35512 10.4069 1.33334 10.2969 1.33334C10.1869 1.33334 10.0781 1.35512 9.97656 1.39741C9.87504 1.4397 9.78291 1.50167 9.70547 1.57975L7.35632 3.93723L1.57509 9.71013C1.49788 9.78797 1.4368 9.88028 1.39534 9.98178C1.35389 10.0833 1.33288 10.192 1.33351 10.3016V13.8336C1.33351 14.0546 1.42128 14.2665 1.5775 14.4227C1.73372 14.5789 1.94561 14.6667 2.16654 14.6667ZM10.2969 3.34578L12.6544 5.70325L11.4715 6.88616L9.11402 4.52868L10.2969 3.34578Z" fill="#11093C"/>
</svg>
