<svg width="16" height="16" viewBox="0 0 16 16" fill="none" xmlns="http://www.w3.org/2000/svg">
<path d="M5.81818 12.8091H3.63636C3.51822 12.8091 3.40492 12.7622 3.32138 12.6786C3.23784 12.5951 3.19091 12.4818 3.19091 12.3636V10.1818C3.19091 10.0106 3.12291 9.84646 3.00186 9.72541C2.88081 9.60437 2.71664 9.53636 2.54545 9.53636C2.37427 9.53636 2.2101 9.60437 2.08905 9.72541C1.968 9.84646 1.9 10.0106 1.9 10.1818V12.3636C1.9 12.8241 2.08294 13.2658 2.40857 13.5914C2.7342 13.9171 3.17585 14.1 3.63636 14.1H5.81818C5.98937 14.1 6.15354 14.032 6.27459 13.911C6.39563 13.7899 6.46364 13.6257 6.46364 13.4545C6.46364 13.2834 6.39563 13.1192 6.27459 12.9981C6.15354 12.8771 5.98937 12.8091 5.81818 12.8091ZM13.4545 9.53636C13.2834 9.53636 13.1192 9.60437 12.9981 9.72541C12.8771 9.84646 12.8091 10.0106 12.8091 10.1818V12.3636C12.8091 12.4818 12.7622 12.5951 12.6786 12.6786C12.5951 12.7622 12.4818 12.8091 12.3636 12.8091H10.1818C10.0106 12.8091 9.84646 12.8771 9.72541 12.9981C9.60437 13.1192 9.53636 13.2834 9.53636 13.4545C9.53636 13.6257 9.60437 13.7899 9.72541 13.911C9.84646 14.032 10.0106 14.1 10.1818 14.1H12.3636C12.8241 14.1 13.2658 13.9171 13.5914 13.5914C13.9171 13.2658 14.1 12.8241 14.1 12.3636V10.1818C14.1 10.0106 14.032 9.84646 13.911 9.72541C13.7899 9.60437 13.6257 9.53636 13.4545 9.53636ZM12.3636 1.9H10.1818C10.0106 1.9 9.84646 1.968 9.72541 2.08905C9.60437 2.2101 9.53636 2.37427 9.53636 2.54545C9.53636 2.71664 9.60437 2.88081 9.72541 3.00186C9.84646 3.12291 10.0106 3.19091 10.1818 3.19091H12.3636C12.4818 3.19091 12.5951 3.23784 12.6786 3.32138C12.7622 3.40492 12.8091 3.51822 12.8091 3.63636V5.81818C12.8091 5.98937 12.8771 6.15354 12.9981 6.27459C13.1192 6.39563 13.2834 6.46364 13.4545 6.46364C13.6257 6.46364 13.7899 6.39563 13.911 6.27459C14.032 6.15354 14.1 5.98937 14.1 5.81818V3.63636C14.1 3.17585 13.9171 2.7342 13.5914 2.40857C13.2658 2.08294 12.8241 1.9 12.3636 1.9ZM2.54545 6.46364C2.71664 6.46364 2.88081 6.39563 3.00186 6.27459C3.12291 6.15354 3.19091 5.98937 3.19091 5.81818V3.63636C3.19091 3.51822 3.23784 3.40492 3.32138 3.32138C3.40492 3.23784 3.51822 3.19091 3.63636 3.19091H5.81818C5.98937 3.19091 6.15354 3.12291 6.27459 3.00186C6.39563 2.88081 6.46364 2.71664 6.46364 2.54545C6.46364 2.37427 6.39563 2.2101 6.27459 2.08905C6.15354 1.968 5.98937 1.9 5.81818 1.9H3.63636C3.17585 1.9 2.7342 2.08294 2.40857 2.40857C2.08294 2.7342 1.9 3.17585 1.9 3.63636V5.81818C1.9 5.98937 1.968 6.15354 2.08905 6.27459C2.2101 6.39563 2.37427 6.46364 2.54545 6.46364Z" fill="black" stroke="black" stroke-width="0.2"/>
<rect x="6.56738" y="6.56836" width="2.86364" height="2.86364" rx="1.25" stroke="black" stroke-width="1.5"/>
</svg>
