<svg width="24" height="24" viewBox="0 0 24 24" fill="none" xmlns="http://www.w3.org/2000/svg">
<path d="M8 3H15.4286H20C20.5523 3 21 3.44772 21 4V19.5382C21 20.0865 20.8043 20.6123 20.4561 21" stroke="#251863" stroke-width="1.2" stroke-linecap="round" stroke-linejoin="round"/>
<path d="M10 14.5L9.5 14.5L9.5 14L9.5 3C9.5 2.86739 9.44732 2.74021 9.35355 2.64645C9.25978 2.55268 9.13261 2.5 9 2.5L3 2.5C2.86739 2.5 2.74021 2.55268 2.64644 2.64645C2.55268 2.74021 2.5 2.86739 2.5 3L2.5 21C2.5 21.1326 2.55268 21.2598 2.64645 21.3536C2.74021 21.4473 2.86739 21.5 3 21.5L21 21.5C21.1326 21.5 21.2598 21.4473 21.3536 21.3536C21.4473 21.2598 21.5 21.1326 21.5 21L21.5 15C21.5 14.8674 21.4473 14.7402 21.3536 14.6464C21.2598 14.5527 21.1326 14.5 21 14.5L10 14.5ZM20 15.5L20.5 15.5L20.5 16L20.5 20L20.5 20.5L20 20.5L4 20.5L3.5 20.5L3.5 20L3.5 4L3.5 3.5L4 3.5L8 3.5L8.5 3.5L8.5 4L8.5 6L8.5 6.5L8 6.5L7 6.5C6.86739 6.5 6.74021 6.55268 6.64645 6.64645C6.55268 6.74021 6.5 6.86739 6.5 7C6.5 7.13261 6.55268 7.25979 6.64645 7.35355C6.74021 7.44732 6.86739 7.5 7 7.5L8 7.5L8.5 7.5L8.5 8L8.5 10L8.5 10.5L8 10.5L7 10.5C6.86739 10.5 6.74021 10.5527 6.64645 10.6464C6.55268 10.7402 6.5 10.8674 6.5 11C6.5 11.1326 6.55268 11.2598 6.64645 11.3536C6.74021 11.4473 6.86739 11.5 7 11.5L8 11.5L8.5 11.5L8.5 12L8.5 14L8.5 14.5L8 14.5L7 14.5C6.86739 14.5 6.74021 14.5527 6.64645 14.6464C6.55268 14.7402 6.5 14.8674 6.5 15C6.5 15.1326 6.55268 15.2598 6.64645 15.3536C6.74021 15.4473 6.86739 15.5 7 15.5L8 15.5L8.5 15.5L8.5 16L8.5 17C8.5 17.1326 8.55268 17.2598 8.64645 17.3536C8.74021 17.4473 8.86739 17.5 9 17.5C9.13261 17.5 9.25978 17.4473 9.35355 17.3536C9.44732 17.2598 9.5 17.1326 9.5 17L9.5 16L9.5 15.5L10 15.5L12 15.5L12.5 15.5L12.5 16L12.5 17C12.5 17.1326 12.5527 17.2598 12.6464 17.3536C12.7402 17.4473 12.8674 17.5 13 17.5C13.1326 17.5 13.2598 17.4473 13.3536 17.3536C13.4473 17.2598 13.5 17.1326 13.5 17L13.5 16L13.5 15.5L14 15.5L16 15.5L16.5 15.5L16.5 16L16.5 17C16.5 17.1326 16.5527 17.2598 16.6464 17.3536C16.7402 17.4473 16.8674 17.5 17 17.5C17.1326 17.5 17.2598 17.4473 17.3536 17.3536C17.4473 17.2598 17.5 17.1326 17.5 17L17.5 16L17.5 15.5L18 15.5L20 15.5Z" fill="#251863" stroke="#251863"/>
</svg>
