<svg xmlns="http://www.w3.org/2000/svg" xmlns:xlink="http://www.w3.org/1999/xlink" width="18" height="18" viewBox="0 0 18 18">
  <defs>
    <clipPath id="clip-path">
      <path id="Trazado_79" data-name="Trazado 79" d="M20.794-236.169l-5.625-5.625a.7.7,0,0,0-.5-.206.7.7,0,0,0-.5.206,4.2,4.2,0,0,0-.723,1.784,7.707,7.707,0,0,1-1.34,3.115,3.9,3.9,0,0,1-2.371.513c-1.285.051-2.742.109-3.723,1.089a.7.7,0,0,0,0,.994l3.176,3.176L3.209-225.2a.7.7,0,0,0-.006.994.7.7,0,0,0,.5.209.7.7,0,0,0,.494-.2l5.992-5.926,3.11,3.11a.7.7,0,0,0,.5.206.7.7,0,0,0,.5-.206,4.7,4.7,0,0,0,1.068-3.239c.019-.388,0-1.6,0-1.6a4.122,4.122,0,0,1,.533-1.253,7.707,7.707,0,0,1,3.115-1.34,4.2,4.2,0,0,0,1.784-.723.7.7,0,0,0,.206-.5A.7.7,0,0,0,20.794-236.169Z" fill="none" clip-rule="evenodd"/>
    </clipPath>
    <clipPath id="clip-path-2">
      <path id="Trazado_78" data-name="Trazado 78" d="M0-3H280V-258H0Z" fill="none"/>
    </clipPath>
  </defs>
  <g id="Grupo_95" data-name="Grupo 95" transform="translate(2664 1428)">
    <g id="Grupo_94" data-name="Grupo 94" transform="translate(-2667 -1186)" clip-path="url(#clip-path)">
      <g id="Grupo_93" data-name="Grupo 93" clip-path="url(#clip-path-2)">
        <g id="Grupo_92" data-name="Grupo 92" transform="translate(3 -242)">
          <path id="Trazado_77" data-name="Trazado 77" d="M17.794,5.831,12.169.206a.7.7,0,0,0-.994,0,4.2,4.2,0,0,0-.723,1.784A7.707,7.707,0,0,1,9.112,5.1a3.9,3.9,0,0,1-2.371.512C5.456,5.668,4,5.725,3.018,6.706a.7.7,0,0,0,0,.994l3.176,3.176L.209,16.8a.7.7,0,1,0,.989,1l5.992-5.926,3.11,3.11a.7.7,0,0,0,.994,0,4.7,4.7,0,0,0,1.068-3.239c.019-.388,0-1.6,0-1.6A4.122,4.122,0,0,1,12.9,8.888a7.707,7.707,0,0,1,3.115-1.34,4.2,4.2,0,0,0,1.784-.723.7.7,0,0,0,0-.994Z" fill="none" stroke="#241862" stroke-width="3"/>
        </g>
      </g>
    </g>
  </g>
</svg>
