<svg width="16" height="16" viewBox="0 0 16 16" fill="none" xmlns="http://www.w3.org/2000/svg">
<rect width="16" height="16" rx="8" fill="#FF5A5F"/>
<path d="M6.352 9.216C6.352 9.48267 6.32267 9.73067 6.264 9.96C6.21067 10.1893 6.112 10.392 5.968 10.568C5.82933 10.7387 5.64 10.8747 5.4 10.976C5.16533 11.072 4.86933 11.12 4.512 11.12C4.33067 11.12 4.16267 11.104 4.008 11.072C3.85867 11.0453 3.72267 11.0107 3.6 10.968C3.47733 10.92 3.37067 10.872 3.28 10.824C3.18933 10.7707 3.11733 10.72 3.064 10.672L3.368 10.056C3.48 10.136 3.624 10.2213 3.8 10.312C3.98133 10.3973 4.20533 10.44 4.472 10.44C4.856 10.44 5.136 10.344 5.312 10.152C5.488 9.95467 5.576 9.61867 5.576 9.144V5.456H6.352V9.216ZM12.24 8.224C12.24 8.704 12.1653 9.12267 12.016 9.48C11.8667 9.832 11.656 10.1253 11.384 10.36C11.112 10.5893 10.7867 10.7627 10.408 10.88C10.0293 10.992 9.61333 11.048 9.16 11.048C8.936 11.048 8.688 11.0373 8.416 11.016C8.14933 11 7.90667 10.9653 7.688 10.912V5.536C7.90667 5.48267 8.14933 5.448 8.416 5.432C8.688 5.41067 8.936 5.4 9.16 5.4C9.61333 5.4 10.0293 5.45867 10.408 5.576C10.7867 5.688 11.112 5.86133 11.384 6.096C11.656 6.32533 11.8667 6.61867 12.016 6.976C12.1653 7.328 12.24 7.744 12.24 8.224ZM9.224 10.368C9.96 10.368 10.5093 10.1813 10.872 9.808C11.2347 9.42933 11.416 8.90133 11.416 8.224C11.416 7.54667 11.2347 7.02133 10.872 6.648C10.5093 6.26933 9.96 6.08 9.224 6.08C9.00533 6.08 8.83467 6.08267 8.712 6.088C8.59467 6.09333 8.512 6.09867 8.464 6.104V10.344C8.512 10.3493 8.59467 10.3547 8.712 10.36C8.83467 10.3653 9.00533 10.368 9.224 10.368Z" fill="white"/>
</svg>
