<svg id="open" xmlns="http://www.w3.org/2000/svg" width="21.662" height="18.604" viewBox="0 0 21.662 18.604">
  <g id="ic_close" transform="translate(0 0)">
    <path id="Combined_Shape" data-name="Combined Shape" d="M1.429,18.367c.419-.347.833-.7,1.252-1.05q2.707-2.281,5.42-4.561L11.5,9.9a.845.845,0,0,0,0-1.186c-.419-.347-.833-.7-1.252-1.05Q7.541,5.379,4.826,3.1L1.429.238a.859.859,0,0,0-1.186,0,.843.843,0,0,0,0,1.184c.42.347.833.7,1.252,1.051Q4.2,4.752,6.916,7.033L9.609,9.3l-.545.46q-2.709,2.281-5.422,4.56l-3.4,2.862a.843.843,0,0,0,0,1.184.786.786,0,0,0,.565.237A.978.978,0,0,0,1.429,18.367Zm9.919,0c.419-.347.833-.7,1.252-1.05q2.707-2.281,5.422-4.561l3.4-2.861a.842.842,0,0,0,0-1.186c-.419-.347-.833-.7-1.252-1.05Q17.46,5.379,14.746,3.1L11.348.238a.859.859,0,0,0-1.186,0,.844.844,0,0,0,0,1.184c.42.347.833.7,1.253,1.051q2.707,2.279,5.42,4.56L19.528,9.3l-.546.461q-2.709,2.281-5.422,4.56c-1.134.956-2.263,1.906-3.4,2.862a.844.844,0,0,0,0,1.184.789.789,0,0,0,.566.237A.977.977,0,0,0,11.348,18.367Z" transform="translate(0 0)" fill="#fff"/>
  </g>
</svg>
