<svg xmlns="http://www.w3.org/2000/svg" viewBox="0 0 660.59 158.06"><defs><style>.cls-1{fill:#3ebb96;}.cls-2{fill:#09242d;}</style></defs><g id="Layer_1" data-name="Layer 1"><path class="cls-1" d="M59.72,3.41A61,61,0,0,1,86.77,9.55L82.36,28.66c-6.07-3.34-14.29-5.28-22.64-5.28-18.3,0-37.28,8.62-37.28,30.53,0,14.5,10.69,23.58,26.32,23.58a52.85,52.85,0,0,0,27.06-7V89.11a77,77,0,0,1-33.4,7.69C18.3,96.8.07,81.16.07,56.72.07,21.71,30.39,3.41,59.72,3.41Z"/><path class="cls-1" d="M152.37,58.72c0,21.31-18,38.08-39.54,38.08C95.39,96.8,83.9,84.64,83.9,68.07c0-21.31,18-38.07,39.55-38.07C140.88,30,152.37,42.15,152.37,58.72Zm-47.83,7.15c0,7.28,4.34,12.29,11.29,12.29,8.82,0,15.9-7.35,15.9-17.24,0-7.28-4.34-12.29-11.22-12.29C111.62,48.63,104.54,56,104.54,65.87Z"/><path class="cls-1" d="M197.39,95.46l5.68-35.67c1.14-7.15-3.87-10.56-8.88-10.56A12.23,12.23,0,0,0,182,59.79l-5.61,35.67H155.78l10.15-64.13h18.91l-.4,6.75c5.34-5.75,13.36-8.08,20.7-8.08,11.89,0,21.91,8.48,19.51,23.78L218,95.46Z"/><path class="cls-1" d="M348.23,31.33l-5.74,36.34c-1.14,7.15,3.87,10.56,8.88,10.56a12.16,12.16,0,0,0,12.09-10.56l5.81-36.34h20.58L379.69,95.46h-18.9l.33-6.08c-5.41,5.75-13.36,8.08-20.77,8.08-11.83,0-21.85-8.48-19.44-23.78l6.68-42.35Z"/><path class="cls-1" d="M450.17,91.72c-5.28,2.6-14.83,5.08-24.45,5.08-20.78,0-32.47-11.16-32.47-28.26,0-22.71,17.64-38.54,40-38.54,15.16,0,24,6.88,24,18.43,0,10.76-7,21.38-44.16,22.05C414.43,76.62,420,79,428.32,79s17.17-1.94,21.51-4.08ZM437.48,50.64c0-2.41-2.14-3.94-6.15-3.94-8.42,0-14.5,4-16.57,10.08C434.2,56.05,437.48,53.38,437.48,50.64Z"/><path class="cls-1" d="M502.07,95.46l5.68-35.67c1.14-7.15-3.87-10.56-8.88-10.56a12.22,12.22,0,0,0-12.16,10.56L481.1,95.46H460.46l10.15-64.13h18.9l-.4,6.75c5.35-5.75,13.36-8.08,20.71-8.08,11.89,0,21.91,8.48,19.51,23.78l-6.62,41.68Z"/><path class="cls-1" d="M576.42,30a44.21,44.21,0,0,1,20,4.27l-4.34,17.9A37.6,37.6,0,0,0,577,49c-10.49,0-20.24,4.21-20.24,16.44,0,7.88,6.21,12,14.63,12,6.81,0,11.22-1.54,17.57-4.41l-.87,18.44c-7.81,3.54-13.76,5.28-22,5.28-18,0-30.2-11.63-30.2-28.59C535.87,43.76,554.58,30,576.42,30Z"/><path class="cls-1" d="M653.51,91.72c-5.28,2.6-14.83,5.08-24.45,5.08-20.78,0-32.47-11.16-32.47-28.26,0-22.71,17.64-38.54,40-38.54,15.16,0,24,6.88,24,18.43,0,10.76-7,21.38-44.16,22.05,1.34,6.14,6.88,8.55,15.23,8.55s17.17-1.94,21.51-4.08ZM640.82,50.64c0-2.41-2.14-3.94-6.15-3.94-8.42,0-14.5,4-16.57,10.08C637.54,56.05,640.82,53.38,640.82,50.64Z"/><path class="cls-1" d="M303,74,313.66,6.69c-.11.75-14.58-1.83-16-2.2C291.21,2.87,284.54.22,277.87,0a36.71,36.71,0,0,0-11.62,1.24,28.22,28.22,0,0,0-12.91,7.9,32,32,0,0,0-7.65,16.55l-.93,5.61H234.4L231.73,48.5h10.35l-11.69,73.68H251L262.66,48.5h14.7l2.73-17.17H264.66l.74-4.61c.5-3.13,2-6.15,4.76-7.8,3.82-2.23,8.34-1.54,12.3-.24,3.17,1,8.38,2.31,8.38,2.31l-9,56.7c-2.2,13.9,4.54,19.11,16.3,19.11a40.92,40.92,0,0,0,13.56-2l1.8-16.5a26.42,26.42,0,0,1-5.81.74C304.08,79,302.47,77.36,303,74Z"/><path class="cls-2" d="M6.72,154l-1.39,3.77H0L8.11,137.2H14l8.13,20.56H16.82L15.42,154ZM14,150.11l-2.92-7.93-2.94,7.93Z"/><path class="cls-2" d="M41.09,137.2l7.27,8.62,7.23-8.62H59.8v20.56h-5V144.94l-6.15,7h-.6l-6.21-7v12.82h-5V137.2Z"/><path class="cls-2" d="M71.3,157.76h-5V137.2h5Z"/><path class="cls-2" d="M93.23,157.76H77.82V137.2h5v16.38H93.23Z"/><path class="cls-2" d="M114,157.76H98.37V137.2h15.52v4.2H103.35v3.81h9.34v4.18h-9.34v4.19H114Z"/><path class="cls-2" d="M135.33,157.76h-5V137.2h5v8h8.9v-8h5v20.56h-5v-8.4h-8.9Z"/><path class="cls-2" d="M160.71,157.76h-5V137.2h5Z"/><path class="cls-2" d="M181.54,150h-4.79v-4h9.77v10a18.58,18.58,0,0,1-8.18,2.08A13.92,13.92,0,0,1,172,156.7a9.92,9.92,0,0,1-5.61-9.25c0-7.08,5.88-10.55,12.2-10.55a17.56,17.56,0,0,1,6.9,1.41l-.34,4.3a15.47,15.47,0,0,0-6.13-1.29c-4,0-7.53,1.69-7.53,6.13,0,3.84,2.81,6.18,6.58,6.18a11.79,11.79,0,0,0,3.44-.5Z"/><path class="cls-2" d="M197.44,157.76h-5V137.2h5v8h8.9v-8h5v20.56h-5v-8.4h-8.9Z"/><path class="cls-2" d="M233.45,157.76h-5V137.2h14.95v4.2h-10v3.92h7.82v4.19h-7.82Z"/><path class="cls-2" d="M264.16,157.76H248.75V137.2h5v16.38h10.43Z"/><path class="cls-2" d="M278.14,136.9c6.46,0,10.9,4.34,10.9,10.56s-4.44,10.6-10.9,10.6-11-4.36-11-10.61S271.64,136.9,278.14,136.9Zm0,16.57c3.47,0,5.79-2.45,5.79-6a5.57,5.57,0,0,0-5.79-5.94,6,6,0,0,0,0,11.95Z"/><path class="cls-2" d="M304.88,136.9c6.47,0,10.9,4.34,10.9,10.56s-4.43,10.6-10.9,10.6-11-4.36-11-10.61S298.39,136.9,304.88,136.9Zm.05,16.57c3.46,0,5.78-2.45,5.78-6a5.57,5.57,0,0,0-5.78-5.94,6,6,0,0,0,0,11.95Z"/><path class="cls-2" d="M321.48,157.76V137.2h9c6.58,0,10.53,3.7,10.53,10.23s-4.11,10.33-10.53,10.33Zm5-16.36v12.18h3.61c4,0,5.85-2.26,5.85-6.15s-1.95-6-5.85-6Z"/><path class="cls-2" d="M357.4,157.76V137.2h9c6.59,0,10.54,3.7,10.54,10.23s-4.12,10.33-10.54,10.33Zm5-16.36v12.18H366c4,0,5.86-2.26,5.86-6.15s-2-6-5.86-6Z"/><path class="cls-2" d="M387.67,157.76h-5V137.2h5Z"/><path class="cls-2" d="M408.42,138.34l-.41,4.25a16.19,16.19,0,0,0-6.3-1.39c-1.75,0-3.18.45-3.18,1.85s1.21,1.58,2.39,1.92l2.94.85c3.78,1.08,5.66,2.64,5.66,5.88,0,3.77-3.18,6.36-8.19,6.36a19.35,19.35,0,0,1-7.76-1.6l.39-4.38c.52.56,4.19,1.62,7,1.62,1.87,0,3.43-.45,3.43-1.83,0-1-.66-1.44-2.15-1.83l-3.21-.82c-2.74-.89-5.62-2.24-5.62-5.93s3.21-6.39,8.07-6.39A15.49,15.49,0,0,1,408.42,138.34Z"/><path class="cls-2" d="M419.58,141.49H413.5V137.2h17.12v4.29h-6.07v16.27h-5Z"/><path class="cls-2" d="M440.71,157.76h-5V137.2h9.77c4.43,0,7.82,3,7.82,7.36a7.44,7.44,0,0,1-3.68,6.34l5.27,6.84h-6l-4.37-5.81h-3.85Zm0-16.36v6.34h4.44a3,3,0,0,0,3.07-3.18,2.94,2.94,0,0,0-3.07-3.16Z"/><path class="cls-2" d="M465.18,157.76h-5V137.2h5Z"/><path class="cls-2" d="M482.82,136.9a15.85,15.85,0,0,1,6.47,1.39l-.31,4.33a12.6,12.6,0,0,0-5.44-1.19c-3.84,0-7.55,1.68-7.55,6,0,3.85,3,6.26,7,6.26a11.1,11.1,0,0,0,6-1.59l.68,4.22a16.22,16.22,0,0,1-7.44,1.74c-6.18,0-11.34-4.12-11.34-10.56C470.89,140.46,476.67,136.9,482.82,136.9Z"/><path class="cls-2" d="M499.78,141.49H493.7V137.2h17.12v4.29h-6.07v16.27h-5Z"/><path class="cls-2" d="M535.27,151.93h-4.74v5.83h-5V137.2h9.72c4.44,0,7.83,3,7.83,7.37S539.71,151.93,535.27,151.93Zm-4.74-10.53v6.34h4.39a3,3,0,0,0,3.08-3.18,3,3,0,0,0-3.08-3.16Z"/><path class="cls-2" d="M558.67,136.9c6.46,0,10.9,4.34,10.9,10.56s-4.44,10.6-10.9,10.6-11-4.36-11-10.61S552.18,136.9,558.67,136.9Zm.05,16.57c3.46,0,5.78-2.45,5.78-6a5.57,5.57,0,0,0-5.78-5.94,6,6,0,0,0,0,11.95Z"/><path class="cls-2" d="M580.25,157.76h-5V137.2H585c4.43,0,7.82,3,7.82,7.36a7.44,7.44,0,0,1-3.68,6.34l5.27,6.84h-6l-4.37-5.81h-3.85Zm0-16.36v6.34h4.44a3,3,0,0,0,3.07-3.18,2.94,2.94,0,0,0-3.07-3.16Z"/><path class="cls-2" d="M603.86,141.49h-6.08V137.2H614.9v4.29h-6.07v16.27h-5Z"/><path class="cls-2" d="M623,154l-1.4,3.77h-5.32l8.11-20.56h5.9l8.13,20.56H633L631.65,154Zm7.28-3.88-2.92-7.93-2.94,7.93Z"/><path class="cls-2" d="M658.73,157.76H643.32V137.2h5v16.38h10.43Z"/></g></svg>