<svg width="24" height="24" viewBox="0 0 24 24" fill="none" xmlns="http://www.w3.org/2000/svg">
<path d="M15.6 5.60156H17.2C17.6243 5.60156 18.0313 5.77013 18.3314 6.07019C18.6314 6.37025 18.8 6.77722 18.8 7.20156V18.4016C18.8 18.8259 18.6314 19.2329 18.3314 19.5329C18.0313 19.833 17.6243 20.0016 17.2 20.0016H7.6C7.17565 20.0016 6.76869 19.833 6.46863 19.5329C6.16857 19.2329 6 18.8259 6 18.4016V7.20156C6 6.77722 6.16857 6.37025 6.46863 6.07019C6.76869 5.77013 7.17565 5.60156 7.6 5.60156H9.2" stroke="#002633" stroke-width="1.5" stroke-linecap="round" stroke-linejoin="round"/>
<path d="M14.8 10.3984H10" stroke="#002633" stroke-width="1.5" stroke-linecap="round" stroke-linejoin="round"/>
<path d="M14.8 13.6016H10" stroke="#002633" stroke-width="1.5" stroke-linecap="round" stroke-linejoin="round"/>
<path d="M14.8 16.8008H10" stroke="#002633" stroke-width="1.5" stroke-linecap="round" stroke-linejoin="round"/>
<path d="M14.7875 4H9.9875C9.54567 4 9.1875 4.35817 9.1875 4.8V6.4C9.1875 6.84183 9.54567 7.2 9.9875 7.2H14.7875C15.2293 7.2 15.5875 6.84183 15.5875 6.4V4.8C15.5875 4.35817 15.2293 4 14.7875 4Z" stroke="#002633" stroke-width="1.5" stroke-linecap="round" stroke-linejoin="round"/>
</svg>
