<svg width="27" height="27" viewBox="0 0 27 27" fill="none" xmlns="http://www.w3.org/2000/svg">
<path opacity="0.9" d="M13.5 23.822L11.8688 22.337C6.075 17.0832 2.25 13.6182 2.25 9.36572C2.25 5.90072 4.9725 3.17822 8.4375 3.17822C10.395 3.17822 12.2737 4.08947 13.5 5.52947C14.7263 4.08947 16.605 3.17822 18.5625 3.17822C22.0275 3.17822 24.75 5.90072 24.75 9.36572C24.75 13.6182 20.925 17.0832 15.1312 22.3482L13.5 23.822Z" fill="#F5575C"/>
<path d="M18.0648 1.5C16.029 1.5 14.0751 2.06457 12.7998 3.6789C11.5245 2.06457 9.57065 1.5 7.53485 1.5C3.93125 1.5 0.5 5.75835 0.5 9.64282C0.5 14.4101 5 18.6428 10.5 23.1428L12.7998 24.6429L15 23.1428C21 18.6428 26 14.4101 26 9.64282C26 5.75835 21.6684 1.5 18.0648 1.5ZM12.7998 21.6428C6 17.548 2.5 13.2877 2.5 9.64282C2.5 7.12044 5.19485 3.6789 7.53485 3.6789C9.33665 3.6789 12.0002 5 12.7998 6.64286C13.516 4.78689 16.5 3.64286 18 3.64286C20.5 3.64286 24 7.12044 24 9.64282C24 13.2877 19.5 17.6428 12.7998 21.6428Z" fill="#251863"/>
<path d="M18.0648 1.5C16.029 1.5 14.0751 2.06457 12.7998 3.6789C11.5245 2.06457 9.57065 1.5 7.53485 1.5C3.93125 1.5 0.5 5.75835 0.5 9.64282C0.5 14.4101 5 18.6428 10.5 23.1428L12.7998 24.6429L15 23.1428C21 18.6428 26 14.4101 26 9.64282C26 5.75835 21.6684 1.5 18.0648 1.5ZM12.7998 21.6428C6 17.548 2.5 13.2877 2.5 9.64282C2.5 7.12044 5.19485 3.6789 7.53485 3.6789C9.33665 3.6789 12.0002 5 12.7998 6.64286C13.516 4.78689 16.5 3.64286 18 3.64286C20.5 3.64286 24 7.12044 24 9.64282C24 13.2877 19.5 17.6428 12.7998 21.6428Z" fill="#251863"/>
</svg>
