<svg width="16" height="16" viewBox="0 0 16 16" fill="none" xmlns="http://www.w3.org/2000/svg">
<g clip-path="url(#clip0_732_149213)">
<path d="M12.1167 1C11.3793 1 10.6418 1.28005 10.0799 1.84165L8.30117 3.62029C7.73468 4.18652 7.45413 4.93298 7.45952 5.67395V6.02738C7.45689 6.21713 7.62885 6.39159 7.81859 6.39159C8.00834 6.39159 8.18042 6.21712 8.17767 6.02738V5.66831C8.17353 5.1116 8.38345 4.55887 8.81165 4.13092L10.5904 2.35216C11.4413 1.50175 12.7975 1.50175 13.6484 2.35216C14.4993 3.20257 14.4993 4.55412 13.6484 5.40453L11.8698 7.18329C11.4447 7.60812 10.8902 7.82291 10.338 7.82291H9.97332C9.78357 7.82028 9.60912 7.99224 9.60912 8.18199C9.60912 8.37173 9.78359 8.54382 9.97332 8.54106H10.338C11.0742 8.54106 11.8126 8.25575 12.3748 7.69376L14.1535 5.91513C15.2772 4.79206 15.2772 2.9646 14.1535 1.84153C13.5917 1.28004 12.854 1 12.1167 1ZM10.108 5.48305C10.0296 5.49432 9.95531 5.53252 9.90033 5.58963L5.59106 9.8989C5.45304 10.0302 5.44928 10.2763 5.58317 10.4117C5.71706 10.547 5.96328 10.5459 6.09605 10.4095L10.4053 6.10026C10.5158 5.99655 10.5487 5.81908 10.483 5.68257C10.4172 5.54605 10.2579 5.46126 10.108 5.48305ZM5.65828 7.46368C4.92208 7.46368 4.18377 7.74335 3.62154 8.30533L1.84278 10.0841C0.719072 11.2072 0.719072 13.0346 1.84278 14.1577C2.9665 15.2808 4.79271 15.2808 5.91639 14.1577L7.69515 12.3789C8.26164 11.8127 8.54219 11.0662 8.5368 10.3253V9.97745C8.53943 9.7877 8.36747 9.61325 8.17773 9.61325C7.98798 9.61325 7.8159 9.78772 7.81866 9.97745V10.3309C7.82279 10.8876 7.61288 11.4403 7.18467 11.8683L5.40582 13.647C4.5549 14.4974 3.19873 14.4974 2.34781 13.647C1.49689 12.7966 1.49689 11.4451 2.34781 10.5947L4.12657 8.8159C4.55166 8.39107 5.10613 8.18192 5.65831 8.18192H6.02303C6.21278 8.18455 6.38723 8.01259 6.38723 7.82285C6.38723 7.6331 6.21277 7.46102 6.02303 7.46377L5.65828 7.46368Z" fill="#251863" stroke="#251863" stroke-width="0.2"/>
</g>
<defs>
<clipPath id="clip0_732_149213">
<rect width="16" height="16" fill="white"/>
</clipPath>
</defs>
</svg>
