<svg width="11" height="14" viewBox="0 0 11 14" fill="none" xmlns="http://www.w3.org/2000/svg">
<g clip-path="url(#clip0_732_149181)">
<path d="M9.5625 2.48047H8.52188V3.39922H9.52031V13.0096H0.871875V3.39922H1.82812V2.48047H0.84375C0.379688 2.48047 0 2.87422 0 3.35547V13.0534C0 13.5346 0.379688 13.9284 0.84375 13.9284H9.5625C10.0266 13.9284 10.4062 13.5346 10.4062 13.0534V3.35547C10.4062 2.87422 10.0266 2.48047 9.5625 2.48047Z" fill="#251863"/>
<path d="M2.81203 6.825C2.85422 6.88333 2.91047 6.9125 2.98078 6.9125V6.9125C3.0511 6.9125 3.10735 6.88333 3.14953 6.83958L4.2886 5.46875C4.35891 5.38125 4.35891 5.23542 4.27453 5.14792L4.11985 4.9875C4.03547 4.9 3.89485 4.9 3.81047 4.9875L2.98078 5.84792L2.61516 5.46875C2.53078 5.39583 2.39016 5.39583 2.30578 5.48333L2.1511 5.64375C2.06672 5.73125 2.06672 5.8625 2.13703 5.95L2.81203 6.825Z" fill="#251863"/>
<path d="M5.03125 5.86146V6.28438C5.03125 6.38646 5.11563 6.47396 5.21406 6.47396H8.15312C8.25156 6.47396 8.33594 6.38646 8.33594 6.28438V5.86146C8.33594 5.75938 8.25156 5.67188 8.15312 5.67188H5.21406C5.11563 5.67187 5.03125 5.75938 5.03125 5.86146Z" fill="#251863"/>
<path d="M2.8011 9.18906V9.18906C2.84328 9.2474 2.89953 9.27656 2.96985 9.27656V9.27656C3.04016 9.27656 3.09641 9.2474 3.1386 9.18906L4.30578 7.78906C4.3761 7.70156 4.3761 7.55573 4.29172 7.46823L4.13703 7.30781C4.05266 7.22031 3.89797 7.22031 3.8136 7.30781L2.95578 8.1974L2.59016 7.81823C2.50578 7.73073 2.3511 7.73073 2.26672 7.81823L2.11203 7.97865C2.02766 8.06615 2.02766 8.1974 2.09797 8.2849L2.8011 9.18906Z" fill="#251863"/>
<path d="M8.33594 8.20911C8.33594 8.10703 8.25156 8.01953 8.15312 8.01953H5.21406C5.11563 8.01953 5.03125 8.10703 5.03125 8.20911V8.63203C5.03125 8.73411 5.11563 8.82161 5.21406 8.82161H8.15312C8.25156 8.82161 8.33594 8.73411 8.33594 8.63203V8.20911Z" fill="#251863"/>
<path d="M2.8011 11.5367V11.5367C2.84328 11.5951 2.89953 11.6242 2.96985 11.6242V11.6242C3.04016 11.6242 3.09641 11.5951 3.1386 11.5367L4.30578 10.1367C4.3761 10.0492 4.3761 9.90339 4.29172 9.81589L4.13703 9.65547C4.05266 9.56797 3.89797 9.56797 3.8136 9.65547L2.95578 10.5451L2.59016 10.1659C2.50578 10.0784 2.36516 10.0784 2.26672 10.1659L2.11203 10.3263C2.02766 10.4138 2.02766 10.5451 2.09797 10.6326L2.8011 11.5367Z" fill="#251863"/>
<path d="M8.15312 10.3672H5.21406C5.11563 10.3672 5.03125 10.4547 5.03125 10.5568V10.9797C5.03125 11.0818 5.11563 11.1693 5.21406 11.1693H8.15312C8.25156 11.1693 8.33594 11.0818 8.33594 10.9797V10.5568C8.33594 10.4547 8.25156 10.3672 8.15312 10.3672Z" fill="#251863"/>
<path fill-rule="evenodd" clip-rule="evenodd" d="M7.525 3.72005H2.81406C2.63125 3.72005 2.49063 3.55964 2.47656 3.37005V1.98464C2.47656 1.79505 2.63125 1.63464 2.81406 1.63464H3.60156C3.64375 0.774219 4.33281 0.0742188 5.17656 0.0742188C6.02031 0.0742188 6.70937 0.759635 6.75156 1.63464H7.525C7.70781 1.63464 7.8625 1.79505 7.8625 1.98464V3.37005C7.8625 3.55964 7.70781 3.72005 7.525 3.72005ZM5.78164 1.72218C5.78164 1.37218 5.51445 1.09509 5.17695 1.09509C4.83945 1.09509 4.57227 1.37218 4.57227 1.72218C4.57227 2.07218 4.83945 2.34926 5.17695 2.34926C5.51445 2.34926 5.78164 2.07218 5.78164 1.72218Z" fill="#251863"/>
</g>
<defs>
<clipPath id="clip0_732_149181">
<rect width="11" height="14" fill="white"/>
</clipPath>
</defs>
</svg>
