<svg width="16" height="16" viewBox="0 0 16 16" fill="none" xmlns="http://www.w3.org/2000/svg">
<g clip-path="url(#clip0_732_149200)">
<path fill-rule="evenodd" clip-rule="evenodd" d="M3.41643 3.91672H1.58333C1.26116 3.91672 1 3.65556 1 3.3334C1 3.01124 1.26116 2.75007 1.58333 2.75007H3.41643C3.6779 1.7207 4.60455 1 5.66661 1C6.72868 1 7.65532 1.7207 7.91679 2.75007H14.4165C14.7387 2.75007 14.9998 3.01124 14.9998 3.3334C14.9998 3.65556 14.7387 3.91672 14.4165 3.91672H7.91679C7.65532 4.9461 6.72868 5.6668 5.66661 5.6668C4.60455 5.6668 3.6779 4.9461 3.41643 3.91672ZM6.83331 3.33342C6.83331 2.68909 6.31098 2.16676 5.66666 2.16676C5.02233 2.16676 4.50001 2.68909 4.50001 3.33342C4.50001 3.97774 5.02233 4.50007 5.66666 4.50007C6.31098 4.50007 6.83331 3.97774 6.83331 3.33342Z" fill="#251863"/>
<path d="M3.41643 3.91672L3.51335 3.89211L3.4942 3.81672H3.41643V3.91672ZM3.41643 2.75007V2.85007H3.4942L3.51335 2.77469L3.41643 2.75007ZM7.91679 2.75007L7.81987 2.77469L7.83902 2.85007H7.91679V2.75007ZM7.91679 3.91672V3.81672H7.83902L7.81987 3.89211L7.91679 3.91672ZM1.58333 4.01672H3.41643V3.81672H1.58333V4.01672ZM0.9 3.3334C0.9 3.71079 1.20594 4.01672 1.58333 4.01672V3.81672C1.31639 3.81672 1.1 3.60033 1.1 3.3334H0.9ZM1.58333 2.65007C1.20594 2.65007 0.9 2.95601 0.9 3.3334H1.1C1.1 3.06646 1.31639 2.85007 1.58333 2.85007V2.65007ZM3.41643 2.65007H1.58333V2.85007H3.41643V2.65007ZM5.66661 0.9C4.5588 0.9 3.59224 1.65174 3.31951 2.72545L3.51335 2.77469C3.76356 1.78965 4.6503 1.1 5.66661 1.1V0.9ZM8.01372 2.72545C7.74098 1.65174 6.77442 0.9 5.66661 0.9V1.1C6.68293 1.1 7.56966 1.78965 7.81987 2.77469L8.01372 2.72545ZM14.4165 2.65007H7.91679V2.85007H14.4165V2.65007ZM15.0998 3.3334C15.0998 2.95601 14.7939 2.65007 14.4165 2.65007V2.85007C14.6834 2.85007 14.8998 3.06646 14.8998 3.3334H15.0998ZM14.4165 4.01672C14.7939 4.01672 15.0998 3.71079 15.0998 3.3334H14.8998C14.8998 3.60033 14.6834 3.81672 14.4165 3.81672V4.01672ZM7.91679 4.01672H14.4165V3.81672H7.91679V4.01672ZM5.66661 5.7668C6.77442 5.7668 7.74098 5.01506 8.01372 3.94134L7.81987 3.89211C7.56966 4.87714 6.68293 5.5668 5.66661 5.5668V5.7668ZM3.31951 3.94134C3.59224 5.01506 4.5588 5.7668 5.66661 5.7668V5.5668C4.6503 5.5668 3.76356 4.87714 3.51335 3.89211L3.31951 3.94134ZM5.66666 2.26676C6.25575 2.26676 6.73331 2.74432 6.73331 3.33342H6.93331C6.93331 2.63386 6.36621 2.06676 5.66666 2.06676V2.26676ZM4.60001 3.33342C4.60001 2.74432 5.07756 2.26676 5.66666 2.26676V2.06676C4.96711 2.06676 4.40001 2.63386 4.40001 3.33342H4.60001ZM5.66666 4.40007C5.07756 4.40007 4.60001 3.92251 4.60001 3.33342H4.40001C4.40001 4.03297 4.96711 4.60007 5.66666 4.60007V4.40007ZM6.73331 3.33342C6.73331 3.92251 6.25575 4.40007 5.66666 4.40007V4.60007C6.36621 4.60007 6.93331 4.03297 6.93331 3.33342H6.73331Z" fill="white"/>
<path fill-rule="evenodd" clip-rule="evenodd" d="M8.08304 8.58469H1.58333C1.26116 8.58469 1 8.32353 1 8.00137C1 7.6792 1.26116 7.41804 1.58333 7.41804H8.08304C8.34451 6.38867 9.27116 5.66797 10.3332 5.66797C11.3953 5.66797 12.3219 6.38867 12.5834 7.41804H14.4165C14.7387 7.41804 14.9998 7.6792 14.9998 8.00137C14.9998 8.32353 14.7387 8.58469 14.4165 8.58469H12.5834C12.3219 9.61407 11.3953 10.3348 10.3332 10.3348C9.27116 10.3348 8.34451 9.61407 8.08304 8.58469ZM11.5003 8.00137C11.5003 7.35705 10.978 6.83472 10.3336 6.83472C9.68932 6.83472 9.16699 7.35705 9.16699 8.00137C9.16699 8.64569 9.68932 9.16802 10.3336 9.16802C10.978 9.16802 11.5003 8.64569 11.5003 8.00137Z" fill="#251863"/>
<path d="M8.08304 8.58469L8.17997 8.56007L8.16082 8.48469H8.08304V8.58469ZM8.08304 7.41804V7.51804H8.16082L8.17997 7.44266L8.08304 7.41804ZM12.5834 7.41804L12.4865 7.44266L12.5056 7.51804H12.5834V7.41804ZM12.5834 8.58469V8.48469H12.5056L12.4865 8.56007L12.5834 8.58469ZM1.58333 8.68469H8.08304V8.48469H1.58333V8.68469ZM0.9 8.00137C0.9 8.37876 1.20594 8.68469 1.58333 8.68469V8.48469C1.31639 8.48469 1.1 8.2683 1.1 8.00137H0.9ZM1.58333 7.31804C1.20594 7.31804 0.9 7.62398 0.9 8.00137H1.1C1.1 7.73443 1.31639 7.51804 1.58333 7.51804V7.31804ZM8.08304 7.31804H1.58333V7.51804H8.08304V7.31804ZM10.3332 5.56797C9.22542 5.56797 8.25885 6.31971 7.98612 7.39342L8.17997 7.44266C8.43017 6.45762 9.31691 5.76797 10.3332 5.76797V5.56797ZM12.6803 7.39342C12.4076 6.31971 11.441 5.56797 10.3332 5.56797V5.76797C11.3495 5.76797 12.2363 6.45762 12.4865 7.44266L12.6803 7.39342ZM14.4165 7.31804H12.5834V7.51804H14.4165V7.31804ZM15.0998 8.00137C15.0998 7.62398 14.7939 7.31804 14.4165 7.31804V7.51804C14.6834 7.51804 14.8998 7.73443 14.8998 8.00137H15.0998ZM14.4165 8.68469C14.7939 8.68469 15.0998 8.37876 15.0998 8.00137H14.8998C14.8998 8.2683 14.6834 8.48469 14.4165 8.48469V8.68469ZM12.5834 8.68469H14.4165V8.48469H12.5834V8.68469ZM10.3332 10.4348C11.441 10.4348 12.4076 9.68302 12.6803 8.60931L12.4865 8.56007C12.2363 9.54511 11.3495 10.2348 10.3332 10.2348V10.4348ZM7.98612 8.60931C8.25885 9.68302 9.22542 10.4348 10.3332 10.4348V10.2348C9.31691 10.2348 8.43017 9.54511 8.17997 8.56007L7.98612 8.60931ZM10.3336 6.93472C10.9227 6.93472 11.4003 7.41227 11.4003 8.00137H11.6003C11.6003 7.30182 11.0332 6.73472 10.3336 6.73472V6.93472ZM9.26699 8.00137C9.26699 7.41227 9.74455 6.93472 10.3336 6.93472V6.73472C9.63409 6.73472 9.06699 7.30182 9.06699 8.00137H9.26699ZM10.3336 9.06802C9.74455 9.06802 9.26699 8.59047 9.26699 8.00137H9.06699C9.06699 8.70092 9.63409 9.26802 10.3336 9.26802V9.06802ZM11.4003 8.00137C11.4003 8.59047 10.9227 9.06802 10.3336 9.06802V9.26802C11.0332 9.26802 11.6003 8.70092 11.6003 8.00137H11.4003Z" fill="white"/>
<path fill-rule="evenodd" clip-rule="evenodd" d="M3.41643 13.2488H1.58333C1.26116 13.2488 1 12.9876 1 12.6654C1 12.3433 1.26116 12.0821 1.58333 12.0821H3.41643C3.6779 11.0527 4.60455 10.332 5.66661 10.332C6.72868 10.332 7.65532 11.0527 7.91679 12.0821H14.4165C14.7387 12.0821 14.9998 12.3433 14.9998 12.6654C14.9998 12.9876 14.7387 13.2488 14.4165 13.2488H7.91679C7.65532 14.2781 6.72868 14.9988 5.66661 14.9988C4.60455 14.9988 3.6779 14.2781 3.41643 13.2488ZM6.83331 12.6655C6.83331 12.0211 6.31098 11.4988 5.66666 11.4988C5.02233 11.4988 4.50001 12.0211 4.50001 12.6655C4.50001 13.3098 5.02233 13.8321 5.66666 13.8321C6.31098 13.8321 6.83331 13.3098 6.83331 12.6655Z" fill="#251863"/>
<path d="M3.41643 13.2488L3.51335 13.2241L3.4942 13.1488H3.41643V13.2488ZM3.41643 12.0821V12.1821H3.4942L3.51335 12.1067L3.41643 12.0821ZM7.91679 12.0821L7.81987 12.1067L7.83902 12.1821H7.91679V12.0821ZM7.91679 13.2488V13.1488H7.83902L7.81987 13.2241L7.91679 13.2488ZM1.58333 13.3488H3.41643V13.1488H1.58333V13.3488ZM0.9 12.6654C0.9 13.0428 1.20594 13.3488 1.58333 13.3488V13.1488C1.31639 13.1488 1.1 12.9324 1.1 12.6654H0.9ZM1.58333 11.9821C1.20594 11.9821 0.9 12.288 0.9 12.6654H1.1C1.1 12.3985 1.31639 12.1821 1.58333 12.1821V11.9821ZM3.41643 11.9821H1.58333V12.1821H3.41643V11.9821ZM5.66661 10.232C4.5588 10.232 3.59224 10.9838 3.31951 12.0575L3.51335 12.1067C3.76356 11.1217 4.6503 10.432 5.66661 10.432V10.232ZM8.01372 12.0575C7.74098 10.9838 6.77442 10.232 5.66661 10.232V10.432C6.68293 10.432 7.56966 11.1217 7.81987 12.1067L8.01372 12.0575ZM14.4165 11.9821H7.91679V12.1821H14.4165V11.9821ZM15.0998 12.6654C15.0998 12.288 14.7939 11.9821 14.4165 11.9821V12.1821C14.6834 12.1821 14.8998 12.3985 14.8998 12.6654H15.0998ZM14.4165 13.3488C14.7939 13.3488 15.0998 13.0428 15.0998 12.6654H14.8998C14.8998 12.9324 14.6834 13.1488 14.4165 13.1488V13.3488ZM7.91679 13.3488H14.4165V13.1488H7.91679V13.3488ZM5.66661 15.0988C6.77442 15.0988 7.74098 14.3471 8.01372 13.2734L7.81987 13.2241C7.56966 14.2092 6.68293 14.8988 5.66661 14.8988V15.0988ZM3.31951 13.2734C3.59224 14.3471 4.5588 15.0988 5.66661 15.0988V14.8988C4.6503 14.8988 3.76356 14.2092 3.51335 13.2241L3.31951 13.2734ZM5.66666 11.5988C6.25575 11.5988 6.73331 12.0764 6.73331 12.6655H6.93331C6.93331 11.9659 6.36621 11.3988 5.66666 11.3988V11.5988ZM4.60001 12.6655C4.60001 12.0764 5.07756 11.5988 5.66666 11.5988V11.3988C4.96711 11.3988 4.40001 11.9659 4.40001 12.6655H4.60001ZM5.66666 13.7321C5.07756 13.7321 4.60001 13.2546 4.60001 12.6655H4.40001C4.40001 13.365 4.96711 13.9321 5.66666 13.9321V13.7321ZM6.73331 12.6655C6.73331 13.2546 6.25575 13.7321 5.66666 13.7321V13.9321C6.36621 13.9321 6.93331 13.365 6.93331 12.6655H6.73331Z" fill="white"/>
</g>
<defs>
<clipPath id="clip0_732_149200">
<rect width="16" height="16" fill="white"/>
</clipPath>
</defs>
</svg>
