<svg width="15" height="15" viewBox="0 0 15 15" fill="none" xmlns="http://www.w3.org/2000/svg">
<g clip-path="url(#clip0_732_149192)">
<path d="M1 12.3313C1 12.1462 1.15007 11.9961 1.3352 11.9961H13.6648C13.8499 11.9961 14 12.1462 14 12.3313V12.3313C14 12.5164 13.8499 12.6665 13.6648 12.6665H1.3352C1.15007 12.6665 1 12.5164 1 12.3313V12.3313Z" fill="#251863" stroke="#251863" stroke-width="0.2"/>
<path fill-rule="evenodd" clip-rule="evenodd" d="M10.75 12.6674H12.6385V3.12891H10.75V12.6674ZM12.0216 11.997H11.3668V3.7993H12.0216V11.997Z" fill="#251863" stroke="#251863" stroke-width="0.2"/>
<path fill-rule="evenodd" clip-rule="evenodd" d="M8.3125 12.6665H10.2008V4.5625H8.3125V12.6665ZM9.58395 11.9961H8.92935V5.23289H9.58395V11.9961Z" fill="#251863" stroke="#251863" stroke-width="0.2"/>
<path fill-rule="evenodd" clip-rule="evenodd" d="M5.88281 12.6685H7.77131V5.73828H5.88281V12.6685ZM7.15446 11.9981H6.49966V6.40867H7.15446V11.9981Z" fill="#251863" stroke="#251863" stroke-width="0.2"/>
<path fill-rule="evenodd" clip-rule="evenodd" d="M3.44531 12.6663H5.33361V7.10547H3.44531V12.6663ZM4.71676 11.9959H4.06216V7.77586H4.71676V11.9959Z" fill="#251863" stroke="#251863" stroke-width="0.2"/>
<path d="M2.01562 1.30842C2.01562 1.13809 2.15371 1 2.32405 1V1C2.49439 1 2.63247 1.13809 2.63247 1.30842V13.6916C2.63247 13.8619 2.49439 14 2.32405 14V14C2.15371 14 2.01562 13.8619 2.01562 13.6916V1.30842Z" fill="#251863" stroke="#251863" stroke-width="0.2"/>
</g>
<defs>
<clipPath id="clip0_732_149192">
<rect width="15" height="15" fill="white"/>
</clipPath>
</defs>
</svg>
