<svg width="24" height="24" viewBox="0 0 24 24" fill="none" xmlns="http://www.w3.org/2000/svg">
<g id="u:edit-alt" opacity="0.6">
<g id="Group">
<path id="Vector" d="M9.63332 7.69031H15.2032C15.4828 7.69031 15.7193 7.45375 15.7193 7.17418C15.7193 6.89461 15.4828 6.65805 15.2032 6.65805H9.63332C9.35375 6.65805 9.11719 6.89461 9.11719 7.17418C9.11719 7.45375 9.35375 7.69031 9.63332 7.69031Z" fill="#11093C"/>
<path id="Vector_2" d="M8.62257 10.0129H16.214C16.4935 10.0129 16.7301 9.77635 16.7301 9.49678C16.7301 9.21721 16.4935 8.98065 16.214 8.98065H8.62257C8.343 8.98065 8.10645 9.21721 8.10645 9.49678C8.10645 9.77635 8.343 10.0129 8.62257 10.0129Z" fill="#11093C"/>
<path id="Vector_3" d="M20.2998 11.6688C20.2998 11.6473 20.2998 11.6258 20.2998 11.6043C20.2998 11.5828 20.2998 11.5828 20.2998 11.5613C20.2998 11.5398 20.2998 11.5183 20.2783 11.4968V11.4753L17.7622 4.70107C17.7622 4.67956 17.7407 4.65806 17.7407 4.63655C17.7407 4.63655 17.7407 4.61505 17.7192 4.61505C17.6977 4.59354 17.6977 4.57204 17.6762 4.57204L17.6546 4.55053C17.6331 4.52903 17.6116 4.52903 17.6116 4.50752L17.5901 4.48602C17.5686 4.46451 17.5471 4.46451 17.5256 4.443C17.5256 4.443 17.5041 4.443 17.5041 4.4215C17.4826 4.4215 17.4611 4.39999 17.4396 4.39999H17.4181C17.3966 4.39999 17.3751 4.39999 17.3536 4.39999C17.3321 4.39999 17.3321 4.39999 17.3106 4.39999C17.3106 4.39999 17.3106 4.39999 17.2891 4.39999H7.28905C7.16002 4.39999 7.05249 4.443 6.96647 4.50752C6.88045 4.57204 6.79443 4.65806 6.75142 4.76559L4.32131 11.4107C4.2998 11.4538 4.2998 11.4968 4.2998 11.5613V11.5828C4.2998 11.6043 4.2998 11.6043 4.2998 11.6258C4.2998 11.6473 4.2998 11.6688 4.2998 11.6903C4.2998 11.7118 4.2998 11.7118 4.2998 11.7333C4.2998 11.7548 4.2998 11.7548 4.2998 11.7763L5.31056 18.2064C5.31056 18.2064 5.31056 18.2064 5.31056 18.228C5.31056 18.2495 5.31056 18.2495 5.31056 18.271C5.31056 18.2925 5.31056 18.314 5.33206 18.3355C5.33206 18.357 5.33206 18.357 5.35357 18.3785C5.35357 18.4 5.37507 18.4215 5.37507 18.4215C5.37507 18.443 5.39658 18.443 5.39658 18.4645C5.39658 18.486 5.41808 18.486 5.43959 18.5075L5.4611 18.529C5.4826 18.5505 5.4826 18.5505 5.50411 18.572C5.52561 18.572 5.52561 18.5935 5.54712 18.5935C5.56862 18.5935 5.56862 18.615 5.59013 18.615C5.61163 18.615 5.61163 18.6366 5.63314 18.6366C5.65464 18.6366 5.67615 18.6581 5.69765 18.6581C5.71916 18.6581 5.71916 18.6581 5.71916 18.6581C5.74066 18.6581 5.78368 18.6581 5.80518 18.6581H18.7944C18.8374 18.6581 18.8589 18.6581 18.8805 18.6581C18.902 18.6581 18.902 18.6581 18.9235 18.6581C18.945 18.6581 18.9665 18.6581 18.988 18.6366C19.0095 18.6366 19.0095 18.615 19.031 18.615C19.0525 18.615 19.0525 18.5935 19.074 18.5935C19.074 18.5075 19.074 18.5075 19.0955 18.5075C19.117 18.5075 19.117 18.486 19.1385 18.4645L19.16 18.443C19.1815 18.4215 19.1815 18.4215 19.203 18.4C19.203 18.4 19.2245 18.3785 19.2245 18.357C19.2245 18.3355 19.246 18.314 19.246 18.314C19.246 18.2925 19.2675 18.2925 19.2675 18.271C19.2675 18.2495 19.2891 18.228 19.2891 18.2064C19.2891 18.1849 19.2891 18.1849 19.2891 18.1634C19.2891 18.1634 19.2891 18.1634 19.2891 18.1419L20.2998 11.7118C20.2998 11.6903 20.2998 11.6903 20.2998 11.6903C20.2998 11.7118 20.2998 11.6903 20.2998 11.6688ZM18.3428 17.5828H6.23529L5.37507 12.1634H9.074C9.31056 13.7333 10.6654 14.9161 12.2998 14.9161C13.9342 14.9161 15.2891 13.7118 15.5256 12.1634H19.203L18.3428 17.5828ZM7.65464 5.36774H16.9235L19.074 11.1527H15.0095C14.7514 11.1527 14.5364 11.3892 14.5364 11.6688C14.5364 12.9161 13.5256 13.9269 12.2783 13.9269C11.031 13.9269 10.0417 12.9161 10.0417 11.6688C10.0417 11.3892 9.80518 11.1527 9.52561 11.1527H5.54712L7.65464 5.36774Z" fill="#11093C"/>
</g>
</g>
</svg>
