<svg width="16" height="16" viewBox="0 0 16 16" fill="none" xmlns="http://www.w3.org/2000/svg">
<path d="M2.5115 5.94364H5.25368C5.43558 5.94364 5.61015 5.87132 5.73883 5.74275C5.8674 5.61407 5.93972 5.4395 5.93972 5.25759V2.51542C5.93972 2.33351 5.8674 2.15895 5.73883 2.03027C5.61016 1.9017 5.43558 1.82938 5.25368 1.82938H2.5115C2.3296 1.82938 2.15503 1.9017 2.02635 2.03027C1.89778 2.15894 1.82546 2.33352 1.82546 2.51542V5.25759C1.82546 5.63719 2.13201 5.94364 2.5115 5.94364ZM2.5115 6.97221C1.56519 6.97221 0.796875 6.2049 0.796875 5.25758V2.51541C0.796875 1.5691 1.56419 0.800781 2.5115 0.800781H5.25368C6.19999 0.800781 6.9683 1.5681 6.9683 2.51541V5.25758C6.9683 6.20389 6.20099 6.97221 5.25368 6.97221H2.5115ZM2.5115 14.1722H5.25368C5.43558 14.1722 5.61015 14.0999 5.73883 13.9713C5.8674 13.8426 5.93972 13.6681 5.93972 13.4862V10.744C5.93972 10.5621 5.8674 10.3875 5.73883 10.2588C5.61016 10.1303 5.43558 10.058 5.25368 10.058H2.5115C2.3296 10.058 2.15503 10.1303 2.02635 10.2588C1.89778 10.3875 1.82546 10.5621 1.82546 10.744V13.4862C1.82546 13.8658 2.13201 14.1722 2.5115 14.1722ZM2.5115 15.2008C1.56519 15.2008 0.796875 14.4335 0.796875 13.4862V10.744C0.796875 9.79767 1.56419 9.02935 2.5115 9.02935H5.25368C6.19999 9.02935 6.9683 9.79667 6.9683 10.744V13.4862C6.9683 14.4325 6.20099 15.2008 5.25368 15.2008H2.5115ZM10.7401 5.94364H13.4822C13.6642 5.94364 13.8387 5.87132 13.9674 5.74275C14.096 5.61407 14.1683 5.4395 14.1683 5.25759V2.51542C14.1683 2.33351 14.096 2.15895 13.9674 2.03027C13.8387 1.9017 13.6642 1.82938 13.4822 1.82938H10.7401C10.5582 1.82938 10.3836 1.9017 10.2549 2.03027C10.1264 2.15894 10.054 2.33352 10.054 2.51542V5.25759C10.054 5.63719 10.3606 5.94364 10.7401 5.94364ZM10.7401 6.97221C9.79376 6.97221 9.02545 6.2049 9.02545 5.25758V2.51541C9.02545 1.5691 9.79276 0.800781 10.7401 0.800781H13.4822C14.4286 0.800781 15.1969 1.5681 15.1969 2.51541V5.25758C15.1969 6.20389 14.4296 6.97221 13.4822 6.97221H10.7401ZM10.7401 14.1722H13.4822C13.6642 14.1722 13.8387 14.0999 13.9674 13.9713C14.096 13.8426 14.1683 13.6681 14.1683 13.4862V10.744C14.1683 10.5621 14.096 10.3875 13.9674 10.2588C13.8387 10.1303 13.6642 10.058 13.4822 10.058H10.7401C10.5582 10.058 10.3836 10.1303 10.2549 10.2588C10.1264 10.3875 10.054 10.5621 10.054 10.744V13.4862C10.054 13.8658 10.3606 14.1722 10.7401 14.1722ZM10.7401 15.2008C9.79376 15.2008 9.02545 14.4335 9.02545 13.4862V10.744C9.02545 9.79767 9.79276 9.02935 10.7401 9.02935H13.4822C14.4286 9.02935 15.1969 9.79667 15.1969 10.744V13.4862C15.1969 14.4325 14.4296 15.2008 13.4822 15.2008H10.7401Z" fill="#928BB1" stroke="#928BB1" stroke-width="0.1"/>
</svg>
