<svg width="18" height="18" viewBox="0 0 18 18" fill="none" xmlns="http://www.w3.org/2000/svg">
<path d="M3.51541 6.94364H6.25758C6.43949 6.94364 6.61406 6.87131 6.74273 6.74274C6.8713 6.61407 6.94362 6.43949 6.94362 6.25759V3.51542C6.94362 3.33351 6.8713 3.15894 6.74273 3.03027C6.61406 2.9017 6.43948 2.82938 6.25758 2.82938H3.51541C3.3335 2.82938 3.15893 2.9017 3.03026 3.03027C2.90168 3.15894 2.82936 3.33352 2.82936 3.51542V6.25759C2.82936 6.63719 3.13592 6.94364 3.51541 6.94364ZM3.51541 7.97221C2.5691 7.97221 1.80078 7.20489 1.80078 6.25758V3.51541C1.80078 2.5691 2.56809 1.80078 3.51541 1.80078H6.25758C7.20389 1.80078 7.97221 2.56809 7.97221 3.51541V6.25758C7.97221 7.20389 7.20489 7.97221 6.25758 7.97221H3.51541ZM3.51541 15.1722H6.25758C6.43949 15.1722 6.61406 15.0999 6.74273 14.9713C6.8713 14.8426 6.94362 14.668 6.94362 14.4861V11.744C6.94362 11.5621 6.8713 11.3875 6.74273 11.2588C6.61406 11.1302 6.43948 11.0579 6.25758 11.0579H3.51541C3.3335 11.0579 3.15893 11.1302 3.03026 11.2588C2.90168 11.3875 2.82936 11.5621 2.82936 11.744V14.4861C2.82936 14.8657 3.13592 15.1722 3.51541 15.1722ZM3.51541 16.2007C2.5691 16.2007 1.80078 15.4334 1.80078 14.4861V11.7439C1.80078 10.7976 2.56809 10.0293 3.51541 10.0293H6.25758C7.20389 10.0293 7.97221 10.7966 7.97221 11.7439V14.4861C7.97221 15.4324 7.20489 16.2007 6.25758 16.2007H3.51541ZM11.7439 6.94364H14.4861C14.668 6.94364 14.8426 6.87131 14.9713 6.74274C15.0998 6.61407 15.1722 6.43949 15.1722 6.25759V3.51542C15.1722 3.33351 15.0998 3.15894 14.9713 3.03027C14.8426 2.9017 14.668 2.82938 14.4861 2.82938H11.7439C11.562 2.82938 11.3875 2.9017 11.2588 3.03027C11.1302 3.15894 11.0579 3.33352 11.0579 3.51542V6.25759C11.0579 6.63719 11.3645 6.94364 11.7439 6.94364ZM11.7439 7.97221C10.7976 7.97221 10.0293 7.20489 10.0293 6.25758V3.51541C10.0293 2.5691 10.7966 1.80078 11.7439 1.80078H14.4861C15.4324 1.80078 16.2007 2.56809 16.2007 3.51541V6.25758C16.2007 7.20389 15.4334 7.97221 14.4861 7.97221H11.7439ZM11.7439 15.1722H14.4861C14.668 15.1722 14.8426 15.0999 14.9713 14.9713C15.0998 14.8426 15.1722 14.668 15.1722 14.4861V11.744C15.1722 11.5621 15.0998 11.3875 14.9713 11.2588C14.8426 11.1302 14.668 11.0579 14.4861 11.0579H11.7439C11.562 11.0579 11.3875 11.1302 11.2588 11.2588C11.1302 11.3875 11.0579 11.5621 11.0579 11.744V14.4861C11.0579 14.8657 11.3645 15.1722 11.7439 15.1722ZM11.7439 16.2007C10.7976 16.2007 10.0293 15.4334 10.0293 14.4861V11.7439C10.0293 10.7976 10.7966 10.0293 11.7439 10.0293H14.4861C15.4324 10.0293 16.2007 10.7966 16.2007 11.7439V14.4861C16.2007 15.4324 15.4334 16.2007 14.4861 16.2007H11.7439Z" fill="#251863" stroke="#251863"/>
</svg>
