<svg width="16" height="16" viewBox="0 0 16 16" fill="none" xmlns="http://www.w3.org/2000/svg">
<path opacity="0.6" d="M6.81045 8.0179L2.61518 3.82264C2.35483 3.56229 2.35483 3.14018 2.61518 2.87983C2.87553 2.61948 3.29764 2.61948 3.55799 2.87983L7.75326 7.07509L11.9485 2.87983C12.2089 2.61948 12.631 2.61948 12.8913 2.87983C13.1517 3.14018 13.1517 3.56229 12.8913 3.82264L8.69606 8.0179L12.8913 12.2132C13.1517 12.4735 13.1517 12.8956 12.8913 13.156C12.631 13.4163 12.2089 13.4163 11.9485 13.156L7.75326 8.96071L3.55799 13.156C3.29764 13.4163 2.87553 13.4163 2.61518 13.156C2.35483 12.8956 2.35483 12.4735 2.61518 12.2132L6.81045 8.0179Z" fill="#11093C"/>
</svg>
