<svg width="214" height="214" viewBox="0 0 214 214" fill="none" xmlns="http://www.w3.org/2000/svg">
<g opacity="0.35" clip-path="url(#clip0_391_40754)">
<path d="M187.717 192.8C187.717 195.734 185.316 198.134 182.383 198.134C179.45 198.134 177.05 195.733 177.05 192.8C177.05 189.868 179.45 187.467 182.383 187.467C185.316 187.467 187.717 189.868 187.717 192.8ZM131.45 189.867C128.517 189.867 126.116 192.268 126.116 195.201C126.116 198.134 128.517 200.535 131.45 200.535C134.383 200.535 136.783 198.134 136.783 195.201C136.515 192 134.383 189.867 131.45 189.867ZM65.8483 131.466C62.9152 131.466 60.5147 133.867 60.5147 136.8C60.5147 139.732 62.9154 142.133 65.8483 142.133C68.7811 142.133 71.1818 139.732 71.1818 136.8C71.1818 133.865 68.7811 131.466 65.8483 131.466ZM208.25 146.399C205.317 146.399 202.916 148.8 202.916 151.733C202.916 154.666 205.317 157.066 208.25 157.066C211.183 157.066 213.583 154.666 213.583 151.733C213.583 148.798 211.183 146.399 208.25 146.399ZM117.585 82.3963C117.585 85.3293 119.986 87.7299 122.919 87.7299C125.852 87.7299 128.253 85.3292 128.253 82.3963C128.253 79.4634 125.852 77.0627 122.919 77.0627C119.986 77.0644 117.585 79.4634 117.585 82.3963ZM168.517 43.4631C171.45 43.4631 173.85 41.0625 173.85 38.1296C173.85 35.1967 171.45 32.796 168.517 32.796C165.584 32.796 163.183 35.1967 163.183 38.1296C163.183 41.0643 165.584 43.4631 168.517 43.4631ZM193.051 91.9989C190.118 91.9989 187.717 94.3995 187.717 97.3324C187.717 100.265 190.118 102.666 193.051 102.666C195.984 102.666 198.384 100.265 198.384 97.3324C198.384 94.3977 195.718 91.9989 193.051 91.9989ZM71.1823 74.9314C74.1153 74.9314 76.5158 72.5307 76.5158 69.5979C76.5158 66.665 74.1151 64.2643 71.1823 64.2643C68.2494 64.2643 65.8487 66.665 65.8487 69.5979C65.8487 72.5326 68.2494 74.9314 71.1823 74.9314ZM81.582 10.6671C84.515 10.6671 86.9155 8.26646 86.9155 5.33357C86.9155 2.40068 84.5149 0 81.582 0C78.6491 0 76.2484 2.40068 76.2484 5.33357C76.2484 8.26646 78.6491 10.6671 81.582 10.6671ZM42.6488 106.667C42.6488 109.6 45.0495 112.001 47.9824 112.001C50.9153 112.001 53.316 109.6 53.316 106.667C53.316 103.734 50.9153 101.334 47.9824 101.334C45.0477 101.334 42.6488 103.734 42.6488 106.667ZM42.6488 39.9986C45.5819 39.9986 47.9824 37.5979 47.9824 34.665C47.9824 31.7321 45.5817 29.3314 42.6488 29.3314C39.7159 29.3314 37.3152 31.7321 37.3152 34.665C37.3152 37.5997 39.7159 39.9986 42.6488 39.9986ZM6.11482 150.664C3.18176 150.664 0.78125 153.065 0.78125 155.998C0.78125 158.931 3.18194 161.331 6.11482 161.331C9.04771 161.331 11.4484 158.931 11.4484 155.998C11.1822 153.065 8.78152 150.664 6.11482 150.664ZM100.516 34.3971C99.9822 30.6639 101.583 27.1967 104.784 25.3303C107.983 23.4636 111.984 23.9977 114.917 26.3967C115.717 26.9307 116.518 27.9972 117.318 29.3298C117.584 25.5965 115.985 21.3292 112.784 16.7958C111.984 15.7293 112.25 14.1289 113.318 13.3287C114.385 12.5285 115.985 12.7947 116.785 13.8627C125.318 25.8627 121.851 34.1295 119.985 37.0626C119.985 37.0626 119.985 37.3288 119.718 37.3288C120.253 41.5961 119.718 47.4624 117.318 55.4625C117.052 56.5289 115.985 57.3291 114.917 57.3291H114.117C112.784 56.7951 111.984 55.4625 112.516 54.1299C114.117 49.0642 114.649 45.0631 114.917 41.8638C112.784 42.664 110.118 43.1981 107.451 42.3978C103.717 41.5976 101.05 38.6645 100.516 34.3971ZM105.85 33.8648C106.116 35.9976 107.182 37.3318 108.783 37.598C110.383 37.8642 113.05 37.3318 114.917 35.7314C114.116 32.5322 112.784 31.1979 111.984 30.6657C111.183 29.8654 110.117 29.5992 109.317 29.5992C108.516 29.5992 107.984 29.8654 107.45 30.1333C106.117 30.664 105.584 31.9982 105.85 33.8648ZM196.514 122.399C195.98 123.732 194.381 124.266 193.047 123.732C170.913 114.665 149.316 120.799 136.78 126.399C139.181 129.332 141.047 132.265 142.914 135.199C150.38 132.532 156.246 134.665 159.181 135.999C160.781 136.8 162.114 137.6 163.448 138.666C168.782 136.534 176.514 135.199 185.848 135.467C187.181 135.467 188.515 136.534 188.515 138.134C188.515 139.467 187.448 140.801 185.848 140.801H185.048C176.515 140.801 170.915 141.867 167.181 142.934C169.848 146.401 171.181 150.4 170.381 153.601C169.58 156.534 167.448 158.401 163.98 158.401C160.247 158.401 157.046 156.534 155.18 153.601C153.579 150.934 153.579 147.735 155.18 145.068C155.98 143.736 156.78 142.668 158.113 141.601C157.579 141.335 157.046 141.067 156.512 140.801C152.779 138.935 149.046 138.668 145.046 139.735C150.912 150.402 153.047 159.467 148.513 164.269C147.979 164.803 147.181 165.335 146.38 165.869L146.114 166.135C145.314 166.402 58.9171 202.936 36.7814 212.803C35.4488 213.337 34.1145 213.603 32.782 213.603C27.7162 213.603 23.7151 209.603 23.7151 204.536C23.7151 203.469 23.9813 202.135 24.5153 201.069L65.581 86.936C65.581 86.936 65.581 86.6698 65.8472 86.6698C66.3813 85.3372 66.9136 84.2691 67.7139 83.4706C72.5134 78.4049 82.647 81.3378 94.1147 88.004C93.8485 77.8704 92.2481 67.2033 87.1804 59.2044C83.181 52.8042 77.3134 48.5369 69.8469 46.9383C68.5143 46.6721 67.4462 45.3378 67.9802 44.0052C68.2464 42.6726 69.5807 41.6046 70.9133 42.1386C79.9801 44.0052 86.9127 48.805 91.714 56.5395C97.8477 66.4065 99.7146 79.7393 99.4467 91.4732C106.913 96.5389 114.914 103.207 121.846 110.14C125.58 113.873 129.313 118.14 132.78 122.14C145.846 116.006 169.58 108.539 194.379 118.94C196.512 119.734 197.046 121.067 196.512 122.401L196.514 122.399ZM160.248 151.199C161.048 152.531 162.649 153.331 164.515 153.331C165.582 153.331 165.848 153.065 165.848 152.531C166.114 151.199 165.048 147.998 162.649 145.331C161.048 146.397 160.516 147.197 160.248 147.731C159.716 149.332 159.982 150.398 160.248 151.199ZM135.182 165.599C132.781 164.799 129.848 163.467 126.915 161.866C117.048 156.801 106.114 148 95.4484 137.6C85.0487 127.2 76.248 116.001 71.1823 106.134C69.8497 103.467 68.7816 101.068 67.7152 98.667L30.1149 203.2V203.466C30.1149 203.732 29.8487 204.266 29.8487 204.532C29.8487 206.665 31.4492 208.266 33.582 208.266C34.116 208.266 34.3822 208.266 34.9146 207.999L35.4486 207.733H35.7148C53.8485 200.001 111.718 175.467 135.182 165.601L135.182 165.599ZM132.249 128.799C128.515 130.932 126.115 132.533 126.115 132.533C125.581 132.799 125.049 133.067 124.514 133.067C123.714 133.067 122.914 132.8 122.382 132C121.581 130.934 121.848 129.333 122.916 128.533C123.182 128.267 125.316 126.933 128.782 125.066C125.849 121.599 122.648 117.866 118.915 114.399C112.249 107.732 105.849 102.399 99.9807 98.1312C99.1804 110.131 97.0476 119.73 96.7815 120.531C96.5153 121.597 95.4489 122.398 94.3808 122.398H93.8467C92.5141 122.131 91.7139 120.797 91.9801 119.198C91.9801 118.932 94.647 107.999 95.1793 94.6644C86.6464 89.3308 79.98 86.6638 75.7127 86.6638C74.1123 86.6638 73.0459 86.93 72.2457 87.7302C70.6452 89.3307 70.6452 94.6645 75.7127 104.264C80.7784 113.597 89.0452 124.264 99.1787 134.397C109.312 144.531 119.979 152.798 129.312 157.863C138.912 162.929 144.246 162.929 145.846 161.33C148.247 158.93 146.646 151.997 141.312 142.664C138.113 144.531 134.912 147.197 131.713 150.931C130.913 151.997 129.046 152.263 127.98 151.197C126.914 150.397 126.647 148.53 127.714 147.464C131.447 142.93 135.18 139.997 138.381 138.131C136.783 134.931 134.648 131.998 132.249 128.799ZM124.514 98.9318C125.048 99.4658 125.581 99.732 126.381 99.732C127.181 99.732 127.713 99.4658 128.247 98.9318C155.447 70.9323 155.981 39.7332 155.981 38.3961C155.981 37.0635 154.914 35.7292 153.314 35.7292C151.981 35.7292 150.647 36.7956 150.647 38.3961C150.647 38.6622 150.113 69.0625 124.514 95.4646C123.448 96.2649 123.448 97.8654 124.514 98.9318ZM210.648 59.7325C203.182 79.4652 193.315 81.5995 187.981 81.0655C187.447 81.0655 187.181 81.0655 186.648 80.7993C182.649 83.9985 176.781 87.1996 167.714 90.3984C167.448 90.3984 167.18 90.6646 166.914 90.6646C165.847 90.6646 164.781 89.8644 164.513 88.798C163.979 87.4654 164.779 85.8649 166.114 85.5988C172.78 83.466 177.58 81.0654 181.047 78.6645C178.38 76.5317 176.513 73.5988 175.981 70.9318C175.181 67.1985 177.047 63.7314 180.514 62.1311C183.981 60.2644 187.981 60.5306 190.648 62.3973C193.049 64.2639 194.381 67.1968 193.847 70.3978C193.581 71.7304 193.047 73.597 191.714 75.7314C197.048 74.1309 202.114 67.9987 205.847 57.8651C206.381 56.5325 207.98 55.9985 209.047 56.2646C210.649 56.7987 211.181 58.3975 210.649 59.7317L210.648 59.7325ZM187.715 66.3989C187.181 65.8649 186.382 65.8649 185.582 65.8649C184.782 65.8649 183.715 66.1311 182.915 66.6651C181.582 67.4653 181.048 68.5317 181.315 69.8643C181.581 71.7309 183.181 73.8637 185.582 74.93C187.715 72.7972 188.515 70.9306 188.781 69.3303C189.047 68.2656 188.781 67.1991 187.715 66.3989Z" fill="#251863"/>
</g>
<defs>
<clipPath id="clip0_391_40754">
<rect width="212.802" height="213.603" fill="white" transform="translate(0.78125)"/>
</clipPath>
</defs>
</svg>
