<svg width="16" height="16" viewBox="0 0 16 16" fill="none" xmlns="http://www.w3.org/2000/svg">
<path opacity="0.5" d="M10.0092 1.77094L10.0092 1.77093C10.5907 1.18974 11.3541 0.9 12.1167 0.9C12.8793 0.9 13.6428 1.18972 14.2242 1.77079L14.1535 1.84153L14.2242 1.77079C15.387 2.93292 15.387 4.82371 14.2242 5.98584C14.2242 5.98585 14.2242 5.98586 14.2242 5.98586L12.4455 7.76448L12.4455 7.76449C11.864 8.34574 11.1 8.64106 10.338 8.64106H9.974H9.97332V8.54106C9.78359 8.54382 9.60912 8.37173 9.60912 8.18199C9.60912 7.99224 9.78357 7.82028 9.97332 7.82291L10.0092 1.77094ZM10.0092 1.77094L8.23048 3.54956C8.23047 3.54956 8.23047 3.54957 8.23046 3.54957C7.64432 4.13546 7.35403 4.90788 7.35952 5.67435V6.02673L10.0092 1.77094ZM5.65828 7.36368H5.65831L6.02236 7.36377H6.02306L6.02303 7.46377C6.21277 7.46102 6.38723 7.6331 6.38723 7.82285C6.38723 8.01259 6.21278 8.18455 6.02303 8.18192L5.65828 7.36368ZM5.65828 7.36368C4.89682 7.36368 4.13269 7.65302 3.55085 8.23461L3.55083 8.23462L1.77209 10.0134C1.77209 10.0134 1.77208 10.0134 1.77207 10.0134C0.609302 11.1755 0.609309 13.0663 1.77209 14.2284C2.93485 15.3905 4.82435 15.3905 5.98708 14.2284L5.9871 14.2284L7.76584 12.4497C7.76585 12.4497 7.76586 12.4497 7.76586 12.4496C8.35201 11.8638 8.64229 11.0913 8.6368 10.3249V9.9781L5.65828 7.36368ZM10.0938 5.38407C9.99354 5.39848 9.89926 5.44689 9.829 5.51954M10.0938 5.38407L10.108 5.48305M10.0938 5.38407C10.0937 5.38408 10.0937 5.38408 10.0936 5.38409L10.108 5.48305M10.0938 5.38407C10.2869 5.35607 10.4884 5.46339 10.5731 5.63917C10.6575 5.81447 10.6163 6.03825 10.475 6.17201L6.1677 10.4793C6.16754 10.4795 6.16737 10.4796 6.1672 10.4798C5.99533 10.6557 5.6852 10.657 5.51207 10.482L9.829 5.51954M9.829 5.51954L9.82962 5.51892L9.90033 5.58963M9.829 5.51954C9.82876 5.51979 9.82853 5.52003 9.82829 5.52028L9.90033 5.58963M9.829 5.51954L5.52117 9.82737M9.829 5.51954L5.52117 9.82737M10.108 5.48305C10.0296 5.49432 9.95531 5.53252 9.90033 5.58963M10.108 5.48305L9.90033 5.58963M9.90033 5.58963L5.59106 9.8989L9.90033 5.58963ZM5.52117 9.82737C5.34354 9.99741 5.33912 10.3071 5.51206 10.482L5.52117 9.82737ZM10.338 7.72291H9.97397L7.45952 6.02738C7.45689 6.21713 7.62885 6.39159 7.81859 6.39159C8.00834 6.39159 8.18042 6.21712 8.17767 6.02738H8.27767V6.0267L8.27767 5.66831L8.27766 5.66757C8.27372 5.13686 8.47363 4.61011 8.88234 4.20165L8.88236 4.20163L10.6611 2.42289C10.6611 2.42289 10.6611 2.42288 10.6611 2.42287C11.473 1.61151 12.7659 1.61152 13.5777 2.42289C14.3896 3.23424 14.3896 4.52245 13.5777 5.3338L13.5777 5.33382L11.7991 7.11256C11.7991 7.11256 11.7991 7.11257 11.7991 7.11258C11.3931 7.51827 10.8643 7.72291 10.338 7.72291ZM5.65831 8.28192H6.02238L8.5368 9.97745C8.53943 9.7877 8.36747 9.61325 8.17773 9.61325C7.98798 9.61325 7.8159 9.78771 7.81866 9.97745H7.71866V9.97813L7.71865 10.3309L7.71866 10.3316C7.7226 10.8623 7.52269 11.3891 7.11398 11.7975L7.11397 11.7976L5.33513 13.5763C5.33512 13.5763 5.33512 13.5763 5.33511 13.5763C4.52324 14.3877 3.23036 14.3877 2.4185 13.5763C1.60666 12.7649 1.60666 11.4767 2.4185 10.6654L2.41852 10.6654L4.19726 8.88664C4.60274 8.4814 5.1314 8.28192 5.65831 8.28192Z" fill="#251863" stroke="#251863" stroke-width="0.2"/>
</svg>
