<svg width="18" height="18" viewBox="0 0 18 18" fill="none" xmlns="http://www.w3.org/2000/svg">
<path d="M3.51468 6.94291H6.25685C6.43876 6.94291 6.61333 6.87058 6.742 6.74201C6.87057 6.61334 6.94289 6.43876 6.94289 6.25686V3.51469C6.94289 3.33278 6.87057 3.15821 6.742 3.02954C6.61333 2.90097 6.43875 2.82865 6.25685 2.82865H3.51468C3.33277 2.82865 3.1582 2.90097 3.02953 3.02954C2.90095 3.15821 2.82863 3.33279 2.82863 3.51469V6.25686C2.82863 6.63646 3.13519 6.94291 3.51468 6.94291ZM3.51468 7.97148C2.56837 7.97148 1.80005 7.20416 1.80005 6.25685V3.51468C1.80005 2.56837 2.56736 1.80005 3.51468 1.80005H6.25685C7.20316 1.80005 7.97148 2.56736 7.97148 3.51468V6.25685C7.97148 7.20316 7.20416 7.97148 6.25685 7.97148H3.51468ZM3.51468 15.1715H6.25685C6.43876 15.1715 6.61333 15.0992 6.742 14.9706C6.87057 14.8419 6.94289 14.6673 6.94289 14.4854V11.7433C6.94289 11.5614 6.87057 11.3868 6.742 11.2581C6.61333 11.1295 6.43875 11.0572 6.25685 11.0572H3.51468C3.33277 11.0572 3.1582 11.1295 3.02953 11.2581C2.90095 11.3868 2.82863 11.5614 2.82863 11.7433V14.4854C2.82863 14.865 3.13519 15.1715 3.51468 15.1715ZM3.51468 16.2C2.56837 16.2 1.80005 15.4327 1.80005 14.4854V11.7432C1.80005 10.7969 2.56736 10.0286 3.51468 10.0286H6.25685C7.20316 10.0286 7.97148 10.7959 7.97148 11.7432V14.4854C7.97148 15.4317 7.20416 16.2 6.25685 16.2H3.51468ZM11.7432 6.94291H14.4854C14.6673 6.94291 14.8419 6.87058 14.9706 6.74201C15.0991 6.61334 15.1715 6.43876 15.1715 6.25686V3.51469C15.1715 3.33278 15.0991 3.15821 14.9706 3.02954C14.8419 2.90097 14.6673 2.82865 14.4854 2.82865H11.7432C11.5613 2.82865 11.3868 2.90097 11.2581 3.02954C11.1295 3.15821 11.0572 3.33279 11.0572 3.51469V6.25686C11.0572 6.63646 11.3638 6.94291 11.7432 6.94291ZM11.7432 7.97148C10.7969 7.97148 10.0286 7.20416 10.0286 6.25685V3.51468C10.0286 2.56837 10.7959 1.80005 11.7432 1.80005H14.4854C15.4317 1.80005 16.2 2.56736 16.2 3.51468V6.25685C16.2 7.20316 15.4327 7.97148 14.4854 7.97148H11.7432ZM11.7432 15.1715H14.4854C14.6673 15.1715 14.8419 15.0992 14.9706 14.9706C15.0991 14.8419 15.1715 14.6673 15.1715 14.4854V11.7433C15.1715 11.5614 15.0991 11.3868 14.9706 11.2581C14.8419 11.1295 14.6673 11.0572 14.4854 11.0572H11.7432C11.5613 11.0572 11.3868 11.1295 11.2581 11.2581C11.1295 11.3868 11.0572 11.5614 11.0572 11.7433V14.4854C11.0572 14.865 11.3638 15.1715 11.7432 15.1715ZM11.7432 16.2C10.7969 16.2 10.0286 15.4327 10.0286 14.4854V11.7432C10.0286 10.7969 10.7959 10.0286 11.7432 10.0286H14.4854C15.4317 10.0286 16.2 10.7959 16.2 11.7432V14.4854C16.2 15.4317 15.4327 16.2 14.4854 16.2H11.7432Z" fill="#928BB1" stroke="#928BB1"/>
</svg>
