<svg width="16" height="16" viewBox="0 0 16 16" fill="none" xmlns="http://www.w3.org/2000/svg">
<path d="M2.51541 5.94364H5.25758C5.43949 5.94364 5.61406 5.87131 5.74273 5.74274C5.8713 5.61407 5.94362 5.43949 5.94362 5.25759V2.51542C5.94362 2.33351 5.8713 2.15894 5.74273 2.03027C5.61406 1.9017 5.43948 1.82938 5.25758 1.82938H2.51541C2.3335 1.82938 2.15893 1.9017 2.03026 2.03027C1.90168 2.15894 1.82936 2.33352 1.82936 2.51542V5.25759C1.82936 5.63719 2.13592 5.94364 2.51541 5.94364ZM2.51541 6.97221C1.5691 6.97221 0.800781 6.20489 0.800781 5.25758V2.51541C0.800781 1.5691 1.56809 0.800781 2.51541 0.800781H5.25758C6.20389 0.800781 6.97221 1.56809 6.97221 2.51541V5.25758C6.97221 6.20389 6.20489 6.97221 5.25758 6.97221H2.51541ZM2.51541 14.1722H5.25758C5.43949 14.1722 5.61406 14.0999 5.74273 13.9713C5.8713 13.8426 5.94362 13.668 5.94362 13.4861V10.744C5.94362 10.5621 5.8713 10.3875 5.74273 10.2588C5.61406 10.1302 5.43948 10.0579 5.25758 10.0579H2.51541C2.3335 10.0579 2.15893 10.1302 2.03026 10.2588C1.90168 10.3875 1.82936 10.5621 1.82936 10.744V13.4861C1.82936 13.8657 2.13592 14.1722 2.51541 14.1722ZM2.51541 15.2007C1.5691 15.2007 0.800781 14.4334 0.800781 13.4861V10.7439C0.800781 9.79763 1.56809 9.02933 2.51541 9.02933H5.25758C6.20389 9.02933 6.97221 9.79663 6.97221 10.7439V13.4861C6.97221 14.4324 6.20489 15.2007 5.25758 15.2007H2.51541ZM10.7439 5.94364H13.4861C13.668 5.94364 13.8426 5.87131 13.9713 5.74274C14.0998 5.61407 14.1722 5.43949 14.1722 5.25759V2.51542C14.1722 2.33351 14.0998 2.15894 13.9713 2.03027C13.8426 1.9017 13.668 1.82938 13.4861 1.82938H10.7439C10.562 1.82938 10.3875 1.9017 10.2588 2.03027C10.1302 2.15894 10.0579 2.33352 10.0579 2.51542V5.25759C10.0579 5.63719 10.3645 5.94364 10.7439 5.94364ZM10.7439 6.97221C9.79763 6.97221 9.02933 6.20489 9.02933 5.25758V2.51541C9.02933 1.5691 9.79663 0.800781 10.7439 0.800781H13.4861C14.4324 0.800781 15.2007 1.56809 15.2007 2.51541V5.25758C15.2007 6.20389 14.4334 6.97221 13.4861 6.97221H10.7439ZM10.7439 14.1722H13.4861C13.668 14.1722 13.8426 14.0999 13.9713 13.9713C14.0998 13.8426 14.1722 13.668 14.1722 13.4861V10.744C14.1722 10.5621 14.0998 10.3875 13.9713 10.2588C13.8426 10.1302 13.668 10.0579 13.4861 10.0579H10.7439C10.562 10.0579 10.3875 10.1302 10.2588 10.2588C10.1302 10.3875 10.0579 10.5621 10.0579 10.744V13.4861C10.0579 13.8657 10.3645 14.1722 10.7439 14.1722ZM10.7439 15.2007C9.79763 15.2007 9.02933 14.4334 9.02933 13.4861V10.7439C9.02933 9.79763 9.79663 9.02933 10.7439 9.02933H13.4861C14.4324 9.02933 15.2007 9.79663 15.2007 10.7439V13.4861C15.2007 14.4324 14.4334 15.2007 13.4861 15.2007H10.7439Z" fill="#928BB1" stroke="#928BB1"/>
</svg>
