<svg width="18" height="18" viewBox="0 0 18 18" fill="none" xmlns="http://www.w3.org/2000/svg">
<path d="M6.74273 6.74275L6.56603 6.5659C6.4842 6.64766 6.37317 6.69364 6.25758 6.69364H3.51541C3.27397 6.69364 3.07937 6.49909 3.07937 6.25759V3.51542C3.07937 3.39984 3.12534 3.2888 3.2071 3.20698L3.03026 3.03027M6.74273 6.74275L6.56589 6.56604C6.64765 6.48421 6.69363 6.37318 6.69363 6.25759V3.51542C6.69363 3.39983 6.64765 3.28881 6.56589 3.20698C6.48407 3.1253 6.3731 3.07938 6.25758 3.07938H3.51541C3.39982 3.07938 3.28879 3.12535 3.20696 3.20712L3.03026 3.03027M6.74273 6.74275C6.61406 6.87132 6.43949 6.94364 6.25758 6.94364H3.51541C3.13592 6.94364 2.82937 6.63719 2.82937 6.25759V3.51542C2.82937 3.33352 2.90169 3.15894 3.03026 3.03027M6.74273 6.74275L3.03026 3.03027M14.9713 6.74275L14.7946 6.5659C14.7128 6.64766 14.6017 6.69364 14.4862 6.69364H11.744C11.5025 6.69364 11.3079 6.49909 11.3079 6.25759V3.51542C11.3079 3.39983 11.3539 3.2888 11.4357 3.20698C11.5175 3.1253 11.6285 3.07938 11.744 3.07938H14.4862C14.6017 3.07938 14.7128 3.12536 14.7946 3.20712C14.8763 3.28893 14.9222 3.3999 14.9222 3.51542V6.25759C14.9222 6.37318 14.8762 6.48421 14.7945 6.56604L14.9713 6.74275ZM14.9713 6.74275C14.8426 6.87132 14.6681 6.94364 14.4862 6.94364H11.744C11.3645 6.94364 11.0579 6.63719 11.0579 6.25759V3.51542C11.0579 3.33352 11.1303 3.15894 11.2588 3.03027L14.9713 6.74275ZM11.744 14.9222H14.4862C14.6017 14.9222 14.7126 14.8763 14.7945 14.7946C14.7945 14.7946 14.7946 14.7945 14.7946 14.7945L14.9713 14.9713C15.0999 14.8426 15.1722 14.6681 15.1722 14.4862V11.744C15.1722 11.5621 15.0999 11.3875 14.9713 11.2588L11.744 14.9222ZM11.744 14.9222C11.5025 14.9222 11.3079 14.7277 11.3079 14.4862V11.744C11.3079 11.6284 11.3539 11.5174 11.4357 11.4356M11.744 14.9222L11.4357 11.4356M11.4357 11.4356L11.2588 11.2588L11.4357 11.4356ZM1.55078 6.25758C1.55078 7.34306 2.43112 8.22221 3.51541 8.22221H6.25758C7.34306 8.22221 8.22221 7.34187 8.22221 6.25758V3.51541C8.22221 2.42993 7.34187 1.55078 6.25758 1.55078H3.51541C2.42993 1.55078 1.55078 2.43112 1.55078 3.51541V6.25758ZM6.25758 14.9222H3.51541C3.27397 14.9222 3.07937 14.7277 3.07937 14.4862V11.744C3.07937 11.6284 3.12534 11.5174 3.2071 11.4356C3.28892 11.3539 3.39988 11.308 3.51541 11.308H6.25758C6.3731 11.308 6.48407 11.3539 6.56589 11.4355C6.64765 11.5174 6.69363 11.6284 6.69363 11.744V14.4862C6.69363 14.6018 6.64765 14.7128 6.56589 14.7946C6.48407 14.8763 6.37311 14.9222 6.25758 14.9222ZM1.55078 14.4862C1.55078 15.5716 2.43112 16.4508 3.51541 16.4508H6.25758C7.34306 16.4508 8.22221 15.5704 8.22221 14.4862V11.744C8.22221 10.6585 7.34187 9.77935 6.25758 9.77935H3.51541C2.42993 9.77935 1.55078 10.6597 1.55078 11.744V14.4862ZM9.77935 6.25758C9.77935 7.34306 10.6597 8.22221 11.744 8.22221H14.4862C15.5716 8.22221 16.4508 7.34187 16.4508 6.25758V3.51541C16.4508 2.42993 15.5704 1.55078 14.4862 1.55078H11.744C10.6585 1.55078 9.77935 2.43112 9.77935 3.51541V6.25758ZM9.77935 14.4862C9.77935 15.5716 10.6597 16.4508 11.744 16.4508H14.4862C15.5716 16.4508 16.4508 15.5704 16.4508 14.4862V11.744C16.4508 10.6585 15.5704 9.77935 14.4862 9.77935H11.744C10.6585 9.77935 9.77935 10.6597 9.77935 11.744V14.4862Z" fill="#251863" stroke="#251863" stroke-width="0.5"/>
</svg>
