<svg width="16" height="16" viewBox="0 0 16 16" fill="none" xmlns="http://www.w3.org/2000/svg">
<path d="M10.744 13.9222H13.4862C13.6017 13.9222 13.7126 13.8763 13.7945 13.7946C13.7945 13.7946 13.7946 13.7945 13.7946 13.7945M10.744 13.9222L13.7946 13.7945M10.744 13.9222C10.5025 13.9222 10.3079 13.7277 10.3079 13.4862V10.744C10.3079 10.6284 10.3539 10.5174 10.4357 10.4356L10.2591 10.2591L10.4355 10.4357C10.5174 10.3539 10.6284 10.308 10.744 10.308H13.4862C13.6017 10.308 13.7128 10.3539 13.7946 10.4357L13.9713 10.2588M10.744 13.9222L13.9713 10.2588M13.7946 13.7945C13.8763 13.7127 13.9222 13.6017 13.9222 13.4862V10.744C13.9222 10.6284 13.8762 10.5174 13.7945 10.4355L13.9713 10.2588M13.7946 13.7945L13.9713 10.2588M5.25758 5.69364H2.51541C2.27397 5.69364 2.07937 5.49909 2.07937 5.25759V2.51542C2.07937 2.39984 2.12534 2.2888 2.2071 2.20698L2.03026 2.03027L2.20696 2.20712C2.28879 2.12535 2.39982 2.07938 2.51541 2.07938H5.25758C5.3731 2.07938 5.48407 2.1253 5.56589 2.20698C5.64765 2.28881 5.69363 2.39983 5.69363 2.51542V5.25759C5.69363 5.37312 5.6477 5.48409 5.56603 5.5659C5.4842 5.64766 5.37317 5.69364 5.25758 5.69364ZM0.550781 5.25758C0.550781 6.34306 1.43112 7.22221 2.51541 7.22221H5.25758C6.34306 7.22221 7.22221 6.34187 7.22221 5.25758V2.51541C7.22221 1.42993 6.34187 0.550781 5.25758 0.550781H2.51541C1.42993 0.550781 0.550781 1.43112 0.550781 2.51541V5.25758ZM5.25758 13.9222H2.51541C2.27397 13.9222 2.07937 13.7277 2.07937 13.4862V10.744C2.07937 10.6284 2.12534 10.5174 2.2071 10.4356C2.28892 10.3539 2.39989 10.308 2.51541 10.308H5.25758C5.3731 10.308 5.48407 10.3539 5.56589 10.4355C5.64765 10.5174 5.69363 10.6284 5.69363 10.744V13.4862C5.69363 13.6018 5.64765 13.7128 5.56589 13.7946L5.74228 13.9709L5.56603 13.7945C5.4842 13.8762 5.37317 13.9222 5.25758 13.9222ZM0.550781 13.4862C0.550781 14.5716 1.43112 15.4508 2.51541 15.4508H5.25758C6.34306 15.4508 7.22221 14.5704 7.22221 13.4862V10.744C7.22221 9.6585 6.34187 8.77935 5.25758 8.77935H2.51541C1.42993 8.77935 0.550781 9.65969 0.550781 10.744V13.4862ZM13.4862 5.69364H10.744C10.5025 5.69364 10.3079 5.49909 10.3079 5.25759V2.51542C10.3079 2.3999 10.3539 2.28893 10.4355 2.20712C10.5174 2.12535 10.6284 2.07938 10.744 2.07938H13.4862C13.6017 2.07938 13.7128 2.12536 13.7946 2.20712C13.8763 2.28893 13.9222 2.3999 13.9222 2.51542V5.25759C13.9222 5.37318 13.8762 5.48421 13.7945 5.56604C13.7126 5.64772 13.6017 5.69364 13.4862 5.69364ZM8.77935 5.25758C8.77935 6.34306 9.65969 7.22221 10.744 7.22221H13.4862C14.5716 7.22221 15.4508 6.34187 15.4508 5.25758V2.51541C15.4508 1.42993 14.5704 0.550781 13.4862 0.550781H10.744C9.6585 0.550781 8.77935 1.43112 8.77935 2.51541V5.25758ZM8.77935 13.4862C8.77935 14.5716 9.65969 15.4508 10.744 15.4508H13.4862C14.5716 15.4508 15.4508 14.5704 15.4508 13.4862V10.744C15.4508 9.6585 14.5704 8.77935 13.4862 8.77935H10.744C9.6585 8.77935 8.77935 9.65969 8.77935 10.744V13.4862Z" fill="#928CB1" stroke="#928CB1" stroke-width="0.5"/>
</svg>
