<svg width="12" height="14" viewBox="0 0 12 14" fill="none" xmlns="http://www.w3.org/2000/svg">
<path d="M11.3333 11.0007H10.6667V10.334C10.6667 10.1572 10.5964 9.9876 10.4714 9.86258C10.3464 9.73755 10.1768 9.66732 10 9.66732C9.82319 9.66732 9.65362 9.73755 9.5286 9.86258C9.40357 9.9876 9.33333 10.1572 9.33333 10.334V11.0007H8.66667C8.48986 11.0007 8.32029 11.0709 8.19526 11.1959C8.07024 11.3209 8 11.4905 8 11.6673C8 11.8441 8.07024 12.0137 8.19526 12.1387C8.32029 12.2637 8.48986 12.334 8.66667 12.334H9.33333V13.0007C9.33333 13.1775 9.40357 13.347 9.5286 13.4721C9.65362 13.5971 9.82319 13.6673 10 13.6673C10.1768 13.6673 10.3464 13.5971 10.4714 13.4721C10.5964 13.347 10.6667 13.1775 10.6667 13.0007V12.334H11.3333C11.5101 12.334 11.6797 12.2637 11.8047 12.1387C11.9298 12.0137 12 11.8441 12 11.6673C12 11.4905 11.9298 11.3209 11.8047 11.1959C11.6797 11.0709 11.5101 11.0007 11.3333 11.0007ZM6.66667 12.334H2C1.82319 12.334 1.65362 12.2637 1.5286 12.1387C1.40357 12.0137 1.33333 11.8441 1.33333 11.6673V2.33398C1.33333 2.15717 1.40357 1.9876 1.5286 1.86258C1.65362 1.73756 1.82319 1.66732 2 1.66732H5.33333V3.66732C5.33333 4.19775 5.54405 4.70646 5.91912 5.08153C6.29419 5.4566 6.8029 5.66732 7.33333 5.66732H9.33333V7.66732C9.33333 7.84413 9.40357 8.0137 9.5286 8.13872C9.65362 8.26375 9.82319 8.33398 10 8.33398C10.1768 8.33398 10.3464 8.26375 10.4714 8.13872C10.5964 8.0137 10.6667 7.84413 10.6667 7.66732V5.00065C10.6667 5.00065 10.6667 5.00065 10.6667 4.96065C10.6597 4.89941 10.6463 4.83907 10.6267 4.78065V4.72065C10.5946 4.6521 10.5519 4.58909 10.5 4.53398L6.5 0.533984C6.44489 0.482128 6.38188 0.439372 6.31333 0.407318C6.29128 0.403457 6.26872 0.403457 6.24667 0.407318C6.18184 0.372653 6.11218 0.347932 6.04 0.333984H2C1.46957 0.333984 0.960859 0.544698 0.585787 0.919771C0.210714 1.29484 0 1.80355 0 2.33398V11.6673C0 12.1977 0.210714 12.7065 0.585787 13.0815C0.960859 13.4566 1.46957 13.6673 2 13.6673H6.66667C6.84348 13.6673 7.01305 13.5971 7.13807 13.4721C7.2631 13.347 7.33333 13.1775 7.33333 13.0007C7.33333 12.8238 7.2631 12.6543 7.13807 12.5292C7.01305 12.4042 6.84348 12.334 6.66667 12.334ZM6.66667 2.60732L8.39333 4.33398H7.33333C7.15652 4.33398 6.98695 4.26375 6.86193 4.13872C6.7369 4.0137 6.66667 3.84413 6.66667 3.66732V2.60732ZM3.33333 4.33398C3.15652 4.33398 2.98695 4.40422 2.86193 4.52925C2.7369 4.65427 2.66667 4.82384 2.66667 5.00065C2.66667 5.17746 2.7369 5.34703 2.86193 5.47206C2.98695 5.59708 3.15652 5.66732 3.33333 5.66732H4C4.17681 5.66732 4.34638 5.59708 4.4714 5.47206C4.59643 5.34703 4.66667 5.17746 4.66667 5.00065C4.66667 4.82384 4.59643 4.65427 4.4714 4.52925C4.34638 4.40422 4.17681 4.33398 4 4.33398H3.33333ZM6.66667 9.66732H3.33333C3.15652 9.66732 2.98695 9.73755 2.86193 9.86258C2.7369 9.9876 2.66667 10.1572 2.66667 10.334C2.66667 10.5108 2.7369 10.6804 2.86193 10.8054C2.98695 10.9304 3.15652 11.0007 3.33333 11.0007H6.66667C6.84348 11.0007 7.01305 10.9304 7.13807 10.8054C7.2631 10.6804 7.33333 10.5108 7.33333 10.334C7.33333 10.1572 7.2631 9.9876 7.13807 9.86258C7.01305 9.73755 6.84348 9.66732 6.66667 9.66732ZM7.33333 7.00065H3.33333C3.15652 7.00065 2.98695 7.07089 2.86193 7.19591C2.7369 7.32094 2.66667 7.49051 2.66667 7.66732C2.66667 7.84413 2.7369 8.0137 2.86193 8.13872C2.98695 8.26375 3.15652 8.33398 3.33333 8.33398H7.33333C7.51014 8.33398 7.67971 8.26375 7.80474 8.13872C7.92976 8.0137 8 7.84413 8 7.66732C8 7.49051 7.92976 7.32094 7.80474 7.19591C7.67971 7.07089 7.51014 7.00065 7.33333 7.00065Z" fill="#47DB99"/>
</svg>
