<svg width="22" height="20" viewBox="0 0 22 20" fill="none" xmlns="http://www.w3.org/2000/svg">
<g opacity="0.6">
<path d="M21.4286 11.4277C20.9552 11.4277 20.5714 11.8115 20.5714 12.2849V17.4277C20.5714 17.9012 20.1877 18.2849 19.7143 18.2849L2.57148 18.2849C2.09807 18.2849 1.71432 17.9012 1.71432 17.4277L1.71432 12.2849C1.71432 11.8115 1.33056 11.4277 0.85716 11.4277C0.383756 11.4277 0 11.8115 0 12.2849L0 17.4277C0 18.8479 1.15127 19.9992 2.57143 19.9992L19.7143 19.9992C21.1345 19.9992 22.2857 18.8479 22.2857 17.4277V12.2849C22.2857 11.8115 21.902 11.4277 21.4286 11.4277Z" fill="#11093C"/>
<path d="M6.25489 4.61994C6.57845 4.85384 7.09138 4.85384 7.41489 4.61994L10.1659 2.5619L10.1659 14.8027C10.1659 15.1479 10.5397 15.4277 11.0008 15.4277C11.4619 15.4277 11.8357 15.1479 11.8357 14.8027L11.8357 2.56187L14.5851 4.61994C14.9168 4.85973 15.4453 4.85285 15.7656 4.6046C16.0781 4.3624 16.0781 3.97844 15.7656 3.73623L11.5911 0.611342C11.2655 0.366977 10.7368 0.366464 10.4104 0.610207C10.4099 0.610573 10.4094 0.610939 10.4089 0.611342L6.2344 3.73623C5.91402 3.98452 5.92322 4.38016 6.25489 4.61994Z" fill="#11093C"/>
</g>
</svg>
