<svg width="24" height="24" viewBox="0 0 24 24" fill="none" xmlns="http://www.w3.org/2000/svg">
<g id="01" opacity="0.6">
<g id="Group 5332533">
<path id="Vector" d="M19.4286 4H4.57143C4.41988 4 4.27453 4.0602 4.16737 4.16737C4.0602 4.27453 4 4.41988 4 4.57143V19.4286C4 19.5801 4.0602 19.7255 4.16737 19.8326C4.27453 19.9398 4.41988 20 4.57143 20H19.4286C19.5801 20 19.7255 19.9398 19.8326 19.8326C19.9398 19.7255 20 19.5801 20 19.4286V4.57143C20 4.41988 19.9398 4.27453 19.8326 4.16737C19.7255 4.0602 19.5801 4 19.4286 4ZM18.8571 5.14286V7.42857H5.14286V5.14286H18.8571ZM5.14286 18.8571V8.57143H9.14286V18.8571H5.14286ZM10.2857 18.8571V8.57143H18.8571V18.8571H10.2857Z" fill="#11093C"/>
<path id="Vector_2" d="M8.00014 6.85715C8.31573 6.85715 8.57157 6.60131 8.57157 6.28572C8.57157 5.97013 8.31573 5.71429 8.00014 5.71429C7.68455 5.71429 7.42871 5.97013 7.42871 6.28572C7.42871 6.60131 7.68455 6.85715 8.00014 6.85715Z" fill="#11093C"/>
<path id="Vector_3" d="M9.7145 6.85715C10.0301 6.85715 10.2859 6.60131 10.2859 6.28572C10.2859 5.97013 10.0301 5.71429 9.7145 5.71429C9.3989 5.71429 9.14307 5.97013 9.14307 6.28572C9.14307 6.60131 9.3989 6.85715 9.7145 6.85715Z" fill="#11093C"/>
<path id="Vector_4" d="M6.28578 6.85715C6.60138 6.85715 6.85721 6.60131 6.85721 6.28572C6.85721 5.97013 6.60138 5.71429 6.28578 5.71429C5.97019 5.71429 5.71436 5.97013 5.71436 6.28572C5.71436 6.60131 5.97019 6.85715 6.28578 6.85715Z" fill="#11093C"/>
<path id="Vector_5" d="M8.00007 9.28H6.28578C6.13423 9.28 5.98889 9.3402 5.88172 9.44737C5.77456 9.55453 5.71436 9.69988 5.71436 9.85143C5.71436 10.003 5.77456 10.1483 5.88172 10.2555C5.98889 10.3627 6.13423 10.4229 6.28578 10.4229H8.00007C8.15162 10.4229 8.29697 10.3627 8.40413 10.2555C8.51129 10.1483 8.5715 10.003 8.5715 9.85143C8.5715 9.69988 8.51129 9.55453 8.40413 9.44737C8.29697 9.3402 8.15162 9.28 8.00007 9.28Z" fill="#11093C"/>
<path id="Vector_6" d="M8.00007 10.9943H6.28578C6.13423 10.9943 5.98889 11.0545 5.88172 11.1617C5.77456 11.2688 5.71436 11.4142 5.71436 11.5657C5.71436 11.7173 5.77456 11.8626 5.88172 11.9698C5.98889 12.0769 6.13423 12.1372 6.28578 12.1372H8.00007C8.15162 12.1372 8.29697 12.0769 8.40413 11.9698C8.51129 11.8626 8.5715 11.7173 8.5715 11.5657C8.5715 11.4142 8.51129 11.2688 8.40413 11.1617C8.29697 11.0545 8.15162 10.9943 8.00007 10.9943Z" fill="#11093C"/>
<path id="Vector_7" d="M8.00007 12.7086H6.28578C6.13423 12.7086 5.98889 12.7688 5.88172 12.876C5.77456 12.9831 5.71436 13.1285 5.71436 13.28C5.71436 13.4316 5.77456 13.5769 5.88172 13.6841C5.98889 13.7912 6.13423 13.8514 6.28578 13.8514H8.00007C8.15162 13.8514 8.29697 13.7912 8.40413 13.6841C8.51129 13.5769 8.5715 13.4316 8.5715 13.28C8.5715 13.1285 8.51129 12.9831 8.40413 12.876C8.29697 12.7688 8.15162 12.7086 8.00007 12.7086Z" fill="#11093C"/>
<path id="Vector_8" d="M12.0001 13.1429H14.5716C14.7231 13.1429 14.8685 13.0827 14.9756 12.9755C15.0828 12.8683 15.143 12.723 15.143 12.5714C15.143 12.4199 15.0828 12.2745 14.9756 12.1674C14.8685 12.0602 14.7231 12 14.5716 12H12.0001C11.8486 12 11.7032 12.0602 11.5961 12.1674C11.4889 12.2745 11.4287 12.4199 11.4287 12.5714C11.4287 12.723 11.4889 12.8683 11.5961 12.9755C11.7032 13.0827 11.8486 13.1429 12.0001 13.1429Z" fill="#11093C"/>
<path id="Vector_9" d="M17.143 14.2857H12.0001C11.8486 14.2857 11.7032 14.3459 11.5961 14.4531C11.4889 14.5602 11.4287 14.7056 11.4287 14.8571C11.4287 15.0087 11.4889 15.154 11.5961 15.2612C11.7032 15.3684 11.8486 15.4286 12.0001 15.4286H17.143C17.2945 15.4286 17.4399 15.3684 17.5471 15.2612C17.6542 15.154 17.7144 15.0087 17.7144 14.8571C17.7144 14.7056 17.6542 14.5602 17.5471 14.4531C17.4399 14.3459 17.2945 14.2857 17.143 14.2857Z" fill="#11093C"/>
<path id="Vector_10" d="M17.143 16.5714H12.0001C11.8486 16.5714 11.7032 16.6316 11.5961 16.7388C11.4889 16.846 11.4287 16.9913 11.4287 17.1429C11.4287 17.2944 11.4889 17.4398 11.5961 17.5469C11.7032 17.6541 11.8486 17.7143 12.0001 17.7143H17.143C17.2945 17.7143 17.4399 17.6541 17.5471 17.5469C17.6542 17.4398 17.7144 17.2944 17.7144 17.1429C17.7144 16.9913 17.6542 16.846 17.5471 16.7388C17.4399 16.6316 17.2945 16.5714 17.143 16.5714Z" fill="#11093C"/>
</g>
</g>
</svg>
