<svg width="24" height="24" viewBox="0 0 24 24" fill="none" xmlns="http://www.w3.org/2000/svg">
<g id="fi:edit-3" opacity="0.6">
<g id="Group 5332534">
<path id="Vector" d="M4 19.2L20 19.2" stroke="#11093C" stroke-width="1.5" stroke-linecap="round" stroke-linejoin="round"/>
<path id="Vector_2" d="M13.6001 6.39999L15.8628 8.66274" stroke="#11093C" stroke-width="1.5" stroke-linecap="round" stroke-linejoin="round"/>
<path id="Vector_3" d="M15.5233 4.4645C15.8393 4.16709 16.2679 4 16.7148 4C16.9361 4 17.1552 4.04102 17.3596 4.12072C17.564 4.20042 17.7498 4.31724 17.9063 4.4645C18.0627 4.61177 18.1869 4.7866 18.2715 4.97901C18.3562 5.17142 18.3998 5.37765 18.3998 5.58591C18.3998 5.79418 18.3562 6.0004 18.2715 6.19281C18.1869 6.38523 18.0627 6.56005 17.9063 6.70732L7.97713 16.0524L4.7998 16.8L5.59414 13.8096L15.5233 4.4645Z" stroke="#11093C" stroke-width="1.5" stroke-linecap="round" stroke-linejoin="round"/>
</g>
</g>
</svg>
