<svg width="30" height="30" viewBox="0 0 30 30" fill="none" xmlns="http://www.w3.org/2000/svg">
<path d="M29.326 5.54596H27.2274V3.44689C27.2273 3.26817 27.1563 3.09678 27.0299 2.9704C26.9035 2.84402 26.7321 2.773 26.5534 2.77296H24.4547V0.673937C24.4547 0.495212 24.3837 0.32382 24.2573 0.197442C24.1309 0.0710643 23.9595 4.57273e-05 23.7808 0L0.673957 0C0.495227 4.57273e-05 0.32383 0.0710643 0.197448 0.197442C0.0710665 0.32382 4.57287e-05 0.495212 0 0.673937L0 23.7801C4.57287e-05 23.9588 0.0710665 24.1302 0.197448 24.2566C0.32383 24.3829 0.495227 24.454 0.673957 24.454H2.77306V26.5522C2.77311 26.7309 2.84413 26.9023 2.97051 27.0287C3.09689 27.1551 3.26829 27.2261 3.44702 27.2261H5.54569V29.3261C5.54574 29.5048 5.61676 29.6762 5.74314 29.8026C5.86952 29.9289 6.04092 30 6.21965 30H29.326C29.5048 30 29.6762 29.9289 29.8026 29.8025C29.9289 29.6762 30 29.5048 30 29.326V6.2199C30 6.04117 29.9289 5.86978 29.8026 5.7434C29.6762 5.61702 29.5048 5.54601 29.326 5.54596ZM2.77306 3.44689V23.1061H1.34792V1.34788H23.1068V2.77298H3.447C3.26828 2.77303 3.09689 2.84405 2.97051 2.97042C2.84414 3.09679 2.77312 3.26818 2.77306 3.44689ZM5.54569 6.2199V25.8782H4.12099V4.12086H25.8795V5.54596H6.21965C6.04092 5.54601 5.86952 5.61702 5.74314 5.7434C5.61676 5.86978 5.54574 6.04117 5.54569 6.2199ZM28.6521 28.6521H6.89361V6.89384H28.6521V28.6521Z" fill="#29C499"/>
<path d="M15.7245 16.3893H11.1443C10.9724 16.3893 10.8075 16.321 10.686 16.1994C10.5644 16.0779 10.4961 15.9131 10.4961 15.7412V11.6759C10.4961 11.504 10.5644 11.3392 10.686 11.2177C10.8075 11.0961 10.9724 11.0278 11.1443 11.0278H15.7245C15.8963 11.0278 16.0612 11.0961 16.1827 11.2177C16.3043 11.3392 16.3726 11.504 16.3726 11.6759V15.7412C16.3726 15.9131 16.3043 16.0779 16.1827 16.1994C16.0612 16.321 15.8963 16.3893 15.7245 16.3893ZM11.7924 15.093H15.0763V12.3241H11.7924V15.093Z" fill="#29C499"/>
<path d="M24.4025 20.4537H11.1443C10.9724 20.4537 10.8075 20.3854 10.6859 20.2639C10.5644 20.1423 10.4961 19.9775 10.4961 19.8056C10.4961 19.6337 10.5644 19.4688 10.6859 19.3473C10.8075 19.2257 10.9724 19.1574 11.1443 19.1574H24.4025C24.5745 19.1574 24.7393 19.2257 24.8609 19.3473C24.9824 19.4688 25.0507 19.6337 25.0507 19.8056C25.0507 19.9775 24.9824 20.1423 24.8609 20.2639C24.7393 20.3854 24.5745 20.4537 24.4025 20.4537Z" fill="#29C499"/>
<path d="M24.4025 24.5181H11.1443C10.9724 24.5181 10.8075 24.4498 10.6859 24.3283C10.5644 24.2067 10.4961 24.0419 10.4961 23.87C10.4961 23.6981 10.5644 23.5332 10.6859 23.4117C10.8075 23.2901 10.9724 23.2218 11.1443 23.2218H24.4025C24.5745 23.2218 24.7393 23.2901 24.8609 23.4117C24.9824 23.5332 25.0507 23.6981 25.0507 23.87C25.0507 24.0419 24.9824 24.2067 24.8609 24.3283C24.7393 24.4498 24.5745 24.5181 24.4025 24.5181Z" fill="#29C499"/>
<path d="M24.3999 12.3241H19.8239C19.652 12.3241 19.4872 12.2558 19.3656 12.1342C19.2441 12.0127 19.1758 11.8478 19.1758 11.6759C19.1758 11.504 19.2441 11.3392 19.3656 11.2176C19.4872 11.0961 19.652 11.0278 19.8239 11.0278H24.3999C24.5718 11.0278 24.7367 11.0961 24.8582 11.2176C24.9798 11.3392 25.0481 11.504 25.0481 11.6759C25.0481 11.8478 24.9798 12.0127 24.8582 12.1342C24.7367 12.2558 24.5718 12.3241 24.3999 12.3241Z" fill="#29C499"/>
<path d="M24.3999 16.3893H19.8239C19.652 16.3893 19.4872 16.321 19.3656 16.1995C19.2441 16.0779 19.1758 15.9131 19.1758 15.7412C19.1758 15.5693 19.2441 15.4044 19.3656 15.2829C19.4872 15.1613 19.652 15.093 19.8239 15.093H24.3999C24.485 15.093 24.5693 15.1098 24.648 15.1424C24.7266 15.1749 24.7981 15.2227 24.8582 15.2829C24.9184 15.343 24.9662 15.4145 24.9987 15.4931C25.0313 15.5718 25.0481 15.656 25.0481 15.7412C25.0481 15.8263 25.0313 15.9106 24.9987 15.9892C24.9662 16.0678 24.9184 16.1393 24.8582 16.1995C24.7981 16.2597 24.7266 16.3074 24.648 16.34C24.5693 16.3725 24.485 16.3893 24.3999 16.3893Z" fill="#29C499"/>
</svg>
