<svg width="24" height="24" viewBox="0 0 24 24" fill="none" xmlns="http://www.w3.org/2000/svg">
<path opacity="0.5" d="M7.97072 2.75001C6.31144 2.74638 4.72207 3.41818 3.56712 4.61127L3.56707 4.61133C2.4016 5.81607 1.75 7.42782 1.75 9.10534C1.75 10.7829 2.4016 12.3948 3.56707 13.5996L3.56696 13.5997L3.57315 13.6056L11.6371 21.3873L11.6372 21.3875L11.6396 21.3898C11.8403 21.5843 12.1589 21.5842 12.3596 21.3903C12.3598 21.3902 12.3599 21.3901 12.36 21.39L20.4344 13.6059L20.5109 13.5322V13.5253C21.6275 12.3277 22.25 10.7493 22.25 9.10817C22.25 7.43312 21.6016 5.82326 20.4411 4.61709L20.4406 4.61661C19.41 3.55118 17.9868 2.95753 16.5058 2.97545H16.5034H16.4873V2.97542L16.4837 2.97547C14.8217 2.9994 13.227 3.62371 11.9909 4.7286C10.5815 3.43945 9.22541 2.75012 7.97072 2.75001ZM7.97072 2.75001C7.97081 2.75001 7.9709 2.75002 7.971 2.75002L7.97044 3.00001V2.75001C7.97053 2.75001 7.97062 2.75001 7.97072 2.75001ZM11.9902 20.3017L4.29323 12.8683C3.3189 11.8579 2.77421 10.5081 2.77421 9.10314C2.77421 7.69692 3.31989 6.34586 4.29585 5.33543C5.25781 4.34843 6.57859 3.79469 7.95556 3.80072H7.95665C8.98998 3.80072 10.2208 4.44879 11.6268 5.82786C11.8289 6.02813 12.1549 6.02812 12.3568 5.82698L12.3568 5.82702L12.3604 5.82323C13.4436 4.69776 14.9288 4.04931 16.4892 4.02093H16.5031V4.02095L16.5062 4.02091C17.7019 4.00568 18.8516 4.48264 19.6867 5.34034C20.6574 6.35272 21.1996 7.702 21.1996 9.10577C21.1996 10.5063 20.6601 11.8523 19.6939 12.8639L11.9902 20.3017Z" fill="#11093C" stroke="#11093C" stroke-width="0.5"/>
</svg>
