<svg width="24" height="24" viewBox="0 0 24 24" fill="none" xmlns="http://www.w3.org/2000/svg">
<path d="M4.94447 9.35795L4.94447 9.33238L4.85854 9.30148L4.85041 9.324L4.94447 9.35795ZM4.94447 9.35795L4.11532 9.35783M4.94447 9.35795L4.11532 9.35783M4.11532 9.35783L4.08672 9.30802L4 9.35781L3.99999 9.45781L4.05741 9.45782L4.62263 10.4424L5.18673 11.4188L5.15788 11.4687L5.24447 11.5188L5.33106 11.4688L5.30222 11.4188L5.86645 10.4424L6.43167 9.45781H6.48907V9.35781L6.40235 9.30802L6.37377 9.35781H5.65536L4.11532 9.35783ZM12.2483 4.1C8.96229 4.1 6.00488 6.17064 4.87434 9.25794L4.00001 9.25781L3.82727 9.25779L3.91328 9.4076L4.5359 10.4922L4.53604 10.4924L5.15788 11.5688L5.24446 11.7187L5.33105 11.5688L5.95303 10.4924L5.95317 10.4922L6.5758 9.4076L6.66179 9.25781H6.48907H5.69572C6.78401 6.61988 9.38481 4.8649 12.2484 4.8649C16.1559 4.8649 19.3354 8.04392 19.3354 11.9515C19.3354 15.8591 16.1561 19.0385 12.2484 19.0385C9.29774 19.0385 6.62566 17.1756 5.59992 14.4036L5.59988 14.4035L5.55408 14.2801L5.52987 14.2149H5.46034H4.86154H4.71938L4.76742 14.3487L4.85835 14.602L4.85837 14.602C5.97727 17.713 8.94666 19.8032 12.2481 19.8032C16.5778 19.8029 20.0998 16.2808 20.0998 11.9515C20.0998 7.69779 16.6997 4.22341 12.4742 4.10338L12.4773 4.1H12.2483Z" fill="#251863" stroke="black" stroke-width="0.2"/>
<path d="M14.1167 15.6205L14.087 15.716L14.087 15.716L14.0869 15.716L14.0869 15.716L14.0866 15.7159L14.0857 15.7156L14.0825 15.7146L14.0708 15.7108C14.0607 15.7074 14.046 15.7025 14.0273 15.696C13.9899 15.6829 13.9364 15.6633 13.8709 15.6372L13.8689 15.6364L13.8689 15.6363C13.8562 15.6309 13.8425 15.6252 13.828 15.6191C13.7739 15.5965 13.7093 15.5695 13.6431 15.5376C13.6331 15.5328 13.6229 15.528 13.6127 15.5231C13.5812 15.5081 13.5488 15.4927 13.5148 15.4768C13.4882 15.4662 13.4639 15.4493 13.4453 15.4247C13.4286 15.4024 13.4201 15.3786 13.4158 15.3576C13.4153 15.3565 13.4144 15.3546 13.4127 15.3517L13.405 15.3386C13.4022 15.3338 13.3987 15.3277 13.3951 15.3208C13.3104 15.1727 13.2127 15.0022 13.1081 14.8195L13.082 14.774C12.9671 14.5733 12.8445 14.3593 12.7221 14.1452L12.722 14.1452C12.58 13.8965 12.438 13.6485 12.3079 13.4212C12.2257 13.2777 12.1483 13.1425 12.0787 13.0207C12.0672 13.0217 12.0554 13.0224 12.0443 13.0224C11.4796 13.0224 11.0221 12.5647 11.0221 12C11.0221 11.608 11.2438 11.2697 11.5669 11.0985C11.5673 11.0905 11.5671 11.0818 11.567 11.0708C11.5669 11.0603 11.5667 11.0476 11.5669 11.0314V8.88856V6.7457C11.5667 6.72858 11.5669 6.71527 11.5671 6.70415C11.5674 6.68489 11.5676 6.67215 11.5654 6.65741C11.5539 6.60671 11.5546 6.54955 11.5834 6.49252C11.5925 6.47209 11.6014 6.45195 11.6102 6.43213C11.6294 6.3886 11.648 6.34663 11.6658 6.30657M14.1167 15.6205L11.6463 11.1353L11.6627 11.1391M14.1167 15.6205L14.2142 15.6427L14.2142 15.6427L14.2142 15.6427L14.2142 15.6426L14.2143 15.6423L14.2145 15.6414L14.2152 15.6382L14.2177 15.6263C14.2199 15.616 14.223 15.601 14.2267 15.5816C14.2342 15.543 14.2443 15.4871 14.2548 15.4174L14.2548 15.4174L14.255 15.416C14.2564 15.4058 14.2579 15.3952 14.2594 15.384C14.2679 15.3236 14.2783 15.2495 14.284 15.1703C14.2862 15.1474 14.2883 15.1241 14.2904 15.1004L14.297 15.029C14.3013 15.0002 14.2985 14.9705 14.2866 14.9423C14.2763 14.9181 14.2612 14.8995 14.2458 14.8853C14.2449 14.8839 14.2435 14.8817 14.2417 14.8785L14.2344 14.865C14.2316 14.8599 14.2282 14.8536 14.2242 14.847C14.0397 14.5262 13.7953 14.0985 13.5507 13.6703L13.5507 13.6702C13.318 13.2645 13.086 12.8597 12.9064 12.5453C13.0067 12.3877 13.067 12.202 13.067 11.9997C13.067 11.6076 12.8451 11.2693 12.522 11.0982C12.5216 11.0903 12.5217 11.0819 12.5217 11.0713C12.5218 11.0606 12.5219 11.0476 12.5215 11.0306V8.88829V6.74614C12.522 6.72701 12.5219 6.71287 12.5217 6.70133C12.5216 6.68352 12.5214 6.67189 12.5237 6.6576C12.5353 6.60699 12.5348 6.54948 12.5053 6.49199C12.4835 6.44218 12.4623 6.39422 12.442 6.34844C12.4358 6.33425 12.4296 6.32027 12.4235 6.30651C12.3781 6.19835 12.3306 6.10251 12.2915 6.02347C12.2865 6.01342 12.2817 6.00364 12.277 5.99415L12.277 5.99414L12.2766 5.99347C12.2332 5.90705 12.1969 5.83907 12.1715 5.79251C12.1587 5.76924 12.1487 5.75131 12.1418 5.73911L12.1338 5.72514L12.1317 5.72146L12.1311 5.72047L12.1309 5.72018L12.1309 5.72009L12.1308 5.72006L12.1308 5.72005L12.0445 5.77056M14.1167 15.6205L14.2142 15.6428L14.1901 15.748L14.087 15.716L14.1167 15.6205ZM14.1167 15.6205L11.7575 6.34645M11.6658 6.30657C11.6657 6.30686 11.6656 6.30714 11.6655 6.30742L11.7575 6.34645M11.6658 6.30657C11.6659 6.3063 11.6661 6.30602 11.6662 6.30574L11.7575 6.34645M11.6658 6.30657C11.7094 6.20383 11.7545 6.11212 11.7921 6.0355C11.799 6.02147 11.8057 6.00794 11.812 5.99494L11.8125 5.99409L11.8125 5.99409C11.8558 5.90747 11.892 5.83932 11.9175 5.79264C11.9303 5.7693 11.9403 5.75132 11.9473 5.73908L11.9553 5.72506L11.9575 5.72136L11.958 5.72035L11.9582 5.72006L11.9583 5.71997L11.9583 5.71994L11.9583 5.71992L12.0445 5.77056M11.7575 6.34645C11.7396 6.38662 11.721 6.42865 11.7017 6.4724C11.6925 6.49311 11.6832 6.51421 11.6737 6.53569C11.6561 6.56904 11.6551 6.60306 11.6636 6.63815C11.6678 6.66326 11.6674 6.68887 11.667 6.71486C11.6669 6.7249 11.6667 6.735 11.6669 6.74516V8.88856V11.032C11.6668 11.0414 11.6669 11.0508 11.667 11.0602C11.6673 11.0869 11.6677 11.1132 11.6627 11.1391M11.6627 11.1391L11.6467 11.136L11.6596 11.1641C11.6601 11.1609 11.6604 11.1578 11.6606 11.1546C11.661 11.1495 11.6615 11.1443 11.6627 11.1391ZM12.0445 5.77056L12.1308 5.72004L12.0447 5.57287L11.9583 5.71991L12.0445 5.77056ZM12.4425 11.1355L12.4265 11.1388C12.4214 11.1131 12.4215 11.0872 12.4217 11.061C12.4217 11.0513 12.4218 11.0415 12.4215 11.0317V8.88829L12.4425 11.1355Z" fill="#251863" stroke="black" stroke-width="0.2"/>
</svg>
