<svg width="18" height="18" viewBox="0 0 18 18" fill="none" xmlns="http://www.w3.org/2000/svg">
<path opacity="0.5" d="M3 10.207C2.44782 10.207 2 9.66651 2 9.00009C2 8.33366 2.44782 7.79319 3 7.79319H15C15.5522 7.79319 16 8.33366 16 9.00009C16 9.66651 15.5522 10.207 15 10.207H3ZM3 16C2.44782 16 2 15.4599 2 14.7931C2 14.1267 2.44782 13.5862 3 13.5862H15C15.5522 13.5862 16 14.1267 16 14.7931C16 15.4599 15.5522 16 15 16H3ZM3 4.41379C2.44782 4.41379 2 3.87332 2 3.2069C2 2.54014 2.44782 2 3 2H15C15.5522 2 16 2.54014 16 3.2069C16 3.87332 15.5522 4.41379 15 4.41379H3Z" fill="#251863"/>
</svg>
