<svg width="14" height="14" viewBox="0 0 14 14" fill="none" xmlns="http://www.w3.org/2000/svg">
<path d="M1 7.70698C0.80785 7.70698 0.5 7.48248 0.5 7.00009C0.5 6.51769 0.80785 6.29319 1 6.29319H13C13.1922 6.29319 13.5 6.51769 13.5 7.00009C13.5 7.48248 13.1922 7.70698 13 7.70698H1ZM1 13.5C0.80777 13.5 0.5 13.2757 0.5 12.7931C0.5 12.3107 0.80785 12.0862 1 12.0862H13C13.1922 12.0862 13.5 12.3107 13.5 12.7931C13.5 13.2757 13.1922 13.5 13 13.5H1ZM1 1.91379C0.80785 1.91379 0.5 1.68929 0.5 1.2069C0.5 0.724259 0.80777 0.5 1 0.5H13C13.1922 0.5 13.5 0.724259 13.5 1.2069C13.5 1.68929 13.1922 1.91379 13 1.91379H1Z" fill="#251863" stroke="#251863"/>
</svg>
