<svg width="18" height="18" viewBox="0 0 18 18" fill="none" xmlns="http://www.w3.org/2000/svg">
<path d="M13.1167 2C12.3793 2 11.6418 2.28005 11.0799 2.84165L9.30117 4.62029C8.73468 5.18652 8.45413 5.93298 8.45952 6.67395V7.02738C8.45689 7.21713 8.62885 7.39159 8.81859 7.39159C9.00834 7.39159 9.18042 7.21712 9.17767 7.02738V6.66831C9.17353 6.1116 9.38345 5.55887 9.81165 5.13092L11.5904 3.35216C12.4413 2.50175 13.7975 2.50175 14.6484 3.35216C15.4993 4.20257 15.4993 5.55412 14.6484 6.40453L12.8698 8.18329C12.4447 8.60812 11.8902 8.82291 11.338 8.82291H10.9733C10.7836 8.82028 10.6091 8.99224 10.6091 9.18199C10.6091 9.37173 10.7836 9.54382 10.9733 9.54106H11.338C12.0742 9.54106 12.8126 9.25575 13.3748 8.69376L15.1535 6.91513C16.2772 5.79206 16.2772 3.9646 15.1535 2.84153C14.5917 2.28004 13.854 2 13.1167 2ZM11.108 6.48305C11.0296 6.49432 10.9553 6.53252 10.9003 6.58963L6.59106 10.8989C6.45304 11.0302 6.44928 11.2763 6.58317 11.4117C6.71706 11.547 6.96328 11.5459 7.09605 11.4095L11.4053 7.10026C11.5158 6.99655 11.5487 6.81908 11.483 6.68257C11.4172 6.54605 11.2579 6.46126 11.108 6.48305ZM6.65828 8.46368C5.92208 8.46368 5.18377 8.74335 4.62154 9.30533L2.84278 11.0841C1.71907 12.2072 1.71907 14.0346 2.84278 15.1577C3.9665 16.2808 5.79271 16.2808 6.91639 15.1577L8.69515 13.3789C9.26164 12.8127 9.54219 12.0662 9.5368 11.3253V10.9775C9.53943 10.7877 9.36747 10.6132 9.17773 10.6132C8.98798 10.6132 8.8159 10.7877 8.81866 10.9775V11.3309C8.82279 11.8876 8.61288 12.4403 8.18467 12.8683L6.40582 14.647C5.5549 15.4974 4.19873 15.4974 3.34781 14.647C2.49689 13.7966 2.49689 12.4451 3.34781 11.5947L5.12657 9.8159C5.55166 9.39107 6.10613 9.18192 6.65831 9.18192H7.02303C7.21278 9.18455 7.38723 9.01259 7.38723 8.82285C7.38723 8.6331 7.21277 8.46102 7.02303 8.46377L6.65828 8.46368Z" fill="#928BB1" stroke="#928BB1" stroke-width="0.4"/>
</svg>
