<svg width="14" height="14" viewBox="0 0 14 14" fill="none" xmlns="http://www.w3.org/2000/svg">
<path opacity="0.5" d="M1 8.20698C0.447821 8.20698 0 7.66651 0 7.00009C0 6.33366 0.447821 5.79319 1 5.79319H13C13.5522 5.79319 14 6.33366 14 7.00009C14 7.66651 13.5522 8.20698 13 8.20698H1ZM1 14C0.447821 14 0 13.4599 0 12.7931C0 12.1267 0.447821 11.5862 1 11.5862H13C13.5522 11.5862 14 12.1267 14 12.7931C14 13.4599 13.5522 14 13 14H1ZM1 2.41379C0.447821 2.41379 0 1.87332 0 1.2069C0 0.540138 0.447821 0 1 0H13C13.5522 0 14 0.540138 14 1.2069C14 1.87332 13.5522 2.41379 13 2.41379H1Z" fill="#251863"/>
</svg>
