<svg width="24" height="24" viewBox="0 0 24 24" fill="none" xmlns="http://www.w3.org/2000/svg">
<g id="01" opacity="0.6">
<path id="Vector" d="M5.77069 9.21406V6.9838C5.77069 5.62421 6.88314 4.51207 8.2433 4.51207H9.71869C9.9182 4.51207 10.0767 4.35284 10.0767 4.15713C10.0767 3.96435 9.92023 3.8 9.71869 3.8H8.23933H8.03933V3.80664C6.37563 3.9101 5.05554 5.29522 5.05554 6.98424V9.21379L4.40925 8.56866L4.40913 8.56853L5.77069 9.21406ZM12.636 3.83037V3.83035L12.6331 3.83039C12.4382 3.83324 12.278 3.98341 12.278 4.18839V11.4241C12.278 11.6245 12.4329 11.7821 12.6351 11.7821H19.8717C20.072 11.7821 20.2297 11.6256 20.2297 11.4241V4.18839C20.2297 3.98807 20.0732 3.83037 19.8717 3.83037H12.636ZM11.7537 12.5759H11.7537L11.7537 12.5729C11.7508 12.3788 11.5944 12.2179 11.3966 12.2179H4.16C4.06554 12.2179 3.97403 12.2527 3.90616 12.3221C3.83855 12.3912 3.80594 12.4827 3.80594 12.5759V19.8116C3.80594 20.0109 3.96274 20.1696 4.16 20.1696H11.3966C11.598 20.1696 11.7537 20.0124 11.7537 19.8116V12.5759ZM17.3674 15.5394C17.4636 15.5394 17.5521 15.4992 17.6186 15.4328L17.6187 15.4327L18.265 14.7875L18.265 17.0165C18.265 17.0167 18.265 17.0168 18.265 17.0169C18.2611 18.3736 17.1489 19.4849 15.7893 19.4849H14.3099C14.1085 19.4849 13.9528 19.642 13.9528 19.8429C13.9528 20.0441 14.1075 20.2 14.3099 20.2H15.7893C17.5459 20.2 18.9731 18.7724 18.9731 17.0162V14.7873L19.6185 15.4327C19.6907 15.5049 19.7776 15.5375 19.8717 15.5375C19.9658 15.5375 20.0527 15.5049 20.1249 15.4327C20.1914 15.3662 20.2317 15.2777 20.2317 15.1814C20.2317 15.0852 20.1914 14.9966 20.1249 14.9302L18.8722 13.6775C18.8058 13.6111 18.7096 13.5776 18.6199 13.5776C18.5308 13.5776 18.4358 13.6099 18.3684 13.678C18.3681 13.6783 18.3679 13.6785 18.3676 13.6788L17.1162 14.9302C17.0498 14.9966 17.0094 15.0852 17.0094 15.1814C17.0094 15.2777 17.0498 15.3662 17.1162 15.4327C17.1827 15.4991 17.2712 15.5394 17.3674 15.5394ZM12.9901 4.54552H19.5146V11.0709H12.9901V4.54552ZM4.51405 12.9304H11.0385V19.4518H4.51405V12.9304Z" fill="#11093C" stroke="#11093C" stroke-width="0.4"/>
</g>
</svg>
