<svg width="36" height="36" viewBox="0 0 36 36" fill="none" xmlns="http://www.w3.org/2000/svg">
<path d="M8.94551 23.9242C9.47618 23.3937 10.2132 23.1874 10.9208 23.3347L11.8052 22.4211C10.2427 20.4758 9.29929 18.0295 9.29929 15.3179C9.32877 9.09895 14.3996 4 20.6496 4C26.8997 4 32 9.09895 32 15.3474C32 21.5958 26.9292 26.6653 20.6496 26.6653C17.9963 26.6653 15.5199 25.7221 13.5446 24.16L12.6307 25.0737C12.7781 25.7811 12.5717 26.5179 12.0411 27.0484L7.70729 31.3811C7.26507 31.8232 6.70492 32 6.17426 32C5.61411 32 5.05396 31.7937 4.64122 31.3811C3.78626 30.5263 3.78626 29.1411 4.64122 28.2863L8.94551 23.9242ZM11.7757 15.3474C11.7757 20.24 15.7557 24.1895 20.6496 24.1895C25.5436 24.1895 29.5236 20.24 29.5236 15.3474C29.5236 10.4547 25.5436 6.47579 20.6496 6.47579C15.7557 6.47579 11.7757 10.4253 11.7757 15.3474Z" fill="#29C499"/>
</svg>
