<svg width="16" height="16" viewBox="0 0 16 16" fill="none" xmlns="http://www.w3.org/2000/svg">
<path d="M14.4723 13.5266L11.999 11.0733C12.959 9.87621 13.424 8.3568 13.2982 6.82747C13.1724 5.29814 12.4654 3.87512 11.3226 2.85103C10.1799 1.82694 8.68816 1.27961 7.15424 1.32158C5.62032 1.36356 4.16077 1.99164 3.07572 3.0767C1.99067 4.16175 1.36258 5.6213 1.32061 7.15522C1.27863 8.68914 1.82596 10.1808 2.85006 11.3236C3.87415 12.4664 5.29716 13.1733 6.82649 13.2991C8.35583 13.4249 9.87523 12.96 11.0723 11.9999L13.5256 14.4533C13.5876 14.5158 13.6613 14.5654 13.7426 14.5992C13.8238 14.633 13.911 14.6505 13.999 14.6505C14.087 14.6505 14.1741 14.633 14.2553 14.5992C14.3366 14.5654 14.4103 14.5158 14.4723 14.4533C14.5925 14.329 14.6596 14.1628 14.6596 13.9899C14.6596 13.817 14.5925 13.6509 14.4723 13.5266ZM7.33229 11.9999C6.40931 11.9999 5.50706 11.7262 4.73963 11.2135C3.9722 10.7007 3.37406 9.97185 3.02086 9.11913C2.66765 8.2664 2.57523 7.32809 2.7553 6.42285C2.93536 5.5176 3.37982 4.68608 4.03246 4.03344C4.68511 3.38079 5.51663 2.93634 6.42187 2.75627C7.32712 2.57621 8.26543 2.66862 9.11815 3.02183C9.97087 3.37504 10.6997 3.97318 11.2125 4.74061C11.7253 5.50804 11.999 6.41029 11.999 7.33327C11.999 8.57095 11.5073 9.75793 10.6321 10.6331C9.75696 11.5083 8.56997 11.9999 7.33229 11.9999Z" fill="#A6A4B7"/>
</svg>
