<svg width="24" height="24" viewBox="0 0 24 24" fill="none" xmlns="http://www.w3.org/2000/svg">
<g id="Frame 5332532" opacity="0.6">
<g id="Group 5332531">
<path id="Vector" d="M11.5527 7.07636H14.3782C14.5711 7.07636 14.7561 6.99974 14.8924 6.86335C15.0288 6.72696 15.1055 6.54198 15.1055 6.34909C15.1055 6.15621 15.0288 5.97122 14.8924 5.83483C14.7561 5.69844 14.5711 5.62182 14.3782 5.62182H12.28V4.72727C12.28 4.53439 12.2034 4.3494 12.067 4.21301C11.9306 4.07662 11.7456 4 11.5527 4C11.3598 4 11.1749 4.07662 11.0385 4.21301C10.9021 4.3494 10.8255 4.53439 10.8255 4.72727V5.69818C6.69818 6.65818 7.28 12.6073 11.5527 12.7273C12.1092 12.7273 12.6429 12.9483 13.0364 13.3418C13.4299 13.7353 13.6509 14.269 13.6509 14.8255C13.6509 15.3819 13.4299 15.9156 13.0364 16.3091C12.6429 16.7026 12.1092 16.9236 11.5527 16.9236H8.72727C8.53439 16.9236 8.3494 17.0003 8.21301 17.1367C8.07662 17.273 8 17.458 8 17.6509C8 17.8438 8.07662 18.0288 8.21301 18.1652C8.3494 18.3016 8.53439 18.3782 8.72727 18.3782H10.8255V19.2727C10.8255 19.4656 10.9021 19.6506 11.0385 19.787C11.1749 19.9234 11.3598 20 11.5527 20C11.7456 20 11.9306 19.9234 12.067 19.787C12.2034 19.6506 12.28 19.4656 12.28 19.2727V18.3018C16.4036 17.3418 15.8255 11.3927 11.5527 11.2727C8.78182 11.1855 8.78182 7.16727 11.5527 7.07636Z" fill="#11093C"/>
</g>
</g>
</svg>
