<svg width="18" height="18" viewBox="0 0 18 18" fill="none" xmlns="http://www.w3.org/2000/svg">
<path fill-rule="evenodd" clip-rule="evenodd" d="M12.7155 10.9514L15.8408 14.0767C16.0531 14.2863 16.0531 14.6312 15.8408 14.8408C15.6286 15.0531 15.2863 15.0531 15.0741 14.8408L11.9488 11.7182C11.0043 12.4929 9.79714 12.9571 8.47857 12.9571C5.45143 12.9571 3 10.5031 3 7.47857C3 4.45408 5.45143 2 8.47857 2C11.5031 2 13.9571 4.45408 13.9571 7.47857C13.9571 8.79714 13.4902 10.0069 12.7155 10.9514ZM4.08789 7.47858C4.08789 9.89818 6.05646 11.8667 8.47871 11.8667C10.8983 11.8667 12.8695 9.89818 12.8695 7.47858C12.8695 5.05899 10.8983 3.08777 8.47871 3.08777C6.05646 3.08777 4.08789 5.05899 4.08789 7.47858Z" fill="#928BB1"/>
</svg>
