<svg width="24" height="24" viewBox="0 0 24 24" fill="none" xmlns="http://www.w3.org/2000/svg">
<g opacity="0.5">
<path d="M12.0181 10.1299C13.7147 10.1299 15.083 8.76158 15.083 7.06494C15.083 5.3683 13.7147 4 12.0181 4C10.3214 4 8.95312 5.3683 8.95312 7.06494C8.95312 8.76158 10.3214 10.1299 12.0181 10.1299ZM12.0181 5.09454C13.1126 5.09454 13.9884 5.97035 13.9884 7.06489C13.9884 8.15943 13.1126 9.03524 12.0181 9.03524C10.9235 9.03524 10.0477 8.15943 10.0477 7.06489C10.0477 5.97015 10.9235 5.09454 12.0181 5.09454Z" fill="#11093C"/>
<path d="M0.547133 20.3357H6.43082V22.3882C6.43082 22.6892 6.67707 22.9355 6.97809 22.9355H17.0214C17.3224 22.9355 17.5687 22.6892 17.5687 22.3882V20.3357H23.4523C23.7534 20.3357 23.9996 20.0895 23.9996 19.7885L24 14.9994C24 13.0563 22.4128 11.4693 20.4699 11.4693H18.9647C18.0616 11.4693 17.2133 11.8251 16.5839 12.3997C15.8177 11.4693 14.6408 10.8945 13.3548 10.8945H10.6454C9.35916 10.8945 8.18252 11.4966 7.41627 12.3997C6.75944 11.7977 5.9111 11.4693 5.03548 11.4693H3.53011C1.58703 11.4693 0 13.0565 0 14.9994V19.7885C0 20.0895 0.24625 20.3357 0.54727 20.3357H0.547133ZM18.9918 12.5638H20.497C21.838 12.5638 22.9325 13.6583 22.9325 14.9994V19.2412H17.5688V15.0815C17.5688 14.4521 17.4319 13.8773 17.1857 13.3301C17.6509 12.8376 18.3078 12.5638 18.9919 12.5638H18.9918ZM10.6452 11.9892H13.3818C15.1059 11.9892 16.5015 13.3848 16.5015 15.1089V21.841L7.55282 21.8408V15.0814C7.55282 13.3847 8.94858 11.9892 10.6452 11.9892L10.6452 11.9892ZM1.09445 14.9994C1.09445 13.6584 2.18899 12.5638 3.53002 12.5638H5.0352C5.71935 12.5638 6.37618 12.8648 6.8414 13.3573C6.59515 13.8773 6.45829 14.4794 6.45829 15.1087V19.241L1.09456 19.2411L1.09445 14.9994Z" fill="#11093C"/>
<path d="M4.29888 10.5118C5.63986 10.5118 6.70713 9.41728 6.70713 8.10357C6.70713 6.79005 5.61259 5.69531 4.29888 5.69531C2.98536 5.69531 1.89062 6.78985 1.89062 8.10357C1.89082 9.41728 2.95809 10.5118 4.29888 10.5118ZM4.29888 6.79005C5.03781 6.79005 5.6124 7.3921 5.6124 8.10357C5.6124 8.81503 5.01035 9.41708 4.29888 9.41708C3.58741 9.41708 2.98536 8.81503 2.98536 8.10357C2.98536 7.3921 3.56014 6.79005 4.29888 6.79005Z" fill="#11093C"/>
<path d="M19.7286 10.5118C21.0695 10.5118 22.1368 9.41728 22.1368 8.10357C22.1368 6.79005 21.0423 5.69531 19.7286 5.69531C18.415 5.69531 17.3203 6.78985 17.3203 8.10357C17.3203 9.41728 18.4149 10.5118 19.7286 10.5118ZM19.7286 6.79005C20.4675 6.79005 21.0421 7.3921 21.0421 8.10357C21.0421 8.81503 20.44 9.41708 19.7286 9.41708C19.0171 9.41708 18.415 8.81503 18.415 8.10357C18.4149 7.3921 19.0169 6.79005 19.7286 6.79005Z" fill="#11093C"/>
</g>
</svg>
