<svg width="80" height="80" viewBox="0 0 80 80" fill="none" xmlns="http://www.w3.org/2000/svg">
<path d="M45.659 5.50236C45.3768 5.18845 44.99 5 44.5891 5H20.5854C16.1561 5 12.5 8.84678 12.5 13.5252V61.4743C12.5 66.1532 16.1561 70 20.5854 70H53.1646C57.5939 70 61.25 66.1532 61.25 61.4743V23.4008C61.25 22.9926 61.0716 22.6004 60.819 22.3018L45.659 5.50236Z" fill="#11093C" fill-opacity="0.1"/>
<path d="M45.659 5.50236L44.4194 6.61648L44.4216 6.61895L45.659 5.50236ZM60.819 22.3018L62.0914 21.2254L62.0742 21.205L62.0564 21.1852L60.819 22.3018ZM46.8985 4.38824C46.3395 3.76626 45.5185 3.33333 44.5891 3.33333V6.66667C44.5266 6.66667 44.4807 6.65183 44.4544 6.63938C44.4291 6.62736 44.4197 6.61682 44.4194 6.61647L46.8985 4.38824ZM44.5891 3.33333H20.5854V6.66667H44.5891V3.33333ZM20.5854 3.33333C15.1546 3.33333 10.8333 8.00952 10.8333 13.5252H14.1667C14.1667 9.68404 17.1576 6.66667 20.5854 6.66667V3.33333ZM10.8333 13.5252V61.4743H14.1667V13.5252H10.8333ZM10.8333 61.4743C10.8333 66.9904 15.1545 71.6667 20.5854 71.6667V68.3333C17.1577 68.3333 14.1667 65.316 14.1667 61.4743H10.8333ZM20.5854 71.6667H53.1646V68.3333H20.5854V71.6667ZM53.1646 71.6667C58.5955 71.6667 62.9167 66.9904 62.9167 61.4743H59.5833C59.5833 65.316 56.5923 68.3333 53.1646 68.3333V71.6667ZM62.9167 61.4743V23.4008H59.5833V61.4743H62.9167ZM62.9167 23.4008C62.9167 22.5157 62.5395 21.7549 62.0914 21.2254L59.5466 23.3783C59.5563 23.3897 59.5651 23.4019 59.5724 23.4138C59.5797 23.4256 59.5841 23.435 59.5864 23.4406C59.5916 23.4533 59.5833 23.4397 59.5833 23.4008H62.9167ZM62.0564 21.1852L46.8963 4.38577L44.4216 6.61895L59.5817 23.4184L62.0564 21.1852Z" fill="#C2BED3"/>
<rect x="33.334" y="28.334" width="0.909091" height="10" rx="0.454545" transform="rotate(90 33.334 28.334)" fill="#251863" fill-opacity="0.1" stroke="#C2BED3" stroke-width="3.33333" stroke-linecap="round" stroke-linejoin="round"/>
<rect x="50.834" y="36.666" width="0.833333" height="27.5" rx="0.416667" transform="rotate(90 50.834 36.666)" fill="#251863" fill-opacity="0.1" stroke="#C2BED3" stroke-width="3.33333" stroke-linecap="round" stroke-linejoin="round"/>
<rect x="50.834" y="44.166" width="0.833333" height="27.5" rx="0.416667" transform="rotate(90 50.834 44.166)" fill="#251863" fill-opacity="0.1" stroke="#C2BED3" stroke-width="3.33333" stroke-linecap="round" stroke-linejoin="round"/>
<rect x="50.834" y="51.666" width="0.833333" height="27.5" rx="0.416667" transform="rotate(90 50.834 51.666)" fill="#251863" fill-opacity="0.1" stroke="#C2BED3" stroke-width="3.33333" stroke-linecap="round" stroke-linejoin="round"/>
<circle cx="61.666" cy="65.834" r="10" fill="#251863"/>
<rect x="66.668" y="65.3809" width="0.909091" height="10" rx="0.454545" transform="rotate(90 66.668 65.3809)" fill="white" stroke="white" stroke-width="0.333333"/>
<rect x="62.1211" y="60.834" width="10" height="0.909091" rx="0.454545" transform="rotate(90 62.1211 60.834)" fill="white" stroke="white" stroke-width="0.333333"/>
</svg>
