<svg width="120" height="116" viewBox="0 0 120 116" fill="none" xmlns="http://www.w3.org/2000/svg">
<path d="M118.224 92.4551L73.6665 8.22076C69.6604 0.673578 60.2977 -2.19725 52.7505 1.8089C50.0197 3.25934 47.7889 5.48998 46.3385 8.22076L1.78064 92.4551C-2.1855 99.9773 0.69533 109.295 8.22252 113.261C10.4482 114.436 12.9339 115.047 15.4496 115.037H104.555C113.058 115.062 119.975 108.19 120 99.6822C120.01 97.1614 119.4 94.6807 118.224 92.4551ZM60.0026 100.032C55.8614 100.032 52.5005 96.6713 52.5005 92.5301C52.5005 88.3889 55.8614 85.028 60.0026 85.028C64.1438 85.028 67.5048 88.3889 67.5048 92.5301C67.5048 96.6713 64.1438 100.032 60.0026 100.032ZM62.6534 75.0251H57.3469C56.0265 75.0251 54.9312 73.9998 54.8511 72.6794L52.6605 37.6692C52.5705 36.2288 53.7158 35.0135 55.1562 35.0135H64.839C66.2794 35.0135 67.4248 36.2288 67.3347 37.6692L65.1441 72.6794C65.0641 73.9998 63.9738 75.0251 62.6534 75.0251Z" fill="#FFBE00"/>
</svg>
