<svg xmlns="http://www.w3.org/2000/svg" width="7.242" height="12.2" viewBox="0 0 7.242 12.2">
  <path id="ic_amount" d="M5.951,6.016a4,4,0,0,0-1.009-.448c-.207-.062-.457-.126-.728-.2-.23-.062-.478-.12-.865-.2a8.208,8.208,0,0,1-1.21-.346,1.449,1.449,0,0,1-.585-.4.879.879,0,0,1-.188-.6V3.764a.9.9,0,0,1,.207-.518,1.55,1.55,0,0,1,.685-.456A3.666,3.666,0,0,1,3.521,2.6a3.651,3.651,0,0,1,.947.124,1.978,1.978,0,0,1,.621.29,1.218,1.218,0,0,1,.319.326l.335.5L6.791,3.2l-.335-.5a2.422,2.422,0,0,0-.637-.65,3.224,3.224,0,0,0-1-.472,4.689,4.689,0,0,0-.716-.14V0H2.861V1.432a4.962,4.962,0,0,0-1.009.216A2.8,2.8,0,0,0,.61,2.472l-.017.02A2.09,2.09,0,0,0,.12,3.744a2.054,2.054,0,0,0,.436,1.4l.021.024a2.687,2.687,0,0,0,1.111.778,9.471,9.471,0,0,0,1.394.4c.356.076.585.13.811.2.267.064.49.122.687.18a2.734,2.734,0,0,1,.689.3,1.127,1.127,0,0,1,.348.34,1.1,1.1,0,0,1,.141.564v.028a1.094,1.094,0,0,1-.207.67,1.638,1.638,0,0,1-.747.544A3.452,3.452,0,0,1,3.465,9.4H3.426a3.193,3.193,0,0,1-1.448-.294,1.693,1.693,0,0,1-.6-.522L1.02,8.092,0,8.776l.354.492a2.944,2.944,0,0,0,1.059.91,4.513,4.513,0,0,0,1.655.422V12H4.309V10.542a4.531,4.531,0,0,0,.95-.248,2.869,2.869,0,0,0,1.3-.958A2.26,2.26,0,0,0,7,7.936,2.149,2.149,0,0,0,5.951,6.014Z" transform="translate(0.142 0.1)" fill="#251863" stroke="#fff" stroke-miterlimit="10" stroke-width="0.2" opacity="0.3"/>
</svg>
