<?xml version="1.0" encoding="utf-8"?>
<!-- Generator: Adobe Illustrator 24.0.0, SVG Export Plug-In . SVG Version: 6.00 Build 0)  -->
<svg version="1.1" id="Capa_1" xmlns="http://www.w3.org/2000/svg" xmlns:xlink="http://www.w3.org/1999/xlink" x="0px" y="0px"
	 viewBox="0 0 48 48" style="enable-background:new 0 0 48 48;" xml:space="preserve">
<style type="text/css">
	.st0{filter:url(#Adobe_OpacityMaskFilter);}
	.st1{fill-rule:evenodd;clip-rule:evenodd;fill:#FFFFFF;}
	.st2{mask:url(#mask-2_1_);fill-rule:evenodd;clip-rule:evenodd;fill:none;stroke:#11093C;stroke-width:2;stroke-miterlimit:10;}
</style>
<defs>
	<filter id="Adobe_OpacityMaskFilter" filterUnits="userSpaceOnUse" x="2.3" y="0" width="43.3" height="47.9">
		<feColorMatrix  type="matrix" values="1 0 0 0 0  0 1 0 0 0  0 0 1 0 0  0 0 0 1 0"/>
	</filter>
</defs>
<mask maskUnits="userSpaceOnUse" x="2.3" y="0" width="43.3" height="47.9" id="mask-2_1_">
	<g class="st0">
		<path id="path-1_3_" class="st1" d="M-5.9-12.7h59.7c3.8,0,6.9,3.1,6.9,6.9v59.7c0,3.8-3.1,6.9-6.9,6.9H-5.9
			c-3.8,0-6.9-3.1-6.9-6.9V-5.9C-12.7-9.7-9.7-12.7-5.9-12.7z"/>
	</g>
</mask>
<path id="overlay" class="st2" d="M5.6,4.9V1.7h-2v6.7H3.3v3.7h2.5V31l-0.2,3.7h4.9v1.7c-0.1,0.1-0.2,0.2-0.2,0.3
	c0,0.1,0.2,0.3,0.2,0.4c0,0.1,0,0.5,0,1c-0.1,1.2-0.2,1.9-0.2,2.1s0.1,0.9,0.2,2h4.7l0.1,4.7h8.5v-2h12.1v-8.4h8.7l0.1-28.2H17V1
	h-2.3l-0.1,0.7h-2.4v0.6h-1v1.8h-0.9V2.3h-1v2.1L9.1,4.7H7.1L5.6,4.9z"/>
</svg>
