<svg width="17" height="18" viewBox="0 0 17 18" fill="none" xmlns="http://www.w3.org/2000/svg">
<path fill-rule="evenodd" clip-rule="evenodd" d="M7.17418 9L1.27459 2.70711C0.908471 2.31658 0.908471 1.68342 1.27459 1.29289C1.6407 0.902369 2.2343 0.902369 2.60041 1.29289L8.5 7.58579L14.3996 1.29289C14.7657 0.902369 15.3593 0.902369 15.7254 1.29289C16.0915 1.68342 16.0915 2.31658 15.7254 2.70711L9.82583 9L15.7254 15.2929C16.0915 15.6834 16.0915 16.3166 15.7254 16.7071C15.3593 17.0976 14.7657 17.0976 14.3996 16.7071L8.5 10.4142L2.60041 16.7071C2.2343 17.0976 1.6407 17.0976 1.27459 16.7071C0.908471 16.3166 0.908471 15.6834 1.27459 15.2929L7.17418 9Z" fill="#251863" stroke="#251863" stroke-width="0.5"/>
</svg>
