<svg width="16" height="16" viewBox="0 0 16 16" fill="none" xmlns="http://www.w3.org/2000/svg">
<path d="M0 3.00012C0 1.34327 1.34315 0.00012207 3 0.00012207H13C14.6569 0.00012207 16 1.34327 16 3.00012V13.0003C16 14.6572 14.6569 16.0003 13 16.0003H3C1.34315 16.0003 0 14.6572 0 13.0003V3.00012Z" fill="#E9E8EF"/>
<g clip-path="url(#clip0_255_34183)">
<path fill-rule="evenodd" clip-rule="evenodd" d="M4.07125 4.50008H2.5C2.22386 4.50008 2 4.27622 2 4.00008C2 3.72394 2.22386 3.50008 2.5 3.50008H4.07125C4.29537 2.61775 5.08965 2 6 2C6.91035 2 7.70463 2.61775 7.92875 3.50008H13.5C13.7761 3.50008 14 3.72394 14 4.00008C14 4.27622 13.7761 4.50008 13.5 4.50008H7.92875C7.70463 5.38241 6.91035 6.00016 6 6.00016C5.08965 6.00016 4.29537 5.38241 4.07125 4.50008ZM7.00018 4.00008C7.00018 3.44779 6.55247 3.00008 6.00018 3.00008C5.4479 3.00008 5.00018 3.44779 5.00018 4.00008C5.00018 4.55236 5.4479 5.00008 6.00018 5.00008C6.55247 5.00008 7.00018 4.55236 7.00018 4.00008Z" fill="#251863"/>
<path fill-rule="evenodd" clip-rule="evenodd" d="M8.07125 8.50008H2.5C2.22386 8.50008 2 8.27622 2 8.00008C2 7.72394 2.22386 7.50008 2.5 7.50008H8.07125C8.29537 6.61775 9.08965 6 10 6C10.9104 6 11.7046 6.61775 11.9288 7.50008H13.5C13.7761 7.50008 14 7.72394 14 8.00008C14 8.27622 13.7761 8.50008 13.5 8.50008H11.9288C11.7046 9.38241 10.9104 10.0002 10 10.0002C9.08965 10.0002 8.29537 9.38241 8.07125 8.50008ZM11.0001 8.00006C11.0001 7.44778 10.5524 7.00006 10.0001 7.00006C9.44784 7.00006 9.00012 7.44778 9.00012 8.00006C9.00012 8.55235 9.44784 9.00006 10.0001 9.00006C10.5524 9.00006 11.0001 8.55235 11.0001 8.00006Z" fill="#251863"/>
<path fill-rule="evenodd" clip-rule="evenodd" d="M4.07125 12.5001H2.5C2.22386 12.5001 2 12.2762 2 12.0001C2 11.7239 2.22386 11.5001 2.5 11.5001H4.07125C4.29537 10.6177 5.08965 10 6 10C6.91035 10 7.70463 10.6177 7.92875 11.5001H13.5C13.7761 11.5001 14 11.7239 14 12.0001C14 12.2762 13.7761 12.5001 13.5 12.5001H7.92875C7.70463 13.3824 6.91035 14.0002 6 14.0002C5.08965 14.0002 4.29537 13.3824 4.07125 12.5001ZM7.00018 12.0001C7.00018 11.4478 6.55247 11.0001 6.00018 11.0001C5.4479 11.0001 5.00018 11.4478 5.00018 12.0001C5.00018 12.5524 5.4479 13.0001 6.00018 13.0001C6.55247 13.0001 7.00018 12.5524 7.00018 12.0001Z" fill="#251863"/>
</g>
<defs>
<clipPath id="clip0_255_34183">
<rect width="12" height="12.0002" fill="white" transform="translate(2 2)"/>
</clipPath>
</defs>
</svg>
