<svg width="24" height="24" viewBox="0 0 24 24" fill="none" xmlns="http://www.w3.org/2000/svg">
<g opacity="0.6">
<path d="M10.8785 11.8328H10.8786C11.2028 11.8328 11.5198 11.7367 11.7894 11.5566C12.059 11.3765 12.2691 11.1204 12.3932 10.8209C12.5174 10.5213 12.5498 10.1917 12.4866 9.87372C12.4234 9.55571 12.2673 9.26359 12.038 9.0343C11.8087 8.80502 11.5166 8.64887 11.1986 8.5856C10.8806 8.52233 10.551 8.55479 10.2515 8.67886C9.95189 8.80293 9.69585 9.01305 9.51571 9.28264C9.33557 9.55223 9.23942 9.86918 9.23942 10.1934V10.1935C9.23986 10.6281 9.41268 11.0447 9.71997 11.3521C10.0273 11.6594 10.4439 11.8323 10.8785 11.8328ZM19.2 14.6383L15.5913 9.62094C15.5201 9.52182 15.4262 9.44107 15.3176 9.38537C15.2089 9.32968 15.0886 9.30063 14.9665 9.30063C14.8444 9.30063 14.7241 9.32968 14.6154 9.38537C14.5068 9.44107 14.4129 9.52181 14.3416 9.62093C14.3416 9.62094 14.3416 9.62094 14.3416 9.62094L10.8139 14.5249L8.96219 11.9502C8.89091 11.8511 8.79707 11.7703 8.68842 11.7146C8.57977 11.6589 8.45943 11.6299 8.33733 11.6299C8.21524 11.6299 8.0949 11.6589 7.98625 11.7146C7.8776 11.7703 7.78376 11.8511 7.71248 11.9502C7.71248 11.9502 7.71247 11.9502 7.71247 11.9502L4.80004 15.9988V6.46886C4.80026 6.29155 4.8708 6.12156 4.99618 5.99618C5.12156 5.8708 5.29155 5.80026 5.46886 5.80004H18.5312C18.7085 5.80022 18.8785 5.87074 19.0039 5.99613C19.1293 6.12151 19.1998 6.29152 19.2 6.46885V14.6383ZM18.5313 4.95H18.5312L5.4688 4.95L5.46874 4.95C5.06609 4.95049 4.68008 5.11065 4.39537 5.39537C4.11065 5.68008 3.95049 6.06609 3.95 6.46874V6.4688L3.95 17.8288L3.95 17.8289C3.95044 18.2315 4.11058 18.6176 4.3953 18.9023C4.68002 19.1871 5.06606 19.3473 5.46874 19.3478H5.4688H18.5312H18.5313C18.934 19.3473 19.32 19.1871 19.6048 18.9023C19.8895 18.6175 20.0496 18.2314 20.05 17.8287V17.8286V6.4688V6.46874C20.0495 6.06609 19.8893 5.68008 19.6046 5.39537C19.3199 5.11065 18.9339 4.95049 18.5313 4.95ZM10.8786 9.40431C11.0347 9.40429 11.1873 9.45055 11.3172 9.53726C11.447 9.62398 11.5482 9.74724 11.6079 9.89147C11.6677 10.0357 11.6833 10.1944 11.6529 10.3475C11.6224 10.5007 11.5473 10.6413 11.4369 10.7517C11.3265 10.8621 11.1858 10.9373 11.0327 10.9677C10.8796 10.9982 10.7209 10.9825 10.5766 10.9228C10.4324 10.863 10.3091 10.7618 10.2224 10.632C10.1357 10.5022 10.0894 10.3496 10.0895 10.1934C10.0897 9.98422 10.1729 9.78363 10.3209 9.6357C10.4688 9.48775 10.6694 9.40453 10.8786 9.40431ZM19.0039 18.3014C18.8785 18.4268 18.7085 18.4973 18.5311 18.4976H13.5885L11.3357 15.2544L14.9655 10.2078L19.2 16.0938V17.8286C19.1998 18.0059 19.1293 18.1759 19.0039 18.3014ZM4.80004 17.8286V17.4545L8.33778 12.5366L10.5488 15.6102L10.5493 15.6109L12.5535 18.4976H5.46887C5.29154 18.4973 5.12155 18.4267 4.99617 18.3013C4.87079 18.1759 4.80026 18.0059 4.80004 17.8286Z" fill="#11093C" stroke="#11093C" stroke-width="0.1"/>
</g>
</svg>
