<svg width="48" height="48" viewBox="0 0 48 48" fill="none" xmlns="http://www.w3.org/2000/svg">
<g filter="url(#filter0_d_44_22143)">
<path fill-rule="evenodd" clip-rule="evenodd" d="M8 9C8 7.34315 9.34315 6 11 6H37C38.6569 6 40 7.34315 40 9V35C40 36.6569 38.6569 38 37 38H11C9.34315 38 8 36.6569 8 35V9Z" fill="white"/>
</g>
<path d="M20 13H27.4286H32C32.5523 13 33 13.4477 33 14V29.5382C33 30.0865 32.8043 30.6123 32.4561 31" stroke="#251863" stroke-width="1.2" stroke-linecap="round" stroke-linejoin="round"/>
<path d="M22 24.5L21.5 24.5L21.5 24L21.5 13C21.5 12.8674 21.4473 12.7402 21.3536 12.6464C21.2598 12.5527 21.1326 12.5 21 12.5L15 12.5C14.8674 12.5 14.7402 12.5527 14.6464 12.6464C14.5527 12.7402 14.5 12.8674 14.5 13L14.5 31C14.5 31.1326 14.5527 31.2598 14.6464 31.3536C14.7402 31.4473 14.8674 31.5 15 31.5L33 31.5C33.1326 31.5 33.2598 31.4473 33.3536 31.3536C33.4473 31.2598 33.5 31.1326 33.5 31L33.5 25C33.5 24.8674 33.4473 24.7402 33.3536 24.6464C33.2598 24.5527 33.1326 24.5 33 24.5L22 24.5ZM32 25.5L32.5 25.5L32.5 26L32.5 30L32.5 30.5L32 30.5L16 30.5L15.5 30.5L15.5 30L15.5 14L15.5 13.5L16 13.5L20 13.5L20.5 13.5L20.5 14L20.5 16L20.5 16.5L20 16.5L19 16.5C18.8674 16.5 18.7402 16.5527 18.6464 16.6464C18.5527 16.7402 18.5 16.8674 18.5 17C18.5 17.1326 18.5527 17.2598 18.6464 17.3536C18.7402 17.4473 18.8674 17.5 19 17.5L20 17.5L20.5 17.5L20.5 18L20.5 20L20.5 20.5L20 20.5L19 20.5C18.8674 20.5 18.7402 20.5527 18.6464 20.6464C18.5527 20.7402 18.5 20.8674 18.5 21C18.5 21.1326 18.5527 21.2598 18.6464 21.3536C18.7402 21.4473 18.8674 21.5 19 21.5L20 21.5L20.5 21.5L20.5 22L20.5 24L20.5 24.5L20 24.5L19 24.5C18.8674 24.5 18.7402 24.5527 18.6464 24.6464C18.5527 24.7402 18.5 24.8674 18.5 25C18.5 25.1326 18.5527 25.2598 18.6464 25.3536C18.7402 25.4473 18.8674 25.5 19 25.5L20 25.5L20.5 25.5L20.5 26L20.5 27C20.5 27.1326 20.5527 27.2598 20.6464 27.3536C20.7402 27.4473 20.8674 27.5 21 27.5C21.1326 27.5 21.2598 27.4473 21.3536 27.3536C21.4473 27.2598 21.5 27.1326 21.5 27L21.5 26L21.5 25.5L22 25.5L24 25.5L24.5 25.5L24.5 26L24.5 27C24.5 27.1326 24.5527 27.2598 24.6464 27.3536C24.7402 27.4473 24.8674 27.5 25 27.5C25.1326 27.5 25.2598 27.4473 25.3536 27.3536C25.4473 27.2598 25.5 27.1326 25.5 27L25.5 26L25.5 25.5L26 25.5L28 25.5L28.5 25.5L28.5 26L28.5 27C28.5 27.1326 28.5527 27.2598 28.6464 27.3536C28.7402 27.4473 28.8674 27.5 29 27.5C29.1326 27.5 29.2598 27.4473 29.3536 27.3536C29.4473 27.2598 29.5 27.1326 29.5 27L29.5 26L29.5 25.5L30 25.5L32 25.5Z" fill="#251863" stroke="#251863"/>
<defs>
<filter id="filter0_d_44_22143" x="0" y="0" width="48" height="48" filterUnits="userSpaceOnUse" color-interpolation-filters="sRGB">
<feFlood flood-opacity="0" result="BackgroundImageFix"/>
<feColorMatrix in="SourceAlpha" type="matrix" values="0 0 0 0 0 0 0 0 0 0 0 0 0 0 0 0 0 0 127 0" result="hardAlpha"/>
<feOffset dy="2"/>
<feGaussianBlur stdDeviation="4"/>
<feColorMatrix type="matrix" values="0 0 0 0 0 0 0 0 0 0.12549 0 0 0 0 0.388235 0 0 0 0.1 0"/>
<feBlend mode="normal" in2="BackgroundImageFix" result="effect1_dropShadow_44_22143"/>
<feBlend mode="normal" in="SourceGraphic" in2="effect1_dropShadow_44_22143" result="shape"/>
</filter>
</defs>
</svg>
