<svg width="20" height="20" viewBox="0 0 20 20" fill="none" xmlns="http://www.w3.org/2000/svg">
<g opacity="0.5">
<path d="M1.99978 6.12521H12.0748V3.92883H1.99978C1.44764 3.92883 1 4.42053 1 5.027C1 5.63347 1.44764 6.12521 1.99978 6.12521Z" fill="#29C499" stroke="white"/>
<path d="M1.99978 10.5321H12.0748V8.33569H1.99978C1.44764 8.33569 1 8.82739 1 9.4339C1 10.0404 1.44764 10.5321 1.99978 10.5321Z" fill="#29C499" stroke="white"/>
<path d="M1.99978 12.7429V12.743C1.44764 12.743 1 13.2346 1 13.8411C1 14.4476 1.44764 14.9393 1.99978 14.9393H8.99919C8.92012 14.6718 8.87838 14.3897 8.87838 14.1003C8.87838 13.6157 8.99406 13.1509 9.21014 12.7429H1.99978V12.7429Z" fill="#29C499" stroke="white"/>
<path d="M18.6298 13.1184C18.136 12.576 17.3355 12.576 16.8417 13.1184L15.8036 14.2586V2.38875C15.8036 1.62173 15.2375 1 14.5392 1C13.8409 1 13.2749 1.62177 13.2749 2.38875V14.2586L12.2367 13.1184C11.743 12.5761 10.9425 12.576 10.4487 13.1184C9.95493 13.6607 9.95493 14.54 10.4487 15.0824L13.645 18.5932C14.1378 19.1347 14.9393 19.1365 15.4335 18.5932L18.6298 15.0824C19.1235 14.54 19.1235 13.6607 18.6298 13.1184Z" fill="#29C499" stroke="white" stroke-width="1.5"/>
</g>
</svg>
