<svg width="16" height="16" viewBox="0 0 16 16" fill="none" xmlns="http://www.w3.org/2000/svg">
<path d="M15.2921 9.02236C14.9011 9.02236 14.5838 9.34046 14.5838 9.73065V14.5838H1.41657V1.41657H6.26895C6.66056 1.41657 6.97723 1.09927 6.97723 0.708287C6.97723 0.317304 6.66056 0 6.26895 0H0.708287C0.316673 0 0 0.317304 0 0.708287V15.2917C0 15.6833 0.316673 16 0.708287 16H15.2917C15.6833 16 16 15.6833 16 15.2917V9.73024C16.0002 9.34084 15.6835 9.02212 15.2919 9.02212L15.2921 9.02236Z" fill="#11093C"/>
<path d="M15.2907 0.000161805H10.0409C9.64931 0.000161805 9.33264 0.317466 9.33264 0.708449C9.33264 1.09943 9.64931 1.41674 10.0409 1.41674H13.5809L7.99681 7.00087C7.71981 7.27786 7.71981 7.72543 7.99681 8.00243C8.13499 8.14061 8.31617 8.21001 8.49751 8.21001C8.67885 8.21001 8.86018 8.14061 8.9982 8.00243L14.5823 2.41829V5.95973C14.5823 6.35071 14.8996 6.66801 15.2906 6.66801C15.6822 6.66801 15.9989 6.35071 15.9989 5.95973L15.9991 0.708287C15.9991 0.316673 15.6824 0 15.2908 0L15.2907 0.000161805Z" fill="#11093C"/>
</svg>
