<svg width="24" height="24" opacity="0.6" viewBox="0 0 24 24" fill="none" xmlns="http://www.w3.org/2000/svg">
<path fill-rule="evenodd" clip-rule="evenodd" d="M15.9575 15.0171L19.8041 18.8637C20.0653 19.1216 20.0653 19.5461 19.8041 19.8041C19.5429 20.0653 19.1216 20.0653 18.8604 19.8041L15.0139 15.9608C13.8514 16.9143 12.3657 17.4857 10.7429 17.4857C7.01714 17.4857 4 14.4653 4 10.7429C4 7.02041 7.01714 4 10.7429 4C14.4653 4 17.4857 7.02041 17.4857 10.7429C17.4857 12.3657 16.911 13.8547 15.9575 15.0171ZM5.33864 10.7429C5.33864 13.7208 7.7615 16.1437 10.7427 16.1437C13.7207 16.1437 16.1468 13.7208 16.1468 10.7429C16.1468 7.7649 13.7207 5.33878 10.7427 5.33878C7.7615 5.33878 5.33864 7.7649 5.33864 10.7429Z" fill="#11093C"/>
</svg>
