<?xml version="1.0" encoding="UTF-8"?>
<svg width="16px" height="16px" viewBox="0 0 16 16" version="1.1" xmlns="http://www.w3.org/2000/svg" xmlns:xlink="http://www.w3.org/1999/xlink">
    <title>ic_share</title>
    <g id="Page-1" stroke="none" stroke-width="1" fill="none" fill-rule="evenodd">
        <g id="WP---District-Main---002" transform="translate(-1094.000000, -85.000000)" fill="#29C499" fill-rule="nonzero">
            <g id="Group-7" transform="translate(850.000000, 74.000000)">
                <g id="01" transform="translate(192.000000, 0.000000)">
                    <path d="M67.9996772,24.6469784 C67.9996772,25.9465164 66.9462115,27 65.6466957,27 C64.3471799,27 63.2937141,25.9465164 63.2937141,24.6469784 C63.2928151,24.443157 63.3213451,24.2402733 63.3784215,24.0446049 L56.2065337,20.4491879 C55.5880237,21.2401573 54.5357488,21.5514918 53.5864477,21.2243876 C52.6371467,20.8972833 52,20.0038184 52,18.9997266 C52,17.9956348 52.6371467,17.1021699 53.5864477,16.7750656 C54.5357488,16.4479614 55.5880237,16.7592959 56.2065337,17.5502653 L63.3784215,13.9548483 C63.3213451,13.7591799 63.2928151,13.5562962 63.2937141,13.3524748 C63.2940874,12.202887 64.1250485,11.2218603 65.2588966,11.0323947 C66.3927446,10.8429291 67.497505,11.5004974 67.871601,12.5875116 C68.2456969,13.6745257 67.7795983,14.8727236 66.7693007,15.4211908 C65.7590031,15.969658 64.5003071,15.7078113 63.7925462,14.8019361 L56.6206585,18.3973531 C56.7335791,18.7909971 56.7335791,19.2084561 56.6206585,19.6021001 L63.7925462,23.1975171 C64.4109263,22.4060416 65.4635157,22.094353 66.4131323,22.4215196 C67.362749,22.7486861 68,23.642568 67.9996772,24.6469784 Z" id="ic_share"></path>
                </g>
            </g>
        </g>
    </g>
</svg>