<svg width="14" height="14" viewBox="0 0 14 14" fill="none" xmlns="http://www.w3.org/2000/svg">
<path d="M13.0774 7.85195C12.7516 7.85195 12.4872 8.11703 12.4872 8.44219V12.4865H1.51446V1.51379H5.55811C5.88445 1.51379 6.14835 1.24937 6.14835 0.923552C6.14835 0.597733 5.88445 0.333313 5.55811 0.333313H0.924223C0.597879 0.333313 0.333984 0.597733 0.333984 0.923552V13.0764C0.333984 13.4028 0.597879 13.6666 0.924223 13.6666H13.0771C13.4034 13.6666 13.6673 13.4028 13.6673 13.0764V8.44185C13.6674 8.11735 13.4036 7.85174 13.0772 7.85174L13.0774 7.85195Z" fill="#11093C" fill-opacity="0.6"/>
<path d="M12.9567 7.80174L12.9665 7.81155C12.6658 7.86423 12.4372 8.1272 12.4372 8.44219V12.4365H1.56446V1.56379H5.55811C5.91209 1.56379 6.19835 1.27696 6.19835 0.923552C6.19835 0.570148 5.91209 0.283313 5.55811 0.283313H0.924223C0.570235 0.283313 0.283984 0.570148 0.283984 0.923552V13.0764C0.283984 13.4304 0.570264 13.7166 0.924223 13.7166H13.0771C13.431 13.7166 13.7173 13.4304 13.7173 13.0764V8.44187C13.7173 8.44186 13.7173 8.44186 13.7173 8.44185C13.7175 8.08981 13.4312 7.80174 13.0772 7.80174H12.9567Z" stroke="#11093C" stroke-opacity="0.6" stroke-width="0.1"/>
<path d="M13.0776 0.333509H8.70272C8.37638 0.333509 8.11248 0.597929 8.11248 0.923748C8.11248 1.24957 8.37638 1.51399 8.70272 1.51399H11.6527L6.99929 6.16743C6.76847 6.39826 6.76847 6.77123 6.99929 7.00206C7.11444 7.11721 7.26543 7.17505 7.41654 7.17505C7.56766 7.17505 7.71877 7.11721 7.83379 7.00206L12.4872 2.34862V5.29981C12.4872 5.62563 12.7517 5.89005 13.0775 5.89005C13.4038 5.89005 13.6677 5.62563 13.6677 5.29981L13.6678 0.923613C13.6678 0.597268 13.4039 0.333374 13.0776 0.333374L13.0776 0.333509Z" fill="#11093C" fill-opacity="0.6"/>
<path d="M8.70272 1.56399H11.532L6.96394 6.13208C6.71358 6.38243 6.71358 6.78706 6.96394 7.03742C7.08881 7.16229 7.25266 7.22505 7.41654 7.22505C7.5804 7.22505 7.74439 7.16231 7.86914 7.03742C7.86915 7.03741 7.86916 7.03741 7.86917 7.0374L12.4372 2.46933V5.29981C12.4372 5.65325 12.724 5.94005 13.0775 5.94005C13.4315 5.94005 13.7177 5.65322 13.7177 5.29981L13.7178 0.923615C13.7178 0.569654 13.4316 0.283374 13.0776 0.283374H13.0378L13.0378 0.283509H8.70272C8.34873 0.283509 8.06248 0.570344 8.06248 0.923748C8.06248 1.27715 8.34873 1.56399 8.70272 1.56399Z" stroke="#11093C" stroke-opacity="0.6" stroke-width="0.1"/>
</svg>
