<svg xmlns="http://www.w3.org/2000/svg" xmlns:xlink="http://www.w3.org/1999/xlink" width="65" height="65" viewBox="0 0 65 65">
  <defs>
    <clipPath id="clip-path">
      <rect id="Rectángulo_6" data-name="Rectángulo 6" width="65" height="65" transform="translate(448 -486)" fill="#fff"/>
    </clipPath>
    <clipPath id="clip-path-2">
      <path id="Trazado_46" data-name="Trazado 46" d="M505.2-457.367l1.875.469a1.067,1.067,0,0,0,.736-.081l4.267-2.133a1.067,1.067,0,0,0,.513-1.35l-2.548-6.371.486-4.86a1.066,1.066,0,0,0-.107-.583l-2.133-4.267a1.067,1.067,0,0,0-.8-.579l-7.467-1.067a1.071,1.071,0,0,0-.283,0l-7.334.917v-3.606a4.786,4.786,0,0,0-4.019-4.724,4.786,4.786,0,0,0-5.307,3.211l-.139.418-1.955,1.955a1.067,1.067,0,0,0-.231,1.163,1.067,1.067,0,0,0,.985.658h2.133v2.133a4.239,4.239,0,0,0,.477,1.956l-5.335,3.557a1.067,1.067,0,0,0-.362.41l-4.267,8.533a1.067,1.067,0,0,0-.108.574l1.038,11.423-1.916,1.032-2.639-2.639a1.067,1.067,0,0,0-1.284-.172l-1.786,1.02a17.043,17.043,0,0,0-7.975,10.17l-.265.926a6.88,6.88,0,0,0-1.815.342l-1.678.559a4.729,4.729,0,0,1-3.635-.258l-2.108-1.054a1.067,1.067,0,0,0-1.038.047,1.067,1.067,0,0,0-.506.908v16a1.067,1.067,0,0,0,1.067,1.067h38.4a1.067,1.067,0,0,0,1.026-.773l4.221-14.773,2.016-3.025,1.325,3.975a1.065,1.065,0,0,0,.167.313l10.667,13.867a1.067,1.067,0,0,0,.845.416h3.2a1.067,1.067,0,0,0,.886-.473,1.067,1.067,0,0,0,.1-1L505.2-441.078Zm5.045-3.215-3.036,1.518-3.884-.971a1.067,1.067,0,0,0-.792.111l-3.243,1.871-1.006-1.509,3.154-1.7a1.067,1.067,0,0,0,.506-.6l.951-2.853.775-.517.469,4.217a1.067,1.067,0,0,0,1.06.949h3.2a1.066,1.066,0,0,0,1.061-.96l.121-1.211Zm-31.567,14.42-1.12-2.241,18.84-10.145,1.041,1.562Zm3.986-13.178,2.929-1.465,2.563,4.272-6.948,3.741Zm3.12-13.168a4.262,4.262,0,0,0,3.935.4,4.262,4.262,0,0,0,2.571-3.006l1.176-.147v4.87l-4.01,1.6-3.7-3.7Zm2.662,5.729a1.067,1.067,0,0,0,1.15.236l5.333-2.133a1.067,1.067,0,0,0,.671-.99v-5.858l.707-.088,3.628,6.348.956,3.822-.835,2.5-10.018,5.394-3.1-5.17-3.96-7.921.969-.646Zm13.762-2.188,1.011-.337.187,1.685-.738.492Zm6.167-2.632-.94,9.4h-1.28l-.921-8.293,2.015-3.358Zm-8.517-4.458,5.735.819-2.171,3.617-2,.665L498.6-475.9Zm-15.236-4.589a1.067,1.067,0,0,0,.258-.417l.219-.657a2.652,2.652,0,0,1,2.941-1.78,2.653,2.653,0,0,1,2.228,2.618v.547h-5.958Zm5.646,2.446v2.133a2.133,2.133,0,0,1-2.133,2.133A2.133,2.133,0,0,1,486-476.067V-478.2Zm-9.839,9.264.759-.506,3.383,6.765-2.789,1.394-3.984-2.391Zm-4,8.009.416-.832,3.686,2.212-1.8,8.093-1.375.74Zm-14.661,21.312a14.921,14.921,0,0,1,6.982-8.9l1.079-.616,2.624,2.624a1.067,1.067,0,0,0,1.26.185l1.973-1.062,1.148,2.3-2.027,1.169a1.066,1.066,0,0,0-.5,1.183l.859,3.436-.076.038a14.967,14.967,0,0,1-13.42,0ZM450.8-423.8v-13.207l.564.282a6.85,6.85,0,0,0,5.264.374l1.678-.559a4.774,4.774,0,0,1,3.818.355l5.995,3.33a4.766,4.766,0,0,1,1.77,1.712l.406.677a6.881,6.881,0,0,0,6.887,3.278,4.783,4.783,0,0,1,4.635,2.072l1.124,1.686Zm26.08-5.87a4.751,4.751,0,0,1-4.756-2.264l-.406-.677a6.9,6.9,0,0,0-2.564-2.48l-.819-.455h.036a17.125,17.125,0,0,0,7.665-1.814l.842-.421a1.067,1.067,0,0,0,.558-1.213l-.872-3.486L488.3-449.25l-3.3,9.085a1.072,1.072,0,0,0-.062.3l-.869,13.909-.475-.712a6.929,6.929,0,0,0-6.712-3Zm14.633-8.588a1.069,1.069,0,0,0-.138.3l-4.046,14.16h-1.26l.986-15.78,4.119-11.328,11.893-6.861v6.7l-4.816,2.889a1.068,1.068,0,0,0-.339.323ZM510.007-423.8h-1.082l-10.237-13.308-1.793-5.379,2.659-3.988,3.512-2.107v7.716a1.068,1.068,0,0,0,.08.406Z" fill="#fff"/>
    </clipPath>
    <clipPath id="clip-path-3">
      <path id="Trazado_45" data-name="Trazado 45" d="M447-421h66v-66H447Z" fill="#fff"/>
    </clipPath>
  </defs>
  <g id="Grupo_132" data-name="Grupo 132" transform="translate(-448 486)" opacity="0.998" style="isolation: isolate">
    <g id="Grupo_47" data-name="Grupo 47" clip-path="url(#clip-path)">
      <g id="Grupo_46" data-name="Grupo 46" clip-path="url(#clip-path-2)">
        <g id="Grupo_45" data-name="Grupo 45" clip-path="url(#clip-path-3)">
          <path id="Trazado_44" data-name="Trazado 44" d="M443.667-490.667h74v74h-74Z" fill="#fff"/>
        </g>
      </g>
    </g>
  </g>
</svg>
