<svg xmlns="http://www.w3.org/2000/svg" xmlns:xlink="http://www.w3.org/1999/xlink" width="6.277" height="9.689" viewBox="0 0 6.277 9.689">
  <defs>
    <clipPath id="clip-path">
      <path id="Trazado_89" data-name="Trazado 89" d="M5.435-248.5l2.839,3.244a.3.3,0,0,0,.423.028.307.307,0,0,0,.028-.028l2.839-3.244a.3.3,0,0,0-.028-.423.3.3,0,0,0-.2-.074H5.661a.3.3,0,0,0-.3.3A.3.3,0,0,0,5.435-248.5Z" fill="none" clip-rule="evenodd"/>
    </clipPath>
    <clipPath id="clip-path-2">
      <path id="Trazado_91" data-name="Trazado 91" d="M5.435-251.5l2.839-3.244a.3.3,0,0,1,.423-.028.307.307,0,0,1,.028.028l2.839,3.244a.3.3,0,0,1-.028.423.3.3,0,0,1-.2.074H5.661a.3.3,0,0,1-.3-.3A.3.3,0,0,1,5.435-251.5Z" fill="none" clip-rule="evenodd"/>
    </clipPath>
  </defs>
  <g id="Grupo_377" data-name="Grupo 377" transform="translate(12075.639 1618.844)">
    <g id="Grupo_64" data-name="Grupo 64" transform="translate(-12081 -1364)" clip-path="url(#clip-path)">
      <path id="Trazado_88" data-name="Trazado 88" d="M.361-254H16.639v13.844H.361Z" fill="rgba(36,24,98,0.3)"/>
    </g>
    <g id="Grupo_65" data-name="Grupo 65" transform="translate(-12081 -1364)" clip-path="url(#clip-path-2)">
      <path id="Trazado_90" data-name="Trazado 90" d="M.361-246H16.639v-13.844H.361Z" fill="rgba(36,24,98,0.3)"/>
    </g>
  </g>
</svg>
