<?xml version="1.0" encoding="utf-8"?>
<!-- Generator: Adobe Illustrator 24.0.0, SVG Export Plug-In . SVG Version: 6.00 Build 0)  -->
<svg version="1.1" id="Capa_1" xmlns="http://www.w3.org/2000/svg" xmlns:xlink="http://www.w3.org/1999/xlink" x="0px" y="0px"
	 viewBox="0 0 22 20" style="enable-background:new 0 0 22 20;" xml:space="preserve">
<style type="text/css">
	.st0{fill:#251863;}
</style>
<title>ic_sort by</title>
<g>
	<path class="st0" d="M2.1,5.6h10.5V4.4H2.1C1.8,4.4,1.5,4.7,1.5,5S1.8,5.6,2.1,5.6z"/>
	<path class="st0" d="M2.1,10h10.5V8.8H2.1c-0.3,0-0.6,0.3-0.6,0.6S1.8,10,2.1,10z"/>
	<path class="st0" d="M2.1,14.4h7.1c0-0.1,0-0.2,0-0.3c0-0.3,0-0.6,0.1-0.9H2.1c-0.3,0-0.6,0.3-0.6,0.6S1.8,14.4,2.1,14.4z"/>
	<path class="st0" d="M11.7,14.1c0,0.2,0.1,0.3,0.2,0.4l3.5,3.5c0.1,0.1,0.3,0.2,0.4,0.2c0,0,0,0,0,0c0.2,0,0.3-0.1,0.4-0.2l3.5-3.5
		c0.1-0.1,0.2-0.3,0.2-0.4c0-0.2-0.1-0.3-0.2-0.4v0c-0.2-0.2-0.7-0.2-0.9,0l-2.4,2.4V2.4c0-0.4-0.3-0.6-0.6-0.6
		c-0.3,0-0.6,0.3-0.6,0.6v13.6l-2.4-2.4c-0.1-0.1-0.3-0.2-0.4-0.2s-0.3,0.1-0.4,0.2C11.8,13.8,11.7,13.9,11.7,14.1z"/>
</g>
</svg>
