<svg xmlns="http://www.w3.org/2000/svg" xmlns:xlink="http://www.w3.org/1999/xlink" width="24" height="18.667" viewBox="0 0 24 18.667">
  <defs>
    <clipPath id="clip-path">
      <path id="Trazado_305" data-name="Trazado 305" d="M107.379-17H88.628A2.677,2.677,0,0,1,86-19.721V-32.945a2.677,2.677,0,0,1,2.624-2.721h18.752A2.677,2.677,0,0,1,110-32.945v13.224A2.677,2.677,0,0,1,107.379-17ZM88.628-34.111A1.147,1.147,0,0,0,87.5-32.945v13.224a1.147,1.147,0,0,0,1.124,1.166h18.752a1.147,1.147,0,0,0,1.124-1.166V-32.945a1.147,1.147,0,0,0-1.124-1.166ZM98-23.631a1.841,1.841,0,0,1-1.264-.509L89.249-31.2a.8.8,0,0,1-.05-1.1.732.732,0,0,1,1.06-.052l7.49,7.061a.367.367,0,0,0,.51,0l7.49-7.062a.732.732,0,0,1,1.06.052.8.8,0,0,1-.05,1.1l-7.49,7.062A1.841,1.841,0,0,1,98-23.631Zm-8.25,3.519a.735.735,0,0,1-.53-.228.8.8,0,0,1,0-1.1l5.25-5.444a.73.73,0,0,1,1.06,0,.8.8,0,0,1,0,1.1l-5.25,5.444A.735.735,0,0,1,89.753-20.111Zm16.5,0a.734.734,0,0,1-.53-.228l-5.25-5.444a.8.8,0,0,1,0-1.1.73.73,0,0,1,1.061,0l5.25,5.444a.8.8,0,0,1,0,1.1A.735.735,0,0,1,106.253-20.111Z" fill="none"/>
    </clipPath>
    <clipPath id="clip-path-2">
      <path id="Trazado_304" data-name="Trazado 304" d="M-278,935H1642V-265H-278Z" fill="none"/>
    </clipPath>
  </defs>
  <g id="Grupo_297" data-name="Grupo 297" transform="translate(-86.003 35.667)" clip-path="url(#clip-path)">
    <g id="Grupo_296" data-name="Grupo 296" clip-path="url(#clip-path-2)">
      <path id="Trazado_303" data-name="Trazado 303" d="M81-40.667h34V-12H81Z" fill="#241862"/>
    </g>
  </g>
</svg>
