<?xml version="1.0" encoding="utf-8"?>
<!-- Generator: Adobe Illustrator 24.0.0, SVG Export Plug-In . SVG Version: 6.00 Build 0)  -->
<svg version="1.1" id="Capa_1" xmlns="http://www.w3.org/2000/svg" xmlns:xlink="http://www.w3.org/1999/xlink" x="0px" y="0px"
	 viewBox="0 0 38.1 48" style="enable-background:new 0 0 38.1 48;" xml:space="preserve">
<style type="text/css">
	.st0{fill:#FFFFFF;}
</style>
<title>ic_geolocation</title>
<g>
	<path id="Shape" class="st0" d="M9.7,21.9c0.5,0.9,1,1.7,1.5,2.6c-0.8,1.3-1.2,2.9-1.2,4.6c0,5.1,4.1,9.2,9.1,9.2s9.1-4.1,9.1-9.2
		c0-1.7-0.4-3.2-1.2-4.6c0.5-0.8,1-1.7,1.5-2.6c1.5,2,2.4,4.5,2.4,7.1C30.8,35.6,25.5,41,19,41c-6.5,0-11.7-5.3-11.7-11.9
		C7.3,26.4,8.2,23.9,9.7,21.9z M6.5,15c0.3,0.9,0.7,1.8,1.1,2.7C4.8,20.7,3,24.7,3,29.1c0,8.9,7.2,16.2,16,16.2S35,38,35,29.1
		c0-4.4-1.7-8.4-4.5-11.3c0.4-0.9,0.8-1.8,1.1-2.7c3.8,3.5,6.1,8.5,6.1,14C37.7,39.5,29.3,48,19,48C8.8,48,0.4,39.5,0.4,29.1
		C0.4,23.5,2.8,18.5,6.5,15z M8.5,10.7C8.5,4.8,13.2,0,19,0s10.6,4.8,10.6,10.7c0,8-10.6,19.9-10.6,19.9S8.5,18.7,8.5,10.7z
		 M19,14.5c2.1,0,3.8-1.7,3.8-3.8S21.1,6.9,19,6.9c-2.1,0-3.8,1.7-3.8,3.8S17,14.5,19,14.5z"/>
</g>
</svg>
