<svg xmlns="http://www.w3.org/2000/svg" width="19.484" height="19.488" viewBox="0 0 19.484 19.488">
  <g id="Grupo_293" data-name="Grupo 293" transform="translate(0.4 0.421)">
    <path id="Trazado_300" data-name="Trazado 300" d="M11.392,12.9l.666-.663.771-.767a1.891,1.891,0,0,1,2.812,0q1.177,1.166,2.388,2.386a1.9,1.9,0,0,1-.009,2.852,5.174,5.174,0,0,1-.826.618q-.126.081-.265.167c-.249.153-.514.309-.78.46-.159.09-.283.159-.345.192a4.649,4.649,0,0,1-3.559.29c-.1-.031-.283-.093-.533-.188-.412-.156-.869-.351-1.361-.588a19.951,19.951,0,0,1-4.117-2.635,18.056,18.056,0,0,1-1.5-1.4q-.573-.6-1.09-1.247a20.449,20.449,0,0,1-2.7-4.458C.7,7.392.51,6.9.357,6.451.264,6.18.2,5.984.188,5.915a4.383,4.383,0,0,1,.47-3.554c.04-.061.109-.167.2-.3.152-.225.311-.449.468-.66q.1-.137.2-.261A5.617,5.617,0,0,1,1.978.622a1.9,1.9,0,0,1,2.813,0c.345.338,1.833,1.827,2.372,2.37a1.9,1.9,0,0,1,0,2.866l-.805.807-.608.609L5.526,7.5c.055.141.147.358.272.629a13.5,13.5,0,0,0,.827,1.534,7.335,7.335,0,0,0,1.041,1.329,8.291,8.291,0,0,0,1.165.929,13.348,13.348,0,0,0,1.631.926c.289.139.52.24.678.3Zm5.94,1.65q-1.21-1.219-2.382-2.38a.917.917,0,0,0-1.429,0l-.768.763-.668.665-.3.3a.9.9,0,0,1-.942.19c-.165-.064-.446-.184-.8-.357a14.314,14.314,0,0,1-1.752-1,9.254,9.254,0,0,1-1.3-1.041A8.28,8.28,0,0,1,5.8,10.188a14.465,14.465,0,0,1-.889-1.646c-.156-.337-.265-.6-.32-.746a.9.9,0,0,1,.194-.94l.276-.276.607-.608.8-.806a.93.93,0,0,0,0-1.481C5.929,3.145,4.443,1.658,4.1,1.324a.926.926,0,0,0-1.436,0,4.736,4.736,0,0,0-.369.425c-.059.075-.12.155-.183.239-.148.2-.3.411-.443.625-.087.128-.152.227-.2.293a3.445,3.445,0,0,0-.352,2.716c.024.088.076.263.162.511.144.419.327.888.552,1.394A19.475,19.475,0,0,0,4.41,11.77q.49.613,1.033,1.181a17.073,17.073,0,0,0,1.42,1.323,18.976,18.976,0,0,0,3.914,2.5c.466.224.9.408,1.285.555.229.087.39.142.5.178a3.709,3.709,0,0,0,2.76-.219c.067-.036.186-.1.339-.19.256-.145.511-.3.749-.442q.131-.081.249-.157a4.594,4.594,0,0,0,.66-.484A.933.933,0,0,0,17.332,14.551Z" fill="none" stroke="#241862" stroke-width="0.667"/>
  </g>
</svg>
