<?xml version="1.0" encoding="UTF-8"?>
<svg width="18px" height="18px" viewBox="0 0 18 18" version="1.1" xmlns="http://www.w3.org/2000/svg" xmlns:xlink="http://www.w3.org/1999/xlink">
    <title>ic_Other Layers</title>
    <g id="Page-1" stroke="none" stroke-width="1" fill="none" fill-rule="evenodd" opacity="0.600000024">
        <g id="03---Layer-Comment" transform="translate(-93.000000, -571.000000)" fill="#11093C" fill-rule="nonzero" stroke="#11093C" stroke-width="0.2">
            <g id="Overlay---Changes" transform="translate(83.000000, 127.000000)">
                <g id="card2" transform="translate(0.000000, 437.000000)">
                    <path d="M21.9365852,18.5898415 C21.6857736,19.0811949 21.7693775,19.7158596 22.2082977,20.1253207 C22.7517227,20.6371471 23.6086622,20.616674 24.1311862,20.1048477 C24.6537103,19.5725482 24.6328093,18.7331529 24.1102853,18.2213265 C23.6295631,17.7709193 22.8771285,17.7299732 22.3546044,18.1189613 L21.0587448,16.8905779 C21.2886554,16.6039551 21.4349621,16.2559132 21.476764,15.9078712 L23.9639785,15.8669251 C24.0266814,16.0921288 24.1520872,16.3173324 24.3192949,16.5015899 C24.8627199,17.0134163 25.7196593,16.9929432 26.2421834,16.4811168 C26.7647075,15.9488174 26.7438065,15.1094221 26.2212824,14.5975957 C25.6778574,14.0857693 24.820918,14.1062424 24.2983939,14.6180687 C24.1311862,14.8023262 24.0057804,15.0275299 23.9430776,15.2527335 L21.4558631,15.2936796 C21.4140611,15.0275299 21.2886554,14.7409071 21.1214477,14.4952304 L25.0508286,10.5234576 C25.5524517,10.7691343 26.2003815,10.6872421 26.6184007,10.2573079 C27.1409248,9.72500845 27.1200238,8.88561316 26.5974998,8.37378677 C26.0749757,7.86196038 25.1971353,7.88243344 24.6746112,8.39425983 C24.2147901,8.86514011 24.1729881,9.60217011 24.5701064,10.1139965 L20.7034284,14.0038771 C20.4108149,13.7786735 20.0554986,13.6353621 19.7001822,13.594416 L19.6583803,11.1376493 C19.8882909,11.0762301 20.1182015,10.9533918 20.3063101,10.7896073 C20.8288342,10.2573079 20.8079332,9.41791261 20.2854092,8.90608622 C19.7419842,8.39425983 18.8850447,8.41473288 18.3625207,8.92655927 C17.8399966,9.43838567 17.8608976,10.298254 18.3834216,10.8100804 C18.5715303,10.9738648 18.8014409,11.0967032 19.0313514,11.1581223 L19.0731534,13.614889 C18.717837,13.6763082 18.3625207,13.8196196 18.0699072,14.0652962 L15.938009,12.0384637 C16.3142264,11.5061643 16.2515235,10.7691343 15.7708013,10.3187271 C15.2273763,9.80690067 14.3704369,9.82737372 13.8479128,10.3392001 C13.3253888,10.8510265 13.3462897,11.7108948 13.8688138,12.2227212 C14.307734,12.6321823 14.9347629,12.6936015 15.4572869,12.4479248 L17.630987,14.5361765 C17.4637793,14.7818532 17.3592745,15.068476 17.3174725,15.3550987 L13.6598042,15.3960449 C13.5971013,15.1708412 13.4716955,14.9456376 13.3044878,14.7613801 C12.7610628,14.2495537 11.9041233,14.2700268 11.3815993,14.7818532 C10.8590752,15.3141526 10.8799762,16.1535479 11.4025002,16.6653743 C11.9250243,17.1772007 12.8028647,17.1567276 13.3253888,16.6449013 C13.4925965,16.4606438 13.6180022,16.2354401 13.6807051,16.0102365 L17.3383735,15.9692904 C17.4010764,16.3173324 17.5473831,16.6653743 17.7981947,16.9519971 L17.1293639,17.668554 C16.5859389,17.300039 15.8335042,17.3614582 15.3736831,17.8323385 C14.851159,18.3646379 14.87206,19.2040332 15.394584,19.7158596 C15.9171081,20.227686 16.7949485,20.2072129 17.3174725,19.6953865 C17.7354918,19.2654524 17.7981947,18.6512607 17.5473831,18.1394343 L18.2998178,17.3409851 C18.5506293,17.5047696 18.8432428,17.6071349 19.1358563,17.648081 L19.0940543,21.3946502 C18.8641437,21.4560693 18.6342332,21.5789077 18.4461245,21.7426921 C17.9236004,22.2749916 17.9445014,23.1143868 18.4670255,23.6262132 C18.9895495,24.1380396 19.8673899,24.1175666 20.389914,23.6057402 C20.912438,23.0734407 20.8915371,22.2340454 20.369013,21.7222191 C20.1809044,21.5584346 19.9509938,21.4355963 19.7210832,21.3741771 L19.7628851,17.6276079 C20.0345976,17.5866618 20.3272111,17.4638235 20.5780226,17.300039 L21.9365852,18.5898415 Z M23.6713651,18.6717338 C23.9639785,18.9378835 23.9639785,19.4087638 23.692266,19.6749135 C23.4205535,19.9615363 22.9398314,19.9615363 22.6681189,19.6953865 C22.3755054,19.4292368 22.3755054,18.9583565 22.6472179,18.6922068 C22.9189304,18.405584 23.3787516,18.385111 23.6713651,18.6717338 Z M25.7614613,15.0070568 C26.0540747,15.2732065 26.0540747,15.7440868 25.7823622,16.0102365 C25.5106497,16.2968593 25.0299276,16.2968593 24.7582151,16.0307096 C24.4656016,15.7645599 24.4656016,15.2936796 24.7373141,15.0275299 C25.0090266,14.7409071 25.4897488,14.720434 25.7614613,15.0070568 Z M18.8223418,10.3801462 C18.5297284,10.1139965 18.5297284,9.64311622 18.8014409,9.3769665 C19.0731534,9.11081678 19.5538755,9.09034372 19.825588,9.35649344 C20.0973005,9.62264317 20.1182015,10.0935234 19.846489,10.3596732 C19.5747765,10.6258229 19.0940543,10.6462959 18.8223418,10.3801462 Z M14.3286349,11.751841 C14.0360215,11.4856912 14.0360215,11.014811 14.307734,10.7486612 C14.5794465,10.4825115 15.0601686,10.4620384 15.3318811,10.7281882 C15.6244946,10.9943379 15.6244946,11.4652182 15.3527821,11.7313679 C15.0810696,12.0179907 14.6003475,12.0384637 14.3286349,11.751841 Z M11.8623214,16.2354401 C11.5697079,15.9692904 11.5697079,15.4984101 11.8414204,15.2322604 C12.113133,14.9456376 12.5938551,14.9456376 12.8655676,15.2117874 C13.1372801,15.4779371 13.1581811,15.9488174 12.8864686,16.2149671 C12.614756,16.5015899 12.1549349,16.5015899 11.8623214,16.2354401 Z M19.9300928,22.1521532 C20.2227063,22.4183029 20.2227063,22.8891832 19.9509938,23.1553329 C19.6792813,23.4419557 19.1985591,23.4419557 18.9268466,23.175806 C18.6342332,22.9096563 18.6342332,22.438776 18.9059457,22.1726263 C19.1776582,21.8860035 19.6374793,21.8860035 19.9300928,22.1521532 Z M25.1344324,8.824194 C25.4061449,8.53757122 25.886867,8.53757122 26.1585796,8.80372094 C26.4302921,9.06987066 26.451193,9.54075094 26.1794805,9.80690067 C25.907768,10.0935234 25.4270459,10.0935234 25.1553334,9.82737372 C24.8836209,9.561224 24.8627199,9.09034372 25.1344324,8.824194 Z M16.8576514,19.2654524 C16.5859389,19.5520752 16.1052167,19.5520752 15.8335042,19.2859254 C15.5408908,19.0197757 15.5408908,18.5488954 15.8126033,18.2827457 C16.0843158,17.9961229 16.5650379,17.9961229 16.8367504,18.2622726 C17.1293639,18.5079493 17.1293639,18.9788296 16.8576514,19.2654524 Z M18.3834216,16.6449013 C17.7981947,16.0921288 17.7772937,15.1913143 18.3625207,14.6180687 C18.9268466,14.0448232 19.846489,14.0243501 20.4317159,14.5975957 C21.0169429,15.1503682 21.0378438,16.0511826 20.4526169,16.6244282 C19.8882909,17.1772007 18.9686486,17.1976738 18.3834216,16.6449013 Z" id="ic_Other-Layers"></path>
                </g>
            </g>
        </g>
    </g>
</svg>