<svg xmlns="http://www.w3.org/2000/svg" xmlns:xlink="http://www.w3.org/1999/xlink" width="15.5" height="15.5" viewBox="0 0 15.5 15.5">
  <defs>
    <clipPath id="clip-path">
      <path id="Trazado_74" data-name="Trazado 74" d="M15-274.5a.5.5,0,0,1,.5.5v6.5H22a.5.5,0,0,1,.5.5.5.5,0,0,1-.5.5H15.5v6.5a.5.5,0,0,1-.5.5.5.5,0,0,1-.5-.5v-6.5H8a.5.5,0,0,1-.5-.5.5.5,0,0,1,.5-.5h6.5V-274A.5.5,0,0,1,15-274.5Z" fill="none" clip-rule="evenodd"/>
    </clipPath>
  </defs>
  <g id="Grupo_373" data-name="Grupo 373" transform="translate(12069.75 1654.75)">
    <g id="Grupo_55" data-name="Grupo 55" transform="translate(-12077 -1380)" clip-path="url(#clip-path)">
      <path id="Trazado_73" data-name="Trazado 73" d="M2.5-279.5h25v25H2.5Z" fill="#241862"/>
    </g>
    <g id="Grupo_56" data-name="Grupo 56" transform="translate(-12069.5 -1654.5)">
      <path id="Trazado_75" data-name="Trazado 75" d="M7.5,0A.5.5,0,0,1,8,.5V7h6.5a.5.5,0,0,1,0,1H8v6.5a.5.5,0,0,1-1,0V8H.5a.5.5,0,0,1,0-1H7V.5A.5.5,0,0,1,7.5,0Z" fill="none" stroke="#241862" stroke-width="0.5"/>
    </g>
  </g>
</svg>
