<svg xmlns="http://www.w3.org/2000/svg" xmlns:xlink="http://www.w3.org/1999/xlink" width="15" height="14" viewBox="0 0 15 14">
  <defs>
    <clipPath id="clip-path">
      <rect id="Rect치ngulo_4" data-name="Rect치ngulo 4" width="15" height="14" transform="translate(0 -215)" fill="none"/>
    </clipPath>
    <clipPath id="clip-path-2">
      <path id="Trazado_134" data-name="Trazado 134" d="M8-215a7,7,0,0,1,7,7,7,7,0,0,1-7,7,7,7,0,0,1-7-7A7,7,0,0,1,8-215Z" fill="none" clip-rule="evenodd"/>
    </clipPath>
    <clipPath id="clip-path-3">
      <path id="Trazado_133" data-name="Trazado 133" d="M1-201H15v-14H1Z" fill="none"/>
    </clipPath>
    <clipPath id="clip-path-4">
      <rect id="Rect치ngulo_3" data-name="Rect치ngulo 3" width="34" height="34" transform="translate(-9 -225)" fill="none"/>
    </clipPath>
    <clipPath id="clip-path-6">
      <path id="Trazado_137" data-name="Trazado 137" d="M7.981-210.382a.756.756,0,0,0,.526-.2.7.7,0,0,0,.222-.546.714.714,0,0,0-.222-.556.756.756,0,0,0-.526-.2.769.769,0,0,0-.536.2.714.714,0,0,0-.222.556.7.7,0,0,0,.222.546A.768.768,0,0,0,7.981-210.382Zm.617,5.475v-4.065a.612.612,0,0,0-.612-.612.612.612,0,0,0-.612.612v4.065a.612.612,0,0,0,.612.612A.612.612,0,0,0,8.6-204.907Z" fill="none"/>
    </clipPath>
  </defs>
  <g id="Grupo_103" data-name="Grupo 103" transform="translate(0 215)" opacity="0.35" style="isolation: isolate">
    <g id="Grupo_102" data-name="Grupo 102" clip-path="url(#clip-path)">
      <g id="Grupo_99" data-name="Grupo 99" clip-path="url(#clip-path-2)">
        <g id="Grupo_98" data-name="Grupo 98" clip-path="url(#clip-path-3)">
          <g id="Grupo_97" data-name="Grupo 97" style="isolation: isolate">
            <g id="Grupo_96" data-name="Grupo 96" clip-path="url(#clip-path-4)">
              <g id="Grupo_95" data-name="Grupo 95" clip-path="url(#clip-path-3)">
                <g id="Grupo_94" data-name="Grupo 94" transform="translate(1 -215)">
                  <path id="Trazado_131" data-name="Trazado 131" d="M7,0A7,7,0,1,1,0,7,7,7,0,0,1,7,0Z" fill="none" stroke="#241862" stroke-width="2"/>
                </g>
              </g>
            </g>
          </g>
        </g>
      </g>
      <g id="Grupo_101" data-name="Grupo 101" clip-path="url(#clip-path-6)">
        <g id="Grupo_100" data-name="Grupo 100" clip-path="url(#clip-path-3)">
          <path id="Trazado_135" data-name="Trazado 135" d="M2.222-216.889H13.729V-199.3H2.222Z" fill="#241862"/>
        </g>
      </g>
    </g>
  </g>
</svg>
