<?xml version="1.0" encoding="utf-8"?>
<!-- Generator: Adobe Illustrator 24.0.0, SVG Export Plug-In . SVG Version: 6.00 Build 0)  -->
<svg version="1.1" id="Capa_1" xmlns="http://www.w3.org/2000/svg" xmlns:xlink="http://www.w3.org/1999/xlink" x="0px" y="0px"
	 viewBox="0 0 22 20" style="enable-background:new 0 0 22 20;" xml:space="preserve">
<style type="text/css">
	.st0{fill:#251863;}
</style>
<title>ic_sort by</title>
<g id="ic_sort-by" transform="translate(421.000000, 16.000000)">
	<path class="st0" d="M-400.1-1.1h-12.2v1.6h12.2c0.4,0,0.8-0.4,0.8-0.8C-399.3-0.8-399.6-1.1-400.1-1.1z"/>
	<path class="st0" d="M-400.1-6.2h-12.2v1.6h12.2c0.4,0,0.8-0.4,0.8-0.8C-399.3-5.8-399.6-6.2-400.1-6.2z"/>
	<path class="st0" d="M-400.1-11.2h-8.2c0,0.2,0,0.3,0,0.5c0,0.4-0.1,0.7-0.2,1.1h8.4c0.4,0,0.8-0.4,0.8-0.8
		C-399.3-10.8-399.6-11.2-400.1-11.2z"/>
	<path class="st0" d="M-411.2-11.3l-4-4c-0.2-0.2-0.4-0.3-0.6-0.3l0,0c-0.2,0-0.5,0.1-0.6,0.3l-4,4c-0.4,0.4-0.4,0.9,0,1.3
		c0.4,0.3,0.9,0.3,1.3,0l2.5-2.5V2.7c0,0.5,0.4,0.9,0.9,0.9s0.9-0.4,0.9-0.9v-15.2l2.5,2.5c0.2,0.2,0.4,0.3,0.6,0.3s0.5-0.1,0.6-0.3
		C-410.8-10.4-410.8-11-411.2-11.3z"/>
</g>
</svg>
