<svg xmlns="http://www.w3.org/2000/svg" xmlns:xlink="http://www.w3.org/1999/xlink" width="54.044" height="63.767" viewBox="0 0 54.044 63.767">
  <defs>
    <clipPath id="clip-path">
      <path id="Trazado_153" data-name="Trazado 153" d="M142-421.783H124.933a1.419,1.419,0,0,1-1.414-1.272l-2.844-27.022a1.43,1.43,0,0,1,1.266-1.567,1.407,1.407,0,0,1,1.562,1.266l2.711,25.751H140.72l2.711-25.751a1.412,1.412,0,0,1,1.562-1.266,1.423,1.423,0,0,1,1.266,1.567l-2.844,27.022A1.419,1.419,0,0,1,142-421.783Z" fill="#706995"/>
    </clipPath>
    <clipPath id="clip-path-2">
      <path id="Trazado_152" data-name="Trazado 152" d="M-518,137H1402V-943H-518Z" fill="#706995"/>
    </clipPath>
    <clipPath id="clip-path-3">
      <path id="Trazado_156" data-name="Trazado 156" d="M161.911-423.206a1.426,1.426,0,0,1-1.422-1.422v-19.911a1.423,1.423,0,0,1,1.422-1.422,1.423,1.423,0,0,1,1.422,1.422v19.911A1.426,1.426,0,0,1,161.911-423.206Z" fill="#706995"/>
    </clipPath>
    <clipPath id="clip-path-5">
      <path id="Trazado_159" data-name="Trazado 159" d="M173.289-443.117a1.426,1.426,0,0,1-1.422-1.422v-22.756h-20.79l-13.813,12.436a1.427,1.427,0,0,1-2.008-.105,1.425,1.425,0,0,1,.105-2.011l14.222-12.8a1.42,1.42,0,0,1,.95-.367h22.756a1.425,1.425,0,0,1,1.422,1.422v24.178a1.427,1.427,0,0,1-1.422,1.425Z" fill="#706995"/>
    </clipPath>
    <clipPath id="clip-path-7">
      <path id="Trazado_162" data-name="Trazado 162" d="M161.735-471.681a6.944,6.944,0,0,1-6.935-6.935,6.94,6.94,0,0,1,6.935-6.935,6.944,6.944,0,0,1,6.935,6.935A6.946,6.946,0,0,1,161.735-471.681Zm0-11.022a4.1,4.1,0,0,0-4.09,4.09,4.1,4.1,0,0,0,4.09,4.09,4.1,4.1,0,0,0,4.09-4.09A4.1,4.1,0,0,0,161.735-482.7Z" fill="#706995"/>
    </clipPath>
    <clipPath id="clip-path-9">
      <path id="Trazado_165" data-name="Trazado 165" d="M167.6-421.783H156.222a1.426,1.426,0,0,1-1.422-1.422v-38.4a1.425,1.425,0,0,1,1.422-1.422,1.425,1.425,0,0,1,1.422,1.422v36.978h8.533v-36.978a1.425,1.425,0,0,1,1.422-1.422,1.425,1.425,0,0,1,1.422,1.422v38.4A1.426,1.426,0,0,1,167.6-421.783Z" fill="#706995"/>
    </clipPath>
  </defs>
  <g id="Grupo_242" data-name="Grupo 242" transform="translate(-1752.667 2338.55)">
    <g id="Grupo_143" data-name="Grupo 143" transform="translate(1632 -1853)" clip-path="url(#clip-path)">
      <g id="Grupo_142" data-name="Grupo 142" clip-path="url(#clip-path-2)">
        <path id="Trazado_151" data-name="Trazado 151" d="M115.667-456.656h35.6v39.873h-35.6Z" fill="#706995"/>
      </g>
    </g>
    <g id="Grupo_145" data-name="Grupo 145" transform="translate(1632 -1853)" clip-path="url(#clip-path-3)">
      <g id="Grupo_144" data-name="Grupo 144" clip-path="url(#clip-path-2)">
        <path id="Trazado_154" data-name="Trazado 154" d="M155.489-450.961h12.844v32.756H155.489Z" fill="#706995"/>
      </g>
    </g>
    <g id="Grupo_147" data-name="Grupo 147" transform="translate(1632 -1853)" clip-path="url(#clip-path-5)">
      <g id="Grupo_146" data-name="Grupo 146" clip-path="url(#clip-path-2)">
        <path id="Trazado_157" data-name="Trazado 157" d="M129.891-475.142h49.821v37.025H129.891Z" fill="#706995"/>
      </g>
    </g>
    <g id="Grupo_149" data-name="Grupo 149" transform="translate(1632 -1853)" clip-path="url(#clip-path-7)">
      <g id="Grupo_148" data-name="Grupo 148" clip-path="url(#clip-path-2)">
        <path id="Trazado_160" data-name="Trazado 160" d="M149.8-490.55h23.869v23.869H149.8Z" fill="#706995"/>
      </g>
    </g>
    <g id="Grupo_151" data-name="Grupo 151" transform="translate(1632 -1853)" clip-path="url(#clip-path-9)">
      <g id="Grupo_150" data-name="Grupo 150" clip-path="url(#clip-path-2)">
        <path id="Trazado_163" data-name="Trazado 163" d="M149.8-468.028h24.222v51.244H149.8Z" fill="#706995"/>
      </g>
    </g>
  </g>
</svg>
