<svg xmlns="http://www.w3.org/2000/svg" xmlns:xlink="http://www.w3.org/1999/xlink" width="30" height="30" viewBox="0 0 30 30">
  <defs>
    <clipPath id="clip-path">
      <path id="Trazado_67" data-name="Trazado 67" d="M15-542a15,15,0,0,1,15,15,15,15,0,0,1-15,15A15,15,0,0,1,0-527,15,15,0,0,1,15-542Z" fill="none" clip-rule="evenodd"/>
    </clipPath>
    <clipPath id="clip-path-2">
      <rect id="Rectángulo_1" data-name="Rectángulo 1" width="51" height="50" transform="translate(-11 -552)" fill="none"/>
    </clipPath>
    <clipPath id="clip-path-3">
      <path id="Trazado_66" data-name="Trazado 66" d="M0-512H30v-30H0Z" fill="none"/>
    </clipPath>
    <clipPath id="clip-path-4">
      <path id="Trazado_69" data-name="Trazado 69" d="M8.5-527.5H21v1H8.5A.5.5,0,0,1,8-527,.5.5,0,0,1,8.5-527.5Z" fill="none" clip-rule="evenodd"/>
    </clipPath>
  </defs>
  <g id="Grupo_371" data-name="Grupo 371" transform="translate(12146 1660)">
    <g id="Grupo_50" data-name="Grupo 50" transform="translate(-12146 -1118)" clip-path="url(#clip-path)">
      <g id="Grupo_49" data-name="Grupo 49" style="isolation: isolate">
        <g id="Grupo_48" data-name="Grupo 48" clip-path="url(#clip-path-2)">
          <g id="Grupo_47" data-name="Grupo 47" clip-path="url(#clip-path-3)">
            <g id="Grupo_46" data-name="Grupo 46" transform="translate(0 -542)">
              <path id="Trazado_65" data-name="Trazado 65" d="M15,0A15,15,0,1,1,0,15,15,15,0,0,1,15,0Z" fill="none" stroke="#241862" stroke-width="2"/>
            </g>
          </g>
        </g>
      </g>
    </g>
    <g id="Grupo_51" data-name="Grupo 51" transform="translate(-12146 -1118)" clip-path="url(#clip-path-4)">
      <path id="Trazado_68" data-name="Trazado 68" d="M3-532.5H26v11H3Z" fill="#241862"/>
    </g>
    <g id="Grupo_52" data-name="Grupo 52" transform="translate(-12138 -1645.5)">
      <path id="Trazado_70" data-name="Trazado 70" d="M.5,0H13V1H.5a.5.5,0,0,1,0-1Z" fill="none" stroke="#241862" stroke-width="0.5"/>
    </g>
    <g id="Grupo_53" data-name="Grupo 53" transform="translate(-12129 -1650)">
      <path id="Trazado_71" data-name="Trazado 71" d="M0,10,5,5,0,0" fill="none" stroke="#241862" stroke-linecap="round" stroke-linejoin="round" stroke-width="1.5"/>
    </g>
  </g>
</svg>
