<svg xmlns="http://www.w3.org/2000/svg" xmlns:xlink="http://www.w3.org/1999/xlink" width="10.391" height="14" viewBox="0 0 10.391 14">
  <defs>
    <clipPath id="clip-path">
      <path id="Trazado_81" data-name="Trazado 81" d="M15.2-14A5.2,5.2,0,0,0,10-8.817c0,1.443.751,3.3,2.233,5.509A29.265,29.265,0,0,0,14.57-.278.843.843,0,0,0,15.2,0a.843.843,0,0,0,.625-.278,29.25,29.25,0,0,0,2.337-3.029c1.482-2.212,2.233-4.066,2.233-5.509A5.2,5.2,0,0,0,15.2-14Zm2.28,10.236A28.883,28.883,0,0,1,15.211-.827.019.019,0,0,1,15.2-.82a.019.019,0,0,1-.016-.007,28.893,28.893,0,0,1-2.265-2.937C11.545-5.81,10.82-7.557,10.82-8.817A4.374,4.374,0,0,1,15.2-13.18,4.374,4.374,0,0,1,19.57-8.817C19.57-7.557,18.846-5.81,17.476-3.764Z" fill="none"/>
    </clipPath>
    <clipPath id="clip-path-2">
      <path id="Trazado_83" data-name="Trazado 83" d="M18.338-9.6a.841.841,0,0,0-.812-.59H16.39a.033.033,0,0,1-.032-.023l-.351-1.08h0a.841.841,0,0,0-.812-.59.841.841,0,0,0-.812.59l-.351,1.08a.033.033,0,0,1-.032.023H12.865a.841.841,0,0,0-.812.59.841.841,0,0,0,.31.955l.919.667a.033.033,0,0,1,.012.037l-.351,1.08a.841.841,0,0,0,.31.955.841.841,0,0,0,1,0l.919-.667a.033.033,0,0,1,.039,0l.919.667a.851.851,0,0,0,.5.166.851.851,0,0,0,.5-.166.841.841,0,0,0,.31-.955L17.1-7.943a.034.034,0,0,1,.012-.037l.919-.667A.841.841,0,0,0,18.338-9.6Zm-.792.291-.919.667a.852.852,0,0,0-.31.955l.351,1.08a.027.027,0,0,1-.012.037.027.027,0,0,1-.039,0L15.7-7.24a.852.852,0,0,0-1,0l-.919.667a.027.027,0,0,1-.039,0,.027.027,0,0,1-.012-.037l.351-1.08a.852.852,0,0,0-.31-.955l-.919-.667a.027.027,0,0,1-.012-.037c.008-.023.019-.023.032-.023H14a.852.852,0,0,0,.812-.59l.351-1.08c0-.012.008-.023.032-.023s.028.011.032.023l.351,1.08a.852.852,0,0,0,.812.59h1.135c.013,0,.024,0,.032.023A.027.027,0,0,1,17.545-9.312Z" fill="none"/>
    </clipPath>
  </defs>
  <g id="Grupo_375" data-name="Grupo 375" transform="translate(11998 1652)">
    <g id="Grupo_59" data-name="Grupo 59" transform="translate(-12008 -1638)" clip-path="url(#clip-path)">
      <path id="Trazado_80" data-name="Trazado 80" d="M5-19H25.391V5H5Z" fill="#241862"/>
    </g>
    <g id="Grupo_60" data-name="Grupo 60" transform="translate(-12008 -1638)" clip-path="url(#clip-path-2)">
      <path id="Trazado_82" data-name="Trazado 82" d="M7.009-16.886H23.381V-.743H7.009Z" fill="#241862"/>
    </g>
  </g>
</svg>
