<svg xmlns="http://www.w3.org/2000/svg" xmlns:xlink="http://www.w3.org/1999/xlink" width="88" height="74" viewBox="0 0 88 74">
  <defs>
    <clipPath id="clip-path">
      <rect id="Rectángulo_10" data-name="Rectángulo 10" width="88" height="74" transform="translate(437 -491)" fill="none"/>
    </clipPath>
    <clipPath id="clip-path-2">
      <path id="Trazado_175" data-name="Trazado 175" d="M517.462-425.389H502.093c3.192-8.171,9.005-14.082,15.878-16.032a1.858,1.858,0,0,0,1.331-2.043,1.858,1.858,0,0,0-1.841-1.607h0A34.742,34.742,0,0,0,499.587-440a142.315,142.315,0,0,1,9.171-23.539,1.859,1.859,0,0,0-.374-2.167,1.846,1.846,0,0,0-2.173-.29,57.279,57.279,0,0,0-17.74,15.161,86.739,86.739,0,0,1,3.6-32.416,1.863,1.863,0,0,0-.561-1.96,1.846,1.846,0,0,0-2.017-.27c-4.794,2.3-13.695,14.59-15.4,33.691A45.523,45.523,0,0,0,448.4-470.684a1.85,1.85,0,0,0-2.111.881,1.869,1.869,0,0,0,.343,2.271,53.232,53.232,0,0,1,14.859,25.52,32.059,32.059,0,0,0-17.459-7.259,1.849,1.849,0,0,0-1.893,1.161,1.849,1.849,0,0,0,.582,2.146l.239.187c4.274,3.349,13.851,10.878,17.157,20.4H443.861A1.857,1.857,0,0,0,442-423.523a1.857,1.857,0,0,0,1.861,1.856h73.611a1.857,1.857,0,0,0,1.861-1.856A1.875,1.875,0,0,0,517.462-425.389ZM451.14-443.806a28.54,28.54,0,0,1,11.854,8.576,1.853,1.853,0,0,0,2.173.539,1.872,1.872,0,0,0,1.113-1.949,56.169,56.169,0,0,0-11.688-27.7,41.791,41.791,0,0,1,19.372,20.024,1.857,1.857,0,0,0,2.09,1.047,1.867,1.867,0,0,0,1.466-1.825c-.052-15.378,4.96-26.806,9.234-32.727a90.516,90.516,0,0,0-1.445,32.3,1.87,1.87,0,0,0,1.435,1.566,1.869,1.869,0,0,0,1.965-.809,53.7,53.7,0,0,1,14.027-14.694,146.333,146.333,0,0,0-8.111,23.56,1.856,1.856,0,0,0,.822,2.033,1.85,1.85,0,0,0,2.184-.166,30.369,30.369,0,0,1,9.671-5.558,33.977,33.977,0,0,0-9.171,14.186H464C461.778-433.011,456.048-439.368,451.14-443.806Z" fill="none"/>
    </clipPath>
    <clipPath id="clip-path-3">
      <path id="Trazado_174" data-name="Trazado 174" d="M440-420h80v-67H440Z" fill="none"/>
    </clipPath>
  </defs>
  <g id="Grupo_167" data-name="Grupo 167" transform="translate(-437 491)" opacity="0.6" style="isolation: isolate">
    <g id="Grupo_166" data-name="Grupo 166" clip-path="url(#clip-path)">
      <g id="Grupo_163" data-name="Grupo 163" clip-path="url(#clip-path-2)">
        <g id="Grupo_162" data-name="Grupo 162" clip-path="url(#clip-path-3)">
          <path id="Trazado_173" data-name="Trazado 173" d="M437-490.667h87.333v74H437Z" fill="#241862"/>
        </g>
      </g>
      <g id="Grupo_165" data-name="Grupo 165" clip-path="url(#clip-path-3)">
        <g id="Grupo_164" data-name="Grupo 164" transform="translate(442 -485.667)">
          <path id="Trazado_176" data-name="Trazado 176" d="M75.462,60.277H60.093C63.285,52.106,69.1,46.2,75.971,44.246a1.861,1.861,0,0,0-.51-3.65h0a34.742,34.742,0,0,0-17.875,5.071,142.31,142.31,0,0,1,9.171-23.539,1.855,1.855,0,0,0-2.548-2.458A57.278,57.278,0,0,0,46.471,34.83a86.739,86.739,0,0,1,3.6-32.416A1.86,1.86,0,0,0,47.49.185c-4.794,2.3-13.695,14.59-15.4,33.691A45.523,45.523,0,0,0,6.4,14.982a1.85,1.85,0,0,0-2.111.881,1.87,1.87,0,0,0,.343,2.271,53.233,53.233,0,0,1,14.859,25.52A32.059,32.059,0,0,0,2.028,36.4,1.854,1.854,0,0,0,.717,39.7l.239.187c4.274,3.349,13.851,10.878,17.157,20.4H1.861a1.856,1.856,0,1,0,0,3.712H75.472a1.861,1.861,0,1,0-.01-3.723ZM9.14,41.861a28.54,28.54,0,0,1,11.854,8.576,1.853,1.853,0,0,0,2.173.539,1.873,1.873,0,0,0,1.113-1.95,56.17,56.17,0,0,0-11.688-27.7A41.791,41.791,0,0,1,31.965,41.352a1.862,1.862,0,0,0,3.556-.778c-.052-15.378,4.96-26.806,9.234-32.727a90.518,90.518,0,0,0-1.445,32.3,1.855,1.855,0,0,0,3.4.757A53.7,53.7,0,0,1,60.737,26.213a146.331,146.331,0,0,0-8.111,23.56,1.856,1.856,0,0,0,3.005,1.867A30.369,30.369,0,0,1,65.3,46.081a33.977,33.977,0,0,0-9.171,14.186H22C19.778,52.655,14.048,46.3,9.14,41.861Z" fill="none" stroke="#fff" stroke-width="0.933"/>
        </g>
      </g>
    </g>
  </g>
</svg>
