<svg xmlns="http://www.w3.org/2000/svg" xmlns:xlink="http://www.w3.org/1999/xlink" width="66" height="68" viewBox="0 0 66 68">
  <defs>
    <clipPath id="clip-path">
      <rect id="Rectángulo_12" data-name="Rectángulo 12" width="66" height="68" transform="translate(282 -184)" fill="none"/>
    </clipPath>
    <clipPath id="clip-path-2">
      <path id="Trazado_200" data-name="Trazado 200" d="M347.114-160.21l-7.1-11.6a1.308,1.308,0,0,0-.908-.608,1.308,1.308,0,0,0-1.052.294L319.28-156.167l-6.791-6.658A9.356,9.356,0,0,0,312.52-168c3.372-2.855,7.679-5.349,10.342-4.351a1.3,1.3,0,0,0,1.562-.519,1.307,1.307,0,0,0-.186-1.635c-.1-.1-10.212-9.786-20.33-.406a9.663,9.663,0,0,0-7.523,2.725,9.3,9.3,0,0,0-2.793,7.365,10.346,10.346,0,0,1-4.216,2.627,4.7,4.7,0,0,0-6,.445A4.52,4.52,0,0,0,282-158.494a4.524,4.524,0,0,0,1.372,3.253l9.463,9.278a4.672,4.672,0,0,0,3.281,1.33,4.67,4.67,0,0,0,3.28-1.33,4.523,4.523,0,0,0,1.372-3.252,4.5,4.5,0,0,0-.9-2.684,10.081,10.081,0,0,1,2.67-4.1,9.9,9.9,0,0,0,3.366-.346l6.3,6.18-8.8,7.475c-1.33-.838-5.091-2.081-11.561,4.262a4.867,4.867,0,0,0-1.742,3.256c0,1.541,1.117,2.635,2.531,4.02a4.173,4.173,0,0,0,5.266.524l6.8,6.663A4.6,4.6,0,0,0,304-121.61a3.931,3.931,0,0,0,1.262,2.834c1.289,1.263,2.533,2.483,4.066,2.483A4.837,4.837,0,0,0,312.61-118c3.34-3.274,5.033-6.251,5.033-8.848a4.742,4.742,0,0,0-.623-2.433l1.5-1.475a1.305,1.305,0,0,0,.392-.932v-3.333h3.426a1.306,1.306,0,0,0,1.306-1.306v-2.617l9.406,9.223a4.672,4.672,0,0,0,3.281,1.33,4.669,4.669,0,0,0,3.279-1.33,4.52,4.52,0,0,0,1.372-3.252,4.524,4.524,0,0,0-1.372-3.252l-8.235-8.075h.425a1.306,1.306,0,0,0,1.306-1.306v-3.333h3.425a1.306,1.306,0,0,0,1.306-1.306v-3.333h3.426a1.306,1.306,0,0,0,1.306-1.306v-3.333H346a1.307,1.307,0,0,0,1.14-.668A1.306,1.306,0,0,0,347.114-160.21Zm-49.548,12.382a2.084,2.084,0,0,1-2.9,0l-9.463-9.278a1.932,1.932,0,0,1-.589-1.388,1.93,1.93,0,0,1,.589-1.386,2.067,2.067,0,0,1,1.451-.589,2.068,2.068,0,0,1,1.452.589l9.463,9.278a1.932,1.932,0,0,1,.589,1.387A1.932,1.932,0,0,1,297.566-147.828Zm4.631-10.829a1.294,1.294,0,0,0-1.228.535,15.407,15.407,0,0,0-3.1,4.162l-6.366-6.242a15.684,15.684,0,0,0,4.136-2.959c.03-.018.059-.038.087-.058a1.307,1.307,0,0,0,.526-1.248,6.735,6.735,0,0,1,1.958-5.851,7.085,7.085,0,0,1,6.03-1.927,1.286,1.286,0,0,0,1.24-.559c5.3-5.062,10.554-3.768,13.77-2.059-3.694.968-7.357,3.908-9.119,5.478a1.306,1.306,0,0,0-.346,1.454,6.759,6.759,0,0,1,0,4.957,7.2,7.2,0,0,1-4.031,3.936A7.264,7.264,0,0,1,302.2-158.657Zm6.28,1.177a9.621,9.621,0,0,0,1.564-1.24,9.6,9.6,0,0,0,1.291-1.58l5.948,5.831-3.07,2.609Zm2.3,37.611c-1.45,1.422-1.534,1.342-3.691-.773a1.3,1.3,0,0,1-.479-.96,2.618,2.618,0,0,1,.742-1.557,1.305,1.305,0,0,0,.392-.932,1.305,1.305,0,0,0-.392-.932l-8.412-8.247a1.3,1.3,0,0,0-.915-.374,1.3,1.3,0,0,0-.914.374c-.149.145-1.486,1.389-2.64.257-.9-.88-1.747-1.712-1.747-2.155,0-.136.093-.543.959-1.392,5.911-5.8,8.418-3.864,8.423-3.866l.394.386h0l11.83,11.6,0,0,.357.35C314.711-128.066,316.675-125.649,310.781-119.869Zm27.594-13.109a1.93,1.93,0,0,1-.589,1.387,2.084,2.084,0,0,1-2.9,0l-8.235-8.075h.425a1.306,1.306,0,0,0,1.306-1.306v-2.616l9.406,9.223A1.932,1.932,0,0,1,338.374-132.978Zm2.894-27.856a1.306,1.306,0,0,0-1.306,1.306v3.333h-3.426a1.306,1.306,0,0,0-1.306,1.306v3.333H331.8a1.306,1.306,0,0,0-1.306,1.306v3.333h-3.425a1.306,1.306,0,0,0-1.306,1.306v3.333h-3.425a1.306,1.306,0,0,0-1.306,1.306v3.333H317.61a1.306,1.306,0,0,0-1.306,1.306v4.091l-1.059,1.039-9.893-9.7,9.642-8.192h0l5.07-4.307v0l18.521-15.737,5.085,8.308Z" fill="none"/>
    </clipPath>
    <clipPath id="clip-path-3">
      <path id="Trazado_199" data-name="Trazado 199" d="M281-115h68v-65H281Z" fill="none"/>
    </clipPath>
    <clipPath id="clip-path-4">
      <path id="Trazado_203" data-name="Trazado 203" d="M303.147-136.105a1.307,1.307,0,0,0-1.847.018,1.306,1.306,0,0,0,.018,1.847l7.1,6.959a1.3,1.3,0,0,0,.915.374,1.3,1.3,0,0,0,.932-.391,1.306,1.306,0,0,0-.018-1.847Z" fill="none"/>
    </clipPath>
  </defs>
  <g id="Grupo_195" data-name="Grupo 195" transform="translate(-282 184)" opacity="0.6" style="isolation: isolate">
    <g id="Grupo_194" data-name="Grupo 194" clip-path="url(#clip-path)">
      <g id="Grupo_191" data-name="Grupo 191" clip-path="url(#clip-path-2)">
        <g id="Grupo_190" data-name="Grupo 190" clip-path="url(#clip-path-3)">
          <path id="Trazado_198" data-name="Trazado 198" d="M277-184h75.306v72.7H277Z" fill="#241862"/>
        </g>
      </g>
      <g id="Grupo_193" data-name="Grupo 193" clip-path="url(#clip-path-4)">
        <g id="Grupo_192" data-name="Grupo 192" clip-path="url(#clip-path-3)">
          <path id="Trazado_201" data-name="Trazado 201" d="M295.926-141.479h19.71v19.57h-19.71Z" fill="#241862"/>
        </g>
      </g>
    </g>
  </g>
</svg>
