<svg xmlns="http://www.w3.org/2000/svg" xmlns:xlink="http://www.w3.org/1999/xlink" width="21.787" height="17.94" viewBox="0 0 21.787 17.94">
  <defs>
    <clipPath id="clip-path">
      <path id="Trazado_21" data-name="Trazado 21" d="M226.319-27.979H213.468A4.473,4.473,0,0,0,209-23.511v6.9a4.4,4.4,0,0,0,3.161,4.226l2.158,2.158a.639.639,0,0,0,.451.187.638.638,0,0,0,.451-.187l1.98-1.98h9.118a4.473,4.473,0,0,0,4.468-4.468v-6.837A4.473,4.473,0,0,0,226.319-27.979Zm3.191,11.306a3.2,3.2,0,0,1-3.191,3.191h-9.382a.638.638,0,0,0-.451.187l-1.715,1.715-1.827-1.827a.638.638,0,0,0-.3-.168,3.122,3.122,0,0,1-2.37-3.035v-6.9a3.2,3.2,0,0,1,3.191-3.191h12.851a3.2,3.2,0,0,1,3.191,3.191Z" fill="none"/>
    </clipPath>
    <clipPath id="clip-path-2">
      <path id="Trazado_23" data-name="Trazado 23" d="M223.947-21.858h-8.106a.638.638,0,0,0-.638.638.638.638,0,0,0,.638.638h8.106a.638.638,0,0,0,.638-.638A.638.638,0,0,0,223.947-21.858Z" fill="none"/>
    </clipPath>
    <clipPath id="clip-path-3">
      <path id="Trazado_25" data-name="Trazado 25" d="M223.947-19.6h-8.106a.638.638,0,0,0-.638.638.638.638,0,0,0,.638.638h8.106a.638.638,0,0,0,.638-.638A.638.638,0,0,0,223.947-19.6Z" fill="none"/>
    </clipPath>
  </defs>
  <g id="Grupo_368" data-name="Grupo 368" transform="translate(12084.444 1692.979)">
    <g id="Grupo_15" data-name="Grupo 15" transform="translate(-12293.444 -1665)" clip-path="url(#clip-path)">
      <path id="Trazado_20" data-name="Trazado 20" d="M204-32.979h31.787v27.94H204Z" fill="#281267"/>
    </g>
    <g id="Grupo_16" data-name="Grupo 16" transform="translate(-12293.444 -1665)" clip-path="url(#clip-path-2)">
      <path id="Trazado_22" data-name="Trazado 22" d="M210.2-26.858h19.382v11.277H210.2Z" fill="#281267"/>
    </g>
    <g id="Grupo_17" data-name="Grupo 17" transform="translate(-12293.444 -1665)" clip-path="url(#clip-path-3)">
      <path id="Trazado_24" data-name="Trazado 24" d="M210.2-24.6h19.382v11.277H210.2Z" fill="#281267"/>
    </g>
  </g>
</svg>
