<svg xmlns="http://www.w3.org/2000/svg" xmlns:xlink="http://www.w3.org/1999/xlink" width="17" height="17" viewBox="0 0 17 17">
  <defs>
    <clipPath id="clip-path">
      <path id="Trazado_152" data-name="Trazado 152" d="M1,0H16a1,1,0,0,0,1-1V-16a1,1,0,0,0-1-1H1a1,1,0,0,0-1,1V-1A1,1,0,0,0,1,0Z" fill="none" clip-rule="evenodd"/>
    </clipPath>
    <clipPath id="clip-path-2">
      <rect id="Rectángulo_8" data-name="Rectángulo 8" width="37" height="38" transform="translate(-10 -28)" fill="none"/>
    </clipPath>
    <clipPath id="clip-path-3">
      <path id="Trazado_151" data-name="Trazado 151" d="M0,0H17V-18H0Z" fill="none"/>
    </clipPath>
    <clipPath id="clip-path-4">
      <path id="Trazado_154" data-name="Trazado 154" d="M8.5-4A.5.5,0,0,0,9-4.5V-8h3.5a.5.5,0,0,0,.5-.5.5.5,0,0,0-.5-.5H9v-3.5a.5.5,0,0,0-.5-.5.5.5,0,0,0-.5.5V-9H4.5a.5.5,0,0,0-.5.5.5.5,0,0,0,.5.5H8v3.5A.5.5,0,0,0,8.5-4Z" fill="none" clip-rule="evenodd"/>
    </clipPath>
  </defs>
  <g id="Grupo_382" data-name="Grupo 382" transform="translate(12004 1592)">
    <g id="Grupo_124" data-name="Grupo 124" transform="translate(-12004 -1575)" clip-path="url(#clip-path)">
      <g id="Grupo_123" data-name="Grupo 123" style="isolation: isolate">
        <g id="Grupo_122" data-name="Grupo 122" clip-path="url(#clip-path-2)">
          <g id="Grupo_121" data-name="Grupo 121" clip-path="url(#clip-path-3)">
            <g id="Grupo_120" data-name="Grupo 120">
              <path id="Trazado_150" data-name="Trazado 150" d="M1,0H16a1,1,0,0,0,1-1V-16a1,1,0,0,0-1-1H1a1,1,0,0,0-1,1V-1A1,1,0,0,0,1,0Z" fill="none" stroke="#28c499" stroke-width="2"/>
            </g>
          </g>
        </g>
      </g>
    </g>
    <g id="Grupo_125" data-name="Grupo 125" transform="translate(-12004 -1575)" clip-path="url(#clip-path-4)">
      <path id="Trazado_153" data-name="Trazado 153" d="M-1,1H18V-18H-1Z" fill="#28c499"/>
    </g>
  </g>
</svg>
