<svg xmlns="http://www.w3.org/2000/svg" width="16.183" height="20.183" viewBox="0 0 16.183 20.183">
  <g id="Grupo_299" data-name="Grupo 299" transform="translate(0.758 0.758)">
    <path id="Trazado_307" data-name="Trazado 307" d="M7.333,0A7.1,7.1,0,0,0,0,6.815C0,11.421,6.425,18.121,6.7,18.4a.9.9,0,0,0,1.27,0c.273-.283,6.7-6.985,6.7-11.589A7.1,7.1,0,0,0,7.333,0Zm0,3.682A3.262,3.262,0,0,1,10.7,6.815,3.262,3.262,0,0,1,7.333,9.947,3.262,3.262,0,0,1,3.962,6.815,3.262,3.262,0,0,1,7.333,3.682Z" fill="none" stroke="#241862" stroke-width="1.517"/>
  </g>
</svg>
