<svg xmlns="http://www.w3.org/2000/svg" xmlns:xlink="http://www.w3.org/1999/xlink" width="12.199" height="12.2" viewBox="0 0 12.199 12.2">
  <defs>
    <clipPath id="clip-path">
      <path id="Trazado_86" data-name="Trazado 86" d="M14.853-362.852l-2.885-2.885a5.04,5.04,0,0,0,1.146-3.206A5.059,5.059,0,0,0,8.057-374,5.057,5.057,0,0,0,3-368.943a5.057,5.057,0,0,0,5.057,5.057,5.031,5.031,0,0,0,3.2-1.144l2.885,2.882a.5.5,0,0,0,.708,0A.5.5,0,0,0,14.853-362.852Zm-6.8-2.04A4.056,4.056,0,0,1,4-368.943,4.058,4.058,0,0,1,8.057-373a4.059,4.059,0,0,1,4.053,4.053A4.057,4.057,0,0,1,8.057-364.892Z" fill="none"/>
    </clipPath>
  </defs>
  <g id="Grupo_376" data-name="Grupo 376" transform="translate(12107.1 1620.1)">
    <g id="Grupo_62" data-name="Grupo 62" transform="translate(-12110 -1246)" clip-path="url(#clip-path)">
      <path id="Trazado_85" data-name="Trazado 85" d="M-2-379H20v22H-2Z" fill="#241862"/>
    </g>
    <g id="Grupo_63" data-name="Grupo 63" transform="translate(-12107 -1620)">
      <path id="Trazado_87" data-name="Trazado 87" d="M11.853,11.148,8.968,8.263a5.053,5.053,0,1,0-.708.708l2.885,2.882a.5.5,0,1,0,.708-.705Zm-6.8-2.04A4.052,4.052,0,1,1,9.11,5.057,4.056,4.056,0,0,1,5.057,9.108Z" fill="none" stroke="#241862" stroke-width="0.2"/>
    </g>
  </g>
</svg>
