<svg xmlns="http://www.w3.org/2000/svg" xmlns:xlink="http://www.w3.org/1999/xlink" width="17" height="17" viewBox="0 0 17 17">
  <defs>
    <clipPath id="clip-path">
      <path id="Trazado_147" data-name="Trazado 147" d="M1-67H16a1,1,0,0,0,1-1V-83a1,1,0,0,0-1-1H1a1,1,0,0,0-1,1v15A1,1,0,0,0,1-67Z" fill="none" clip-rule="evenodd"/>
    </clipPath>
    <clipPath id="clip-path-2">
      <rect id="Rectángulo_7" data-name="Rectángulo 7" width="37" height="37" transform="translate(-10 -94)" fill="none"/>
    </clipPath>
    <clipPath id="clip-path-3">
      <path id="Trazado_146" data-name="Trazado 146" d="M0-67H17V-84H0Z" fill="none"/>
    </clipPath>
    <clipPath id="clip-path-4">
      <path id="Trazado_149" data-name="Trazado 149" d="M4.5-75h8a.5.5,0,0,0,.5-.5.5.5,0,0,0-.5-.5h-8a.5.5,0,0,0-.5.5A.5.5,0,0,0,4.5-75Z" fill="none" clip-rule="evenodd"/>
    </clipPath>
  </defs>
  <g id="Grupo_381" data-name="Grupo 381" transform="translate(12029 1592)">
    <g id="Grupo_118" data-name="Grupo 118" transform="translate(-12029 -1508)" clip-path="url(#clip-path)">
      <g id="Grupo_117" data-name="Grupo 117" style="isolation: isolate">
        <g id="Grupo_116" data-name="Grupo 116" clip-path="url(#clip-path-2)">
          <g id="Grupo_115" data-name="Grupo 115" clip-path="url(#clip-path-3)">
            <g id="Grupo_114" data-name="Grupo 114" transform="translate(0 -67)">
              <path id="Trazado_145" data-name="Trazado 145" d="M1,0H16a1,1,0,0,0,1-1V-16a1,1,0,0,0-1-1H1a1,1,0,0,0-1,1V-1A1,1,0,0,0,1,0Z" fill="none" stroke="#11093b" stroke-width="2"/>
            </g>
          </g>
        </g>
      </g>
    </g>
    <g id="Grupo_119" data-name="Grupo 119" transform="translate(-12029 -1508)" clip-path="url(#clip-path-4)">
      <path id="Trazado_148" data-name="Trazado 148" d="M-1-70H18V-81H-1Z" fill="#11093b"/>
    </g>
  </g>
</svg>
