<svg xmlns="http://www.w3.org/2000/svg" xmlns:xlink="http://www.w3.org/1999/xlink" width="19.484" height="19.488" viewBox="0 0 19.484 19.488">
  <defs>
    <clipPath id="clip-path">
      <path id="Trazado_310" data-name="Trazado 310" d="M29.392-22.765l.666-.663.771-.767a1.891,1.891,0,0,1,2.812,0q1.177,1.166,2.388,2.386a1.9,1.9,0,0,1-.009,2.852,5.174,5.174,0,0,1-.826.618q-.126.081-.265.167c-.249.153-.514.309-.78.46-.159.09-.283.159-.345.192a4.649,4.649,0,0,1-3.559.29c-.1-.031-.283-.093-.533-.188-.412-.156-.869-.351-1.361-.588a19.95,19.95,0,0,1-4.117-2.635,18.055,18.055,0,0,1-1.5-1.4q-.573-.6-1.09-1.247a20.449,20.449,0,0,1-2.7-4.458c-.237-.533-.43-1.028-.583-1.474-.093-.271-.152-.467-.169-.536a4.383,4.383,0,0,1,.47-3.554c.04-.061.109-.167.2-.3.152-.225.311-.449.468-.66q.1-.137.2-.261a5.618,5.618,0,0,1,.452-.517,1.9,1.9,0,0,1,2.813,0c.345.338,1.833,1.827,2.372,2.37a1.9,1.9,0,0,1,0,2.866L24.36-29l-.608.609-.226.226c.055.141.147.358.272.629A13.5,13.5,0,0,0,24.626-26a7.335,7.335,0,0,0,1.041,1.329,8.29,8.29,0,0,0,1.165.929,13.349,13.349,0,0,0,1.631.926c.289.139.52.24.678.3Zm5.94,1.65q-1.21-1.219-2.382-2.38a.917.917,0,0,0-1.429,0l-.768.763-.668.665-.3.3a.9.9,0,0,1-.942.19c-.165-.064-.446-.184-.8-.357a14.313,14.313,0,0,1-1.752-1,9.253,9.253,0,0,1-1.3-1.041A8.28,8.28,0,0,1,23.8-25.479a14.466,14.466,0,0,1-.889-1.646c-.156-.337-.265-.6-.32-.746a.9.9,0,0,1,.194-.94l.276-.276.607-.608.8-.806a.93.93,0,0,0,0-1.481c-.535-.54-2.022-2.027-2.362-2.361a.926.926,0,0,0-1.436,0,4.737,4.737,0,0,0-.369.425c-.059.075-.12.155-.183.239-.148.2-.3.411-.443.625-.087.128-.152.227-.2.293a3.445,3.445,0,0,0-.352,2.716c.024.088.076.263.162.511.144.419.327.888.552,1.394A19.476,19.476,0,0,0,22.41-23.9q.49.613,1.033,1.181a17.072,17.072,0,0,0,1.42,1.323,18.976,18.976,0,0,0,3.914,2.5c.466.224.9.408,1.285.555.229.087.39.142.5.178a3.709,3.709,0,0,0,2.76-.219c.067-.036.186-.1.339-.189.256-.145.511-.3.749-.442q.131-.081.249-.157a4.6,4.6,0,0,0,.66-.484A.933.933,0,0,0,35.332-21.115Z" fill="#22165d"/>
    </clipPath>
    <clipPath id="clip-path-2">
      <path id="Trazado_309" data-name="Trazado 309" d="M-278,935H1642V-265H-278Z" fill="#22165d"/>
    </clipPath>
  </defs>
  <g id="Grupo_307" data-name="Grupo 307" transform="translate(698.4 10403.088)">
    <g id="Grupo_301" data-name="Grupo 301" transform="translate(-716 -10367)" clip-path="url(#clip-path)">
      <g id="Grupo_300" data-name="Grupo 300" clip-path="url(#clip-path-2)">
        <path id="Trazado_308" data-name="Trazado 308" d="M13-40.667H41.667V-12H13Z" fill="#22165d"/>
      </g>
    </g>
    <g id="Grupo_302" data-name="Grupo 302" transform="translate(-698 -10402.667)">
      <path id="Trazado_311" data-name="Trazado 311" d="M11.392,12.9l.666-.663.771-.767a1.891,1.891,0,0,1,2.812,0q1.177,1.166,2.388,2.386a1.9,1.9,0,0,1-.009,2.852,5.174,5.174,0,0,1-.826.618q-.126.081-.265.167c-.249.153-.514.309-.78.46-.159.09-.283.159-.345.192a4.649,4.649,0,0,1-3.559.29c-.1-.031-.283-.093-.533-.188-.412-.156-.869-.351-1.361-.588a19.951,19.951,0,0,1-4.117-2.635,18.056,18.056,0,0,1-1.5-1.4q-.573-.6-1.09-1.247a20.449,20.449,0,0,1-2.7-4.458C.7,7.392.51,6.9.357,6.451.264,6.18.2,5.984.188,5.915a4.383,4.383,0,0,1,.47-3.554c.04-.061.109-.167.2-.3.152-.225.311-.449.468-.66q.1-.137.2-.261A5.617,5.617,0,0,1,1.978.622a1.9,1.9,0,0,1,2.813,0c.345.338,1.833,1.827,2.372,2.37a1.9,1.9,0,0,1,0,2.866l-.805.807-.608.609L5.526,7.5c.055.141.147.358.272.629a13.5,13.5,0,0,0,.827,1.534,7.335,7.335,0,0,0,1.041,1.329,8.291,8.291,0,0,0,1.165.929,13.348,13.348,0,0,0,1.631.926c.289.139.52.24.678.3Zm5.94,1.65q-1.21-1.219-2.382-2.38a.917.917,0,0,0-1.429,0l-.768.763-.668.665-.3.3a.9.9,0,0,1-.942.19c-.165-.064-.446-.184-.8-.357a14.314,14.314,0,0,1-1.752-1,9.254,9.254,0,0,1-1.3-1.041A8.28,8.28,0,0,1,5.8,10.188a14.465,14.465,0,0,1-.889-1.646c-.156-.337-.265-.6-.32-.746a.9.9,0,0,1,.194-.94l.276-.276.607-.608.8-.806a.93.93,0,0,0,0-1.481C5.929,3.145,4.443,1.658,4.1,1.324a.926.926,0,0,0-1.436,0,4.736,4.736,0,0,0-.369.425c-.059.075-.12.155-.183.239-.148.2-.3.411-.443.625-.087.128-.152.227-.2.293a3.445,3.445,0,0,0-.352,2.716c.024.088.076.263.162.511.144.419.327.888.552,1.394A19.475,19.475,0,0,0,4.41,11.77q.49.613,1.033,1.181a17.073,17.073,0,0,0,1.42,1.323,18.976,18.976,0,0,0,3.914,2.5c.466.224.9.408,1.285.555.229.087.39.142.5.178a3.709,3.709,0,0,0,2.76-.219c.067-.036.186-.1.339-.19.256-.145.511-.3.749-.442q.131-.081.249-.157a4.594,4.594,0,0,0,.66-.484A.933.933,0,0,0,17.332,14.551Z" fill="#22165d" stroke="#241862" stroke-width="0.667"/>
    </g>
  </g>
</svg>
