<svg xmlns="http://www.w3.org/2000/svg" xmlns:xlink="http://www.w3.org/1999/xlink" width="24" height="29" viewBox="0 0 24 29">
  <defs>
    <clipPath id="clip-path">
      <rect id="Rectángulo_27" data-name="Rectángulo 27" width="24" height="29" transform="translate(-3 -38)" fill="none"/>
    </clipPath>
    <clipPath id="clip-path-2">
      <path id="Trazado_316" data-name="Trazado 316" d="M11.883-34.168a.477.477,0,0,0-.351-.165H3.654A2.743,2.743,0,0,0,1-31.535V-15.8A2.743,2.743,0,0,0,3.654-13H14.346A2.743,2.743,0,0,0,17-15.8v-12.5a.571.571,0,0,0-.141-.361Zm.141,1.654,3.332,3.695H13.19a1.2,1.2,0,0,1-1.166-1.226Zm2.322,18.484H3.654A1.739,1.739,0,0,1,1.976-15.8V-31.535A1.739,1.739,0,0,1,3.654-33.3h7.4v3.257a2.2,2.2,0,0,0,2.142,2.257h2.834V-15.8A1.736,1.736,0,0,1,14.346-14.031Z" fill="none"/>
    </clipPath>
    <clipPath id="clip-path-3">
      <path id="Trazado_315" data-name="Trazado 315" d="M0-12H18V-35H0Z" fill="none"/>
    </clipPath>
  </defs>
  <g id="Grupo_324" data-name="Grupo 324" transform="translate(3 38)" opacity="0.35" style="isolation: isolate">
    <g id="Grupo_323" data-name="Grupo 323" clip-path="url(#clip-path)">
      <g id="Grupo_320" data-name="Grupo 320" clip-path="url(#clip-path-2)">
        <g id="Grupo_319" data-name="Grupo 319" clip-path="url(#clip-path-3)">
          <path id="Trazado_314" data-name="Trazado 314" d="M-4-39.333H22V-8H-4Z" fill="#11093b"/>
        </g>
      </g>
      <g id="Grupo_322" data-name="Grupo 322" clip-path="url(#clip-path-3)">
        <g id="Grupo_321" data-name="Grupo 321" transform="translate(1 -34.333)">
          <path id="Trazado_317" data-name="Trazado 317" d="M10.883.165A.477.477,0,0,0,10.532,0H2.654A2.743,2.743,0,0,0,0,2.8V18.535a2.743,2.743,0,0,0,2.654,2.8H13.346A2.743,2.743,0,0,0,16,18.535V6.039a.571.571,0,0,0-.141-.361Zm.141,1.654,3.332,3.695H12.19a1.2,1.2,0,0,1-1.166-1.226ZM13.346,20.3H2.654A1.739,1.739,0,0,1,.976,18.535V2.8A1.739,1.739,0,0,1,2.654,1.031h7.4V4.287A2.2,2.2,0,0,0,12.19,6.544h2.834V18.535A1.736,1.736,0,0,1,13.346,20.3Z" fill="none" stroke="#12053e" stroke-width="0.667"/>
        </g>
      </g>
    </g>
  </g>
</svg>
