<svg xmlns="http://www.w3.org/2000/svg" xmlns:xlink="http://www.w3.org/1999/xlink" width="15.371" height="17.555" viewBox="0 0 15.371 17.555">
  <defs>
    <clipPath id="clip-path">
      <path id="Trazado_47" data-name="Trazado 47" d="M11.176-11.779l2.858-.841,8-8,1.5-1.5-2.226-2.226-1.525,1.525-7.96,7.96Zm9.432-13.485a.992.992,0,0,1,1.409,0l2.431,2.431a1,1,0,0,1,0,1.409l-9.712,9.712-.243.144-3.787,1.114a.648.648,0,0,1-.823-.768l.887-4.215Z" fill="none"/>
    </clipPath>
    <clipPath id="clip-path-2">
      <path id="Trazado_49" data-name="Trazado 49" d="M19.077-22.826l2.833,2.833.809-.809-2.833-2.833Z" fill="none"/>
    </clipPath>
    <clipPath id="clip-path-3">
      <path id="Trazado_51" data-name="Trazado 51" d="M11.473-8H24.014c.679,0,1.23-.283,1.23-.633s-.551-.633-1.23-.633H11.473c-.679,0-1.23.283-1.23.633S10.794-8,11.473-8Z" fill="none"/>
    </clipPath>
  </defs>
  <g id="Grupo_369" data-name="Grupo 369" transform="translate(12030.127 1694.555)">
    <g id="Grupo_33" data-name="Grupo 33" transform="translate(-12040 -1669)" clip-path="url(#clip-path)">
      <path id="Trazado_46" data-name="Trazado 46" d="M.937-12.663,21.311-33.037,32.226-22.122,11.852-1.748Z" fill="#241862"/>
    </g>
    <g id="Grupo_34" data-name="Grupo 34" transform="translate(-12040 -1669)" clip-path="url(#clip-path-2)">
      <path id="Trazado_48" data-name="Trazado 48" d="M12.006-22.826l7.88-7.88,9.9,9.9-7.88,7.88Z" fill="#241862"/>
    </g>
    <g id="Grupo_35" data-name="Grupo 35" transform="translate(-12040 -1669)" clip-path="url(#clip-path-3)">
      <path id="Trazado_50" data-name="Trazado 50" d="M5.244-14.266h25V-3h-25Z" fill="#241862"/>
    </g>
  </g>
</svg>
