<svg xmlns="http://www.w3.org/2000/svg" xmlns:xlink="http://www.w3.org/1999/xlink" width="15.578" height="16.487" viewBox="0 0 15.578 16.487">
  <defs>
    <clipPath id="clip-path">
      <path id="Trazado_63" data-name="Trazado 63" d="M19.215-12.729a2.863,2.863,0,0,0-2.265,1.115l-4.394-2.453a2.866,2.866,0,0,0,.159-.943,2.8,2.8,0,0,0-.163-.946l4.391-2.45a2.856,2.856,0,0,0,2.268,1.122,2.863,2.863,0,0,0,2.859-2.858A2.861,2.861,0,0,0,19.212-23a2.861,2.861,0,0,0-2.859,2.858,2.789,2.789,0,0,0,.163.946l-4.387,2.45a2.846,2.846,0,0,0-2.268-1.122A2.863,2.863,0,0,0,7-15.01a2.864,2.864,0,0,0,2.863,2.858,2.86,2.86,0,0,0,2.272-1.125l4.391,2.453a2.844,2.844,0,0,0-.166.953,2.863,2.863,0,0,0,2.859,2.858,2.861,2.861,0,0,0,2.859-2.858A2.864,2.864,0,0,0,19.215-12.729Zm0-9.371a1.964,1.964,0,0,1,1.963,1.962,1.964,1.964,0,0,1-1.963,1.962,1.964,1.964,0,0,1-1.963-1.962A1.966,1.966,0,0,1,19.215-22.1ZM9.863-13.048A1.964,1.964,0,0,1,7.9-15.01a1.964,1.964,0,0,1,1.963-1.962,1.964,1.964,0,0,1,1.963,1.962A1.966,1.966,0,0,1,9.863-13.048Zm9.352,5.135a1.964,1.964,0,0,1-1.963-1.962,1.964,1.964,0,0,1,1.963-1.962,1.964,1.964,0,0,1,1.963,1.962A1.964,1.964,0,0,1,19.215-7.913Z" fill="none"/>
    </clipPath>
  </defs>
  <g id="Grupo_45" data-name="Grupo 45" transform="translate(-6.75 23.25)">
    <g id="Grupo_43" data-name="Grupo 43" clip-path="url(#clip-path)">
      <path id="Trazado_62" data-name="Trazado 62" d="M2-28H27.078V-2.013H2Z" fill="#241862"/>
    </g>
    <g id="Grupo_44" data-name="Grupo 44" transform="translate(7 -23)">
      <path id="Trazado_64" data-name="Trazado 64" d="M12.215,10.271A2.863,2.863,0,0,0,9.95,11.386L5.556,8.933a2.866,2.866,0,0,0,.159-.943,2.8,2.8,0,0,0-.163-.946l4.391-2.45a2.855,2.855,0,1,0-.591-1.736,2.789,2.789,0,0,0,.163.946L5.128,6.254a2.855,2.855,0,1,0,.007,3.469l4.391,2.453a2.858,2.858,0,1,0,2.69-1.905Zm0-9.371a1.962,1.962,0,1,1-1.963,1.962A1.964,1.964,0,0,1,12.215.9ZM2.863,9.952A1.962,1.962,0,1,1,4.826,7.99,1.964,1.964,0,0,1,2.863,9.952Zm9.352,5.135a1.962,1.962,0,1,1,1.963-1.962A1.964,1.964,0,0,1,12.215,15.087Z" fill="none" stroke="#241862" stroke-width="0.5"/>
    </g>
  </g>
</svg>
