<svg xmlns="http://www.w3.org/2000/svg" xmlns:xlink="http://www.w3.org/1999/xlink" width="18" height="17" viewBox="0 0 18 17">
  <defs>
    <clipPath id="clip-path">
      <rect id="Rect치ngulo_6" data-name="Rect치ngulo 6" width="18" height="17" transform="translate(-1 -151)" fill="none"/>
    </clipPath>
    <clipPath id="clip-path-2">
      <path id="Trazado_141" data-name="Trazado 141" d="M1-134H16a1,1,0,0,0,1-1v-15a1,1,0,0,0-1-1H1a1,1,0,0,0-1,1v15A1,1,0,0,0,1-134Z" fill="none" clip-rule="evenodd"/>
    </clipPath>
    <clipPath id="clip-path-3">
      <path id="Trazado_140" data-name="Trazado 140" d="M0-134H17v-17H0Z" fill="none"/>
    </clipPath>
    <clipPath id="clip-path-4">
      <rect id="Rect치ngulo_5" data-name="Rect치ngulo 5" width="37" height="37" transform="translate(-10 -161)" fill="none"/>
    </clipPath>
    <clipPath id="clip-path-6">
      <path id="Trazado_144" data-name="Trazado 144" d="M8.5-138a.5.5,0,0,0,.5-.5V-142h3.5a.5.5,0,0,0,.5-.5.5.5,0,0,0-.5-.5H9v-3.5a.5.5,0,0,0-.5-.5.5.5,0,0,0-.5.5v3.5H4.5a.5.5,0,0,0-.5.5.5.5,0,0,0,.5.5H8v3.5A.5.5,0,0,0,8.5-138Z" fill="none" clip-rule="evenodd"/>
    </clipPath>
  </defs>
  <g id="Grupo_113" data-name="Grupo 113" transform="translate(1 151)" opacity="0.5" style="isolation: isolate">
    <g id="Grupo_112" data-name="Grupo 112" clip-path="url(#clip-path)">
      <g id="Grupo_109" data-name="Grupo 109" clip-path="url(#clip-path-2)">
        <g id="Grupo_108" data-name="Grupo 108" clip-path="url(#clip-path-3)">
          <g id="Grupo_107" data-name="Grupo 107" style="isolation: isolate">
            <g id="Grupo_106" data-name="Grupo 106" clip-path="url(#clip-path-4)">
              <g id="Grupo_105" data-name="Grupo 105" clip-path="url(#clip-path-3)">
                <g id="Grupo_104" data-name="Grupo 104" transform="translate(0 -134)">
                  <path id="Trazado_138" data-name="Trazado 138" d="M1,0H16a1,1,0,0,0,1-1V-16a1,1,0,0,0-1-1H1a1,1,0,0,0-1,1V-1A1,1,0,0,0,1,0Z" fill="none" stroke="#11093b" stroke-width="2"/>
                </g>
              </g>
            </g>
          </g>
        </g>
      </g>
      <g id="Grupo_111" data-name="Grupo 111" clip-path="url(#clip-path-6)">
        <g id="Grupo_110" data-name="Grupo 110" clip-path="url(#clip-path-3)">
          <path id="Trazado_142" data-name="Trazado 142" d="M-1-133H18v-19H-1Z" fill="#11093b"/>
        </g>
      </g>
    </g>
  </g>
</svg>
