<?xml version="1.0" encoding="UTF-8"?>
<svg width="19px" height="15px" viewBox="0 0 19 15" version="1.1" xmlns="http://www.w3.org/2000/svg" xmlns:xlink="http://www.w3.org/1999/xlink">
    <title>ic_Boundaries</title>
    <g id="Page-1" stroke="none" stroke-width="1" fill="none" fill-rule="evenodd" opacity="0.600000024">
        <g id="03---Layer-Comment" transform="translate(-93.000000, -262.000000)" fill="#11093C" fill-rule="nonzero">
            <g id="Overlay---Changes" transform="translate(83.000000, 127.000000)">
                <g id="card2" transform="translate(0.000000, 127.000000)">
                    <g id="ic_Boundaries" transform="translate(10.000000, 9.000000)">
                        <path d="M18.2,1.16666667 C18.1533333,0.536666667 17.6166667,0.07 16.9866667,0.116666667 C15.3066667,0.256666667 13.2066667,0.326666667 10.71,0.326666667 C6.90666667,0.326666667 3.19666667,0.163333333 1.77333333,0.0933333333 C1.14333333,0.07 0.606666667,0.536666667 0.583333333,1.16666667 C0.49,3.31333333 0.28,8.68 0.21,12.4833333 C0.21,13.0433333 0.583333333,13.51 1.14333333,13.6266667 C2.03,13.79 3.61666667,13.86 5.90333333,13.86 C10.15,13.86 15.54,13.6033333 17.6633333,13.4866667 C18.2466667,13.4633333 18.7366667,12.9733333 18.7366667,12.3666667 C18.7366667,11.0833333 18.69,7.95666667 18.2,1.16666667 Z M17.6166667,12.7633333 C15.4933333,12.88 10.1033333,13.1366667 5.88,13.1366667 C3.64,13.1366667 2.07666667,13.0666667 1.23666667,12.9266667 C1.02666667,12.88 0.886666667,12.7166667 0.886666667,12.5066667 C0.956666667,8.72666667 1.16666667,3.36 1.26,1.21333333 C1.26,0.98 1.44666667,0.793333333 1.70333333,0.793333333 C1.70333333,0.793333333 1.70333333,0.793333333 1.70333333,0.793333333 C3.12666667,0.863333333 6.83666667,1.02666667 10.6633333,1.02666667 C13.16,1.02666667 15.2833333,0.956666667 16.9866667,0.816666667 C17.22,0.793333333 17.43,0.98 17.4533333,1.21333333 L17.99,12.3433333 C18.0133333,12.5766667 17.85,12.7633333 17.6166667,12.7633333 Z" id="Shape" stroke="#15063F" stroke-width="0.2"></path>
                        <path d="M14.8356648,6.33749671 L13.7781029,6.20374704 C13.7140083,6.20374704 13.6819609,6.17030962 13.6499136,6.10343479 L13.1692036,5.10031225 C13.105109,4.96656258 12.912825,4.96656258 12.8487303,5.10031225 L12.3680204,6.10343479 C12.3359731,6.17030962 12.3039257,6.20374704 12.2398311,6.20374704 L11.1502219,6.37093413 C10.9899852,6.40437155 10.9579379,6.57155864 11.0540799,6.70530831 L11.8232158,7.50780634 C11.8552631,7.54124375 11.8873104,7.60811859 11.8873104,7.67499343 L11.6950265,8.77842821 C11.6629791,8.9456153 11.8232158,9.04592756 11.9514051,8.97905272 L12.912825,8.44405404 C12.9769197,8.41061662 13.0410143,8.41061662 13.0730617,8.44405404 L14.0344816,8.97905272 C14.1626709,9.04592756 14.3229075,8.9456153 14.2908602,8.77842821 L14.0985762,7.67499343 C14.0985762,7.60811859 14.0985762,7.54124375 14.1626709,7.50780634 L14.9318068,6.70530831 C15.0599961,6.57155864 14.9959014,6.37093413 14.8356648,6.33749671 Z" id="Path"></path>
                    </g>
                </g>
            </g>
        </g>
    </g>
</svg>