<?xml version="1.0" encoding="UTF-8"?>
<svg width="16px" height="16px" viewBox="0 0 16 16" version="1.1" xmlns="http://www.w3.org/2000/svg" xmlns:xlink="http://www.w3.org/1999/xlink">
    <title>ic_Hydrologic</title>
    <g id="Page-1" stroke="none" stroke-width="1" fill="none" fill-rule="evenodd" opacity="0.600000024">
        <g id="03---Layer-Comment" transform="translate(-94.000000, -135.000000)" fill="#11093C" stroke="#11093C" stroke-width="0.2">
            <g id="Overlay---Changes" transform="translate(83.000000, 127.000000)">
                <g id="ic_Hydrologic" transform="translate(11.000000, 8.000000)">
                    <path d="M2.24864132,14.4864139 C1.90639777,14.4864139 1.53574859,14.5900452 1.2173913,14.6861426 C0.899034017,14.78224 0.645380452,14.8790748 0.645380452,14.8790748 C0.517808179,14.9224526 0.424125692,15.032059 0.401140843,15.1648296 C0.378155994,15.2976001 0.429541395,15.4323203 0.53510772,15.5160584 C0.640674045,15.5997965 0.783553482,15.6191727 0.907608696,15.5665739 C0.907608696,15.5665739 1.13795492,15.4792626 1.42934783,15.3913043 C1.72074073,15.3033461 2.08495805,15.2228243 2.24864132,15.2228243 C2.41232466,15.2228243 2.61298539,15.2911374 2.85461955,15.3831513 C3.09625377,15.4751791 3.37922386,15.591033 3.72146741,15.591033 C4.06371096,15.591033 4.34668104,15.4751791 4.5883152,15.3831513 C4.82994943,15.2911235 5.03061009,15.2228243 5.1942935,15.2228243 C5.35797683,15.2228243 5.55727882,15.2911374 5.79891304,15.3831513 C6.04054727,15.4751791 6.32487583,15.591033 6.6671193,15.591033 C7.00936348,15.591033 7.29233322,15.4751791 7.5339673,15.3831513 C7.77560139,15.2911235 7.97490365,15.2228243 8.13858713,15.2228243 C8.30226991,15.2228243 8.50293078,15.2911374 8.74456487,15.3831513 C8.98619965,15.4751791 9.26916939,15.591033 9.61141287,15.591033 C9.95365635,15.591033 10.2366268,15.4751791 10.4782609,15.3831513 C10.719895,15.2911235 10.9205558,15.2228243 11.0842393,15.2228243 C11.2479228,15.2228243 11.4472243,15.2911374 11.6888584,15.3831513 C11.9304925,15.4751791 12.2148216,15.591033 12.557065,15.591033 C12.8993085,15.591033 13.182279,15.4751791 13.423913,15.3831513 C13.6655471,15.2911235 13.8648494,15.2228243 14.0285329,15.2228243 C14.1922157,15.2228243 14.557792,15.3033461 14.8491847,15.3913043 C15.1405774,15.4792626 15.3709238,15.5665739 15.3709238,15.5665739 C15.495476,15.6213289 15.6400729,15.6029262 15.7469396,15.5187189 C15.8538062,15.4345116 15.905518,15.2982295 15.8814132,15.1643254 C15.8573083,15.0304213 15.7613169,14.9207281 15.6317934,14.8790748 C15.6317934,14.8790748 15.3794984,14.78224 15.0611416,14.6861426 C14.742784,14.5900452 14.3707757,14.4864139 14.0285329,14.4864139 C13.6862887,14.4864139 13.403319,14.6036243 13.1616849,14.6956522 C12.9200508,14.78768 12.7207485,14.8546226 12.557065,14.8546226 C12.3933816,14.8546226 12.1927214,14.7877009 11.9510873,14.6956522 C11.7094532,14.6036243 11.4264828,14.4864139 11.0842393,14.4864139 C10.7419958,14.4864139 10.4590254,14.6036243 10.2173913,14.6956522 C9.97575722,14.78768 9.77509635,14.8546226 9.61141287,14.8546226 C9.44772939,14.8546226 9.24842783,14.7877009 9.00679374,14.6956522 C8.76515965,14.6036243 8.48083061,14.4864139 8.13858713,14.4864139 C7.79634365,14.4864139 7.51337322,14.6036243 7.27173913,14.6956522 C7.03010504,14.78768 6.83080278,14.8546226 6.6671193,14.8546226 C6.50343583,14.8546226 6.30277565,14.7877009 6.06114129,14.6956522 C5.81950713,14.6036243 5.53653704,14.4864139 5.1942935,14.4864139 C4.85204988,14.4864139 4.56907986,14.6036243 4.32744563,14.6956522 C4.08581148,14.78768 3.88515075,14.8546226 3.72146741,14.8546226 C3.55778407,14.8546226 3.35848202,14.7877009 3.11684786,14.6956522 C2.87521363,14.6036243 2.59088487,14.4864139 2.24864132,14.4864139 L2.24864132,14.4864139 Z" id="Path" fill-rule="nonzero"></path>
                    <path d="M2.24864132,12.2785322 C1.90639777,12.2785322 1.53574859,12.3821635 1.2173913,12.4782609 C0.899034017,12.5743583 0.645380452,12.6698365 0.645380452,12.6698365 C0.455158216,12.7422489 0.359654418,12.9551562 0.432066748,13.1453785 C0.504479078,13.3356007 0.71738646,13.4311045 0.907608696,13.3586922 C0.907608696,13.3586922 1.13795492,13.2713809 1.42934783,13.1834226 C1.72074073,13.0954643 2.08495805,13.0149426 2.24864132,13.0149426 C2.41232466,13.0149426 2.61298539,13.0818643 2.85461955,13.173913 C3.09625377,13.2659409 3.37922386,13.3831513 3.72146741,13.3831513 C4.06371096,13.3831513 4.34668104,13.2659409 4.5883152,13.173913 C4.82994943,13.0818852 5.03061009,13.0149426 5.1942935,13.0149426 C5.35797683,13.0149426 5.55727882,13.0818643 5.79891304,13.173913 C6.04054727,13.2659409 6.32487583,13.3831513 6.6671193,13.3831513 C7.00936348,13.3831513 7.29233322,13.2659409 7.5339673,13.173913 C7.77560139,13.0818852 7.97490365,13.0149426 8.13858713,13.0149426 C8.30226991,13.0149426 8.50293078,13.0818643 8.74456487,13.173913 C8.98619965,13.2659409 9.26916939,13.3831513 9.61141287,13.3831513 C9.95365635,13.3831513 10.2366268,13.2659409 10.4782609,13.173913 C10.719895,13.0818852 10.9205558,13.0149426 11.0842393,13.0149426 C11.2479228,13.0149426 11.4472243,13.0818643 11.6888584,13.173913 C11.9304925,13.2659409 12.2148216,13.3831513 12.557065,13.3831513 C12.8993085,13.3831513 13.182279,13.2659409 13.423913,13.173913 C13.6655471,13.0818852 13.8648494,13.0149426 14.0285329,13.0149426 C14.1922157,13.0149426 14.557792,13.0954643 14.8491847,13.1834226 C15.1405774,13.2713809 15.3709238,13.3586922 15.3709238,13.3586922 C15.493976,13.405292 15.6325417,13.3827045 15.7344245,13.2994381 C15.8363072,13.2161717 15.8860287,13.0848765 15.8648592,12.9550103 C15.8436898,12.825144 15.7548456,12.7164364 15.6317934,12.6698365 C15.6317934,12.6698365 15.3794984,12.5743583 15.0611416,12.4782609 C14.742784,12.3821635 14.3707757,12.2785322 14.0285329,12.2785322 C13.6862887,12.2785322 13.403319,12.3943861 13.1616849,12.4864139 C12.9200508,12.5784417 12.7207485,12.6467409 12.557065,12.6467409 C12.3933816,12.6467409 12.1927214,12.5784278 11.9510873,12.4864139 C11.7094532,12.3943861 11.4264828,12.2785322 11.0842393,12.2785322 C10.7419958,12.2785322 10.4590254,12.3943861 10.2173913,12.4864139 C9.97575722,12.5784417 9.77509635,12.6467409 9.61141287,12.6467409 C9.44772939,12.6467409 9.24842783,12.5784278 9.00679374,12.4864139 C8.76515965,12.3943861 8.48083061,12.2785322 8.13858713,12.2785322 C7.79634365,12.2785322 7.51337322,12.3943861 7.27173913,12.4864139 C7.03010504,12.5784417 6.83080278,12.6467409 6.6671193,12.6467409 C6.50343583,12.6467409 6.30277565,12.5784278 6.06114129,12.4864139 C5.81950713,12.3943861 5.53653704,12.2785322 5.1942935,12.2785322 C4.85204988,12.2785322 4.56907986,12.3943861 4.32744563,12.4864139 C4.08581148,12.5784417 3.88515075,12.6467409 3.72146741,12.6467409 C3.55778407,12.6467409 3.35848202,12.5784278 3.11684786,12.4864139 C2.87521363,12.3943861 2.59088487,12.2785322 2.24864132,12.2785322 L2.24864132,12.2785322 Z" id="Path" fill-rule="nonzero"></path>
                    <path d="M8.12092383,0.130434783 C7.99516274,0.136814331 7.88138617,0.207028249 7.81929322,0.316577391 C7.10187896,1.5720487 6.18984056,2.71047652 5.44157607,3.80842435 C4.69331165,4.90637217 4.08967388,5.97516522 4.08967388,7.12500174 C4.08967388,9.35699478 5.90659325,11.173913 8.13858713,11.173913 C10.3705809,11.173913 12.1888584,9.35699478 12.1888584,7.12500174 C12.1888584,5.97516522 11.5838623,4.90637217 10.8355979,3.80842435 C10.0873336,2.71047652 9.17665322,1.5720487 8.45923896,0.316577391 C8.39066583,0.195621862 8.25979802,0.123617765 8.12092383,0.130434783 L8.12092383,0.130434783 Z M8.13858643,1.15081739 C8.82770296,2.26023652 9.60013635,3.30116174 10.2282602,4.22282435 C10.9524591,5.28546087 11.4524452,6.24178087 11.4524452,7.12500174 C11.4524452,8.95910957 9.97269078,10.4375026 8.13858643,10.4375026 C6.30448139,10.4375026 4.82608626,8.95910957 4.82608626,7.12500174 C4.82608626,6.24178087 5.32607179,5.28546087 6.05027103,4.22282435 C6.67826574,3.30135652 7.44957287,2.25995826 8.13858643,1.15081739 L8.13858643,1.15081739 Z" id="Shape"></path>
                    <path d="M12.1888584,0.130434783 C11.38,0.130434783 10.7160327,0.7944 10.7160327,1.60326261 C10.7160327,2.41211826 11.38,3.07472696 12.1888584,3.07472696 C12.9977176,3.07472696 13.6603263,2.41211826 13.6603263,1.60326261 C13.6603263,0.7944 12.9977176,0.130434783 12.1888584,0.130434783 Z M12.1888584,0.866845217 C12.5998282,0.866845217 12.9252717,1.19229217 12.9252717,1.60326261 C12.9252717,2.01423304 12.5998282,2.33967304 12.1888584,2.33967304 C11.7778887,2.33967304 11.4524459,2.01423304 11.4524459,1.60326261 C11.4524459,1.19229217 11.7778887,0.866845217 12.1888584,0.866845217 Z" id="Shape"></path>
                    <path d="M5.6942935,6.75136 C5.59663097,6.75277659 5.50353413,6.7929443 5.4354959,6.86302121 C5.36745766,6.93309812 5.33005521,7.02733995 5.33152174,7.12500174 C5.3315207,8.68114087 6.58244104,9.93206261 8.13858713,9.93206261 C8.27013421,9.93206261 8.39168875,9.86188314 8.45746231,9.74796004 C8.52323586,9.63403693 8.52323586,9.49367786 8.45746231,9.37975475 C8.39168875,9.26583164 8.27013421,9.19565213 8.13858713,9.19565217 C6.9704007,9.19565217 6.06793398,8.29318261 6.06793475,7.12500174 C6.06943035,7.02545491 6.03054515,6.9295463 5.96014702,6.85914807 C5.88974889,6.78874985 5.79384032,6.74986453 5.6942935,6.75136 L5.6942935,6.75136 Z" id="Path"></path>
                </g>
            </g>
        </g>
    </g>
</svg>