<svg xmlns="http://www.w3.org/2000/svg" xmlns:xlink="http://www.w3.org/1999/xlink" width="16.311" height="16.172" viewBox="0 0 16.311 16.172">
  <defs>
    <clipPath id="clip-path">
      <path id="Trazado_27" data-name="Trazado 27" d="M126.033-22.866a.424.424,0,0,1,0,.6.416.416,0,0,1-.6,0l-3.066-3.06v10.11a.426.426,0,0,1-.423.429.431.431,0,0,1-.429-.429v-10.11l-3.059,3.06a.424.424,0,0,1-.6,0,.423.423,0,0,1,0-.6l3.791-3.791a.434.434,0,0,1,.6,0Z" fill="none"/>
    </clipPath>
  </defs>
  <g id="Grupo_366" data-name="Grupo 366" transform="translate(12179.6 1692.017)">
    <g id="Grupo_18" data-name="Grupo 18" transform="translate(-12293.444 -1665)" clip-path="url(#clip-path)">
      <path id="Trazado_26" data-name="Trazado 26" d="M112.725-9.781H131.16v-22H112.725Z" fill="#241862"/>
    </g>
    <g id="Grupo_19" data-name="Grupo 19" transform="translate(-12175.719 -1679.781)">
      <path id="Trazado_28" data-name="Trazado 28" d="M8.307-8.084a.424.424,0,0,1,0,.6.416.416,0,0,1-.6,0l-3.066-3.06V-.429A.426.426,0,0,1,4.22,0a.431.431,0,0,1-.429-.429v-10.11L.731-7.48a.424.424,0,0,1-.6,0,.424.424,0,0,1,0-.6l3.791-3.791a.434.434,0,0,1,.6,0Z" fill="none" stroke="#241862" stroke-width="0.4"/>
    </g>
    <g id="Grupo_20" data-name="Grupo 20" transform="translate(-12179.444 -1676.889)">
      <path id="Trazado_29" data-name="Trazado 29" d="M.444.444H15.556" fill="none" stroke="#241862" stroke-linecap="round" stroke-width="1.2"/>
    </g>
  </g>
</svg>
