<?xml version="1.0" encoding="utf-8"?>
<!-- Generator: Adobe Illustrator 24.0.0, SVG Export Plug-In . SVG Version: 6.00 Build 0)  -->
<svg version="1.1" id="Capa_1" xmlns="http://www.w3.org/2000/svg" xmlns:xlink="http://www.w3.org/1999/xlink" x="0px" y="0px"
	 viewBox="0 0 16 16" style="enable-background:new 0 0 16 16;" xml:space="preserve">
<style type="text/css">
	.st0{fill:#251863;}
</style>
<title>ic_filter</title>
<g id="Symbols">
	<g id="_x2D_Card1-2ROW" transform="translate(-371.000000, -76.000000)">
		<g id="card_sub-header1" transform="translate(38.000000, 59.000000)">
			<g id="ic_filter" transform="translate(333.000000, 17.000000)">
				<path id="Shape" class="st0" d="M0.7,3.5h2.1c0.3,1.2,1.3,2,2.5,2s2.2-0.8,2.5-2h7.4c0.4,0,0.7-0.3,0.7-0.7s-0.3-0.7-0.7-0.7
					H7.8c-0.3-1.2-1.3-2-2.5-2S3,1,2.7,2.1H0.7C0.3,2.1,0,2.4,0,2.8S0.3,3.5,0.7,3.5L0.7,3.5z M5.3,1.5c0.7,0,1.3,0.6,1.3,1.3
					S6,4.1,5.3,4.1S4,3.5,4,2.8S4.5,1.5,5.3,1.5z"/>
				<path id="Shape_1_" class="st0" d="M0.7,8.7H8c0.3,1.2,1.3,2,2.5,2s2.2-0.8,2.5-2h2.1c0.4,0,0.7-0.3,0.7-0.7s-0.3-0.7-0.7-0.7
					h-2.1c-0.3-1.2-1.3-2-2.5-2S8.3,6.3,8,7.4H0.7C0.3,7.4,0,7.7,0,8.1S0.3,8.7,0.7,8.7L0.7,8.7z M10.6,6.8c0.7,0,1.3,0.6,1.3,1.3
					s-0.6,1.3-1.3,1.3c-0.7,0-1.3-0.6-1.3-1.3S9.8,6.8,10.6,6.8z"/>
				<path id="Shape_2_" class="st0" d="M0.7,14h2.1c0.3,1.2,1.3,2,2.5,2s2.2-0.8,2.5-2h7.4c0.4,0,0.7-0.3,0.7-0.7s-0.3-0.7-0.7-0.7
					H7.8c-0.3-1.2-1.3-2-2.5-2s-2.2,0.8-2.5,2H0.7C0.3,12.7,0,13,0,13.4S0.3,14,0.7,14z M5.3,12c0.7,0,1.3,0.6,1.3,1.3
					S6,14.7,5.3,14.7S4,14.1,4,13.4S4.5,12,5.3,12z"/>
			</g>
		</g>
	</g>
</g>
</svg>
