<svg xmlns="http://www.w3.org/2000/svg" xmlns:xlink="http://www.w3.org/1999/xlink" width="86" height="64" viewBox="0 0 86 64">
  <defs>
    <clipPath id="clip-path">
      <rect id="Rectángulo_11" data-name="Rectángulo 11" width="86" height="64" transform="translate(771 -486)" fill="#fff"/>
    </clipPath>
    <clipPath id="clip-path-2">
      <path id="Trazado_187" data-name="Trazado 187" d="M775.068-454.12H784.9l7.143,3.54v25.073H772.669v2.667h82.667v-2.667h-5.467a9.226,9.226,0,0,0,6.8-8.889,9.218,9.218,0,0,0-9.208-9.208,9.185,9.185,0,0,0-2.443.33l-6.362-6.361,8.87-13.209a3.716,3.716,0,0,0,3.546-3.7,3.725,3.725,0,0,0-3.721-3.72h-2.536a7.344,7.344,0,0,0,1.089-4.671,7.323,7.323,0,0,0-5.764-6.382c-2.487-.5-3.617.707-6.536-1.637a7.182,7.182,0,0,0-8.115-.521,4.845,4.845,0,0,1-2.934.832c-2.424-.245-3.229,1.149-4.616.056a5.392,5.392,0,0,0-7.573.973,2.578,2.578,0,0,1-2.064,1.078,6.222,6.222,0,0,0-5.035,1.86c-2.278,2.321-3.851,2.1-5.224,2.633a6.236,6.236,0,0,0-3.775,5.009,6.412,6.412,0,0,0-.016.771h-1.42a3.731,3.731,0,0,0-3.733,3.72,3.727,3.727,0,0,0,2.947,3.633v3.509l-4.827-2.184H775.068a3.739,3.739,0,0,0-3.734,3.734A3.739,3.739,0,0,0,775.068-454.12Zm19.642,28.613V-436h14.6l-10.716,10.493Zm0-13.164v-3.588h35.78l-2.409,3.588Zm18.414,2.667H829.5l4.3-6.406,4.972,4.972a8.928,8.928,0,0,0-.535,3.042,9.229,9.229,0,0,0,6.807,8.889H802.4Zm34.335-4.934A6.549,6.549,0,0,1,854-434.4a6.555,6.555,0,0,1-6.542,6.554,6.561,6.561,0,0,1-6.553-6.554A6.559,6.559,0,0,1,847.458-440.939Zm-5.046-1.168a9.719,9.719,0,0,0-2.337,2.2l-4.755-4.755,1.819-2.718Zm-10.133-2.82H794.71V-456.57H840.1Zm9.607-14.31H794.71v-3.588H844.3ZM799.849-473.8a10.2,10.2,0,0,0,5.324-3.022,3.579,3.579,0,0,1,2.88-1.066,5.078,5.078,0,0,0,4.423-2.106,2.806,2.806,0,0,1,3.82-.5c2.494,1.965,4.549.339,6,.494a7.369,7.369,0,0,0,4.583-1.214c4.354-2.644,5.692,3.01,11.21,2.425a4.667,4.667,0,0,1,3.111,8.514H796.887A3.542,3.542,0,0,1,799.849-473.8Zm-8.086,7.249a1.061,1.061,0,0,1,1.066-1.053h54.52a1.055,1.055,0,0,1,1.055,1.053,1.055,1.055,0,0,1-1.055,1.053h-54.52A1.061,1.061,0,0,1,791.763-466.547Zm-10.56,7.625h5.438l5.4,2.444v2.921l-6.518-3.23H781.2Zm-6.135,0H781.2v2.135h-6.135A1.069,1.069,0,0,1,774-457.855,1.069,1.069,0,0,1,775.068-458.922Z" fill="#fff"/>
    </clipPath>
    <clipPath id="clip-path-3">
      <path id="Trazado_186" data-name="Trazado 186" d="M771-422h87v-64H771Z" fill="#fff"/>
    </clipPath>
    <clipPath id="clip-path-4">
      <path id="Trazado_190" data-name="Trazado 190" d="M847.458-429.978a4.419,4.419,0,0,0,4.408-4.419,4.412,4.412,0,0,0-4.408-4.406,4.417,4.417,0,0,0-4.418,4.406A4.423,4.423,0,0,0,847.458-429.978Zm0-6.158a1.742,1.742,0,0,1,1.741,1.74,1.748,1.748,0,0,1-1.741,1.752,1.753,1.753,0,0,1-1.751-1.752A1.747,1.747,0,0,1,847.458-436.137Z" fill="#fff"/>
    </clipPath>
  </defs>
  <g id="Grupo_245" data-name="Grupo 245" transform="translate(-771 486)" style="isolation: isolate">
    <g id="Grupo_178" data-name="Grupo 178" clip-path="url(#clip-path)">
      <g id="Grupo_175" data-name="Grupo 175" clip-path="url(#clip-path-2)">
        <g id="Grupo_174" data-name="Grupo 174" clip-path="url(#clip-path-3)">
          <path id="Trazado_185" data-name="Trazado 185" d="M766.333-489.492h95.333v71.651H766.333Z" fill="#fff"/>
        </g>
      </g>
      <g id="Grupo_177" data-name="Grupo 177" clip-path="url(#clip-path-4)">
        <g id="Grupo_176" data-name="Grupo 176" clip-path="url(#clip-path-3)">
          <path id="Trazado_188" data-name="Trazado 188" d="M838.04-443.8h18.826v18.825H838.04Z" fill="#fff"/>
        </g>
      </g>
    </g>
  </g>
</svg>
