<svg xmlns="http://www.w3.org/2000/svg" xmlns:xlink="http://www.w3.org/1999/xlink" width="60" height="60" viewBox="0 0 60 60">
  <defs>
    <clipPath id="clip-path">
      <path id="Trazado_301" data-name="Trazado 301" d="M0-250a30,30,0,0,1,30-30h0a30,30,0,0,1,30,30h0a30,30,0,0,1-30,30h0A30,30,0,0,1,0-250Z" fill="none" clip-rule="evenodd"/>
    </clipPath>
    <clipPath id="clip-path-2">
      <rect id="Rectángulo_17" data-name="Rectángulo 17" width="70" height="70" transform="translate(-5 -285)" fill="none"/>
    </clipPath>
    <clipPath id="clip-path-3">
      <path id="Trazado_300" data-name="Trazado 300" d="M0-220H60v-60H0Z" fill="none"/>
    </clipPath>
  </defs>
  <g id="Grupo_385" data-name="Grupo 385" transform="translate(12753 1383)">
    <g id="Grupo_271" data-name="Grupo 271" transform="translate(-12753 -1103)" clip-path="url(#clip-path)">
      <g id="Grupo_270" data-name="Grupo 270" style="isolation: isolate">
        <g id="Grupo_269" data-name="Grupo 269" clip-path="url(#clip-path-2)">
          <g id="Grupo_268" data-name="Grupo 268" clip-path="url(#clip-path-3)">
            <path id="Trazado_297" data-name="Trazado 297" d="M-5-285H65v70H-5Z" fill="#fd0"/>
            <g id="Grupo_266" data-name="Grupo 266" transform="translate(19 -246)">
              <path id="Trazado_298" data-name="Trazado 298" d="M21.333,8V5.333A5.333,5.333,0,0,0,16,0H5.333A5.333,5.333,0,0,0,0,5.333V8" fill="none" stroke="#241862" stroke-linecap="round" stroke-linejoin="round" stroke-width="1.5"/>
            </g>
            <g id="Grupo_267" data-name="Grupo 267" transform="translate(24.333 -262)">
              <path id="Trazado_299" data-name="Trazado 299" d="M5.333,10.667A5.333,5.333,0,1,0,0,5.333,5.333,5.333,0,0,0,5.333,10.667Z" fill="none" stroke="#241862" stroke-linecap="round" stroke-linejoin="round" stroke-width="1.5"/>
            </g>
          </g>
        </g>
      </g>
    </g>
    <g id="Grupo_277" data-name="Grupo 277" transform="translate(-12753 -1103)" clip-path="url(#clip-path)">
      <g id="Grupo_276" data-name="Grupo 276" style="isolation: isolate">
        <g id="Grupo_275" data-name="Grupo 275" clip-path="url(#clip-path-2)">
          <g id="Grupo_274" data-name="Grupo 274" clip-path="url(#clip-path-3)">
            <path id="Trazado_302" data-name="Trazado 302" d="M-5-285H65v70H-5Z" fill="#443a78"/>
            <g id="Grupo_272" data-name="Grupo 272" transform="translate(19 -246)">
              <path id="Trazado_303" data-name="Trazado 303" d="M21.333,8V5.333A5.333,5.333,0,0,0,16,0H5.333A5.333,5.333,0,0,0,0,5.333V8" fill="none" stroke="#fff" stroke-linecap="round" stroke-linejoin="round" stroke-width="1.5"/>
            </g>
            <g id="Grupo_273" data-name="Grupo 273" transform="translate(24.333 -262)">
              <path id="Trazado_304" data-name="Trazado 304" d="M5.333,10.667A5.333,5.333,0,1,0,0,5.333,5.333,5.333,0,0,0,5.333,10.667Z" fill="none" stroke="#fff" stroke-linecap="round" stroke-linejoin="round" stroke-width="1.5"/>
            </g>
          </g>
        </g>
      </g>
    </g>
  </g>
</svg>
