<svg width="18" height="18" viewBox="0 0 18 18" fill="none" xmlns="http://www.w3.org/2000/svg">
<path d="M4.90937 13.1937C4.74023 13.0245 4.74023 12.7582 4.90937 12.5891C5.0728 12.4199 5.3448 12.4199 5.50784 12.5891L8.57337 15.6489V5.5388C8.57337 5.303 8.7608 5.10947 8.99661 5.10947C9.23242 5.10947 9.42594 5.303 9.42594 5.5388L9.42594 15.6489L12.4854 12.5891C12.6545 12.4199 12.9269 12.4199 13.0899 12.5891C13.2591 12.7582 13.2591 13.0245 13.0899 13.1937L9.2987 16.9849C9.13527 17.1483 8.86327 17.1483 8.69413 16.9849L4.90937 13.1937Z" fill="#251863" stroke="#251863" stroke-width="0.571429"/>
<path d="M16.5556 1.66503L1.44444 1.66503" stroke="#251863" stroke-width="1.37143" stroke-linecap="round"/>
</svg>
