<svg xmlns="http://www.w3.org/2000/svg" xmlns:xlink="http://www.w3.org/1999/xlink" width="72" height="73" viewBox="0 0 72 73">
  <defs>
    <clipPath id="clip-path">
      <rect id="Rectángulo_14" data-name="Rectángulo 14" width="72" height="73" transform="translate(445 -185)" fill="none"/>
    </clipPath>
    <clipPath id="clip-path-2">
      <path id="Trazado_292" data-name="Trazado 292" d="M503.255-158.643v20.329a1.882,1.882,0,0,1-1.882,1.882,1.882,1.882,0,0,1-1.882-1.882V-161.6l-18.823-14.79L461.843-161.6v16.7a1.882,1.882,0,0,1-1.882,1.882,1.882,1.882,0,0,1-1.882-1.882v-13.741l-2.6,2.044a1.882,1.882,0,0,1-2.643-.317,1.882,1.882,0,0,1,.317-2.643l4.928-3.872v-15.354a1.882,1.882,0,0,1,1.882-1.882h9.412a1.882,1.882,0,0,1,1.882,1.882v5l8.249-6.481a1.882,1.882,0,0,1,2.326,0l26.353,20.706a1.882,1.882,0,0,1,.317,2.643,1.882,1.882,0,0,1-2.643.317Zm-41.411-7.746,5.647-4.437V-176.9h-5.647Zm-10.408,45.736a1.882,1.882,0,0,1-2.547-.775,1.882,1.882,0,0,1,.775-2.547c9.952-5.308,20.615-5.308,31.8-.042,10.144,4.774,19.559,4.774,28.43.042a1.882,1.882,0,0,1,2.547.775,1.883,1.883,0,0,1-.775,2.547c-9.952,5.308-20.616,5.308-31.8.042C469.721-125.384,460.306-125.384,451.435-120.653Zm0-11.294a1.882,1.882,0,0,1-2.547-.775,1.882,1.882,0,0,1,.775-2.547c9.952-5.308,20.615-5.308,31.8-.042,10.144,4.774,19.559,4.774,28.43.042a1.882,1.882,0,0,1,2.547.775,1.882,1.882,0,0,1-.775,2.547c-9.952,5.308-20.616,5.308-31.8.042C469.721-136.678,460.306-136.678,451.435-131.947Z" fill="none"/>
    </clipPath>
    <clipPath id="clip-path-3">
      <path id="Trazado_291" data-name="Trazado 291" d="M447-116h66v-66H447Z" fill="none"/>
    </clipPath>
  </defs>
  <g id="Grupo_284" data-name="Grupo 284" transform="translate(-445 185)" opacity="0.6" style="isolation: isolate">
    <g id="Grupo_283" data-name="Grupo 283" clip-path="url(#clip-path)">
      <g id="Grupo_280" data-name="Grupo 280" clip-path="url(#clip-path-2)">
        <g id="Grupo_279" data-name="Grupo 279" clip-path="url(#clip-path-3)">
          <path id="Trazado_290" data-name="Trazado 290" d="M443.667-185.667h74v74h-74Z" fill="#241862"/>
        </g>
      </g>
      <g id="Grupo_282" data-name="Grupo 282" clip-path="url(#clip-path-3)">
        <g id="Grupo_281" data-name="Grupo 281" transform="translate(448.667 -180.667)">
          <path id="Trazado_293" data-name="Trazado 293" d="M54.588,22.024V42.353a1.882,1.882,0,1,1-3.765,0V19.066L32,4.276,13.177,19.066v16.7a1.882,1.882,0,1,1-3.765,0V22.024l-2.6,2.044a1.882,1.882,0,0,1-2.326-2.96l4.928-3.872V1.882A1.882,1.882,0,0,1,11.294,0h9.412a1.882,1.882,0,0,1,1.882,1.882v5L30.837.4a1.882,1.882,0,0,1,2.326,0L59.516,21.108a1.882,1.882,0,0,1-2.326,2.96ZM13.177,14.278l5.647-4.437V3.765H13.177ZM2.769,60.014A1.882,1.882,0,0,1,1,56.692c9.952-5.308,20.615-5.308,31.8-.042,10.144,4.774,19.559,4.774,28.43.042A1.882,1.882,0,0,1,63,60.014c-9.952,5.308-20.615,5.308-31.8.042C21.055,55.282,11.64,55.282,2.769,60.014Zm0-11.294A1.882,1.882,0,0,1,1,45.4c9.952-5.308,20.615-5.308,31.8-.042,10.144,4.774,19.559,4.774,28.43.042A1.882,1.882,0,0,1,63,48.72c-9.952,5.308-20.615,5.308-31.8.042C21.055,43.988,11.64,43.988,2.769,48.72Z" fill="none" stroke="#fff" stroke-width="0.667"/>
        </g>
      </g>
    </g>
  </g>
</svg>
