<?xml version="1.0" encoding="utf-8"?>
<!-- Generator: Adobe Illustrator 24.0.0, SVG Export Plug-In . SVG Version: 6.00 Build 0)  -->
<svg version="1.1" id="Capa_1" xmlns="http://www.w3.org/2000/svg" xmlns:xlink="http://www.w3.org/1999/xlink" x="0px" y="0px"
	 viewBox="0 0 46.9 49.5" style="enable-background:new 0 0 46.9 49.5;" xml:space="preserve">
<g>
	<g>
		<path d="M14.1,38.7l-2.9,2.9V2.5c0-1.2-1-2.2-2.2-2.2s-2.2,1-2.2,2.2v39.1l-2.9-2.9c-0.9-0.9-2.3-0.9-3.1,0
			c-0.9,0.9-0.9,2.3,0,3.1l6.7,6.7c0.4,0.4,1,0.7,1.6,0.7c0.6,0,1.1-0.2,1.6-0.7l6.7-6.7c0.9-0.9,0.9-2.3,0-3.1
			C16.4,37.9,15,37.9,14.1,38.7z"/>
		<path d="M33.5,29.2H22.3c-1.2,0-2.2,1-2.2,2.2c0,1.2,1,2.2,2.2,2.2h11.1c1.2,0,2.2-1,2.2-2.2C35.7,30.2,34.7,29.2,33.5,29.2z"/>
		<path d="M37.9,18.1H22.3c-1.2,0-2.2,1-2.2,2.2c0,1.2,1,2.2,2.2,2.2h15.6c1.2,0,2.2-1,2.2-2.2C40.1,19.1,39.1,18.1,37.9,18.1z"/>
		<path d="M44.6,7H22.3c-1.2,0-2.2,1-2.2,2.2s1,2.2,2.2,2.2h22.2c1.2,0,2.2-1,2.2-2.2S45.8,7,44.6,7z"/>
	</g>
</g>
</svg>
