<svg xmlns="http://www.w3.org/2000/svg" xmlns:xlink="http://www.w3.org/1999/xlink" width="14.075" height="18.013" viewBox="0 0 14.075 18.013">
  <defs>
    <clipPath id="clip-path">
      <path id="Trazado_2" data-name="Trazado 2" d="M13.75-15.812H12.363v1.181h1.331V-2.275H2.162V-14.631H3.438v-1.181H2.125A1.128,1.128,0,0,0,1-14.687V-2.219A1.128,1.128,0,0,0,2.125-1.094H13.75a1.128,1.128,0,0,0,1.125-1.125V-14.687A1.128,1.128,0,0,0,13.75-15.812Z" fill="none"/>
    </clipPath>
    <clipPath id="clip-path-2">
      <path id="Trazado_5" data-name="Trazado 5" d="M4.75-10.225a.267.267,0,0,0,.225.113h0a.311.311,0,0,0,.225-.094l1.519-1.762a.314.314,0,0,0-.019-.413l-.206-.206a.294.294,0,0,0-.412,0L4.975-11.481l-.487-.488a.314.314,0,0,0-.413.019l-.206.206a.29.29,0,0,0-.019.394Z" fill="none"/>
    </clipPath>
    <clipPath id="clip-path-3">
      <path id="Trazado_8" data-name="Trazado 8" d="M7.713-11.462v.544a.248.248,0,0,0,.244.244h3.919a.248.248,0,0,0,.244-.244v-.544a.248.248,0,0,0-.244-.244H7.956A.248.248,0,0,0,7.713-11.462Z" fill="none"/>
    </clipPath>
    <clipPath id="clip-path-4">
      <path id="Trazado_11" data-name="Trazado 11" d="M4.731-7.187h0a.267.267,0,0,0,.225.113h0a.267.267,0,0,0,.225-.113l1.556-1.8A.314.314,0,0,0,6.719-9.4l-.206-.206a.318.318,0,0,0-.431,0L4.938-8.462,4.45-8.95a.318.318,0,0,0-.431,0l-.206.206a.29.29,0,0,0-.019.394Z" fill="none"/>
    </clipPath>
    <clipPath id="clip-path-5">
      <path id="Trazado_14" data-name="Trazado 14" d="M12.119-8.444a.248.248,0,0,0-.244-.244H7.956a.248.248,0,0,0-.244.244V-7.9a.248.248,0,0,0,.244.244h3.919a.248.248,0,0,0,.244-.244Z" fill="none"/>
    </clipPath>
    <clipPath id="clip-path-6">
      <path id="Trazado_17" data-name="Trazado 17" d="M4.731-4.169h0a.267.267,0,0,0,.225.112h0a.267.267,0,0,0,.225-.112l1.556-1.8a.314.314,0,0,0-.019-.412l-.206-.206a.318.318,0,0,0-.431,0L4.938-5.444,4.45-5.931a.317.317,0,0,0-.431,0l-.206.206a.29.29,0,0,0-.019.394Z" fill="none"/>
    </clipPath>
    <clipPath id="clip-path-7">
      <path id="Trazado_20" data-name="Trazado 20" d="M11.875-5.669H7.956a.248.248,0,0,0-.244.244v.544a.248.248,0,0,0,.244.244h3.919a.248.248,0,0,0,.244-.244v-.544A.248.248,0,0,0,11.875-5.669Z" fill="none"/>
    </clipPath>
    <clipPath id="clip-path-8">
      <path id="Trazado_23" data-name="Trazado 23" d="M4.75-14.219h6.281a.456.456,0,0,0,.45-.45V-16.45a.456.456,0,0,0-.45-.45H10a2.1,2.1,0,0,0-2.1-2.006A2.116,2.116,0,0,0,5.8-16.9H4.75a.456.456,0,0,0-.45.45v1.781A.469.469,0,0,0,4.75-14.219ZM7.9-17.594a.8.8,0,0,1,.806.806.8.8,0,0,1-.806.806.8.8,0,0,1-.806-.806A.8.8,0,0,1,7.9-17.594Z" fill="none"/>
    </clipPath>
  </defs>
  <g id="Grupo_17" data-name="Grupo 17" transform="translate(-0.9 19.006)">
    <g id="Grupo_1" data-name="Grupo 1" clip-path="url(#clip-path)">
      <path id="Trazado_1" data-name="Trazado 1" d="M-4-20.812H19.875V3.906H-4Z" fill="#241862"/>
    </g>
    <g id="Grupo_2" data-name="Grupo 2" transform="translate(1 -15.813)">
      <path id="Trazado_3" data-name="Trazado 3" d="M12.75,0H11.363V1.181h1.331V13.538H1.163V1.181H2.438V0H1.125A1.128,1.128,0,0,0,0,1.125V13.594a1.128,1.128,0,0,0,1.125,1.125H12.75a1.128,1.128,0,0,0,1.125-1.125V1.125A1.128,1.128,0,0,0,12.75,0Z" fill="none" stroke="#f4f7ff" stroke-width="0.2"/>
    </g>
    <g id="Grupo_3" data-name="Grupo 3" clip-path="url(#clip-path-2)">
      <path id="Trazado_4" data-name="Trazado 4" d="M-1.218-17.672H11.787V-5.113H-1.218Z" fill="#241862"/>
    </g>
    <g id="Grupo_4" data-name="Grupo 4" transform="translate(3.782 -12.672)">
      <path id="Trazado_6" data-name="Trazado 6" d="M.968,2.447a.267.267,0,0,0,.225.112h0a.311.311,0,0,0,.225-.094L2.937.7A.314.314,0,0,0,2.918.291L2.712.084a.294.294,0,0,0-.412,0L1.193,1.191.706.7A.314.314,0,0,0,.293.722L.087.928a.29.29,0,0,0-.019.394Z" fill="none" stroke="#f4f7ff" stroke-width="0.2"/>
    </g>
    <g id="Grupo_5" data-name="Grupo 5" clip-path="url(#clip-path-3)">
      <path id="Trazado_7" data-name="Trazado 7" d="M2.713-16.706H17.119V-5.675H2.713Z" fill="#241862"/>
    </g>
    <g id="Grupo_6" data-name="Grupo 6" transform="translate(7.713 -11.706)">
      <path id="Trazado_9" data-name="Trazado 9" d="M0,.244V.788a.248.248,0,0,0,.244.244H4.162A.248.248,0,0,0,4.406.788V.244A.248.248,0,0,0,4.162,0H.244A.248.248,0,0,0,0,.244Z" fill="none" stroke="#f4f7ff" stroke-width="0.2"/>
    </g>
    <g id="Grupo_7" data-name="Grupo 7" clip-path="url(#clip-path-4)">
      <path id="Trazado_10" data-name="Trazado 10" d="M-1.274-14.691h13.08V-2.075H-1.274Z" fill="#241862"/>
    </g>
    <g id="Grupo_8" data-name="Grupo 8" transform="translate(3.726 -9.691)">
      <path id="Trazado_12" data-name="Trazado 12" d="M1.006,2.5h0a.267.267,0,0,0,.225.112h0A.267.267,0,0,0,1.456,2.5L3.012.7A.314.314,0,0,0,2.993.291L2.787.084a.318.318,0,0,0-.431,0L1.212,1.228.724.741a.318.318,0,0,0-.431,0L.087.947a.29.29,0,0,0-.019.394Z" fill="none" stroke="#f4f7ff" stroke-width="0.2"/>
    </g>
    <g id="Grupo_9" data-name="Grupo 9" clip-path="url(#clip-path-5)">
      <path id="Trazado_13" data-name="Trazado 13" d="M2.713-13.687H17.119V-2.656H2.713Z" fill="#241862"/>
    </g>
    <g id="Grupo_10" data-name="Grupo 10" transform="translate(7.713 -8.688)">
      <path id="Trazado_15" data-name="Trazado 15" d="M4.406.244A.248.248,0,0,0,4.162,0H.244A.248.248,0,0,0,0,.244V.788a.248.248,0,0,0,.244.244H4.162A.248.248,0,0,0,4.406.788Z" fill="none" stroke="#f4f7ff" stroke-width="0.2"/>
    </g>
    <g id="Grupo_11" data-name="Grupo 11" clip-path="url(#clip-path-6)">
      <path id="Trazado_16" data-name="Trazado 16" d="M-1.274-11.672h13.08V.944H-1.274Z" fill="#241862"/>
    </g>
    <g id="Grupo_12" data-name="Grupo 12" transform="translate(3.726 -6.672)">
      <path id="Trazado_18" data-name="Trazado 18" d="M1.006,2.5h0a.267.267,0,0,0,.225.112h0A.267.267,0,0,0,1.456,2.5L3.012.7A.314.314,0,0,0,2.993.291L2.787.084a.318.318,0,0,0-.431,0L1.212,1.228.724.741a.317.317,0,0,0-.431,0L.087.947a.29.29,0,0,0-.019.394Z" fill="none" stroke="#f4f7ff" stroke-width="0.2"/>
    </g>
    <g id="Grupo_13" data-name="Grupo 13" clip-path="url(#clip-path-7)">
      <path id="Trazado_19" data-name="Trazado 19" d="M2.713-10.669H17.119V.363H2.713Z" fill="#241862"/>
    </g>
    <g id="Grupo_14" data-name="Grupo 14" transform="translate(7.713 -5.669)">
      <path id="Trazado_21" data-name="Trazado 21" d="M4.162,0H.244A.248.248,0,0,0,0,.244V.788a.248.248,0,0,0,.244.244H4.162A.248.248,0,0,0,4.406.788V.244A.248.248,0,0,0,4.162,0Z" fill="none" stroke="#f4f7ff" stroke-width="0.2"/>
    </g>
    <g id="Grupo_15" data-name="Grupo 15" clip-path="url(#clip-path-8)">
      <path id="Trazado_22" data-name="Trazado 22" d="M-.7-23.906H16.481V-9.219H-.7Z" fill="#241862"/>
    </g>
    <g id="Grupo_16" data-name="Grupo 16" transform="translate(4.3 -18.906)">
      <path id="Trazado_24" data-name="Trazado 24" d="M.45,4.688H6.731a.456.456,0,0,0,.45-.45V2.456a.456.456,0,0,0-.45-.45H5.7a2.1,2.1,0,0,0-4.2,0H.45a.456.456,0,0,0-.45.45V4.238A.469.469,0,0,0,.45,4.688ZM3.6,1.313a.806.806,0,1,1-.806.806A.8.8,0,0,1,3.6,1.313Z" fill="none" stroke="#f4f7ff" stroke-width="0.2"/>
    </g>
  </g>
</svg>
