<svg xmlns="http://www.w3.org/2000/svg" xmlns:xlink="http://www.w3.org/1999/xlink" width="21.646" height="18.592" viewBox="0 0 21.646 18.592">
  <defs>
    <clipPath id="clip-path">
      <path id="Trazado_2" data-name="Trazado 2" d="M11.377-18.732a.859.859,0,0,0-1.184,0,.843.843,0,0,0,0,1.184c.419.346.832.7,1.251,1.05q2.706,2.279,5.418,4.557l3.4,2.86-.7-.594-.546.46L16.3-6.936,13.588-4.657h0l-3.4,2.86a.843.843,0,0,0,0,1.184.859.859,0,0,0,1.184,0c.419-.346.832-.7,1.251-1.05h0l5.418-4.557,3.4-2.86a.843.843,0,0,0,0-1.184c-.419-.346-.832-.7-1.251-1.05q-2.706-2.279-5.418-4.557Zm-9.913,0a.859.859,0,0,0-1.184,0,.843.843,0,0,0,0,1.184c.419.346.832.7,1.251,1.05q2.706,2.279,5.418,4.557h0L9.64-9.675l-.547.46L6.384-6.936,3.675-4.657h0L.28-1.8a.843.843,0,0,0,0,1.184.859.859,0,0,0,1.184,0c.419-.346.832-.7,1.251-1.05h0L8.132-6.221l3.4-2.86a.843.843,0,0,0,0-1.184c-.419-.346-.832-.7-1.251-1.05q-2.706-2.279-5.418-4.557Zm18.793,8.467v1.184h0l-.7-.594.079-.067Q19.943-10,20.257-10.265Zm-9.913,0v1.184h0l-.7-.594.078-.067Q10.03-10,10.344-10.265Z" fill="none"/>
    </clipPath>
  </defs>
  <g id="Grupo_2" data-name="Grupo 2" transform="translate(-0.037 18.969)">
    <g id="Grupo_1" data-name="Grupo 1" clip-path="url(#clip-path)">
      <path id="Trazado_1" data-name="Trazado 1" d="M-4.964,4.623H26.684V-23.969H-4.964Z" fill="#241862"/>
    </g>
  </g>
</svg>
