<svg width="14" height="14" viewBox="0 0 14 14" fill="none" xmlns="http://www.w3.org/2000/svg">
<path d="M13.9 10.5V13.9H0.1V10.5C0.1 10.1686 0.368652 9.89995 0.700053 9.89995C1.03134 9.89995 1.3 10.1686 1.3 10.5V12.6V12.7H1.4H12.6H12.7V12.6V10.5C12.7 10.1686 12.9687 9.89995 13.3001 9.89995C13.6313 9.89995 13.9 10.1686 13.9 10.5ZM3.19842 8.21875L3.19191 8.21478C2.91192 8.04404 2.82097 7.67998 2.98768 7.39757C3.15609 7.11229 3.52375 7.01752 3.8091 7.18575C3.80921 7.18581 3.80931 7.18587 3.80942 7.18593L6.24856 8.64949L6.40002 8.74036V8.56374V0.700053C6.40002 0.36865 6.66866 0.1 7.00007 0.1C7.33147 0.1 7.60012 0.368673 7.60012 0.700053V8.56374V8.74036L7.75157 8.64949L10.1907 7.18592C10.1908 7.18586 10.1909 7.1858 10.191 7.18575C10.4734 7.01921 10.8371 7.11015 11.0079 7.39006C11.1804 7.6729 11.0912 8.04194 10.8085 8.21462C10.8084 8.21468 10.8083 8.21473 10.8082 8.21479L7 10.4995L3.19842 8.21875Z" fill="#928BB1" stroke="white" stroke-width="0.2"/>
</svg>
