<svg xmlns="http://www.w3.org/2000/svg" width="8.366" height="12.91" viewBox="0 0 8.366 12.91">
  <g id="Grupo_2" data-name="Grupo 2" transform="translate(15361.747 -7202.971)">
    <path id="ic_arrow-avatar" d="M.761,0a.4.4,0,0,0-.3.663L4.243,4.986a.4.4,0,0,0,.6,0L8.627.663A.4.4,0,0,0,8.326,0Z" transform="translate(-15362.107 7210.759)" fill="#251863" opacity="0.3"/>
    <path id="ic_arrow-avatar-2" data-name="ic_arrow-avatar" d="M.761,1.278A.4.4,0,0,1,.46.615L4.243-3.708a.4.4,0,0,1,.6,0L8.627.615a.4.4,0,0,1-.3.663Z" transform="translate(-15362.107 7206.815)" fill="#251863"/>
  </g>
</svg>
