<svg xmlns="http://www.w3.org/2000/svg" xmlns:xlink="http://www.w3.org/1999/xlink" width="64" height="64" viewBox="0 0 64 64">
  <defs>
    <clipPath id="clip-path">
      <path id="Trazado_265" data-name="Trazado 265" d="M179.084-180.5a.708.708,0,0,0-.573-.162l-20.746,3.275-20.753-3.275c-.023,0-.045,0-.068,0s-.028-.009-.043-.009-.028.008-.043.009-.046,0-.068,0l-20.857,3.292a.711.711,0,0,0-.6.7v59.285a.711.711,0,0,0,.249.541.712.712,0,0,0,.573.162L136.9-119.95l20.753,3.275c.022,0,.045,0,.068,0s.028.009.043.009.028-.008.043-.009.046,0,.068,0l20.857-3.292a.711.711,0,0,0,.6-.7v-59.285A.71.71,0,0,0,179.084-180.5Zm-1.173,44.725c-1.126-1.531-2.59-3.191-3.942-4.717a26.8,26.8,0,0,1-2.978-3.662,8.885,8.885,0,0,0-4.055-7.454,8.885,8.885,0,0,0-8.46-.653v-23.8l19.435-3.068Zm-23.286,17.179a4.87,4.87,0,0,1-.532-2.4,10.519,10.519,0,0,0-.285-2.2.71.71,0,0,0-.6-.522c-5.531-.684-8.407-2.691-8.55-5.967-.44-10.087,8.313-17.28,12.4-20.07v31.543Zm-37.87-39.954.061-.031c4.147-2.085,5.478-3.071,5.478-4.055a9.374,9.374,0,0,1,4.6-8.074,9.374,9.374,0,0,1,9.293-.143V-154.4a9.393,9.393,0,0,1-4.508,1.157c-1.187,0-2.346,1.822-2.346,2.88a8.949,8.949,0,0,1-8.939,8.939,8.777,8.777,0,0,1-3.641-.79ZM137.613-169.7a42.98,42.98,0,0,1,3.465,4.777c2.073,3.135,2.815,4.149,3.674,4.149a3.712,3.712,0,0,1,3.7,3.712,3.712,3.712,0,0,1-3.7,3.712,11.234,11.234,0,0,1-2.458-.644,12.416,12.416,0,0,0-4.681-.933Zm0,16.2c.981-.211,2.837.4,4.238.857a11.053,11.053,0,0,0,2.9.715,5.134,5.134,0,0,0,5.134-5.085,5.134,5.134,0,0,0-5.036-5.182,22.257,22.257,0,0,1-2.586-3.512c-1.505-2.276-3.2-4.831-4.651-5.928v-7.485l19.442,3.068v24.6c-3.783,2.442-14.32,10.313-13.816,21.84.119,2.74,1.844,6.191,9.3,7.25a11.962,11.962,0,0,1,.139,1.451,8.675,8.675,0,0,0,.286,2.063l-15.347-2.422Zm-1.422-25.621v6.682a10.8,10.8,0,0,0-10.312.691,10.8,10.8,0,0,0-5.005,9.042c-.187.313-1.083,1.012-4.117,2.566v-15.913Zm-19.435,38.456a10.222,10.222,0,0,0,3.641.662,10.373,10.373,0,0,0,10.361-10.361,2.355,2.355,0,0,1,.924-1.458,10.816,10.816,0,0,0,4.508-.989v31.535l-19.435,3.068Zm41.721,22.458v-32.437a7.433,7.433,0,0,1,7.416.055,7.433,7.433,0,0,1,3.677,6.441c0,.769.865,1.814,3.336,4.6a41.921,41.921,0,0,1,5.006,6.384v11.885Z" fill="#706995"/>
    </clipPath>
    <clipPath id="clip-path-2">
      <path id="Trazado_264" data-name="Trazado 264" d="M-685,442H1235V-638H-685Z" fill="#706995"/>
    </clipPath>
    <clipPath id="clip-path-3">
      <path id="Trazado_270" data-name="Trazado 270" d="M151.4-133.72l-3.556-.187a.7.7,0,0,0-.527.194.711.711,0,0,0-.221.516v3.368a.711.711,0,0,0,.674.71l3.556.187h.037a.71.71,0,0,0,.5-.208.711.711,0,0,0,.208-.5v-3.368a.711.711,0,0,0-.674-.71Zm-.749,3.329-2.133-.112v-1.944l2.133.112Z" fill="#706995"/>
    </clipPath>
    <clipPath id="clip-path-5">
      <path id="Trazado_275" data-name="Trazado 275" d="M123.632-144.762v-3.368a.71.71,0,0,0-.221-.516.7.7,0,0,0-.527-.194l-3.556.187a.711.711,0,0,0-.674.71v3.368a.711.711,0,0,0,.208.5.711.711,0,0,0,.5.208h.037l3.555-.187a.711.711,0,0,0,.674-.71Zm-1.422-.675-2.133.112v-1.944l2.133-.112Z" fill="#706995"/>
    </clipPath>
    <clipPath id="clip-path-7">
      <path id="Trazado_280" data-name="Trazado 280" d="M123.591-132.194a.721.721,0,0,0-.684-.472.711.711,0,0,0-.664.5l-2.844,9.087a.711.711,0,0,0,.276.8.711.711,0,0,0,.845-.029l2.519-2,2.46,1a.712.712,0,0,0,.759-.146.712.712,0,0,0,.178-.752Zm-.4,6.407a.711.711,0,0,0-.71.1l-1.032.82,1.518-4.849,1.6,4.485Z" fill="#706995"/>
    </clipPath>
  </defs>
  <g id="Grupo_285" data-name="Grupo 285" transform="translate(113.667 2686.667)">
    <g id="Grupo_256" data-name="Grupo 256" transform="translate(-229 -2506)" clip-path="url(#clip-path)">
      <g id="Grupo_255" data-name="Grupo 255" clip-path="url(#clip-path-2)">
        <path id="Trazado_263" data-name="Trazado 263" d="M110.333-185.667h74v74h-74Z" fill="#706995"/>
      </g>
    </g>
    <g id="Grupo_257" data-name="Grupo 257" transform="translate(-113.667 -2686.667)">
      <path id="Trazado_266" data-name="Trazado 266" d="M63.751.171a.708.708,0,0,0-.573-.162L42.432,3.284,21.679.009c-.023,0-.045,0-.068,0S21.583,0,21.568,0s-.028.008-.043.009-.046,0-.068,0L.6,3.3A.711.711,0,0,0,0,4V63.289a.711.711,0,0,0,.822.7l20.746-3.275,20.753,3.275c.023,0,.045,0,.068,0s.028.009.043.009.028-.008.043-.009.046,0,.068,0L63.4,60.7A.711.711,0,0,0,64,60V.711A.711.711,0,0,0,63.751.171ZM62.578,44.9c-1.126-1.531-2.59-3.191-3.942-4.718a26.788,26.788,0,0,1-2.978-3.662,8.886,8.886,0,0,0-12.515-8.107V4.611L62.578,1.544ZM39.292,62.074a4.871,4.871,0,0,1-.532-2.4,10.515,10.515,0,0,0-.285-2.2.711.711,0,0,0-.6-.522c-5.531-.684-8.407-2.691-8.55-5.967-.44-10.087,8.313-17.28,12.4-20.07V62.457ZM1.422,22.12l.061-.031C5.631,20,6.962,19.018,6.962,18.034a9.374,9.374,0,0,1,13.9-8.217V26.264a9.393,9.393,0,0,1-4.508,1.157C15.162,27.421,14,29.243,14,30.3a8.949,8.949,0,0,1-8.939,8.939,8.777,8.777,0,0,1-3.641-.791ZM22.279,10.964a42.99,42.99,0,0,1,3.465,4.777c2.073,3.135,2.815,4.149,3.674,4.149a3.712,3.712,0,0,1,0,7.424,11.237,11.237,0,0,1-2.458-.644,12.416,12.416,0,0,0-4.681-.933Zm0,16.2c.981-.211,2.837.4,4.238.857a11.053,11.053,0,0,0,2.9.715,5.134,5.134,0,0,0,.1-10.267,22.253,22.253,0,0,1-2.586-3.512c-1.505-2.276-3.2-4.831-4.651-5.928V1.543L41.721,4.611v24.6C37.938,31.649,27.4,39.52,27.9,51.046c.119,2.74,1.844,6.191,9.3,7.25a11.971,11.971,0,0,1,.139,1.451,8.676,8.676,0,0,0,.286,2.063L22.279,59.389ZM20.857,1.543V8.225A10.8,10.8,0,0,0,5.54,17.959c-.186.313-1.083,1.012-4.117,2.566V4.611ZM1.422,40a10.223,10.223,0,0,0,3.641.662A10.373,10.373,0,0,0,15.424,30.3a2.354,2.354,0,0,1,.924-1.458,10.817,10.817,0,0,0,4.508-.989V59.389L1.422,62.457ZM43.143,62.457V30.02a7.433,7.433,0,0,1,11.093,6.5c0,.769.865,1.814,3.335,4.6A41.92,41.92,0,0,1,62.578,47.5V59.389Z" fill="#706995"/>
    </g>
    <g id="Grupo_260" data-name="Grupo 260" transform="translate(-229 -2506)" clip-path="url(#clip-path-3)">
      <g id="Grupo_259" data-name="Grupo 259" clip-path="url(#clip-path-2)">
        <path id="Trazado_268" data-name="Trazado 268" d="M142.1-138.908h14.978v14.978H142.1Z" fill="#706995"/>
      </g>
    </g>
    <g id="Grupo_261" data-name="Grupo 261" transform="translate(-81.901 -2639.908)">
      <path id="Trazado_271" data-name="Trazado 271" d="M4.3.188.749,0A.7.7,0,0,0,.222.2.711.711,0,0,0,0,.711V4.08a.711.711,0,0,0,.674.71l3.556.187h.037a.711.711,0,0,0,.711-.711V.9A.711.711,0,0,0,4.3.188ZM3.556,3.517,1.422,3.405V1.461l2.133.112Z" fill="#706995"/>
    </g>
    <g id="Grupo_264" data-name="Grupo 264" transform="translate(-229 -2506)" clip-path="url(#clip-path-5)">
      <g id="Grupo_263" data-name="Grupo 263" clip-path="url(#clip-path-2)">
        <path id="Trazado_273" data-name="Trazado 273" d="M113.654-153.842h14.978v14.978H113.654Z" fill="#706995"/>
      </g>
    </g>
    <g id="Grupo_265" data-name="Grupo 265" transform="translate(-110.346 -2654.842)">
      <path id="Trazado_276" data-name="Trazado 276" d="M4.978,4.08V.711A.711.711,0,0,0,4.756.2.7.7,0,0,0,4.229,0L.674.188A.711.711,0,0,0,0,.9V4.267a.711.711,0,0,0,.711.711H.749L4.3,4.79a.711.711,0,0,0,.674-.71ZM3.556,3.405l-2.133.112V1.573l2.133-.112Z" fill="#706995"/>
    </g>
    <g id="Grupo_268" data-name="Grupo 268" transform="translate(-229 -2506)" clip-path="url(#clip-path-7)">
      <g id="Grupo_267" data-name="Grupo 267" clip-path="url(#clip-path-2)">
        <path id="Trazado_278" data-name="Trazado 278" d="M114.365-137.667h17.111v20.509H114.365Z" fill="#706995"/>
      </g>
    </g>
    <g id="Grupo_269" data-name="Grupo 269" transform="translate(-109.635 -2638.667)">
      <path id="Trazado_281" data-name="Trazado 281" d="M4.226.472A.721.721,0,0,0,3.542,0a.711.711,0,0,0-.665.5L.033,9.585a.711.711,0,0,0,1.121.769l2.519-2,2.46,1a.712.712,0,0,0,.938-.9Zm-.4,6.407a.711.711,0,0,0-.71.1L2.081,7.8,3.6,2.952,5.2,7.437Z" fill="#706995"/>
    </g>
  </g>
</svg>
