<svg xmlns="http://www.w3.org/2000/svg" xmlns:xlink="http://www.w3.org/1999/xlink" width="15.255" height="15.285" viewBox="0 0 15.255 15.285">
  <defs>
    <clipPath id="clip-path">
      <path id="Trazado_31" data-name="Trazado 31" d="M169.66-22.929h-.4v-.857A2.275,2.275,0,0,0,166.931-26h-4.882a2.275,2.275,0,0,0-2.325,2.214v.857h-.368a2.275,2.275,0,0,0-2.325,2.214v3.571a2.275,2.275,0,0,0,2.325,2.214h.365v2.807a1.137,1.137,0,0,0,1.161,1.106h7.21a1.137,1.137,0,0,0,1.161-1.106v-2.807h.408a2.275,2.275,0,0,0,2.325-2.214v-3.571A2.275,2.275,0,0,0,169.66-22.929Zm-9.059-.857a1.414,1.414,0,0,1,1.445-1.376h4.878a1.414,1.414,0,0,1,1.445,1.376v.857H160.6Zm7.771,11.671a.276.276,0,0,1-.281.267h-7.21a.276.276,0,0,1-.281-.267v-4.63h7.771ZM171.1-17.14a1.414,1.414,0,0,1-1.445,1.376h-.4v-.981h.58a.428.428,0,0,0,.44-.419.428.428,0,0,0-.44-.419H159.076a.428.428,0,0,0-.44.419.428.428,0,0,0,.44.419h.649v.981h-.368a1.414,1.414,0,0,1-1.445-1.376v-3.571a1.414,1.414,0,0,1,1.445-1.376h10.3a1.414,1.414,0,0,1,1.445,1.376Z" fill="none"/>
    </clipPath>
    <clipPath id="clip-path-2">
      <path id="Trazado_34" data-name="Trazado 34" d="M161.668-14.683h5.606a.428.428,0,0,0,.44-.419.428.428,0,0,0-.44-.419h-5.606a.428.428,0,0,0-.44.419A.43.43,0,0,0,161.668-14.683Z" fill="none"/>
    </clipPath>
    <clipPath id="clip-path-3">
      <path id="Trazado_37" data-name="Trazado 37" d="M167.309-13.807H161.7a.428.428,0,0,0-.44.419.428.428,0,0,0,.44.419h5.605a.428.428,0,0,0,.44-.419A.428.428,0,0,0,167.309-13.807Z" fill="none"/>
    </clipPath>
    <clipPath id="clip-path-4">
      <path id="Trazado_40" data-name="Trazado 40" d="M169.65-21.283h-.893a.428.428,0,0,0-.44.419.428.428,0,0,0,.44.419h.893a.428.428,0,0,0,.44-.419A.428.428,0,0,0,169.65-21.283Z" fill="none"/>
    </clipPath>
  </defs>
  <g id="Grupo_367" data-name="Grupo 367" transform="translate(12136.563 1691.15)">
    <g id="Grupo_21" data-name="Grupo 21" transform="translate(-12293.444 -1665)" clip-path="url(#clip-path)">
      <path id="Trazado_30" data-name="Trazado 30" d="M152.031-31h24.954V-6.016H152.031Z" fill="#241862"/>
    </g>
    <g id="Grupo_22" data-name="Grupo 22" transform="translate(-12136.413 -1691)">
      <path id="Trazado_32" data-name="Trazado 32" d="M12.629,3.071h-.4V2.214A2.275,2.275,0,0,0,9.9,0H5.018A2.275,2.275,0,0,0,2.693,2.214v.857H2.325A2.275,2.275,0,0,0,0,5.286V8.857a2.275,2.275,0,0,0,2.325,2.214H2.69v2.807a1.137,1.137,0,0,0,1.161,1.106h7.21a1.137,1.137,0,0,0,1.161-1.106V11.071h.408a2.275,2.275,0,0,0,2.325-2.214V5.286A2.275,2.275,0,0,0,12.629,3.071ZM3.571,2.214A1.414,1.414,0,0,1,5.015.839H9.893a1.414,1.414,0,0,1,1.445,1.376v.857H3.571Zm7.771,11.671a.276.276,0,0,1-.28.267H3.851a.276.276,0,0,1-.28-.267V9.255h7.771ZM14.074,8.86a1.414,1.414,0,0,1-1.445,1.376h-.4V9.255h.58a.42.42,0,1,0,0-.839H2.045a.42.42,0,1,0,0,.839h.649v.981H2.325A1.414,1.414,0,0,1,.88,8.86V5.289A1.414,1.414,0,0,1,2.325,3.913h10.3a1.414,1.414,0,0,1,1.445,1.376Z" fill="none" stroke="#241862" stroke-width="0.3"/>
    </g>
    <g id="Grupo_23" data-name="Grupo 23" transform="translate(-12293.444 -1665)" clip-path="url(#clip-path-2)">
      <path id="Trazado_33" data-name="Trazado 33" d="M156.228-20.522h16.486V-9.683H156.228Z" fill="#241862"/>
    </g>
    <g id="Grupo_24" data-name="Grupo 24" transform="translate(-12132.217 -1680.522)">
      <path id="Trazado_35" data-name="Trazado 35" d="M.44.839H6.046a.428.428,0,0,0,.44-.419A.428.428,0,0,0,6.046,0H.44A.428.428,0,0,0,0,.419.43.43,0,0,0,.44.839Z" fill="none" stroke="#241862" stroke-width="0.3"/>
    </g>
    <g id="Grupo_25" data-name="Grupo 25" transform="translate(-12293.444 -1665)" clip-path="url(#clip-path-3)">
      <path id="Trazado_36" data-name="Trazado 36" d="M156.26-18.807h16.486V-7.969H156.26Z" fill="#241862"/>
    </g>
    <g id="Grupo_26" data-name="Grupo 26" transform="translate(-12132.184 -1678.807)">
      <path id="Trazado_38" data-name="Trazado 38" d="M6.049,0H.44A.428.428,0,0,0,0,.419.428.428,0,0,0,.44.839H6.046a.428.428,0,0,0,.44-.419A.428.428,0,0,0,6.049,0Z" fill="none" stroke="#241862" stroke-width="0.3"/>
    </g>
    <g id="Grupo_27" data-name="Grupo 27" transform="translate(-12293.444 -1665)" clip-path="url(#clip-path-4)">
      <path id="Trazado_39" data-name="Trazado 39" d="M163.317-26.283h11.774v10.839H163.317Z" fill="#241862"/>
    </g>
    <g id="Grupo_28" data-name="Grupo 28" transform="translate(-12125.128 -1686.283)">
      <path id="Trazado_41" data-name="Trazado 41" d="M1.334,0H.44A.428.428,0,0,0,0,.419.428.428,0,0,0,.44.839h.893a.428.428,0,0,0,.44-.419A.428.428,0,0,0,1.334,0Z" fill="none" stroke="#241862" stroke-width="0.3"/>
    </g>
  </g>
</svg>
