<svg xmlns="http://www.w3.org/2000/svg" xmlns:xlink="http://www.w3.org/1999/xlink" width="10.391" height="14" viewBox="0 0 10.391 14">
  <defs>
    <clipPath id="clip-path">
      <path id="Trazado_77" data-name="Trazado 77" d="M15.2-143a5.2,5.2,0,0,0-5.2,5.183c0,1.443.751,3.3,2.233,5.509a29.278,29.278,0,0,0,2.337,3.029A.842.842,0,0,0,15.2-129a.843.843,0,0,0,.625-.278,29.258,29.258,0,0,0,2.337-3.029c1.482-2.213,2.233-4.066,2.233-5.509A5.2,5.2,0,0,0,15.2-143Zm2.28,10.236a28.893,28.893,0,0,1-2.265,2.937.02.02,0,0,1-.016.007.019.019,0,0,1-.016-.007,28.9,28.9,0,0,1-2.265-2.937c-1.37-2.046-2.095-3.793-2.095-5.053A4.374,4.374,0,0,1,15.2-142.18a4.374,4.374,0,0,1,4.375,4.363C19.57-136.557,18.846-134.81,17.476-132.764Z" fill="none"/>
    </clipPath>
    <clipPath id="clip-path-2">
      <path id="Trazado_79" data-name="Trazado 79" d="M18.265-138.778l-2.787-1.659a.447.447,0,0,0-.466,0l-2.785,1.717a.5.5,0,0,0-.164.665.461.461,0,0,0,.4.239.448.448,0,0,0,.236-.067l.236-.146v2.54A.475.475,0,0,0,13.4-135h3.715a.475.475,0,0,0,.464-.485v-2.583l.225.134a.454.454,0,0,0,.633-.182.5.5,0,0,0-.174-.662Zm-1.613,2.807H13.865V-138.6l1.388-.855,1.4.833Z" fill="none"/>
    </clipPath>
  </defs>
  <g id="Grupo_374" data-name="Grupo 374" transform="translate(12026 1653)">
    <g id="Grupo_57" data-name="Grupo 57" transform="translate(-12036 -1510)" clip-path="url(#clip-path)">
      <path id="Trazado_76" data-name="Trazado 76" d="M5-148H25.391v24H5Z" fill="#241862"/>
    </g>
    <g id="Grupo_58" data-name="Grupo 58" transform="translate(-12036 -1510)" clip-path="url(#clip-path-2)">
      <path id="Trazado_78" data-name="Trazado 78" d="M7-145.5H23.5V-130H7Z" fill="#241862"/>
    </g>
  </g>
</svg>
