<svg xmlns="http://www.w3.org/2000/svg" xmlns:xlink="http://www.w3.org/1999/xlink" width="26.476" height="23.948" viewBox="0 0 26.476 23.948">
  <defs>
    <clipPath id="clip-path">
      <path id="Trazado_122" data-name="Trazado 122" d="M126.979-14.374a1.839,1.839,0,0,0,1.819-1.858,1.839,1.839,0,0,0-1.819-1.858,1.839,1.839,0,0,0-1.819,1.858A1.839,1.839,0,0,0,126.979-14.374Z" fill="none"/>
    </clipPath>
    <clipPath id="clip-path-2">
      <path id="Trazado_124" data-name="Trazado 124" d="M141.91-9.394a5.554,5.554,0,0,0-3.133-1.523v-9.445a3.757,3.757,0,0,0-1.036-2.581A3.493,3.493,0,0,0,135.215-24H120.562a3.6,3.6,0,0,0-2.526,1.058A3.646,3.646,0,0,0,117-20.361V-4.955a3.757,3.757,0,0,0,1.036,2.581,3.492,3.492,0,0,0,2.526,1.058h14.173A5.286,5.286,0,0,0,138.12-.052a5.289,5.289,0,0,0,3.79-1.6,5.519,5.519,0,0,0,1.566-3.871A5.519,5.519,0,0,0,141.91-9.394ZM118.339-20.361A2.183,2.183,0,0,1,119-21.935a2.194,2.194,0,0,1,1.566-.671h14.653a2.194,2.194,0,0,1,1.566.671,2.289,2.289,0,0,1,.657,1.6v8.052L133.7-16.1a.668.668,0,0,0-.96,0l-5.634,5.781-3.815-3.923a.668.668,0,0,0-.96,0l-3.992,4.129Zm2.2,17.677a2.194,2.194,0,0,1-1.566-.671,2.382,2.382,0,0,1-.632-1.6v-3.2l4.472-4.594,3.815,3.9a.692.692,0,0,0,.96,0l5.634-5.781,3.688,3.794-.227.077a2.308,2.308,0,0,0-.328.1c-.1.026-.2.077-.3.1a.75.75,0,0,0-.2.1,2.333,2.333,0,0,0-.253.129l-.379.232c-.076.052-.126.077-.2.129-.051.026-.076.052-.126.077a3.067,3.067,0,0,0-.606.542,5.519,5.519,0,0,0-1.566,3.871,5.79,5.79,0,0,0,.126,1.135c.025.1.051.181.076.284.076.258.152.516.253.774a3.813,3.813,0,0,0,.328.645h-12.96Zm20.387.052a3.907,3.907,0,0,1-2.829,1.187,3.941,3.941,0,0,1-2.754-1.135c-.1-.1-.2-.232-.3-.335-.076-.077-.152-.181-.227-.258a2.466,2.466,0,0,1-.253-.439c-.051-.1-.1-.181-.152-.284a2.22,2.22,0,0,1-.126-.439c-.025-.1-.076-.232-.1-.335A4.363,4.363,0,0,1,134.1-5.5a4.188,4.188,0,0,1,1.162-2.89,3.865,3.865,0,0,1,2.829-1.187,4.012,4.012,0,0,1,2.829,1.187,4.078,4.078,0,0,1,1.162,2.89A4.173,4.173,0,0,1,140.924-2.632Z" fill="none"/>
    </clipPath>
    <clipPath id="clip-path-3">
      <path id="Trazado_126" data-name="Trazado 126" d="M138.575-8.284a.881.881,0,0,0-.227-.155.725.725,0,0,0-.227-.052h-.05a.725.725,0,0,0-.227.052.6.6,0,0,0-.227.155l-1.566,1.6a.729.729,0,0,0,0,.981.692.692,0,0,0,.96,0l.4-.413v2.839a.687.687,0,0,0,.682.7.687.687,0,0,0,.682-.7V-6.116l.4.413a.692.692,0,0,0,.96,0,.729.729,0,0,0,0-.981Z" fill="none"/>
    </clipPath>
  </defs>
  <g id="Grupo_380" data-name="Grupo 380" transform="translate(12149 1597)">
    <g id="Grupo_90" data-name="Grupo 90" transform="translate(-132 6)">
      <g id="Grupo_87" data-name="Grupo 87" transform="translate(-12134 -1579)" clip-path="url(#clip-path)">
        <path id="Trazado_121" data-name="Trazado 121" d="M120.16-23.09H133.8V-9.374H120.16Z" fill="#241862"/>
      </g>
      <g id="Grupo_88" data-name="Grupo 88" transform="translate(-12134 -1579)" clip-path="url(#clip-path-2)">
        <path id="Trazado_123" data-name="Trazado 123" d="M112-29h36.476V4.948H112Z" fill="#241862"/>
      </g>
      <g id="Grupo_89" data-name="Grupo 89" transform="translate(-12134 -1579)" clip-path="url(#clip-path-3)">
        <path id="Trazado_125" data-name="Trazado 125" d="M130.859-13.49h14.472V2.419H130.859Z" fill="#241862"/>
      </g>
    </g>
  </g>
</svg>
