<svg width="36" height="36" viewBox="0 0 36 36" fill="none" xmlns="http://www.w3.org/2000/svg">
<path d="M8.50221 17.9001C8.14293 17.5465 8.14293 16.9898 8.50221 16.6362C8.84936 16.2826 9.42713 16.2826 9.77347 16.6362L16.2851 23.0328L16.2851 1.89753C16.2851 1.40456 16.6832 1 17.1841 1C17.685 1 18.0961 1.40456 18.0961 1.89753L18.0961 23.0328L24.5948 16.6362C24.9541 16.2826 25.5326 16.2826 25.879 16.6362C26.2383 16.9898 26.2383 17.5465 25.879 17.9001L17.8258 25.8257C17.4787 26.1674 16.9009 26.1674 16.5416 25.8257L8.50221 17.9001Z" fill="#251863" stroke="#251863" stroke-width="1.21334"/>
<path d="M33.5859 34.4434L2.00124 34.4434" stroke="#251863" stroke-width="2.91201" stroke-linecap="round"/>
</svg>
