<?xml version="1.0" encoding="utf-8"?>
<!-- Generator: Adobe Illustrator 24.0.0, SVG Export Plug-In . SVG Version: 6.00 Build 0)  -->
<svg version="1.1" id="Capa_1" xmlns="http://www.w3.org/2000/svg" xmlns:xlink="http://www.w3.org/1999/xlink" x="0px" y="0px"
	 viewBox="0 0 22 20" style="enable-background:new 0 0 22 20;" xml:space="preserve">
<style type="text/css">
	.st0{fill:#251863;}
</style>
<title>ic_sort by</title>
<g id="ic_sort-by" transform="translate(421.000000, 16.000000)">
	<path class="st0" d="M-419.9-10.9h12.2v-1.6h-12.2c-0.4,0-0.8,0.4-0.8,0.8C-420.7-11.2-420.4-10.9-419.9-10.9z"/>
	<path class="st0" d="M-419.9-5.8h12.2v-1.6h-12.2c-0.4,0-0.8,0.4-0.8,0.8C-420.7-6.2-420.4-5.8-419.9-5.8z"/>
	<path class="st0" d="M-419.9-0.8h8.2c0-0.2,0-0.3,0-0.5c0-0.4,0.1-0.7,0.2-1.1h-8.4c-0.4,0-0.8,0.4-0.8,0.8
		C-420.7-1.2-420.4-0.8-419.9-0.8z"/>
	<path class="st0" d="M-408.8-0.7l4,4c0.2,0.2,0.4,0.3,0.6,0.3c0,0,0,0,0,0c0.2,0,0.5-0.1,0.6-0.3l4-4c0.4-0.4,0.4-0.9,0-1.3
		c-0.4-0.3-0.9-0.3-1.3,0l-2.5,2.5v-15.2c0-0.5-0.4-0.9-0.9-0.9c-0.5,0-0.9,0.4-0.9,0.9V0.5l-2.5-2.5c-0.2-0.2-0.4-0.3-0.6-0.3
		c-0.2,0-0.5,0.1-0.6,0.3C-409.2-1.6-409.2-1-408.8-0.7z"/>
</g>
</svg>
