<?xml version="1.0" encoding="UTF-8"?>
<svg width="19px" height="18px" viewBox="0 0 19 18" version="1.1" xmlns="http://www.w3.org/2000/svg" xmlns:xlink="http://www.w3.org/1999/xlink">
    <title>ic_MHFD Data</title>
    <g id="Page-1" stroke="none" stroke-width="1" fill="none" fill-rule="evenodd" opacity="0.5">
        <g id="03---Layer-Comment" transform="translate(-93.000000, -388.000000)" fill="#11093C" fill-rule="nonzero" stroke="#140640" stroke-width="0.2">
            <g id="Overlay---Changes" transform="translate(83.000000, 127.000000)">
                <g id="card2" transform="translate(0.000000, 254.000000)">
                    <path d="M23.836649,21.7382056 C24.0585258,21.7437365 24.2641531,21.8160476 24.4354758,21.936088 L25.1863665,20.7707123 C21.0782339,20.9610153 13.7043386,18.4182471 12.0837948,17.8389392 L12.0737642,18.9655988 L23.836649,21.7382056 Z M15.0837467,15.8672849 L27.179848,15.8672849 C28.273384,15.8672849 28.273384,17.5644439 27.179848,17.5644439 L15.0837467,17.5644439 C13.9902107,17.5644439 13.9902107,15.8672849 15.0837467,15.8672849 Z M27.179848,16.3638345 L15.0837467,16.3638345 C14.6305642,16.3638345 14.6305642,17.0678943 15.0837467,17.0678943 L27.179848,17.0678943 C27.6330305,17.0678943 27.6330305,16.3638345 27.179848,16.3638345 Z M23.1204641,9.79786724 C25.4920992,10.6244257 27.1427348,12.8492711 27.2767436,15.4047399 C27.2835644,15.541373 27.1806504,15.6579311 27.0468422,15.664691 L15.2291904,15.6657153 C15.0739167,15.6657153 14.9778236,15.5364567 14.9880548,15.3846649 C15.1300881,12.8283767 16.7887481,10.6084476 19.164596,9.79049274 C19.3226783,9.73661793 19.4835691,9.85768262 19.4835691,10.0252476 L19.4845722,13.0051598 C19.4845722,13.2581461 19.8629264,13.2581461 19.8629264,13.0051598 L19.8629264,9.2781699 C19.8629264,7.57527513 22.4004676,7.57261212 22.4004676,9.2781699 L22.4004676,13.0051598 C22.4004676,13.2587607 22.7790225,13.2587607 22.7790225,13.0051598 L22.7790225,10.0252476 C22.7790225,9.8445724 22.96178,9.72617072 23.1204641,9.79786724 L23.1204641,9.79786724 Z M23.265306,10.3812721 L23.265306,13.0051598 C23.265306,13.9126329 21.9141841,13.9126329 21.9141841,13.0051598 L21.9141841,9.2781699 C21.9141841,8.22791831 20.3494105,8.22627953 20.3494105,9.2781699 L20.3494105,13.0051598 C20.3494105,13.9126329 18.9982887,13.9126329 18.9982887,13.0051598 L18.9982887,10.3812721 C17.0535559,11.1881652 15.6970176,13.0348627 15.4907884,15.1691656 L26.7728062,15.1691656 C26.5665771,13.0348627 25.2100387,11.1881652 23.265306,10.3812721 L23.265306,10.3812721 Z M19.5852794,21.177334 C19.4342186,21.5579401 19.3587885,21.9727557 19.3798527,22.3836791 L22.761168,23.2333853 C22.6279616,22.8257394 22.7411068,22.3617605 23.037812,22.0587915 C22.0229158,21.81953 20.8336879,21.5063186 19.5852794,21.177334 L19.5852794,21.177334 Z M18.8913625,22.2609757 C18.889557,21.8480037 18.9675951,21.4381045 19.1128381,21.0527869 C18.2806996,20.8340101 17.4295028,20.611546 16.5917471,20.4021922 C16.4438961,20.79386 16.3750861,21.2176889 16.4083877,21.6370111 L18.8913625,22.2609757 Z M15.9166877,21.5134882 C15.9048516,21.094166 15.975467,20.6783262 16.1164973,20.2846099 C15.4087381,20.1108995 14.7152224,19.9494799 14.056212,19.8099789 C13.9041481,20.1819814 13.825107,20.5875789 13.8379462,20.9911279 L15.9166877,21.5134882 L15.9166877,21.5134882 Z M13.3508602,20.8686293 C13.3560761,20.4706111 13.4333117,20.0818112 13.5731383,19.710628 C12.9414111,19.5844422 12.3482014,19.4822234 11.8129686,19.4138045 C11.7265048,19.4004894 11.6653182,19.4287583 11.6239921,19.4754635 C11.4412346,19.6837931 11.4295991,20.2919844 11.6378343,20.4380404 L13.3508602,20.8686293 L13.3508602,20.8686293 Z M24.7731058,22.3115729 C25.0188555,22.7521992 24.9448297,23.3081545 24.5931568,23.6680711 C24.2575329,24.0099611 23.7475772,24.0976357 23.3232828,23.8847994 L11.4962023,20.9128763 C11.4536725,20.9022242 11.4165593,20.8805104 11.3868687,20.8516269 C10.9232544,20.4986752 10.8692897,19.5909973 11.2630911,19.143611 C11.3495549,19.0452843 11.4574841,18.9705151 11.5896874,18.9352814 L11.6025266,17.4870117 C11.6037303,17.3167837 11.7716425,17.1987917 11.9263144,17.2561489 C11.953397,17.2649573 21.2872716,20.7262605 25.6339319,20.2401581 C25.8449757,20.2176249 25.9779815,20.4618027 25.8550063,20.6326453 L24.7731058,22.3115729 L24.7731058,22.3115729 Z M23.8099676,23.5035788 C24.1542178,23.5035788 24.4312629,23.2208896 24.4312629,22.869167 C24.4312629,22.5174444 24.1542178,22.2347552 23.8099676,22.2347552 C23.4813651,22.2396716 23.1884716,22.4969596 23.1884716,22.869167 C23.1936875,23.2296981 23.4703314,23.5035788 23.8099676,23.5035788 Z" id="ic_MHFD-Data"></path>
                </g>
            </g>
        </g>
    </g>
</svg>