<svg xmlns="http://www.w3.org/2000/svg" xmlns:xlink="http://www.w3.org/1999/xlink" width="77" height="74" viewBox="0 0 77 74">
  <defs>
    <clipPath id="clip-path">
      <rect id="Rectángulo_13" data-name="Rectángulo 13" width="77" height="74" transform="translate(609 -184)" fill="none"/>
    </clipPath>
    <clipPath id="clip-path-2">
      <path id="Trazado_213" data-name="Trazado 213" d="M660.631-140.067c-.086.014-.13.029-.144.029a.822.822,0,0,0-.721.865.833.833,0,0,0,.822.778h6a.821.821,0,0,0,.822-.822.821.821,0,0,0-.822-.822h-2.941a4.984,4.984,0,0,0,1.2-3.229V-153.4a.821.821,0,0,0-.822-.822.821.821,0,0,0-.822.822v2.753l-1.168-.894a2.349,2.349,0,0,1-.922-1.859.821.821,0,0,0-.822-.822.821.821,0,0,0-.822.822,4.016,4.016,0,0,0,1.571,3.171l1.24.951a2.349,2.349,0,0,1,.922,1.859v4.137A3.29,3.29,0,0,1,660.631-140.067Z" fill="none"/>
    </clipPath>
    <clipPath id="clip-path-3">
      <path id="Trazado_212" data-name="Trazado 212" d="M612-113h71v-68H612Z" fill="none"/>
    </clipPath>
    <clipPath id="clip-path-5">
      <path id="Trazado_218" data-name="Trazado 218" d="M664.191-157.177H662.4a10.686,10.686,0,0,1-3.95-.706c-2.249-.865-3.56-2.277-3.906-4.166a.831.831,0,0,0-.966-.663.831.831,0,0,0-.663.966c.447,2.465,2.162,4.339,4.93,5.405a12.417,12.417,0,0,0,4.555.822h1.787a.821.821,0,0,0,.822-.822A.843.843,0,0,0,664.191-157.177Z" fill="none"/>
    </clipPath>
    <clipPath id="clip-path-8">
      <path id="Trazado_223" data-name="Trazado 223" d="M675.708-138.395a.821.821,0,0,0,.822-.822.821.821,0,0,0-.822-.822h-.49a.821.821,0,0,0-.822.822.821.821,0,0,0,.822.822Z" fill="none"/>
    </clipPath>
    <clipPath id="clip-path-11">
      <path id="Trazado_228" data-name="Trazado 228" d="M680.349-148.24H669.121v-7.424c8.2-.966,9.975-6.9,10.335-8.793a5.742,5.742,0,0,0,.1-1.1,9.545,9.545,0,0,0-4.483-7.957,14.882,14.882,0,0,0-3.95-1.932,5.824,5.824,0,0,0-2.306-2.393,8.411,8.411,0,0,0-5.751-.937,8.428,8.428,0,0,0-6.227,4.3,7.384,7.384,0,0,0-4.108,4.3,6.493,6.493,0,0,0,.577,4.872h0a4.83,4.83,0,0,0,2.739,2.018,1.132,1.132,0,0,0,.2.029.814.814,0,0,0,.793-.62.821.821,0,0,0-.591-1.009,3.139,3.139,0,0,1-1.73-1.268,4.862,4.862,0,0,1-.418-3.546,5.986,5.986,0,0,1,3.5-3.416.777.777,0,0,0,.418-.461c.014-.029,1.11-2.825,5.132-3.575a6.71,6.71,0,0,1,4.6.721,4.218,4.218,0,0,1,1.8,1.975.834.834,0,0,0,.562.49c.3.087,7.524,2.018,7.582,8.433a4.709,4.709,0,0,1-.072.764c-.418,2.191-2.249,7.294-10.364,7.568a.821.821,0,0,0-.793.85.83.83,0,0,0,.793.793V-143.3a4.939,4.939,0,0,0,3.863,4.814,2.691,2.691,0,0,0,.288.058h.1a.836.836,0,0,0,.822-.721.826.826,0,0,0-.706-.923c-.014,0-.058-.014-.144-.029a3.274,3.274,0,0,1-2.551-3.2v-3.315h11.229a.821.821,0,0,0,.822-.822A.851.851,0,0,0,680.349-148.24Z" fill="none"/>
    </clipPath>
    <clipPath id="clip-path-14">
      <path id="Trazado_233" data-name="Trazado 233" d="M614-147.418a.821.821,0,0,0,.822.822h6.011a.821.821,0,0,0,.822-.822.821.821,0,0,0-.822-.822h-1.24a9.339,9.339,0,0,0,3.46-5.708c.259-1.456.951-3.33,2.753-4.065a3.906,3.906,0,0,1,3.3.2,3.82,3.82,0,0,1,2.032,2.652.816.816,0,0,0,.649.634.8.8,0,0,0,.836-.36,3.737,3.737,0,0,1,4.281-1.11,3.91,3.91,0,0,1,2.566,2.191,2.984,2.984,0,0,1,.231,1.4.817.817,0,0,0,.331.735.829.829,0,0,0,.793.115,4.093,4.093,0,0,1,4.771,1.441,6.684,6.684,0,0,0,1.946,1.888H630.577c-.389.014-9.7.331-12.7,7.784a11.287,11.287,0,0,0,3.892,12.627,14.629,14.629,0,0,0,3.459,1.946c2.825,1.124,12.252,5.189,14.7,10.321a.82.82,0,0,0,.75.476.826.826,0,0,0,.36-.087.813.813,0,0,0,.389-1.1c-2.638-5.521-11.776-9.643-15.582-11.157a13.129,13.129,0,0,1-3.07-1.715,9.493,9.493,0,0,1-3.373-10.71c2.566-6.371,10.969-6.732,11.2-6.746h3.777a10.441,10.441,0,0,0-1.139.692,4.966,4.966,0,0,0-2.061,4.872A5,5,0,0,0,634.7-137a18.135,18.135,0,0,0,3.387.649h.029A64.474,64.474,0,0,1,653.294-133c7.423,2.595,17.268,7.726,22.083,17.47a.826.826,0,0,0,.735.461.781.781,0,0,0,.36-.087.832.832,0,0,0,.375-1.11c-3.993-8.1-11.964-14.429-23.02-18.292a65.418,65.418,0,0,0-15.6-3.431,15.534,15.534,0,0,1-3.056-.591,3.321,3.321,0,0,1-2.364-2.71,3.293,3.293,0,0,1,1.384-3.258,13.586,13.586,0,0,1,5.953-2.047h18.739a.821.821,0,0,0,.822-.822.821.821,0,0,0-.822-.822h-5.175c-4.973,0-6.631-2.638-6.688-2.753-.014-.014-.029-.043-.043-.058a5.558,5.558,0,0,0-5.665-2.335,4.7,4.7,0,0,0-.3-1.038,5.623,5.623,0,0,0-3.618-3.142,5.631,5.631,0,0,0-5.1.735,5.606,5.606,0,0,0-2.407-2.436,5.576,5.576,0,0,0-4.714-.274,6.652,6.652,0,0,0-3.748,5.3,7.484,7.484,0,0,1-4.656,5.722c-.389.144-.692.245-.836.288h-1.124A.806.806,0,0,0,614-147.418Z" fill="none"/>
    </clipPath>
    <clipPath id="clip-path-17">
      <path id="Trazado_238" data-name="Trazado 238" d="M636.386-127.757a.837.837,0,0,0,.375,1.11c4.814,2.364,9.629,5.348,12.368,11.1a.82.82,0,0,0,.75.476.826.826,0,0,0,.36-.087.813.813,0,0,0,.389-1.1c-2.955-6.213-8.058-9.369-13.132-11.877A.832.832,0,0,0,636.386-127.757Z" fill="none"/>
    </clipPath>
    <clipPath id="clip-path-20">
      <path id="Trazado_243" data-name="Trazado 243" d="M625.488-141.638a.822.822,0,0,0-1.168.029,6.516,6.516,0,0,0-1.629,5.146c.375,2.162,2.061,4.022,5.016,5.55a.842.842,0,0,0,.375.087.812.812,0,0,0,.735-.447.831.831,0,0,0-.36-1.11c-2.465-1.268-3.849-2.724-4.137-4.339a4.867,4.867,0,0,1,1.211-3.748A.835.835,0,0,0,625.488-141.638Z" fill="none"/>
    </clipPath>
    <clipPath id="clip-path-23">
      <path id="Trazado_248" data-name="Trazado 248" d="M662.144-115.519a.812.812,0,0,0,.735.447.841.841,0,0,0,.375-.087.831.831,0,0,0,.36-1.11,27.609,27.609,0,0,0-9.874-10.551.817.817,0,0,0-1.139.245.818.818,0,0,0,.245,1.139A26.1,26.1,0,0,1,662.144-115.519Z" fill="none"/>
    </clipPath>
    <clipPath id="clip-path-26">
      <path id="Trazado_253" data-name="Trazado 253" d="M647.24-128.42a.845.845,0,0,0,.317.072.843.843,0,0,0,.764-.5.826.826,0,0,0-.432-1.081c-.75-.317-1.5-.62-2.249-.879a.814.814,0,0,0-1.052.5.825.825,0,0,0,.5,1.052C645.8-129.011,646.519-128.723,647.24-128.42Z" fill="none"/>
    </clipPath>
  </defs>
  <g id="Grupo_241" data-name="Grupo 241" transform="translate(-609 184)" opacity="0.6" style="isolation: isolate">
    <g id="Grupo_240" data-name="Grupo 240" clip-path="url(#clip-path)">
      <g id="Grupo_205" data-name="Grupo 205" clip-path="url(#clip-path-2)">
        <g id="Grupo_204" data-name="Grupo 204" clip-path="url(#clip-path-3)">
          <path id="Trazado_211" data-name="Trazado 211" d="M654.463-159.222h17.942v25.827H654.463Z" fill="#241862"/>
        </g>
      </g>
      <g id="Grupo_207" data-name="Grupo 207" clip-path="url(#clip-path-3)">
        <g id="Grupo_206" data-name="Grupo 206" transform="translate(659.463 -154.222)">
          <path id="Trazado_214" data-name="Trazado 214" d="M1.168,14.155c-.086.014-.13.029-.144.029a.822.822,0,0,0-.721.865.833.833,0,0,0,.822.778h6a.822.822,0,0,0,0-1.643H4.18a4.984,4.984,0,0,0,1.2-3.229V.822a.822.822,0,0,0-1.643,0V3.575L2.566,2.681A2.349,2.349,0,0,1,1.643.822.822.822,0,1,0,0,.822,4.015,4.015,0,0,0,1.571,3.993l1.24.951A2.349,2.349,0,0,1,3.733,6.8v4.137A3.29,3.29,0,0,1,1.168,14.155Z" fill="none" stroke="#241862" stroke-width="0.933"/>
        </g>
      </g>
      <g id="Grupo_209" data-name="Grupo 209" clip-path="url(#clip-path-5)">
        <g id="Grupo_208" data-name="Grupo 208" clip-path="url(#clip-path-3)">
          <path id="Trazado_216" data-name="Trazado 216" d="M647.9-167.727h22.108v17.208H647.9Z" fill="#241862"/>
        </g>
      </g>
      <g id="Grupo_211" data-name="Grupo 211" clip-path="url(#clip-path-3)">
        <g id="Grupo_210" data-name="Grupo 210" transform="translate(652.904 -162.727)">
          <path id="Trazado_219" data-name="Trazado 219" d="M11.287,5.55H9.5a10.687,10.687,0,0,1-3.95-.706C3.3,3.979,1.99,2.566,1.644.678a.828.828,0,1,0-1.629.3c.447,2.465,2.162,4.339,4.93,5.405A12.416,12.416,0,0,0,9.5,7.208h1.787a.821.821,0,0,0,.822-.822A.843.843,0,0,0,11.287,5.55Z" fill="none" stroke="#241862" stroke-width="0.933"/>
        </g>
      </g>
      <g id="Grupo_213" data-name="Grupo 213" clip-path="url(#clip-path-8)">
        <g id="Grupo_212" data-name="Grupo 212" clip-path="url(#clip-path-3)">
          <path id="Trazado_221" data-name="Trazado 221" d="M669.4-145.038H681.53v11.643H669.4Z" fill="#241862"/>
        </g>
      </g>
      <g id="Grupo_215" data-name="Grupo 215" clip-path="url(#clip-path-3)">
        <g id="Grupo_214" data-name="Grupo 214" transform="translate(674.396 -140.038)">
          <path id="Trazado_224" data-name="Trazado 224" d="M1.312,1.643A.822.822,0,0,0,1.312,0H.822a.822.822,0,1,0,0,1.643Z" fill="none" stroke="#241862" stroke-width="0.933"/>
        </g>
      </g>
      <g id="Grupo_217" data-name="Grupo 217" clip-path="url(#clip-path-11)">
        <g id="Grupo_216" data-name="Grupo 216" clip-path="url(#clip-path-3)">
          <path id="Trazado_226" data-name="Trazado 226" d="M647.482-183.917h38.7v50.494h-38.7Z" fill="#241862"/>
        </g>
      </g>
      <g id="Grupo_219" data-name="Grupo 219" clip-path="url(#clip-path-3)">
        <g id="Grupo_218" data-name="Grupo 218" transform="translate(652.482 -178.917)">
          <path id="Trazado_229" data-name="Trazado 229" d="M27.868,30.678H16.639V23.254c8.2-.966,9.975-6.9,10.335-8.793a5.739,5.739,0,0,0,.1-1.1,9.545,9.545,0,0,0-4.483-7.957,14.879,14.879,0,0,0-3.95-1.932,5.825,5.825,0,0,0-2.306-2.393A8.411,8.411,0,0,0,10.585.148a8.427,8.427,0,0,0-6.227,4.3A7.384,7.384,0,0,0,.25,8.739a6.493,6.493,0,0,0,.577,4.872h0a4.83,4.83,0,0,0,2.739,2.018,1.131,1.131,0,0,0,.2.029.828.828,0,0,0,.2-1.629,3.139,3.139,0,0,1-1.73-1.268,4.862,4.862,0,0,1-.418-3.546A5.986,5.986,0,0,1,5.324,5.8a.777.777,0,0,0,.418-.461c.014-.029,1.11-2.825,5.132-3.575a6.71,6.71,0,0,1,4.6.721,4.218,4.218,0,0,1,1.8,1.975.834.834,0,0,0,.562.49c.3.086,7.524,2.018,7.582,8.432a4.713,4.713,0,0,1-.072.764c-.418,2.191-2.249,7.294-10.364,7.568a.821.821,0,0,0-.793.85.83.83,0,0,0,.793.793V35.622a4.939,4.939,0,0,0,3.863,4.814,2.7,2.7,0,0,0,.288.058h.1a.836.836,0,0,0,.822-.721.826.826,0,0,0-.706-.923c-.014,0-.058-.014-.144-.029a3.274,3.274,0,0,1-2.551-3.2V32.307H27.882a.821.821,0,0,0,.822-.822A.851.851,0,0,0,27.868,30.678Z" fill="none" stroke="#241862" stroke-width="0.933"/>
        </g>
      </g>
      <g id="Grupo_221" data-name="Grupo 221" clip-path="url(#clip-path-14)">
        <g id="Grupo_220" data-name="Grupo 220" clip-path="url(#clip-path-3)">
          <path id="Trazado_231" data-name="Trazado 231" d="M609-164.938h72.931v54.866H609Z" fill="#241862"/>
        </g>
      </g>
      <g id="Grupo_223" data-name="Grupo 223" clip-path="url(#clip-path-3)">
        <g id="Grupo_222" data-name="Grupo 222" transform="translate(614 -159.938)">
          <path id="Trazado_234" data-name="Trazado 234" d="M0,12.52a.821.821,0,0,0,.822.822H6.832a.822.822,0,1,0,0-1.643H5.593A9.338,9.338,0,0,0,9.052,5.99c.259-1.456.951-3.33,2.753-4.065a3.906,3.906,0,0,1,3.3.2A3.82,3.82,0,0,1,17.139,4.78a.816.816,0,0,0,.649.634.8.8,0,0,0,.836-.36A3.737,3.737,0,0,1,22.9,3.943,3.91,3.91,0,0,1,25.47,6.134a2.983,2.983,0,0,1,.231,1.4.817.817,0,0,0,.332.735.829.829,0,0,0,.793.115A4.093,4.093,0,0,1,31.6,9.825a6.685,6.685,0,0,0,1.946,1.888H16.577c-.389.014-9.7.332-12.7,7.784A11.288,11.288,0,0,0,7.769,32.124a14.633,14.633,0,0,0,3.459,1.946c2.825,1.124,12.252,5.189,14.7,10.321a.829.829,0,0,0,1.5-.706c-2.638-5.521-11.777-9.643-15.582-11.157a13.127,13.127,0,0,1-3.07-1.715A9.493,9.493,0,0,1,5.405,20.1c2.566-6.371,10.969-6.732,11.2-6.746h3.777a10.436,10.436,0,0,0-1.139.692A5.009,5.009,0,0,0,20.7,22.942a18.129,18.129,0,0,0,3.387.649h.029a64.474,64.474,0,0,1,15.178,3.344c7.423,2.595,17.268,7.726,22.083,17.47a.826.826,0,0,0,.735.461.781.781,0,0,0,.36-.086.832.832,0,0,0,.375-1.11c-3.993-8.1-11.964-14.429-23.02-18.292a65.417,65.417,0,0,0-15.6-3.431,15.537,15.537,0,0,1-3.056-.591,3.361,3.361,0,0,1-.98-5.968,13.587,13.587,0,0,1,5.953-2.047H44.886a.822.822,0,1,0,0-1.643H39.712c-4.973,0-6.631-2.638-6.688-2.753-.014-.014-.029-.043-.043-.058a5.558,5.558,0,0,0-5.665-2.335,4.706,4.706,0,0,0-.3-1.038,5.623,5.623,0,0,0-3.618-3.142,5.631,5.631,0,0,0-5.1.735A5.607,5.607,0,0,0,15.885.671,5.576,5.576,0,0,0,11.171.4,6.652,6.652,0,0,0,7.423,5.7a7.484,7.484,0,0,1-4.656,5.723c-.389.144-.692.245-.836.288H.807A.806.806,0,0,0,0,12.52Z" fill="none" stroke="#241862" stroke-width="0.933"/>
        </g>
      </g>
      <g id="Grupo_225" data-name="Grupo 225" clip-path="url(#clip-path-17)">
        <g id="Grupo_224" data-name="Grupo 224" clip-path="url(#clip-path-3)">
          <path id="Trazado_236" data-name="Trazado 236" d="M631.3-133.216h24.41v23.144H631.3Z" fill="#241862"/>
        </g>
      </g>
      <g id="Grupo_227" data-name="Grupo 227" clip-path="url(#clip-path-3)">
        <g id="Grupo_226" data-name="Grupo 226" transform="translate(636.301 -128.216)">
          <path id="Trazado_239" data-name="Trazado 239" d="M.085.459a.836.836,0,0,0,.375,1.11c4.814,2.364,9.629,5.348,12.368,11.1a.829.829,0,0,0,1.5-.706C11.371,5.749,6.268,2.593,1.194.085A.832.832,0,0,0,.085.459Z" fill="none" stroke="#241862" stroke-width="0.933"/>
        </g>
      </g>
      <g id="Grupo_229" data-name="Grupo 229" clip-path="url(#clip-path-20)">
        <g id="Grupo_228" data-name="Grupo 228" clip-path="url(#clip-path-3)">
          <path id="Trazado_241" data-name="Trazado 241" d="M617.616-146.867h16.29v21.04h-16.29Z" fill="#241862"/>
        </g>
      </g>
      <g id="Grupo_231" data-name="Grupo 231" clip-path="url(#clip-path-3)">
        <g id="Grupo_230" data-name="Grupo 230" transform="translate(622.616 -141.867)">
          <path id="Trazado_244" data-name="Trazado 244" d="M2.873.229A.822.822,0,0,0,1.7.258,6.516,6.516,0,0,0,.076,5.4c.375,2.162,2.061,4.022,5.016,5.55a.841.841,0,0,0,.375.086.812.812,0,0,0,.735-.447.831.831,0,0,0-.36-1.11C3.377,8.215,1.993,6.759,1.7,5.144A4.867,4.867,0,0,1,2.916,1.4.835.835,0,0,0,2.873.229Z" fill="none" stroke="#241862" stroke-width="0.933"/>
        </g>
      </g>
      <g id="Grupo_233" data-name="Grupo 233" clip-path="url(#clip-path-23)">
        <g id="Grupo_232" data-name="Grupo 232" clip-path="url(#clip-path-3)">
          <path id="Trazado_246" data-name="Trazado 246" d="M647.469-131.953H668.7v21.881H647.469Z" fill="#241862"/>
        </g>
      </g>
      <g id="Grupo_235" data-name="Grupo 235" clip-path="url(#clip-path-3)">
        <g id="Grupo_234" data-name="Grupo 234" transform="translate(652.469 -126.953)">
          <path id="Trazado_249" data-name="Trazado 249" d="M9.675,11.434a.812.812,0,0,0,.735.447.841.841,0,0,0,.375-.086.831.831,0,0,0,.36-1.11A27.609,27.609,0,0,0,1.272.133.817.817,0,0,0,.133.378.817.817,0,0,0,.378,1.517,26.1,26.1,0,0,1,9.675,11.434Z" fill="none" stroke="#241862" stroke-width="0.933"/>
        </g>
      </g>
      <g id="Grupo_237" data-name="Grupo 237" clip-path="url(#clip-path-26)">
        <g id="Grupo_236" data-name="Grupo 236" clip-path="url(#clip-path-3)">
          <path id="Trazado_251" data-name="Trazado 251" d="M639.543-135.863h13.842v12.515H639.543Z" fill="#241862"/>
        </g>
      </g>
      <g id="Grupo_239" data-name="Grupo 239" clip-path="url(#clip-path-3)">
        <g id="Grupo_238" data-name="Grupo 238" transform="translate(644.543 -130.863)">
          <path id="Trazado_254" data-name="Trazado 254" d="M2.7,2.443a.844.844,0,0,0,.317.072.843.843,0,0,0,.764-.5A.826.826,0,0,0,3.345.929C2.6.612,1.846.31,1.1.05a.814.814,0,0,0-1.052.5.825.825,0,0,0,.5,1.052C1.255,1.852,1.976,2.14,2.7,2.443Z" fill="none" stroke="#241862" stroke-width="0.933"/>
        </g>
      </g>
    </g>
  </g>
</svg>
