<svg version="1.1" id="Layer_1" xmlns="http://www.w3.org/2000/svg" xmlns:xlink="http://www.w3.org/1999/xlink" x="0px" y="0px"
	 width="100%" viewBox="0 0 300 300" enable-background="new 0 0 300 300" xml:space="preserve">
<path fill="#443A79" opacity="1.000000" stroke="none" 
	d="
M1.000000,175.000000 
	C1.000000,159.312439 1.000000,143.624878 1.402623,127.499023 
	C3.037901,122.033394 4.095669,116.955482 5.532438,111.987183 
	C13.151688,85.640144 26.156912,62.579197 46.034260,43.310802 
	C68.284401,21.742310 94.341225,8.137214 124.844955,2.900306 
	C125.648369,2.762374 126.285385,1.655181 127.000000,1.000000 
	C142.687561,1.000000 158.375122,1.000000 174.501007,1.402610 
	C179.966660,3.037854 185.044464,4.095846 190.012863,5.532313 
	C216.361069,13.150141 239.420959,26.157610 258.689606,46.034897 
	C280.258270,68.284882 293.862946,94.341766 299.099426,124.845497 
	C299.237335,125.648743 300.344727,126.285561 301.000000,127.000000 
	C301.000000,142.687561 301.000000,158.375122 300.597351,174.500854 
	C298.962555,179.966446 297.907532,185.045181 296.468506,190.012665 
	C288.887054,216.183105 276.015259,239.131485 256.319733,258.338348 
	C234.004074,280.100342 207.838287,293.831970 177.154129,299.099182 
	C176.350983,299.237030 175.714310,300.344635 175.000000,301.000000 
	C159.312439,301.000000 143.624878,301.000000 127.499115,300.597351 
	C122.033447,298.962372 116.955185,297.905640 111.987000,296.468384 
	C85.640785,288.846710 62.579433,275.842102 43.310417,255.964417 
	C21.741528,233.714218 8.137575,207.657684 2.900844,177.154266 
	C2.762953,176.351074 1.655370,175.714355 1.000000,175.000000 
M167.452759,168.804581 
	C152.637695,168.805283 137.822464,168.849106 123.007637,168.790054 
	C114.542664,168.756317 107.517204,171.898483 101.593681,177.851151 
	C92.085175,187.406509 93.777893,199.508759 93.978317,211.249710 
	C93.988884,211.868500 95.257317,212.465820 95.940155,213.073135 
	C96.685966,212.173752 98.017387,211.310669 98.075745,210.368683 
	C98.322327,206.388550 98.154976,202.384521 98.202309,198.389969 
	C98.372734,184.007401 108.683739,173.387512 123.033012,173.240494 
	C140.676102,173.059708 158.324280,173.041000 175.966812,173.247360 
	C189.907242,173.410431 200.071777,183.861954 200.255386,197.728226 
	C200.308289,201.722641 200.109268,205.729462 200.380936,209.706314 
	C200.460693,210.873734 201.761948,211.957733 202.503326,213.079941 
	C203.318222,211.887955 204.763321,210.732956 204.835815,209.497406 
	C205.108353,204.853088 205.163376,200.168579 204.882141,195.524414 
	C204.096085,182.543335 193.674286,171.009415 180.896255,169.158539 
	C176.810532,168.566727 172.591309,168.896484 167.452759,168.804581 
M120.671043,114.079849 
	C118.587112,131.980194 133.179794,147.844559 150.615631,146.633957 
	C166.187592,145.552795 177.909195,133.579758 178.190628,118.467484 
	C178.474075,103.246529 167.337891,90.356430 152.688889,88.949326 
	C136.690201,87.412582 123.699066,97.307541 120.671043,114.079849 
z"/>
<path fill="#000000" opacity="1.000000" stroke="none" 
	d="
M126.531342,1.000000 
	C126.285385,1.655181 125.648369,2.762374 124.844955,2.900306 
	C94.341225,8.137214 68.284401,21.742310 46.034260,43.310802 
	C26.156912,62.579197 13.151688,85.640144 5.532438,111.987183 
	C4.095669,116.955482 3.037901,122.033394 1.402623,127.030365 
	C1.000000,85.073029 1.000000,43.146053 1.000000,1.000000 
	C42.687305,1.000000 84.374992,1.000000 126.531342,1.000000 
z"/>
<path fill="#000000" opacity="1.000000" stroke="none" 
	d="
M301.000000,126.531342 
	C300.344727,126.285561 299.237335,125.648743 299.099426,124.845497 
	C293.862946,94.341766 280.258270,68.284882 258.689606,46.034897 
	C239.420959,26.157610 216.361069,13.150141 190.012863,5.532313 
	C185.044464,4.095846 179.966660,3.037854 174.969666,1.402610 
	C216.926971,1.000000 258.853943,1.000000 301.000000,1.000000 
	C301.000000,42.687305 301.000000,84.374992 301.000000,126.531342 
z"/>
<path fill="#000000" opacity="1.000000" stroke="none" 
	d="
M1.000000,175.468658 
	C1.655370,175.714355 2.762953,176.351074 2.900844,177.154266 
	C8.137575,207.657684 21.741528,233.714218 43.310417,255.964417 
	C62.579433,275.842102 85.640785,288.846710 111.987000,296.468384 
	C116.955185,297.905640 122.033447,298.962372 127.030457,300.597351 
	C85.073029,301.000000 43.146057,301.000000 1.000000,301.000000 
	C1.000000,259.312683 1.000000,217.625000 1.000000,175.468658 
z"/>
<path fill="#000000" opacity="1.000000" stroke="none" 
	d="
M175.468658,301.000000 
	C175.714310,300.344635 176.350983,299.237030 177.154129,299.099182 
	C207.838287,293.831970 234.004074,280.100342 256.319733,258.338348 
	C276.015259,239.131485 288.887054,216.183105 296.468506,190.012665 
	C297.907532,185.045181 298.962555,179.966446 300.597351,174.969513 
	C301.000000,216.926971 301.000000,258.853943 301.000000,301.000000 
	C259.312683,301.000000 217.625000,301.000000 175.468658,301.000000 
z"/>
<path fill="#F7F7F9" opacity="1.000000" stroke="none" 
	d="
M167.942963,168.804596 
	C172.591309,168.896484 176.810532,168.566727 180.896255,169.158539 
	C193.674286,171.009415 204.096085,182.543335 204.882141,195.524414 
	C205.163376,200.168579 205.108353,204.853088 204.835815,209.497406 
	C204.763321,210.732956 203.318222,211.887955 202.503326,213.079956 
	C201.761948,211.957733 200.460693,210.873734 200.380936,209.706314 
	C200.109268,205.729462 200.308289,201.722641 200.255386,197.728226 
	C200.071777,183.861954 189.907242,173.410431 175.966812,173.247360 
	C158.324280,173.041000 140.676102,173.059708 123.033012,173.240494 
	C108.683739,173.387512 98.372734,184.007401 98.202309,198.389969 
	C98.154976,202.384521 98.322327,206.388550 98.075745,210.368683 
	C98.017387,211.310669 96.685966,212.173752 95.940155,213.073135 
	C95.257317,212.465820 93.988884,211.868500 93.978317,211.249710 
	C93.777893,199.508759 92.085175,187.406509 101.593681,177.851151 
	C107.517204,171.898483 114.542664,168.756317 123.007637,168.790054 
	C137.822464,168.849106 152.637695,168.805283 167.942963,168.804596 
z"/>
<path fill="#F4F4F7" opacity="1.000000" stroke="none" 
	d="
M120.734528,113.659752 
	C123.699066,97.307541 136.690201,87.412582 152.688889,88.949326 
	C167.337891,90.356430 178.474075,103.246529 178.190628,118.467484 
	C177.909195,133.579758 166.187592,145.552795 150.615631,146.633957 
	C133.179794,147.844559 118.587112,131.980194 120.734528,113.659752 
M126.598427,126.533157 
	C127.109558,127.577362 127.566467,128.652405 128.140121,129.661057 
	C134.764130,141.307953 149.150146,145.435089 160.926193,139.083145 
	C172.473236,132.854736 176.944977,118.781380 171.147766,106.914040 
	C165.560532,95.476540 152.322983,90.366371 140.325500,95.015572 
	C128.234680,99.700935 122.537735,112.202721 126.598427,126.533157 
z"/>
<path fill="#463C7A" opacity="1.000000" stroke="none" 
	d="
M126.449059,126.163994 
	C122.537735,112.202721 128.234680,99.700935 140.325500,95.015572 
	C152.322983,90.366371 165.560532,95.476540 171.147766,106.914040 
	C176.944977,118.781380 172.473236,132.854736 160.926193,139.083145 
	C149.150146,145.435089 134.764130,141.307953 128.140121,129.661057 
	C127.566467,128.652405 127.109558,127.577362 126.449059,126.163994 
z"/>
</svg>