<?xml version="1.0" encoding="utf-8"?>
<!-- Generator: Adobe Illustrator 24.0.0, SVG Export Plug-In . SVG Version: 6.00 Build 0)  -->
<svg version="1.1" id="Capa_1" xmlns="http://www.w3.org/2000/svg" xmlns:xlink="http://www.w3.org/1999/xlink" x="0px" y="0px"
	 viewBox="0 0 18 18" style="enable-background:new 0 0 18 18;" xml:space="preserve">
<style type="text/css">
	.st0{opacity:0.2;fill-rule:evenodd;clip-rule:evenodd;fill:#251863;enable-background:new    ;}
	.st1{fill-rule:evenodd;clip-rule:evenodd;fill:#FFFFFF;stroke:#FFFFFF;stroke-width:0.6;}
</style>
<title>ic_clear</title>
<g id="Page-1">
	<g id="_x30_4---Filter-Tags" transform="translate(-1317.000000, -200.000000)">
		<g id="Overlay---Changes" transform="translate(83.000000, 127.000000)">
			<g id="filter" transform="translate(1022.000000, 31.000000)">
				<g id="_x30_1" transform="translate(0.000000, 32.000000)">
					<g id="elements_x2F_clear" transform="translate(212.000000, 10.000000)">
						<path id="Rectangle" class="st0" d="M9,0L9,0c5,0,9,4,9,9l0,0c0,5-4,9-9,9l0,0c-5,0-9-4-9-9l0,0C0,4,4,0,9,0z"/>
						<path id="ic_close-white" class="st1" d="M8.5,9L6.1,6.6C6,6.5,6,6.3,6.1,6.1C6.3,6,6.5,6,6.6,6.1L9,8.5l2.4-2.4
							c0.1-0.1,0.4-0.1,0.5,0c0.1,0.1,0.1,0.4,0,0.5L9.5,9l2.4,2.4c0.1,0.1,0.1,0.4,0,0.5c-0.1,0.1-0.4,0.1-0.5,0L9,9.5l-2.4,2.4
							c-0.1,0.1-0.4,0.1-0.5,0c-0.1-0.1-0.1-0.4,0-0.5L8.5,9L8.5,9z"/>
					</g>
				</g>
			</g>
		</g>
	</g>
</g>
</svg>
