<svg width="120" height="79" viewBox="0 0 120 79" fill="none" xmlns="http://www.w3.org/2000/svg">
<path d="M9.76723 0C4.37992 0 0 4.38092 0 9.76723V68.3721C0 73.7594 4.38091 78.1394 9.76723 78.1394H110.233C115.62 78.1394 120 73.7584 120 68.3721V9.76723C120 4.37992 115.619 0 110.233 0H9.76723ZM9.76723 2.79046H110.233C114.122 2.79046 117.21 5.87793 117.21 9.76723V68.3721C117.21 72.2614 114.122 75.3489 110.233 75.3489H9.76723C5.87793 75.3489 2.79046 72.2614 2.79046 68.3721V9.76723C2.79046 5.87793 5.87793 2.79046 9.76723 2.79046ZM103.43 16.6563C103.143 16.7205 102.885 16.8724 102.69 17.0923L64.9703 51.0593C62.0894 53.6541 57.8173 53.6561 54.9412 51.0593L17.3114 17.0923C17.0428 16.8325 16.6817 16.6913 16.308 16.7001C15.7376 16.7205 15.2363 17.0865 15.0446 17.6248C14.8519 18.163 15.0076 18.7635 15.4359 19.1412L37.8923 39.4174L15.4797 58.9093C15.1936 59.1516 15.0164 59.4972 14.9862 59.8709C14.957 60.2447 15.0768 60.6146 15.3211 60.8988C15.5644 61.183 15.9119 61.3591 16.2856 61.3864C16.6594 61.4136 17.0283 61.292 17.3115 61.0457L39.8119 41.5112C39.8897 41.4606 39.9627 41.4022 40.0299 41.337L53.1113 53.1542C57.0163 56.6804 62.8953 56.6747 66.803 53.1542L79.9722 41.2932C80.0374 41.374 80.1094 41.447 80.1892 41.5112L102.69 61.0457C102.973 61.2919 103.342 61.4136 103.715 61.3863C104.089 61.3591 104.437 61.1829 104.68 60.8987C104.924 60.6145 105.044 60.2446 105.015 59.8709C104.985 59.4971 104.808 59.1516 104.521 58.9092L82.0649 39.4174L104.565 19.1411C105.097 18.7498 105.282 18.0393 105.008 17.4378C104.734 16.8373 104.075 16.5103 103.43 16.6563Z" fill="black"/>
</svg>
