<svg xmlns="http://www.w3.org/2000/svg" width="174.227" height="234.006" viewBox="0 0 174.227 234.006">
  <g id="clipboard" transform="translate(-51.988 -0.001)">
    <g id="Grupo_50" data-name="Grupo 50" transform="translate(51.988 0.001)">
      <g id="Grupo_49" data-name="Grupo 49">
        <path id="Trazado_50" data-name="Trazado 50" d="M213.684,17.734H196.562a4.807,4.807,0,0,1-4.506-3.6A17.421,17.421,0,0,0,174.334.012,17.721,17.721,0,0,0,156.612,14.43a4.506,4.506,0,0,1-4.506,3.3H135.585V47.773h78.1Z" transform="translate(-87.521 -0.001)" fill="#fff"/>
        <path id="Trazado_51" data-name="Trazado 51" d="M226.211,246.6V74.481a12.316,12.316,0,0,0-12.283-12.349q-.467,0-.934.033H187.162V77.485c0,2.4-1.5,5.707-3.905,5.707H94.645c-2.4,0-3.6-3.3-3.6-5.707V62.166H65.208A12.315,12.315,0,0,0,52.024,73.548q-.034.467-.033.934V246.6A13.517,13.517,0,0,0,65.2,260.416H213a13.517,13.517,0,0,0,13.217-13.811A.028.028,0,0,1,226.211,246.6ZM114.77,206.949l-23.43,21.928a4.2,4.2,0,0,1-3,1.5,4.808,4.808,0,0,1-3.3-1.5L72.718,216.261a4.573,4.573,0,0,1,6.608-6.308l9.011,9.612,20.426-19.224a4.506,4.506,0,0,1,6.008,6.608Zm0-48.061h0l-23.43,21.928a4.2,4.2,0,0,1-3,1.5,4.808,4.808,0,0,1-3.3-1.5L72.718,168.2a4.573,4.573,0,0,1,6.608-6.308l9.011,9.612,20.426-19.224a4.506,4.506,0,0,1,6.008,6.608Zm0-48.061-23.43,21.928a4.2,4.2,0,0,1-3,1.5,4.808,4.808,0,0,1-3.3-1.5L72.718,120.139a4.573,4.573,0,0,1,6.608-6.308l9.011,9.612,20.426-19.224a4.506,4.506,0,0,1,6.008,6.608Zm87.411,113.544H133.093a4.506,4.506,0,0,1,0-9.012H202.18a4.506,4.506,0,0,1,0,9.012Zm0-48.061H133.093a4.506,4.506,0,0,1,0-9.012H202.18a4.506,4.506,0,0,1,0,9.012Zm0-48.061H133.093a4.506,4.506,0,0,1,0-9.012H202.18a4.506,4.506,0,0,1,0,9.012Z" transform="translate(-51.988 -26.41)" fill="#fff"/>
      </g>
    </g>
  </g>
</svg>
