<svg xmlns="http://www.w3.org/2000/svg" xmlns:xlink="http://www.w3.org/1999/xlink" width="18.199" height="18.364" viewBox="0 0 18.199 18.364">
  <defs>
    <clipPath id="clip-path">
      <path id="Trazado_188" data-name="Trazado 188" d="M183.931-354.963l5.582,3.6.489.315.488-.315,4.611-2.982v12.236l-5.091,3.056-5.533-3.449-.476-.3-.476.3-4.623,2.882V-352.4l5.031-2.563M196-356l-6,3.879L183.983-356,178-352.952V-338l6-3.74,6,3.74,6-3.6V-356Z" fill="none"/>
    </clipPath>
  </defs>
  <g id="Grupo_363" data-name="Grupo 363" transform="translate(12308.1 1535.184)">
    <g id="Grupo_151" data-name="Grupo 151" transform="translate(-12486 -1179)" style="isolation: isolate">
      <g id="Grupo_150" data-name="Grupo 150" transform="translate(187.011 -347.52)">
        <path id="Trazado_180" data-name="Trazado 180" d="M4.9,5.544,3.034,4.234,1.166,5.544l.713-2.118L0,2.11H2.322L3.033,0l.711,2.11H6.067L4.188,3.426Z" fill="none" stroke="#27c499" stroke-width="0.9"/>
      </g>
    </g>
    <g id="Grupo_153" data-name="Grupo 153" transform="translate(-12486 -1179)" style="isolation: isolate">
      <g id="Grupo_152" data-name="Grupo 152" transform="translate(189.595 -340.902)">
        <path id="Trazado_181" data-name="Trazado 181" d="M.45,0V2.592" fill="none" stroke="#27c499" stroke-width="0.9"/>
      </g>
    </g>
    <g id="Grupo_155" data-name="Grupo 155" transform="translate(-12486 -1179)" style="isolation: isolate">
      <g id="Grupo_154" data-name="Grupo 154" transform="translate(189.595 -352.121)">
        <path id="Trazado_182" data-name="Trazado 182" d="M.45,0V2.523" fill="none" stroke="#27c499" stroke-width="0.9"/>
      </g>
    </g>
    <g id="Grupo_157" data-name="Grupo 157" transform="translate(-12486 -1179)" style="isolation: isolate">
      <g id="Grupo_156" data-name="Grupo 156" transform="translate(183.551 -344.463)">
        <path id="Trazado_183" data-name="Trazado 183" d="M.45,0V2.592" fill="none" stroke="#27c499" stroke-width="0.9"/>
      </g>
    </g>
    <g id="Grupo_159" data-name="Grupo 159" transform="translate(-12486 -1179)" style="isolation: isolate">
      <g id="Grupo_158" data-name="Grupo 158" transform="translate(183.551 -348.03)">
        <path id="Trazado_184" data-name="Trazado 184" d="M.45,0V2.005" fill="none" stroke="#27c499" stroke-width="0.9"/>
      </g>
    </g>
    <g id="Grupo_161" data-name="Grupo 161" transform="translate(-12486 -1179)" style="isolation: isolate">
      <g id="Grupo_160" data-name="Grupo 160" transform="translate(183.551 -351.597)">
        <path id="Trazado_185" data-name="Trazado 185" d="M.45,0V2.005" fill="none" stroke="#27c499" stroke-width="0.9"/>
      </g>
    </g>
    <g id="Grupo_163" data-name="Grupo 163" transform="translate(-12486 -1179)" style="isolation: isolate">
      <g id="Grupo_162" data-name="Grupo 162" transform="translate(183.551 -355.682)">
        <path id="Trazado_186" data-name="Trazado 186" d="M.45,0V2.523" fill="none" stroke="#27c499" stroke-width="0.9"/>
      </g>
    </g>
    <g id="Grupo_164" data-name="Grupo 164" transform="translate(-12486 -1179)" clip-path="url(#clip-path)">
      <path id="Trazado_187" data-name="Trazado 187" d="M173-361h28v28H173Z" fill="#27c499"/>
    </g>
    <g id="Grupo_165" data-name="Grupo 165" transform="translate(-12308 -1535)">
      <path id="Trazado_189" data-name="Trazado 189" d="M5.931,1.037l5.582,3.6L12,4.95l.488-.315L17.1,1.653V13.889l-5.091,3.056L6.476,13.5,6,13.2l-.476.3L.9,16.378V3.6L5.931,1.037M18,0,12,3.879,5.983,0,0,3.048V18l6-3.74L12,18l6-3.6V0Z" fill="none" stroke="#28c499" stroke-width="0.2"/>
    </g>
  </g>
</svg>
