<svg xmlns="http://www.w3.org/2000/svg" width="140.089" height="140.187" viewBox="0 0 140.089 140.187">
  <g id="Grupo_55" data-name="Grupo 55" transform="translate(-890.854 -1099.743)">
    <path id="Trazado_67" data-name="Trazado 67" d="M978.89,1192.189a12.1,12.1,0,0,0,8.625,3.588,12.261,12.261,0,0,0,8.675-20.933L978.54,1157.1a21.691,21.691,0,0,0,22.2-19.769,21.781,21.781,0,0,0-1.64-10.391,2.82,2.82,0,0,0-4.6-.893l-11.51,11.571H977v-6.067l11.52-11.6a2.821,2.821,0,0,0-.908-4.582,21.689,21.689,0,0,0-29.048,26.722l-.8.811-9.562-9.622a2.822,2.822,0,0,0-.3-3.644,2.706,2.706,0,0,0-.255-.225L932.666,1117.7a2.82,2.82,0,0,0-3.734.231l-6.661,6.688a2.824,2.824,0,0,0-.231,3.711L933.7,1143.4a2.824,2.824,0,0,0,3.868.576l9.554,9.6-23.229,23.349a9.988,9.988,0,0,0,0,14.008,9.786,9.786,0,0,0,13.816.169l20.049-20.138ZM947.884,1141c1.554,1.551,3.485,3.478,5.885,5.894l-2.68,2.691-11.5-11.567a2.883,2.883,0,0,0-3.313-.5l-8.265-10.672,3.152-3.167,10.633,8.311a2.009,2.009,0,0,0-.318,1.045C941.332,1134.461,941.332,1134.461,947.884,1141Zm23.186,16.591,21.122,21.232a6.714,6.714,0,0,1,0,9.39l-.138.14a6.7,6.7,0,0,1-9.167-.13l-21.158-21.247Zm-15.318,7.381-.007-.007-.706.708,0,0c-1.645,1.657-6.757,6.8-21.169,21.29l-.059.058a4.225,4.225,0,0,1-2.937,1.176h-.021a4.261,4.261,0,0,1-2.975-7.29l4.312-4.336.128-.129.574-.576.231-.232,26.392-26.544a1.119,1.119,0,0,0,.162-.163v0c.211-.166.529-.489,1.08-1.047l3.061-3.1a2.809,2.809,0,0,0,.594-3.078,16.1,16.1,0,0,1,16.688-22.282l-8.921,8.98a2.8,2.8,0,0,0-.819,1.987v10.037a2.822,2.822,0,0,0,2.819,2.817h9.982a2.834,2.834,0,0,0,2-.831l8.9-8.951a16.046,16.046,0,0,1-22.146,16.771,2.806,2.806,0,0,0-3.1.608l-4.073,4.1c-4.216,4.233-8.679,8.7-9.761,9.787A3.282,3.282,0,0,0,955.752,1164.974Z" fill="#fff"/>
    <path id="Trazado_68" data-name="Trazado 68" d="M1014.218,1099.743H907.58a16.773,16.773,0,0,0-16.726,16.728v78.818a16.773,16.773,0,0,0,16.727,16.727h22.768c-.073,4.066-1.094,13-8.135,18.765a5.136,5.136,0,0,0,3.21,9.149c.1,0,.205,0,.307-.009,11.386-.778,31.316-5.444,37.334-27.905h51.156a16.773,16.773,0,0,0,16.722-16.728V1116.47A16.772,16.772,0,0,0,1014.218,1099.743Zm-78.331,109.2a6.063,6.063,0,0,0-.3-1,4.166,4.166,0,0,0-.617-.819l-.085-.08c-.623-.6-.728-.7-7.925-.7-1.461,0-3.214,0-5.322.008-3.555.009-8.136.02-14.057.02a11.119,11.119,0,0,1-11.093-11.087v-78.817a11.118,11.118,0,0,1,11.092-11.091h106.636a11.117,11.117,0,0,1,11.091,11.091v78.817a11.117,11.117,0,0,1-11.091,11.092c-14.752,0-25.436-.005-33.182-.009-20.517-.009-20.519-.01-20.977.17a2.705,2.705,0,0,0-1.6,1.3,7,7,0,0,0-.324.764c-4.234,19.773-20.737,24.541-31.2,25.528C937.446,1224.43,935.955,1209.541,935.887,1208.942Z" fill="#fff"/>
    <path id="Trazado_69" data-name="Trazado 69" d="M907.581,1109.017h-2.318a2.818,2.818,0,0,0,0,5.635h2.32a2.818,2.818,0,0,0,0-5.635Z" fill="#fff"/>
    <path id="Trazado_70" data-name="Trazado 70" d="M931.263,1111.835a2.822,2.822,0,0,0-2.819-2.818h-11.59a2.818,2.818,0,0,0,0,5.635h11.59A2.821,2.821,0,0,0,931.263,1111.835Z" fill="#fff"/>
    <path id="Trazado_71" data-name="Trazado 71" d="M995.671,1197.106h-2.318a2.818,2.818,0,1,0,0,5.636h2.318a2.818,2.818,0,0,0,0-5.636Z" fill="#fff"/>
    <path id="Trazado_72" data-name="Trazado 72" d="M1004.943,1202.742h11.592a2.818,2.818,0,1,0,0-5.636h-11.592a2.818,2.818,0,0,0,0,5.636Z" fill="#fff"/>
  </g>
</svg>
