<svg width="18" height="18" viewBox="0 0 18 18" fill="none" xmlns="http://www.w3.org/2000/svg">
<g clip-path="url(#clip0_2860_147212)">
<path fill-rule="evenodd" clip-rule="evenodd" d="M13.1427 12.5427C13.2578 12.8864 12.867 13.1772 12.571 12.9683L12.0106 12.5729C11.881 12.4815 11.7078 12.4815 11.5782 12.5729L11.0173 12.9687C10.7213 13.1775 10.3305 12.8869 10.4454 12.5433L10.6474 11.9396C10.7 11.7825 10.6433 11.6096 10.5079 11.5141L9.97997 11.1419C9.68079 10.9311 9.83004 10.4604 10.196 10.4604H10.8719C11.0332 10.4604 11.1764 10.3574 11.2276 10.2045L11.438 9.57619C11.5523 9.23502 12.0349 9.23502 12.1492 9.57619L12.3596 10.2045C12.4109 10.3574 12.554 10.4604 12.7152 10.4604H13.392C13.7579 10.4604 13.9072 10.9311 13.6081 11.1419L13.0802 11.514C12.9448 11.6095 12.8881 11.7825 12.9407 11.9397L13.1427 12.5427Z" stroke="white" stroke-width="0.9"/>
<path d="M11.7891 14.6191V17.0099" stroke="white" stroke-width="0.9"/>
<path d="M11.7891 4.26953V6.59638" stroke="white" stroke-width="0.9"/>
<path d="M6.25 11.334V13.7248" stroke="white" stroke-width="0.9"/>
<path d="M6.25 8.04297V9.89254" stroke="white" stroke-width="0.9"/>
<path d="M6.25 4.75391V6.60344" stroke="white" stroke-width="0.9"/>
<path d="M6.25 0.984375V3.31123" stroke="white" stroke-width="0.9"/>
<path fill-rule="evenodd" clip-rule="evenodd" d="M11.5453 4.13758C11.6696 4.21821 11.8297 4.21811 11.9539 4.13733L16.6705 1.06924C16.92 0.906967 17.25 1.08599 17.25 1.38359V13.7611C17.25 13.8925 17.1813 14.0142 17.0689 14.0821L11.9474 17.1755C11.8262 17.2487 11.6741 17.2474 11.5542 17.1722L6.44954 13.9699C6.32769 13.8934 6.17285 13.8934 6.051 13.9699L1.32426 16.9347C1.07452 17.0914 0.75 16.9118 0.75 16.617V3.73311C0.75 3.59243 0.828735 3.46358 0.953925 3.3994L6.04149 0.791295C6.16095 0.730054 6.30404 0.737342 6.41666 0.810405L11.5453 4.13758ZM11.3031 4.96775L6.3685 1.76698C6.25588 1.69393 6.11281 1.68664 5.99336 1.74788L1.77863 3.90856C1.65344 3.97274 1.57471 4.10158 1.57471 4.24227V15.1214C1.57471 15.4162 1.89921 15.5958 2.14896 15.4391L5.81273 13.1412L6.04979 12.9924C6.17169 12.9159 6.32663 12.9159 6.44852 12.9924L6.68558 13.1412L11.5621 16.1996C11.6821 16.2748 11.8341 16.2761 11.9553 16.2029L16.2436 13.6126C16.356 13.5446 16.4247 13.4229 16.4247 13.2916V2.90895C16.4247 2.61133 16.0946 2.43231 15.8452 2.59464L12.1982 4.96775L11.9552 5.12566C11.831 5.20633 11.671 5.2064 11.5468 5.12584L11.3031 4.96775Z" fill="white"/>
<path d="M16.5903 0.94311L11.8737 4.0112L12.0373 4.26268L16.7539 1.19459L16.5903 0.94311ZM17.4016 13.7608V1.3832H17.1016V13.7608H17.4016ZM12.0265 17.3035L17.148 14.2102L16.9929 13.9534L11.8714 17.0467L12.0265 17.3035ZM6.37139 14.0965L11.476 17.2989L11.6354 17.0448L6.53082 13.8424L6.37139 14.0965ZM1.40553 17.0614L6.13226 14.0965L5.97285 13.8424L1.24612 16.8073L1.40553 17.0614ZM0.601562 3.73272V16.6166H0.901563V3.73272H0.601562ZM5.97462 0.657423L0.887057 3.26554L1.02392 3.5325L6.11148 0.92439L5.97462 0.657423ZM11.6286 4.01135L6.49985 0.684174L6.33658 0.93585L11.4653 4.26303L11.6286 4.01135ZM6.28844 1.89243L11.2231 5.09321L11.3863 4.84152L6.4517 1.64074L6.28844 1.89243ZM1.84863 4.04165L6.06335 1.88098L5.92649 1.61401L1.71177 3.77469L1.84863 4.04165ZM1.72627 15.121V4.24188H1.42627V15.121H1.72627ZM5.73459 13.0138L2.07082 15.3117L2.23022 15.5658L5.894 13.2679L5.73459 13.0138ZM5.97161 12.865L5.73459 13.0138L5.894 13.2679L6.1311 13.1191L5.97161 12.865ZM6.76689 13.0138L6.52983 12.865L6.37034 13.1191L6.6074 13.2679L6.76689 13.0138ZM11.6434 16.0722L6.76689 13.0138L6.6074 13.2679L11.484 16.3263L11.6434 16.0722ZM16.1676 13.4838L11.8792 16.0741L12.0344 16.3309L16.3227 13.7406L16.1676 13.4838ZM16.2763 2.90856V13.2912H16.5763V2.90856H16.2763ZM12.2815 5.09314L15.9286 2.71997L15.7649 2.46853L12.118 4.84164L12.2815 5.09314ZM12.0385 5.25105L12.2815 5.09314L12.118 4.84164L11.875 4.99949L12.0385 5.25105ZM11.2231 5.09321L11.4668 5.25129L11.63 4.9996L11.3863 4.84152L11.2231 5.09321ZM11.875 4.99949C11.8006 5.0479 11.7046 5.04793 11.63 4.9996L11.4668 5.25129C11.6407 5.36409 11.8647 5.36399 12.0385 5.25105L11.875 4.99949ZM16.5763 2.90856C16.5763 2.49189 16.1142 2.24127 15.7649 2.46853L15.9286 2.71997C16.0783 2.62258 16.2763 2.72999 16.2763 2.90856H16.5763ZM16.3227 13.7406C16.4801 13.6455 16.5763 13.475 16.5763 13.2912H16.2763C16.2763 13.37 16.2351 13.4431 16.1676 13.4838L16.3227 13.7406ZM11.484 16.3263C11.6519 16.4316 11.8648 16.4334 12.0344 16.3309L11.8792 16.0741C11.8066 16.1181 11.7154 16.1173 11.6434 16.0722L11.484 16.3263ZM6.1311 13.1191C6.20424 13.0732 6.2972 13.0732 6.37034 13.1191L6.52983 12.865C6.35918 12.7579 6.14226 12.7579 5.97161 12.865L6.1311 13.1191ZM1.71177 3.77469C1.53651 3.86454 1.42627 4.04492 1.42627 4.24188H1.72627C1.72627 4.15747 1.77351 4.08016 1.84863 4.04165L1.71177 3.77469ZM6.4517 1.64074C6.29403 1.53847 6.09373 1.52828 5.92649 1.61401L6.06335 1.88098C6.13502 1.84423 6.22087 1.8486 6.28844 1.89243L6.4517 1.64074ZM6.11148 0.92439C6.18316 0.88764 6.269 0.892012 6.33658 0.93585L6.49985 0.684174C6.34218 0.581889 6.14186 0.571686 5.97462 0.657423L6.11148 0.92439ZM0.901563 3.73272C0.901563 3.64831 0.948805 3.571 1.02392 3.5325L0.887057 3.26554C0.711796 3.35539 0.601562 3.53577 0.601562 3.73272H0.901563ZM1.24612 16.8073C1.09627 16.9012 0.901563 16.7935 0.901563 16.6166H0.601562C0.601562 17.0293 1.05588 17.2807 1.40553 17.0614L1.24612 16.8073ZM6.53082 13.8424C6.36023 13.7354 6.14345 13.7354 5.97285 13.8424L6.13226 14.0965C6.20537 14.0507 6.29828 14.0507 6.37139 14.0965L6.53082 13.8424ZM11.8714 17.0467C11.7986 17.0907 11.7074 17.0899 11.6354 17.0448L11.476 17.2989C11.6439 17.4043 11.8568 17.4061 12.0265 17.3035L11.8714 17.0467ZM17.1016 13.7608C17.1016 13.8395 17.0603 13.9126 16.9929 13.9534L17.148 14.2102C17.3054 14.1151 17.4016 13.9446 17.4016 13.7608H17.1016ZM11.8737 4.0112C11.7992 4.05967 11.7031 4.05973 11.6286 4.01135L11.4653 4.26303C11.6393 4.3759 11.8634 4.37577 12.0373 4.26268L11.8737 4.0112ZM1.42627 15.121C1.42627 15.5338 1.88058 15.7851 2.23022 15.5658L2.07082 15.3117C1.92097 15.4057 1.72627 15.298 1.72627 15.121H1.42627ZM16.7539 1.19459C16.9036 1.09723 17.1016 1.20464 17.1016 1.3832H17.4016C17.4016 0.966562 16.9396 0.715931 16.5903 0.94311L16.7539 1.19459Z" fill="white"/>
</g>
<defs>
<clipPath id="clip0_2860_147212">
<rect width="18" height="18" fill="white"/>
</clipPath>
</defs>
</svg>
