<svg xmlns="http://www.w3.org/2000/svg" xmlns:xlink="http://www.w3.org/1999/xlink" width="16" height="18" viewBox="0 0 16 18">
  <defs>
    <clipPath id="clip-path">
      <rect id="Rectángulo_1" data-name="Rectángulo 1" width="16" height="18" transform="translate(0 -105)" fill="none"/>
    </clipPath>
    <clipPath id="clip-path-2">
      <path id="Trazado_3" data-name="Trazado 3" d="M15.5-96.25V-90a2.21,2.21,0,0,1-2.25,2.25H2.75A2.21,2.21,0,0,1,.5-90v-6.25A.709.709,0,0,1,1.25-97a.709.709,0,0,1,.75.75V-90a.709.709,0,0,0,.75.75h10.5A.709.709,0,0,0,14-90v-6.25a.709.709,0,0,1,.75-.75A.709.709,0,0,1,15.5-96.25Z" fill="none"/>
    </clipPath>
    <clipPath id="clip-path-3">
      <path id="Trazado_2" data-name="Trazado 2" d="M0-87H16v-18H0Z" fill="none"/>
    </clipPath>
    <clipPath id="clip-path-4">
      <path id="Trazado_6" data-name="Trazado 6" d="M7.475-104.025c.075-.075.15-.15.225-.15a.451.451,0,0,1,.3-.075.451.451,0,0,1,.3.075c.075.075.15.075.225.15l3,3a.725.725,0,0,1,0,1.05.725.725,0,0,1-1.05,0L8.75-101.7V-93a.709.709,0,0,1-.75.75A.709.709,0,0,1,7.25-93v-8.7L5.525-99.975a.725.725,0,0,1-1.05,0,.725.725,0,0,1,0-1.05Z" fill="none"/>
    </clipPath>
  </defs>
  <g id="Grupo_10" data-name="Grupo 10" transform="translate(0 105)" style="isolation: isolate">
    <g id="Grupo_9" data-name="Grupo 9" clip-path="url(#clip-path)">
      <g id="Grupo_6" data-name="Grupo 6" clip-path="url(#clip-path-2)">
        <g id="Grupo_5" data-name="Grupo 5" clip-path="url(#clip-path-3)">
          <path id="Trazado_1" data-name="Trazado 1" d="M-4.5-102h25v19.25h-25Z" fill="#fff"/>
        </g>
      </g>
      <g id="Grupo_8" data-name="Grupo 8" clip-path="url(#clip-path-4)">
        <g id="Grupo_7" data-name="Grupo 7" clip-path="url(#clip-path-3)">
          <path id="Trazado_4" data-name="Trazado 4" d="M-.75-87.25h17.5v-22H-.75Z" fill="#fff"/>
        </g>
      </g>
    </g>
  </g>
</svg>
