<svg xmlns="http://www.w3.org/2000/svg" width="133.994" height="158.914" viewBox="0 0 133.994 158.914">
  <g id="Grupo_53" data-name="Grupo 53" transform="translate(-1005.876 -1128.991)">
    <path id="Trazado_65" data-name="Trazado 65" d="M1139.834,1268.182c-.017-.594-.033-1.177-.033-1.737V1140.951l0-.707c0-.487.007-.974,0-1.461a9.2,9.2,0,0,0-9.078-9.064c-2.164-.06-4.358-.061-6.487-.058-1.074,0-2.149,0-3.222-.007l-98.5-.663h-.031a3.219,3.219,0,0,0-2.76,1.41,2.977,2.977,0,0,0-.22.288l-11.5,17.5a2.547,2.547,0,0,0-.194.358,9.227,9.227,0,0,0-1.93,5.493c-.012.509-.008,1.02,0,1.529l0,122.134a11.635,11.635,0,0,0,.5,4.089,9.381,9.381,0,0,0,9.175,6.114h98.009a9.59,9.59,0,0,0,6.567-2.1,8.675,8.675,0,0,0,2.5-3.628.375.375,0,0,1,.344-.245,26.45,26.45,0,0,0,2.956-.3l.406-.057c1.026-.14,2.055-.267,3.083-.393l1.652-.206c3.752-.477,6.448-2.233,7.8-5.079C1139.984,1273.538,1139.9,1270.692,1139.834,1268.182Zm-7.032,1.233c0,.708,0,1.414,0,2.122l0,.262a2.374,2.374,0,0,1,0,.348,2.144,2.144,0,0,1-1.327,1.7c-.061.018-.188.049-.3.077l-.2.05c-.245.034-.491.064-.737.093l-.38.047c-.863.11-1.75.228-2.631.345-1.119.149-2.23.3-3.281.425l-.012,0a.35.35,0,0,1-.274-.089.478.478,0,0,1-.143-.387l-.013-1.1.124-112.01q.009-3.419.005-6.834a9.177,9.177,0,0,0-6.836-9.214,12.462,12.462,0,0,0-2.987-.28l-.555,0-87.727,0q-1.57,0-3.142-.008t-3.151-.007a.388.388,0,0,1-.355-.21.382.382,0,0,1,.019-.4l5.365-8.163a.4.4,0,0,1,.335-.181h0l97.216.654c1,.008,2,0,3.007-.011,1.946-.018,3.961-.035,5.912.071,1.9.1,2.171,1.457,2.084,4.66-.009.349-.018.684-.018,1Zm-15.354,8.736h0l-.993-.094a11.9,11.9,0,0,1-.313,1.4c-.035.12-.079.239-.088.275a6.031,6.031,0,0,1-.3.555l-.051.076-.127.121c-.052.045-.127.112-.206.195a2.037,2.037,0,0,1-.638.2,5.628,5.628,0,0,1-.634.03c-.35,0-.7,0-1.043,0h-87.689c-1.143,0-2.287.009-3.431.017-2.242.017-4.557.034-6.824-.017-2.1-.045-2.293-1.4-2.238-4.495.005-.288.01-.571.01-.844V1154.872c0-2.1.729-2.6,1.517-2.821a4.057,4.057,0,0,1,1.06-.107c.237,0,.482.009.725.017s.5.017.728.017h97.5a2.06,2.06,0,0,1,1.535.494c.75.764.718,2.486.691,4.006-.006.281-.011.556-.011.82l-.127,112.025c-.008,2.044-.015,4.089,0,6.126l0,2.1-.043.5.995.1Z" fill="#fff"/>
    <path id="Trazado_66" data-name="Trazado 66" d="M1082.86,1208.209a158.736,158.736,0,0,0-14.184-27.107l-.068-.1a3.206,3.206,0,0,0-.524-.728,3.357,3.357,0,0,0-2.746-1.219h-.046a3.363,3.363,0,0,0-2.574,1.171,3.094,3.094,0,0,0-.5.669,153.241,153.241,0,0,0-12.352,22.513,84.815,84.815,0,0,0-6.477,19.491c-1.365,7.741-.727,13.739,1.952,18.338,3.941,6.766,11.581,8.7,17.3,9.129,1.05.079,2.164.128,3.318.128,5.8,0,12.59-1.225,17.147-5.972,4.741-4.937,5.269-11.841,4.877-16.763C1087.51,1221.928,1085.885,1215.715,1082.86,1208.209Zm-3.763,30.176c-.108.165-.222.326-.336.488l-.2.246c-.079.092-.156.184-.236.272a14.108,14.108,0,0,1-1.1,1.056l-.135.11-.174.129-.218.145c-.2.135-.4.27-.612.4a18.941,18.941,0,0,1-7.627,2.15,37.558,37.558,0,0,1-5.674,0,19.609,19.609,0,0,1-4.415-.753,20.148,20.148,0,0,1-2-.67l-.476-.223c-.334-.163-.662-.337-.982-.525-.236-.138-.469-.283-.693-.434l-.389-.27a13.114,13.114,0,0,1-1.241-1.147c-.13-.138-.252-.283-.375-.426l-.354-.462a12.6,12.6,0,0,1-.866-1.479c-.027-.055-.087-.192-.141-.315-.066-.148-.1-.234-.134-.3l0,0c-.052-.132-.1-.264-.151-.4a15.729,15.729,0,0,1-.51-1.815c-.059-.264-.111-.53-.158-.792l-.075-.47c-.064-.63-.117-1.26-.139-1.894a30.439,30.439,0,0,1,.166-4.2c.028-.253.058-.505.084-.715.007-.05.038-.256.065-.447l.041-.287q.189-1.187.437-2.361c.3-1.432.668-2.884,1.121-4.44a89.252,89.252,0,0,1,3.275-9.2l.3-.71c.158-.368.315-.735.476-1.1q.5-1.139,1.023-2.267c.643-1.391,1.337-2.827,2.06-4.268,1.254-2.5,2.617-5.043,4.049-7.569.795-1.4,1.651-2.857,2.6-4.415a161.39,161.39,0,0,1,8.639,16.277q.5,1.077.974,2.163l.858,2.009c.629,1.526,1.211,3.034,1.73,4.482a69.954,69.954,0,0,1,2.66,9.135q.219,1.028.4,2.063c.059.356.114.712.178,1.156l.068.578a31.134,31.134,0,0,1,.191,4.1c-.013.615-.051,1.221-.107,1.8l-.073.578c-.048.287-.1.574-.158.859a16.437,16.437,0,0,1-.44,1.662c-.047.144-.1.287-.152.429l-.171.457c-.026.058-.05.117-.081.177A15.1,15.1,0,0,1,1079.1,1238.385Z" fill="#fff"/>
  </g>
</svg>
