<svg width="24" height="24" viewBox="0 0 24 24" fill="none" xmlns="http://www.w3.org/2000/svg">
  <path fill-rule="evenodd" clip-rule="evenodd" d="M17.5195 16.7224C17.673 17.1806 17.1519 17.5683 16.7572 17.2898L16.01 16.7626C15.8372 16.6407 15.6063 16.6407 15.4335 16.7626L14.6856 17.2904C14.2909 17.5688 13.7699 17.1813 13.9231 16.7232L14.1924 15.9182C14.2625 15.7087 14.1869 15.4782 14.0064 15.3509L13.3025 14.8546C12.9036 14.5735 13.1026 13.946 13.5906 13.946H14.4918C14.7068 13.946 14.8977 13.8086 14.966 13.6048L15.2466 12.767C15.3989 12.3121 16.0424 12.3121 16.1948 12.767L16.4754 13.6048C16.5437 13.8086 16.7346 13.946 16.9495 13.946H17.8519C18.3398 13.946 18.5388 14.5735 18.14 14.8546L17.4362 15.3508C17.2556 15.4781 17.18 15.7088 17.2502 15.9183L17.5195 16.7224Z" stroke="white" stroke-width="0.9"/>
  <path d="M15.7199 19.4922V22.6799" stroke="white" stroke-width="0.9"/>
  <path d="M15.7199 5.69336V8.79583" stroke="white" stroke-width="0.9"/>
  <path d="M8.33516 15.1113V18.299" stroke="white" stroke-width="0.9"/>
  <path d="M8.33516 10.7246V13.1907" stroke="white" stroke-width="0.9"/>
  <path d="M8.33516 6.33789V8.80393" stroke="white" stroke-width="0.9"/>
  <path d="M8.33516 1.31348V4.41595" stroke="white" stroke-width="0.9"/>
  <path fill-rule="evenodd" clip-rule="evenodd" d="M15.3938 5.51677C15.5595 5.62428 15.773 5.62415 15.9386 5.51644L22.2274 1.42566C22.56 1.20929 23 1.44799 23 1.84479V18.3482C23 18.5233 22.9084 18.6856 22.7585 18.7762L15.9298 22.9007C15.7682 22.9983 15.5655 22.9966 15.4056 22.8963L8.59939 18.6265C8.43692 18.5246 8.23047 18.5246 8.068 18.6265L1.76568 22.5796C1.43269 22.7885 1 22.5491 1 22.156V4.97748C1 4.78991 1.10498 4.61811 1.2719 4.53254L8.05532 1.05506C8.2146 0.973406 8.40538 0.983123 8.55554 1.08054L15.3938 5.51677ZM15.0708 6.62367L8.49134 2.35597C8.34118 2.25857 8.15042 2.24886 7.99115 2.33051L2.37151 5.21142C2.20459 5.29699 2.09961 5.46878 2.09961 5.65636V20.1619C2.09961 20.555 2.53228 20.7944 2.86528 20.5855L7.75031 17.5216L8.06639 17.3232C8.22892 17.2212 8.4355 17.2212 8.59803 17.3232L8.91411 17.5216L15.4162 21.5995C15.5761 21.6998 15.7788 21.7015 15.9404 21.6039L21.6581 18.1501C21.808 18.0595 21.8996 17.8972 21.8996 17.7221V3.8786C21.8996 3.48177 21.4595 3.24308 21.1269 3.45952L16.2643 6.62367L15.9403 6.83422C15.7747 6.94178 15.5614 6.94187 15.3958 6.83445L15.0708 6.62367Z" fill="white"/>
  <path d="M15.0708 6.62367L14.962 6.79147L14.962 6.79147L15.0708 6.62367ZM7.75031 17.5216L7.85658 17.6911L7.85664 17.691L7.75031 17.5216ZM8.91411 17.5216L8.80778 17.691L8.80785 17.6911L8.91411 17.5216ZM16.2643 6.62367L16.3733 6.79138L16.3734 6.79131L16.2643 6.62367ZM15.9403 6.83422L15.8313 6.66651L15.9403 6.83422ZM15.3958 6.83445L15.5046 6.66665L15.3958 6.83445ZM21.1269 3.45952L21.0178 3.29189L21.1269 3.45952ZM21.6581 18.1501L21.5547 17.9789L21.6581 18.1501ZM15.4162 21.5995L15.3099 21.7689L15.4162 21.5995ZM15.9404 21.6039L15.8369 21.4327L15.9404 21.6039ZM8.06639 17.3232L7.96006 17.1538L8.06639 17.3232ZM8.59803 17.3232L8.4917 17.4926L8.59803 17.3232ZM2.37151 5.21142L2.28027 5.03344L2.37151 5.21142ZM8.49134 2.35597L8.60018 2.18818L8.49134 2.35597ZM7.99115 2.33051L7.89991 2.15254L7.99115 2.33051ZM8.05532 1.05506L7.96408 0.877084L8.05532 1.05506ZM8.55554 1.08054L8.44669 1.24832L8.55554 1.08054ZM1.2719 4.53254L1.18066 4.35457L1.2719 4.53254ZM1.76568 22.5796L1.87196 22.749L1.76568 22.5796ZM8.59939 18.6265L8.70568 18.4571L8.59939 18.6265ZM8.068 18.6265L7.96172 18.4571L8.068 18.6265ZM15.9298 22.9007L15.8264 22.7295L15.9298 22.9007ZM22.7585 18.7762L22.6551 18.605L22.7585 18.7762ZM15.9386 5.51644L15.8295 5.34879L15.9386 5.51644ZM15.3938 5.51677L15.285 5.68456L15.3938 5.51677ZM2.86528 20.5855L2.97154 20.7549L2.86528 20.5855ZM22.1183 1.258L15.8295 5.34879L16.0476 5.68409L22.3364 1.59331L22.1183 1.258ZM23.2 18.3482V1.84479H22.8V18.3482H23.2ZM16.0332 23.0719L22.8619 18.9474L22.6551 18.605L15.8264 22.7295L16.0332 23.0719ZM8.49311 18.7959L15.2993 23.0657L15.5118 22.7269L8.70568 18.4571L8.49311 18.7959ZM1.87196 22.749L8.17427 18.7959L7.96172 18.4571L1.65941 22.4102L1.87196 22.749ZM0.8 4.97748V22.156H1.2V4.97748H0.8ZM7.96408 0.877084L1.18066 4.35457L1.36314 4.71052L8.14656 1.23304L7.96408 0.877084ZM15.5027 5.34899L8.66439 0.912752L8.44669 1.24832L15.285 5.68456L15.5027 5.34899ZM8.3825 2.52376L14.962 6.79147L15.1796 6.45588L8.60018 2.18818L8.3825 2.52376ZM2.46275 5.38939L8.08239 2.50849L7.89991 2.15254L2.28027 5.03344L2.46275 5.38939ZM2.29961 20.1619V5.65636H1.89961V20.1619H2.29961ZM7.64404 17.3522L2.75901 20.4161L2.97154 20.7549L7.85658 17.6911L7.64404 17.3522ZM7.96006 17.1538L7.64398 17.3522L7.85664 17.691L8.17272 17.4926L7.96006 17.1538ZM9.02044 17.3522L8.70436 17.1538L8.4917 17.4926L8.80778 17.691L9.02044 17.3522ZM15.5224 21.4301L9.02037 17.3522L8.80785 17.6911L15.3099 21.7689L15.5224 21.4301ZM21.5547 17.9789L15.8369 21.4327L16.0438 21.7751L21.7615 18.3213L21.5547 17.9789ZM21.6996 3.8786V17.7221H22.0996V3.8786H21.6996ZM16.3734 6.79131L21.236 3.62715L21.0178 3.29189L16.1552 6.45604L16.3734 6.79131ZM16.0493 7.00192L16.3733 6.79138L16.1553 6.45597L15.8313 6.66651L16.0493 7.00192ZM14.962 6.79147L15.287 7.00224L15.5046 6.66665L15.1796 6.45588L14.962 6.79147ZM15.8313 6.66651C15.732 6.73105 15.604 6.7311 15.5046 6.66665L15.287 7.00224C15.5188 7.15264 15.8175 7.15251 16.0493 7.00192L15.8313 6.66651ZM22.0996 3.8786C22.0996 3.32304 21.4835 2.98888 21.0178 3.29189L21.236 3.62715C21.4356 3.49729 21.6996 3.64051 21.6996 3.8786H22.0996ZM21.7615 18.3213C21.9714 18.1945 22.0996 17.9672 22.0996 17.7221H21.6996C21.6996 17.8272 21.6447 17.9246 21.5547 17.9789L21.7615 18.3213ZM15.3099 21.7689C15.5338 21.9093 15.8176 21.9117 16.0438 21.7751L15.8369 21.4327C15.74 21.4913 15.6184 21.4902 15.5224 21.4301L15.3099 21.7689ZM8.17272 17.4926C8.27024 17.4314 8.39418 17.4314 8.4917 17.4926L8.70436 17.1538C8.47682 17.011 8.1876 17.011 7.96006 17.1538L8.17272 17.4926ZM2.28027 5.03344C2.04659 5.15324 1.89961 5.39375 1.89961 5.65636H2.29961C2.29961 5.54381 2.3626 5.44074 2.46275 5.38939L2.28027 5.03344ZM8.60018 2.18818C8.38996 2.05182 8.12289 2.03823 7.89991 2.15254L8.08239 2.50849C8.17795 2.4595 8.29241 2.46532 8.3825 2.52376L8.60018 2.18818ZM8.14656 1.23304C8.24213 1.18404 8.35659 1.18987 8.44669 1.24832L8.66439 0.912752C8.45416 0.776372 8.18707 0.762768 7.96408 0.877084L8.14656 1.23304ZM1.2 4.97748C1.2 4.86494 1.26299 4.76186 1.36314 4.71052L1.18066 4.35457C0.946978 4.47437 0.8 4.71488 0.8 4.97748H1.2ZM1.65941 22.4102C1.45961 22.5355 1.2 22.3919 1.2 22.156H0.8C0.8 22.7063 1.40576 23.0415 1.87196 22.749L1.65941 22.4102ZM8.70568 18.4571C8.47822 18.3144 8.18919 18.3144 7.96172 18.4571L8.17427 18.7959C8.27175 18.7348 8.39563 18.7348 8.49311 18.7959L8.70568 18.4571ZM15.8264 22.7295C15.7294 22.7881 15.6078 22.7871 15.5118 22.7269L15.2993 23.0657C15.5231 23.2062 15.807 23.2086 16.0332 23.0719L15.8264 22.7295ZM22.8 18.3482C22.8 18.4532 22.745 18.5506 22.6551 18.605L22.8619 18.9474C23.0718 18.8206 23.2 18.5933 23.2 18.3482H22.8ZM15.8295 5.34879C15.7302 5.41341 15.6021 5.41349 15.5027 5.34899L15.285 5.68456C15.517 5.83506 15.8158 5.83488 16.0476 5.68409L15.8295 5.34879ZM1.89961 20.1619C1.89961 20.7122 2.50535 21.0473 2.97154 20.7549L2.75901 20.4161C2.55921 20.5414 2.29961 20.3978 2.29961 20.1619H1.89961ZM22.3364 1.59331C22.536 1.46349 22.8 1.60671 22.8 1.84479H23.2C23.2 1.28927 22.584 0.955095 22.1183 1.258L22.3364 1.59331Z" fill="white"/>
</svg>
