<svg xmlns="http://www.w3.org/2000/svg" width="228.48" height="210.206" viewBox="0 0 228.48 210.206">
  <g id="comment" transform="translate(0 1.332)">
    <path id="Trazado_54" data-name="Trazado 54" d="M197.068-1.332H31.412A31.446,31.446,0,0,0,0,30.08V131.458A31.448,31.448,0,0,0,31.3,162.87v46l66.113-46h99.655a31.448,31.448,0,0,0,31.412-31.412V30.08A31.446,31.446,0,0,0,197.068-1.332Zm18.024,132.79a18.045,18.045,0,0,1-18.024,18.024H93.213L44.688,183.25V149.482H31.412a18.045,18.045,0,0,1-18.024-18.024V30.08A18.044,18.044,0,0,1,31.412,12.055H197.068A18.044,18.044,0,0,1,215.092,30.08Zm0,0" fill="#fff"/>
    <path id="Trazado_55" data-name="Trazado 55" d="M171.293,131.172H277.47v13.388H171.293Zm0,0" transform="translate(-110.141 -85.2)" fill="#fff"/>
    <path id="Trazado_56" data-name="Trazado 56" d="M171.293,211.172H277.47v13.388H171.293Zm0,0" transform="translate(-110.141 -136.64)" fill="#fff"/>
    <path id="Trazado_57" data-name="Trazado 57" d="M171.293,291.172H277.47v13.388H171.293Zm0,0" transform="translate(-110.141 -188.08)" fill="#fff"/>
  </g>
</svg>
