<svg xmlns="http://www.w3.org/2000/svg" xmlns:xlink="http://www.w3.org/1999/xlink" width="20" height="17" viewBox="0 0 20 17">
  <defs>
    <clipPath id="clip-path">
      <rect id="Rectángulo_9" data-name="Rectángulo 9" width="20" height="17" transform="translate(19 -513)" fill="none"/>
    </clipPath>
    <clipPath id="clip-path-2">
      <path id="Trazado_159" data-name="Trazado 159" d="M35.033-504.67a.512.512,0,0,0-.519.521v7.116H30.835v-2.906a.513.513,0,0,0-.5-.511h-2.66a.526.526,0,0,0-.528.511v2.906H23.478v-6.88a.509.509,0,0,0-.519-.5.505.505,0,0,0-.5.5v7.4a.505.505,0,0,0,.5.5h4.716a.505.505,0,0,0,.5-.5v-2.906h1.641v2.906a.509.509,0,0,0,.519.5h4.7a.505.505,0,0,0,.5-.5v-7.637A.508.508,0,0,0,35.033-504.67Z" fill="none"/>
    </clipPath>
    <clipPath id="clip-path-3">
      <path id="Trazado_158" data-name="Trazado 158" d="M20-496H38v-17H20Z" fill="none"/>
    </clipPath>
    <clipPath id="clip-path-4">
      <path id="Trazado_162" data-name="Trazado 162" d="M37.853-504.264l-4.094-4.125V-511.2a.519.519,0,0,0-.528-.519.507.507,0,0,0-.5.519v1.781l-3.377-3.409a.5.5,0,0,0-.349-.161.512.512,0,0,0-.368.161l-8.48,8.509a.488.488,0,0,0,0,.719.485.485,0,0,0,.717,0l8.131-8.14,8.112,8.217a.5.5,0,0,0,.368.133.569.569,0,0,0,.368-.133A.538.538,0,0,0,37.853-504.264Z" fill="none"/>
    </clipPath>
  </defs>
  <g id="Grupo_133" data-name="Grupo 133" transform="translate(-19 513)" style="isolation: isolate">
    <g id="Grupo_132" data-name="Grupo 132" clip-path="url(#clip-path)">
      <g id="Grupo_129" data-name="Grupo 129" clip-path="url(#clip-path-2)">
        <g id="Grupo_128" data-name="Grupo 128" clip-path="url(#clip-path-3)">
          <path id="Trazado_157" data-name="Trazado 157" d="M17.459-509.67H40.533v18.661H17.459Z" fill="#fff"/>
        </g>
      </g>
      <g id="Grupo_131" data-name="Grupo 131" clip-path="url(#clip-path-4)">
        <g id="Grupo_130" data-name="Grupo 130" clip-path="url(#clip-path-3)">
          <path id="Trazado_160" data-name="Trazado 160" d="M15-517.991H43v19.6H15Z" fill="#fff"/>
        </g>
      </g>
    </g>
  </g>
</svg>
