<svg width="23" height="24" viewBox="0 0 23 24" fill="none" xmlns="http://www.w3.org/2000/svg">
<path d="M18.7059 4.55266V5.14477C18.7059 5.47178 18.4228 5.73687 18.0735 5.73687C17.7243 5.73687 17.4412 5.47178 17.4412 5.14477V4.55266H12.3824V5.14477C12.3824 5.47178 12.0992 5.73687 11.75 5.73687C11.4008 5.73687 11.1176 5.47178 11.1176 5.14477V4.55266H6.05882V5.14477C6.05882 5.47178 5.77571 5.73687 5.42647 5.73687C5.07723 5.73687 4.79412 5.47178 4.79412 5.14477V4.55266H2.89706C2.54745 4.55266 2.26471 4.81759 2.26471 5.14477V6.92108H21.2353V5.14477C21.2353 4.81759 20.9526 4.55266 20.6029 4.55266H18.7059ZM18.7059 3.36845H20.6029C21.6512 3.36845 22.5 4.16375 22.5 5.14477V21.7237C22.5 22.7047 21.6512 23.5 20.6029 23.5H2.89706C1.84878 23.5 1 22.7047 1 21.7237V5.14477C1 4.16375 1.84878 3.36845 2.89706 3.36845H4.79412V1.59214C4.79412 1.26513 5.07723 1.00003 5.42647 1.00003C5.77571 1.00003 6.05882 1.26513 6.05882 1.59214V3.36845H11.1176V1.59214C11.1176 1.26513 11.4008 1.00003 11.75 1.00003C12.0992 1.00003 12.3824 1.26513 12.3824 1.59214V3.36845H17.4412V1.59214C17.4412 1.26513 17.7243 1.00003 18.0735 1.00003C18.4228 1.00003 18.7059 1.26513 18.7059 1.59214V3.36845ZM21.2353 8.10529H2.26471V21.7237C2.26471 22.0509 2.54745 22.3158 2.89706 22.3158H20.6029C20.9526 22.3158 21.2353 22.0509 21.2353 21.7237V8.10529ZM15.2507 15.2106H7.95588C7.60664 15.2106 7.32353 14.9455 7.32353 14.6185C7.32353 14.2914 7.60664 14.0263 7.95588 14.0263H15.3137L12.5676 11.455C12.3206 11.2238 12.3206 10.8489 12.5676 10.6177C12.8145 10.3864 13.2149 10.3864 13.4618 10.6177L17.256 14.1703C17.3834 14.2896 17.4451 14.4473 17.441 14.6037C17.4411 14.6086 17.4412 14.6135 17.4412 14.6185C17.4412 14.8387 17.3128 15.0308 17.1223 15.1328L13.4618 18.5603C13.2149 18.7915 12.8145 18.7915 12.5676 18.5603C12.3206 18.329 12.3206 17.9541 12.5676 17.7229L15.2507 15.2106Z" fill="#FEFEFE"/>
</svg>
