<svg xmlns="http://www.w3.org/2000/svg" width="135.267" height="158.206" viewBox="0 0 135.267 158.206">
  <path id="Trazado_53" data-name="Trazado 53" d="M140.6,7.666H23.622a3.365,3.365,0,0,0-2.755,1.463L10.279,24.781a3.31,3.31,0,0,0-1.625,2.844V162.546a3.326,3.326,0,0,0,3.326,3.326H123.131c3.059,0,3.326-4.489,3.326-6.326v.151l14.15-.01a3.324,3.324,0,0,0,2.382-.957,2.571,2.571,0,0,0,.932-2.164V10.992A3.326,3.326,0,0,0,140.6,7.666ZM68.187,125.438a19.365,19.365,0,0,1-19.365-19.365c0-8.21,5.222-19.925,9.6-28.307,2.5-4.792,4.979-8.978,6.613-11.646.969-1.582,1.727-2.768,2.192-3.484.86-1.325.871-1.326.952-1.328s.1,0,.958,1.316c.466.714,1.226,1.894,2.19,3.459,1.636,2.653,4.111,6.817,6.614,11.588,4.382,8.354,9.606,20.063,9.606,28.4A19.384,19.384,0,0,1,68.187,125.438Zm66.588,26.382-8.317,2.985V25.625a3.326,3.326,0,0,0-3.326-3.326H28.341c2.7-1.128,5.563-2.989,2.9-5.812l-.027-.168H134.775Z" transform="translate(-8.654 -7.666)" fill="#fff"/>
</svg>
