<svg id="_008---IT-Request" data-name="008---IT-Request" xmlns="http://www.w3.org/2000/svg" width="158.09" height="158.206" viewBox="0 0 158.09 158.206">
  <path id="Shape" d="M29.054,35.3l25.289,25.4A8.365,8.365,0,0,0,66.121,48.815L40.867,23.428C37.983,26.328,41.554,22.741,29.054,35.3Z" transform="translate(50.138 40.43)" fill="#fff"/>
  <path id="Shape-2" data-name="Shape" d="M95.463,23,84.173,34.349a2.726,2.726,0,0,1-1.933.8H70.5a2.726,2.726,0,0,1-2.726-2.726V20.617a2.726,2.726,0,0,1,.79-1.908l11.317-11.4a19.516,19.516,0,0,0-21.4,26.84,2.726,2.726,0,0,1-.575,2.976C47.681,47.471,45.441,49.668,15.657,79.607a5.6,5.6,0,1,0,7.875,7.954c68.7-69.083,28-28.14,42.259-42.472a2.726,2.726,0,0,1,3-.586A19.453,19.453,0,0,0,95.463,23Z" transform="translate(24.157 12.091)" fill="#fff"/>
  <path id="Shape-3" data-name="Shape" d="M141.736,0H16.354A16.354,16.354,0,0,0,0,16.354v92.674a16.354,16.354,0,0,0,16.354,16.354H46.337s1.954,17.589-10.685,27.944A2.726,2.726,0,0,0,37.47,158.2c13.413-.929,35.933-6.487,41.575-32.82h62.691a16.354,16.354,0,0,0,16.354-16.354V16.354A16.354,16.354,0,0,0,141.736,0ZM16.354,13.628H13.628a2.726,2.726,0,1,1,0-5.451h2.726a2.726,2.726,0,0,1,0,5.451ZM24.531,10.9a2.726,2.726,0,0,1,2.726-2.726H40.885a2.726,2.726,0,0,1,0,5.451H27.257A2.726,2.726,0,0,1,24.531,10.9Zm95.4,106.3H117.2a2.726,2.726,0,0,1,0-5.451h2.726a2.726,2.726,0,1,1,0,5.451Zm.194-31.8a13.868,13.868,0,0,1-9.733,23.626,13.68,13.68,0,0,1-9.769-4.061L75.344,79.59l-23.8,23.9a10.941,10.941,0,0,1-7.8,3.271,11.118,11.118,0,0,1-7.8-18.924L63.669,59.979l-12.034-12.1a2.726,2.726,0,0,1-4.11-.232L33.82,29.934a2.726,2.726,0,0,1,.224-3.59l7.831-7.872a2.726,2.726,0,0,1,3.612-.21L63.105,32.035a2.726,2.726,0,0,1,.21,4.116L75.346,48.245l1.611-1.635a24.913,24.913,0,0,1,33.253-31.032,2.726,2.726,0,0,1,.878,4.432L97.373,33.823v7.951h7.877L118.957,28a2.726,2.726,0,0,1,4.446.864A24.918,24.918,0,0,1,98.272,63.427Zm24.338,31.8H130.833a2.726,2.726,0,1,1,0-5.451h13.628a2.726,2.726,0,0,1,0,5.451Z" fill="#fff"/>
  <path id="Shape-4" data-name="Shape" d="M46.423,36.9C31.6,21.965,31.552,22.45,31.729,20.651a1.834,1.834,0,0,1,.319-1.014,2.791,2.791,0,0,1,.224-.417L18.964,8.819l-4.437,4.459L24.885,26.656c.044-.033.722-.39.777-.409a5.884,5.884,0,0,1,.984-.164c1.5.038.818-.273,15.809,14.811Z" transform="translate(25.069 15.219)" fill="#fff"/>
</svg>
