<svg width="18" height="18" viewBox="0 0 18 18" fill="none" xmlns="http://www.w3.org/2000/svg">
<g clip-path="url(#clip0_2860_120932)">
<path fill-rule="evenodd" clip-rule="evenodd" d="M13.1427 12.5427C13.2578 12.8864 12.867 13.1772 12.571 12.9683L12.0106 12.5729C11.881 12.4815 11.7078 12.4815 11.5782 12.5729L11.0173 12.9687C10.7213 13.1775 10.3305 12.8869 10.4454 12.5433L10.6474 11.9396C10.7 11.7825 10.6433 11.6096 10.5079 11.5141L9.97997 11.1419C9.68079 10.9311 9.83004 10.4604 10.196 10.4604H10.8719C11.0332 10.4604 11.1764 10.3574 11.2276 10.2045L11.438 9.57619C11.5523 9.23502 12.0349 9.23502 12.1492 9.57619L12.3596 10.2045C12.4109 10.3574 12.554 10.4604 12.7152 10.4604H13.392C13.7579 10.4604 13.9072 10.9311 13.6081 11.1419L13.0802 11.514C12.9448 11.6095 12.8881 11.7825 12.9407 11.9397L13.1427 12.5427Z" stroke="#29C499" stroke-width="0.9"/>
<path d="M11.7891 14.6211V17.0119" stroke="#29C499" stroke-width="0.9"/>
<path d="M11.7891 4.26953V6.59638" stroke="#29C499" stroke-width="0.9"/>
<path d="M6.25 11.332V13.7228" stroke="#29C499" stroke-width="0.9"/>
<path d="M6.25 8.04297V9.89254" stroke="#29C499" stroke-width="0.9"/>
<path d="M6.25 4.75391V6.60344" stroke="#29C499" stroke-width="0.9"/>
<path d="M6.25 0.984375V3.31123" stroke="#29C499" stroke-width="0.9"/>
<path fill-rule="evenodd" clip-rule="evenodd" d="M11.5453 4.13758C11.6696 4.21821 11.8297 4.21811 11.9539 4.13733L16.6705 1.06924C16.92 0.906967 17.25 1.08599 17.25 1.38359V13.7611C17.25 13.8925 17.1813 14.0142 17.0689 14.0821L11.9474 17.1755C11.8262 17.2487 11.6741 17.2474 11.5542 17.1722L6.44954 13.9699C6.32769 13.8934 6.17285 13.8934 6.051 13.9699L1.32426 16.9347C1.07452 17.0914 0.75 16.9118 0.75 16.617V3.73311C0.75 3.59243 0.828735 3.46358 0.953925 3.3994L6.04149 0.791295C6.16095 0.730054 6.30404 0.737342 6.41666 0.810405L11.5453 4.13758ZM11.3031 4.96775L6.3685 1.76698C6.25588 1.69393 6.11281 1.68664 5.99336 1.74788L1.77863 3.90856C1.65344 3.97274 1.57471 4.10158 1.57471 4.24227V15.1214C1.57471 15.4162 1.89921 15.5958 2.14896 15.4391L5.81273 13.1412L6.04979 12.9924C6.17169 12.9159 6.32663 12.9159 6.44852 12.9924L6.68558 13.1412L11.5621 16.1996C11.6821 16.2748 11.8341 16.2761 11.9553 16.2029L16.2436 13.6126C16.356 13.5446 16.4247 13.4229 16.4247 13.2916V2.90895C16.4247 2.61133 16.0946 2.43231 15.8452 2.59464L12.1982 4.96775L11.9552 5.12566C11.831 5.20633 11.671 5.2064 11.5468 5.12584L11.3031 4.96775Z" fill="#29C499"/>
<path d="M16.5903 0.945063L11.8737 4.01316L12.0373 4.26463L16.7539 1.19655L16.5903 0.945063ZM17.4016 13.7627V1.38516H17.1016V13.7627H17.4016ZM12.0265 17.3055L17.148 14.2121L16.9929 13.9553L11.8714 17.0487L12.0265 17.3055ZM6.37139 14.0985L11.476 17.3008L11.6354 17.0467L6.53082 13.8444L6.37139 14.0985ZM1.40553 17.0633L6.13226 14.0985L5.97285 13.8444L1.24612 16.8092L1.40553 17.0633ZM0.601562 3.73467V16.6186H0.901563V3.73467H0.601562ZM5.97462 0.659376L0.887057 3.26749L1.02392 3.53445L6.11148 0.926343L5.97462 0.659376ZM11.6286 4.01331L6.49985 0.686127L6.33658 0.937803L11.4653 4.26498L11.6286 4.01331ZM6.28844 1.89438L11.2231 5.09517L11.3863 4.84347L6.4517 1.6427L6.28844 1.89438ZM1.84863 4.04361L6.06335 1.88293L5.92649 1.61597L1.71177 3.77664L1.84863 4.04361ZM1.72627 15.123V4.24383H1.42627V15.123H1.72627ZM5.73459 13.0157L2.07082 15.3136L2.23022 15.5677L5.894 13.2699L5.73459 13.0157ZM5.97161 12.8669L5.73459 13.0157L5.894 13.2699L6.1311 13.121L5.97161 12.8669ZM6.76689 13.0157L6.52983 12.8669L6.37034 13.121L6.6074 13.2698L6.76689 13.0157ZM11.6434 16.0741L6.76689 13.0157L6.6074 13.2698L11.484 16.3282L11.6434 16.0741ZM16.1676 13.4857L11.8792 16.0761L12.0344 16.3329L16.3227 13.7425L16.1676 13.4857ZM16.2763 2.91051V13.2931H16.5763V2.91051H16.2763ZM12.2815 5.0951L15.9286 2.72193L15.7649 2.47048L12.118 4.84359L12.2815 5.0951ZM12.0385 5.253L12.2815 5.0951L12.118 4.84359L11.875 5.00145L12.0385 5.253ZM11.2231 5.09517L11.4668 5.25324L11.63 5.00155L11.3863 4.84347L11.2231 5.09517ZM11.875 5.00145C11.8006 5.04985 11.7046 5.04989 11.63 5.00155L11.4668 5.25324C11.6407 5.36604 11.8647 5.36595 12.0385 5.253L11.875 5.00145ZM16.5763 2.91051C16.5763 2.49384 16.1142 2.24322 15.7649 2.47048L15.9286 2.72193C16.0783 2.62453 16.2763 2.73195 16.2763 2.91051H16.5763ZM16.3227 13.7425C16.4801 13.6474 16.5763 13.477 16.5763 13.2931H16.2763C16.2763 13.372 16.2351 13.445 16.1676 13.4857L16.3227 13.7425ZM11.484 16.3282C11.6519 16.4335 11.8648 16.4353 12.0344 16.3329L11.8792 16.0761C11.8066 16.12 11.7154 16.1192 11.6434 16.0741L11.484 16.3282ZM6.1311 13.121C6.20424 13.0751 6.2972 13.0751 6.37034 13.121L6.52983 12.8669C6.35918 12.7598 6.14226 12.7598 5.97161 12.8669L6.1311 13.121ZM1.71177 3.77664C1.53651 3.86649 1.42627 4.04688 1.42627 4.24383H1.72627C1.72627 4.15942 1.77351 4.08212 1.84863 4.04361L1.71177 3.77664ZM6.4517 1.6427C6.29403 1.54043 6.09373 1.53024 5.92649 1.61597L6.06335 1.88293C6.13502 1.84619 6.22087 1.85055 6.28844 1.89438L6.4517 1.6427ZM6.11148 0.926343C6.18316 0.889593 6.269 0.893965 6.33658 0.937803L6.49985 0.686127C6.34218 0.583842 6.14186 0.573639 5.97462 0.659376L6.11148 0.926343ZM0.901563 3.73467C0.901563 3.65027 0.948805 3.57296 1.02392 3.53445L0.887057 3.26749C0.711796 3.35734 0.601562 3.53772 0.601562 3.73467H0.901563ZM1.24612 16.8092C1.09627 16.9032 0.901563 16.7955 0.901563 16.6186H0.601562C0.601562 17.0313 1.05588 17.2827 1.40553 17.0633L1.24612 16.8092ZM6.53082 13.8444C6.36023 13.7374 6.14345 13.7374 5.97285 13.8444L6.13226 14.0985C6.20537 14.0527 6.29828 14.0527 6.37139 14.0985L6.53082 13.8444ZM11.8714 17.0487C11.7986 17.0926 11.7074 17.0919 11.6354 17.0467L11.476 17.3008C11.6439 17.4062 11.8568 17.408 12.0265 17.3055L11.8714 17.0487ZM17.1016 13.7627C17.1016 13.8415 17.0603 13.9145 16.9929 13.9553L17.148 14.2121C17.3054 14.117 17.4016 13.9465 17.4016 13.7627H17.1016ZM11.8737 4.01316C11.7992 4.06162 11.7031 4.06168 11.6286 4.01331L11.4653 4.26498C11.6393 4.37786 11.8634 4.37772 12.0373 4.26463L11.8737 4.01316ZM1.42627 15.123C1.42627 15.5357 1.88058 15.787 2.23022 15.5677L2.07082 15.3136C1.92097 15.4076 1.72627 15.2999 1.72627 15.123H1.42627ZM16.7539 1.19655C16.9036 1.09918 17.1016 1.2066 17.1016 1.38516H17.4016C17.4016 0.968515 16.9396 0.717884 16.5903 0.945063L16.7539 1.19655Z" fill="#29C499"/>
</g>
<defs>
<clipPath id="clip0_2860_120932">
<rect width="18" height="18" fill="white"/>
</clipPath>
</defs>
</svg>
