<svg xmlns="http://www.w3.org/2000/svg" xmlns:xlink="http://www.w3.org/1999/xlink" width="17.989" height="17.989" viewBox="0 0 17.989 17.989">
  <defs>
    <clipPath id="clip-path">
      <path id="Trazado_368" data-name="Trazado 368" d="M195.068-30.894l-1.263-.214a7.125,7.125,0,0,0-.507-1.225l.744-1.041a1.108,1.108,0,0,0-.12-1.432l-1.12-1.12a1.1,1.1,0,0,0-.785-.327,1.092,1.092,0,0,0-.643.207l-1.045.744a7.052,7.052,0,0,0-1.27-.522l-.21-1.248a1.11,1.11,0,0,0-1.1-.928h-1.582a1.11,1.11,0,0,0-1.1.928l-.218,1.278a6.953,6.953,0,0,0-1.221.515l-1.033-.744a1.1,1.1,0,0,0-.646-.207,1.1,1.1,0,0,0-.785.327l-1.124,1.12a1.112,1.112,0,0,0-.12,1.432l.752,1.056a6.958,6.958,0,0,0-.5,1.229l-1.248.21a1.11,1.11,0,0,0-.928,1.1v1.582a1.11,1.11,0,0,0,.928,1.1l1.278.218a6.955,6.955,0,0,0,.515,1.221l-.74,1.03a1.108,1.108,0,0,0,.12,1.432l1.12,1.12a1.1,1.1,0,0,0,.785.327,1.092,1.092,0,0,0,.643-.207l1.056-.752a7.107,7.107,0,0,0,1.188.489l.21,1.263a1.11,1.11,0,0,0,1.1.928h1.586a1.11,1.11,0,0,0,1.1-.928L189.1-22.2a7.129,7.129,0,0,0,1.225-.507l1.041.744a1.1,1.1,0,0,0,.646.207h0a1.1,1.1,0,0,0,.785-.327l1.12-1.12a1.112,1.112,0,0,0,.12-1.432l-.744-1.045a7.079,7.079,0,0,0,.507-1.225l1.263-.21a1.11,1.11,0,0,0,.928-1.1V-29.8A1.1,1.1,0,0,0,195.068-30.894Zm-.087,2.679a.1.1,0,0,1-.083.1l-1.578.263a.5.5,0,0,0-.406.372,6.016,6.016,0,0,1-.654,1.575.508.508,0,0,0,.022.552l.928,1.308a.1.1,0,0,1-.011.128l-1.12,1.12a.1.1,0,0,1-.071.03.092.092,0,0,1-.056-.019l-1.3-.928a.508.508,0,0,0-.552-.023,6.016,6.016,0,0,1-1.575.654.5.5,0,0,0-.372.406l-.267,1.578a.1.1,0,0,1-.1.083H186.2a.1.1,0,0,1-.1-.083l-.263-1.578a.5.5,0,0,0-.372-.406,6.245,6.245,0,0,1-1.541-.631.52.52,0,0,0-.256-.068.5.5,0,0,0-.293.094l-1.315.936a.112.112,0,0,1-.056.019.1.1,0,0,1-.071-.03l-1.12-1.12a.1.1,0,0,1-.011-.128l.924-1.3a.515.515,0,0,0,.023-.556,5.96,5.96,0,0,1-.661-1.571.515.515,0,0,0-.406-.372l-1.589-.271a.1.1,0,0,1-.083-.1v-1.582a.1.1,0,0,1,.083-.1l1.567-.263a.508.508,0,0,0,.41-.376,6.007,6.007,0,0,1,.643-1.578.5.5,0,0,0-.026-.549l-.936-1.315a.1.1,0,0,1,.011-.128l1.12-1.12a.1.1,0,0,1,.071-.03.093.093,0,0,1,.056.019l1.3.924a.515.515,0,0,0,.556.023,5.958,5.958,0,0,1,1.571-.661.515.515,0,0,0,.372-.406l.27-1.59a.1.1,0,0,1,.1-.083h1.582a.1.1,0,0,1,.1.083l.263,1.567a.508.508,0,0,0,.376.41,6.1,6.1,0,0,1,1.612.661.508.508,0,0,0,.552-.023l1.3-.932a.112.112,0,0,1,.056-.019.1.1,0,0,1,.071.03l1.12,1.12a.1.1,0,0,1,.011.128l-.928,1.3a.508.508,0,0,0-.023.552,6.016,6.016,0,0,1,.654,1.575.5.5,0,0,0,.406.372l1.578.267a.1.1,0,0,1,.083.1v1.582Z" fill="none"/>
    </clipPath>
    <clipPath id="clip-path-2">
      <path id="Trazado_370" data-name="Trazado 370" d="M187-32.889a3.884,3.884,0,0,0-3.882,3.882A3.884,3.884,0,0,0,187-25.126a3.884,3.884,0,0,0,3.882-3.882A3.884,3.884,0,0,0,187-32.889Zm0,6.749a2.869,2.869,0,0,1-2.867-2.867A2.869,2.869,0,0,1,187-31.875a2.869,2.869,0,0,1,2.867,2.867A2.869,2.869,0,0,1,187-26.14Z" fill="none"/>
    </clipPath>
  </defs>
  <g id="Grupo_361" data-name="Grupo 361" transform="translate(12136 1040)">
    <g id="Grupo_359" data-name="Grupo 359" transform="translate(-12314 -1002)" clip-path="url(#clip-path)">
      <path id="Trazado_367" data-name="Trazado 367" d="M173-43h27.989v27.989H173Z" fill="#28c499"/>
    </g>
    <g id="Grupo_360" data-name="Grupo 360" transform="translate(-12314 -1002)" clip-path="url(#clip-path-2)">
      <path id="Trazado_369" data-name="Trazado 369" d="M178.114-37.889h17.764v17.764H178.114Z" fill="#28c499"/>
    </g>
  </g>
</svg>
