<svg xmlns="http://www.w3.org/2000/svg" width="144.06" height="183.363" viewBox="0 0 144.06 183.363">
  <g id="clipboard_1_" data-name="clipboard (1)" transform="translate(-47.037 0)">
    <g id="Grupo_48" data-name="Grupo 48" transform="translate(47.037 0)">
      <g id="Grupo_47" data-name="Grupo 47">
        <path id="Trazado_43" data-name="Trazado 43" d="M172.762,24.024H156.174V16.6c0-2.4-2.619-3.492-5.02-3.492H138.276C135.22,4.38,127.58.014,118.849.014a19.863,19.863,0,0,0-19.426,13.1H86.763c-2.4,0-4.8,1.091-4.8,3.492v7.421H65.372A18.553,18.553,0,0,0,47.037,41.7v125.07c0,9.6,8.731,16.589,18.335,16.589h107.39c9.6,0,18.335-6.985,18.335-16.589V41.7A18.554,18.554,0,0,0,172.762,24.024ZM90.692,21.842H102.7a4.8,4.8,0,0,0,4.147-3.929,12.66,12.66,0,0,1,12.005-9.822,12.441,12.441,0,0,1,11.787,9.822A4.8,4.8,0,0,0,135,21.842h12.442V39.3H90.692Zm91.675,144.933c0,4.8-4.8,7.858-9.6,7.858H65.372c-4.8,0-9.6-3.056-9.6-7.858V41.7a9.822,9.822,0,0,1,9.6-8.949H81.961V43.887a4.584,4.584,0,0,0,4.8,4.147h64.39a4.8,4.8,0,0,0,5.02-4.147V32.755h16.589a9.823,9.823,0,0,1,9.6,8.949V166.775Z" transform="translate(-47.037 0)" fill="#fff"/>
        <path id="Trazado_44" data-name="Trazado 44" d="M132.735,231.672a4.365,4.365,0,0,0-6.112-.218l-13.97,13.314-5.893-6.112a4.366,4.366,0,0,0-6.112-.218,4.584,4.584,0,0,0,0,6.33l8.949,9.168a3.928,3.928,0,0,0,3.056,1.31,4.364,4.364,0,0,0,3.056-1.31l17.025-16.152a4.147,4.147,0,0,0,.252-5.859C132.907,231.837,132.823,231.753,132.735,231.672Z" transform="translate(-77.512 -134.09)" fill="#fff"/>
        <path id="Trazado_45" data-name="Trazado 45" d="M253.116,256.034h-50.2a4.365,4.365,0,1,0,0,8.731h50.2a4.365,4.365,0,1,0,0-8.731Z" transform="translate(-135.249 -149.066)" fill="#fff"/>
        <path id="Trazado_46" data-name="Trazado 46" d="M132.735,148.08a4.365,4.365,0,0,0-6.112-.218l-13.97,13.314-5.893-6.112a4.365,4.365,0,0,0-6.112-.218,4.584,4.584,0,0,0,0,6.33l8.949,9.168a3.928,3.928,0,0,0,3.056,1.31,4.364,4.364,0,0,0,3.056-1.31l17.025-16.152a4.147,4.147,0,0,0,.252-5.859C132.907,148.245,132.823,148.161,132.735,148.08Z" transform="translate(-77.512 -85.422)" fill="#fff"/>
        <path id="Trazado_47" data-name="Trazado 47" d="M253.116,172.442h-50.2a4.365,4.365,0,0,0,0,8.731h50.2a4.365,4.365,0,1,0,0-8.731Z" transform="translate(-135.249 -100.398)" fill="#fff"/>
        <path id="Trazado_48" data-name="Trazado 48" d="M132.735,315.264a4.366,4.366,0,0,0-6.112-.218l-13.97,13.315-5.893-6.112a4.366,4.366,0,0,0-6.112-.218,4.584,4.584,0,0,0,0,6.33l8.949,9.167a3.928,3.928,0,0,0,3.056,1.31,4.364,4.364,0,0,0,3.056-1.31l17.025-16.152a4.147,4.147,0,0,0,.252-5.859C132.907,315.428,132.823,315.344,132.735,315.264Z" transform="translate(-77.512 -182.758)" fill="#fff"/>
        <path id="Trazado_49" data-name="Trazado 49" d="M253.116,339.626h-50.2a4.365,4.365,0,1,0,0,8.731h50.2a4.365,4.365,0,1,0,0-8.731Z" transform="translate(-135.249 -197.734)" fill="#fff"/>
      </g>
    </g>
  </g>
</svg>
