<svg xmlns="http://www.w3.org/2000/svg" width="143" height="142.925" viewBox="0 0 143 142.925">
  <path id="Trazado_59" data-name="Trazado 59" d="M1279.709,306.037l-46.153,27.346h0a5.85,5.85,0,0,1-3.335,1.566,5.116,5.116,0,0,1-5.241-1.673L1199.551,308.1l-25.488,25.286a6.062,6.062,0,0,1-8.516,0h0a5.954,5.954,0,0,1,0-8.421l29.716-29.478a6.14,6.14,0,0,1,8.575,0l25.786,25.565,44.843-26.6a5.462,5.462,0,0,1,7.921,2.644h0a7.188,7.188,0,0,1-2.679,8.945Zm-2.739,64.977a5.955,5.955,0,0,1,0,11.91H1145.956a5.956,5.956,0,0,1-5.956-5.955V245.955a5.955,5.955,0,0,1,11.911,0V371.014Z" transform="translate(-1140 -240)" fill="#fff" fill-rule="evenodd"/>
</svg>
