<svg xmlns="http://www.w3.org/2000/svg" xmlns:xlink="http://www.w3.org/1999/xlink" width="18" height="18" viewBox="0 0 18 18">
  <defs>
    <clipPath id="clip-path">
      <path id="Trazado_360" data-name="Trazado 360" d="M183.006-196a.594.594,0,0,0-.6.587v2.256a1.773,1.773,0,0,0-1.2,1.657,1.79,1.79,0,0,0,1.8,1.761,1.79,1.79,0,0,0,1.8-1.761,1.776,1.776,0,0,0-1.2-1.657v-2.256A.594.594,0,0,0,183.006-196Zm8,0a.594.594,0,0,0-.6.587v2.256a1.773,1.773,0,0,0-1.2,1.657,1.79,1.79,0,0,0,1.8,1.761,1.79,1.79,0,0,0,1.8-1.761,1.776,1.776,0,0,0-1.2-1.657v-2.256A.594.594,0,0,0,191.006-196Zm-10.8,1.174A2.191,2.191,0,0,0,178-192.668v12.51A2.191,2.191,0,0,0,180.206-178h13.588A2.191,2.191,0,0,0,196-180.158v-12.51a2.191,2.191,0,0,0-2.206-2.158H192.6a.621.621,0,0,0-.613.587.621.621,0,0,0,.613.587h1.194a.982.982,0,0,1,1.006.984v3.32H179.2v-3.32a.982.982,0,0,1,1.006-.984H181.4a.615.615,0,0,0,.606-.587.615.615,0,0,0-.606-.587Zm4.394,0a.594.594,0,0,0-.6.587.594.594,0,0,0,.6.587h4.8a.594.594,0,0,0,.6-.587.594.594,0,0,0-.6-.587Zm-1.594,2.739a.585.585,0,0,1,.6.587.585.585,0,0,1-.6.587.585.585,0,0,1-.6-.587A.585.585,0,0,1,183.006-192.087Zm8,0a.585.585,0,0,1,.6.587.585.585,0,0,1-.6.587.585.585,0,0,1-.6-.587A.585.585,0,0,1,191.006-192.087ZM179.2-188.174h15.6v8.016a.982.982,0,0,1-1.006.984H180.206a.982.982,0,0,1-1.006-.984Z" fill="none"/>
    </clipPath>
  </defs>
  <g id="Grupo_352" data-name="Grupo 352" transform="translate(-178 196)" clip-path="url(#clip-path)">
    <path id="Trazado_359" data-name="Trazado 359" d="M173-201h28v28H173Z" fill="#28c499"/>
  </g>
</svg>
