<?xml version="1.0" encoding="utf-8"?>
<!-- Generator: Adobe Illustrator 24.0.0, SVG Export Plug-In . SVG Version: 6.00 Build 0)  -->
<svg version="1.1" id="question" xmlns="http://www.w3.org/2000/svg" xmlns:xlink="http://www.w3.org/1999/xlink" x="0px" y="0px"
	 viewBox="0 0 21 21" style="enable-background:new 0 0 21 21;" xml:space="preserve">
<style type="text/css">
	.st0{fill:#29C499;}
</style>
<g id="Grupo_235">
	<g id="Grupo_234">
		<circle id="Elipse_1" class="st0" cx="10.5" cy="15.5" r="0.9"/>
		<path id="Trazado_273" class="st0" d="M10.5,0C4.7,0,0,4.7,0,10.5S4.7,21,10.5,21S21,16.3,21,10.5C21,4.7,16.3,0,10.5,0z
			 M10.5,20.1c-5.3,0-9.6-4.3-9.6-9.6s4.3-9.6,9.6-9.6s9.6,4.3,9.6,9.6l0,0C20.1,15.8,15.8,20.1,10.5,20.1z"/>
		<path id="Trazado_274" class="st0" d="M10.5,4.1c-1.7,0-3,1.4-3,3c0,0.3,0.2,0.4,0.5,0.4c0.2,0,0.4-0.2,0.4-0.4
			C8.4,6,9.3,5,10.5,5c1.1,0,2.1,0.9,2.1,2.1c0,1.1-0.9,2-2.1,2.1c-0.3,0-0.5,0.2-0.5,0.5l0,0v2.7c0,0.3,0.2,0.4,0.5,0.4
			c0.2,0,0.4-0.2,0.4-0.4v-2.3c1.4-0.3,2.5-1.5,2.5-3C13.5,5.5,12.1,4.1,10.5,4.1z"/>
	</g>
</g>
</svg>
