<svg id="_008---IT-Request" data-name="008---IT-Request" xmlns="http://www.w3.org/2000/svg" width="139.09" height="139.187" viewBox="0 0 139.09 139.187">
  <path id="Shape" d="M90.138,18.978a2.318,2.318,0,0,0-3.781-.735L74.7,29.962H68V23.188L79.664,11.44a2.318,2.318,0,0,0-.746-3.769A21.188,21.188,0,0,0,50.636,34.063l-1.37,1.391L39.022,25.145l.037-.037a2.318,2.318,0,0,0-.216-3.463L23.859,9.938a2.318,2.318,0,0,0-3.072.19l-6.66,6.688a2.318,2.318,0,0,0-.19,3.053L25.593,34.937a2.318,2.318,0,0,0,3.5.2L39.324,45.422l-23.58,23.7a9.456,9.456,0,0,0,0,13.306,9.273,9.273,0,0,0,13.272,0L49.252,62.1,70.746,83.681a11.684,11.684,0,0,0,16.591,0,11.823,11.823,0,0,0,0-16.64L68.764,48.368a21.19,21.19,0,0,0,21.374-29.39Zm-59.4,11.243a2.36,2.36,0,0,0-3.081-.19L18.845,18.654l3.774-3.793,11.317,8.846a2.374,2.374,0,0,0-.19.355,1.553,1.553,0,0,0-.271.862c-.151,1.5-.144,1.087,12.5,13.816l-3.385,3.4ZM25.727,79.167a4.759,4.759,0,1,1-6.7-6.764C36.064,55.272,2.764,88.755,50.72,40.537c.03-.023.044-.063.072-.088.529-.464-1.27,1.331,4.173-4.173a2.318,2.318,0,0,0,.489-2.531,16.6,16.6,0,0,1,18.2-22.827L64.035,20.6a2.318,2.318,0,0,0-.672,1.634V32.271a2.318,2.318,0,0,0,2.318,2.318h9.982a2.318,2.318,0,0,0,1.644-.684l9.6-9.651A16.547,16.547,0,0,1,64.223,42.538a2.318,2.318,0,0,0-2.55.5l-4.073,4.1c-4.952,4.972-10.244,10.27-10,10.026-2.235,2.244,8.111-8.146-21.872,22ZM84.05,80.422a7.228,7.228,0,0,1-10.017,0l-21.508-21.6L62.572,48.728,84.05,70.319a7.186,7.186,0,0,1,0,10.091Z" transform="translate(17.145 7.912)" fill="#fff"/>
  <path id="Shape-2" data-name="Shape" d="M122.863,0H16.227A16.246,16.246,0,0,0,0,16.227V95.045a16.246,16.246,0,0,0,16.227,16.227H39.5c0,4.129-.906,13.575-8.327,19.656a4.636,4.636,0,0,0,3.171,8.25c11.473-.784,31.193-5.538,36.982-27.906h51.54A16.246,16.246,0,0,0,139.09,95.045V16.227A16.246,16.246,0,0,0,122.863,0Zm11.591,95.045a11.6,11.6,0,0,1-11.591,11.591c-56.332,0-53.332-.074-54.013.139a2.23,2.23,0,0,0-1.307,1.071c-.093.165-.271.624-.271.624-4.5,21.019-22.762,25.365-33.161,26.042,11.591-9.5,9.994-25.152,9.922-25.813,0-.026-.19-.654-.232-.751a3.672,3.672,0,0,0-.522-.7c-.925-.848.336-.617-27.051-.617A11.6,11.6,0,0,1,4.636,95.045V16.227A11.6,11.6,0,0,1,16.227,4.636H122.863a11.6,11.6,0,0,1,11.591,11.591Z" fill="#fff"/>
  <path id="Shape-3" data-name="Shape" d="M9.636,4H7.318a2.318,2.318,0,0,0,0,4.636H9.636A2.318,2.318,0,1,0,9.636,4Z" transform="translate(6.591 5.273)" fill="#fff"/>
  <path id="Shape-4" data-name="Shape" d="M26.227,6.318A2.318,2.318,0,0,0,23.909,4H12.318a2.318,2.318,0,0,0,0,4.636H23.909A2.318,2.318,0,0,0,26.227,6.318Z" transform="translate(13.182 5.273)" fill="#fff"/>
  <path id="Shape-5" data-name="Shape" d="M47.636,42H45.318a2.318,2.318,0,0,0,0,4.636h2.318a2.318,2.318,0,1,0,0-4.636Z" transform="translate(56.681 55.363)" fill="#fff"/>
  <path id="Shape-6" data-name="Shape" d="M61.909,42H50.318a2.318,2.318,0,0,0,0,4.636H61.909a2.318,2.318,0,0,0,0-4.636Z" transform="translate(63.272 55.363)" fill="#fff"/>
</svg>
