<svg xmlns="http://www.w3.org/2000/svg" xmlns:xlink="http://www.w3.org/1999/xlink" width="19" height="18" viewBox="0 0 19 18">
  <defs>
    <clipPath id="clip-path">
      <rect id="Rectángulo_31" data-name="Rectángulo 31" width="19" height="18" transform="translate(19 -38)" fill="none"/>
    </clipPath>
    <clipPath id="clip-path-2">
      <path id="Trazado_363" data-name="Trazado 363" d="M37.068-30.894l-1.263-.214a7.13,7.13,0,0,0-.507-1.225l.744-1.041a1.108,1.108,0,0,0-.12-1.432l-1.12-1.12a1.1,1.1,0,0,0-.785-.327,1.092,1.092,0,0,0-.643.207l-1.045.744a7.055,7.055,0,0,0-1.27-.522l-.21-1.248a1.11,1.11,0,0,0-1.1-.928H28.17a1.11,1.11,0,0,0-1.1.928l-.218,1.278a6.954,6.954,0,0,0-1.221.515L24.6-36.023a1.1,1.1,0,0,0-.646-.207,1.1,1.1,0,0,0-.785.327l-1.124,1.12a1.112,1.112,0,0,0-.12,1.432l.752,1.056a6.964,6.964,0,0,0-.5,1.229l-1.248.21a1.11,1.11,0,0,0-.928,1.1v1.582a1.11,1.11,0,0,0,.928,1.1l1.278.218a6.953,6.953,0,0,0,.515,1.221l-.74,1.03a1.108,1.108,0,0,0,.12,1.432l1.12,1.12a1.1,1.1,0,0,0,.785.327,1.092,1.092,0,0,0,.643-.207l1.056-.752a7.109,7.109,0,0,0,1.187.489l.21,1.263a1.11,1.11,0,0,0,1.1.928h1.586a1.11,1.11,0,0,0,1.1-.928L31.1-22.2a7.129,7.129,0,0,0,1.225-.507l1.041.744a1.1,1.1,0,0,0,.646.207h0a1.1,1.1,0,0,0,.785-.327l1.12-1.12a1.112,1.112,0,0,0,.12-1.432l-.744-1.045a7.077,7.077,0,0,0,.507-1.225l1.263-.21a1.11,1.11,0,0,0,.928-1.1V-29.8A1.1,1.1,0,0,0,37.068-30.894Zm-.086,2.679a.1.1,0,0,1-.083.1l-1.578.263a.5.5,0,0,0-.406.372,6.015,6.015,0,0,1-.654,1.575.508.508,0,0,0,.023.552l.928,1.308a.1.1,0,0,1-.011.128l-1.12,1.12a.1.1,0,0,1-.071.03.092.092,0,0,1-.056-.019l-1.3-.928a.508.508,0,0,0-.552-.023,6.016,6.016,0,0,1-1.575.654.5.5,0,0,0-.372.406L29.883-21.1a.1.1,0,0,1-.1.083H28.2a.1.1,0,0,1-.1-.083l-.263-1.578a.5.5,0,0,0-.372-.406,6.246,6.246,0,0,1-1.541-.631.52.52,0,0,0-.256-.068.5.5,0,0,0-.293.094l-1.315.936a.112.112,0,0,1-.056.019.1.1,0,0,1-.071-.03l-1.12-1.12a.1.1,0,0,1-.011-.128l.924-1.3a.514.514,0,0,0,.023-.556,5.959,5.959,0,0,1-.661-1.571.515.515,0,0,0-.406-.372l-1.59-.271a.1.1,0,0,1-.083-.1v-1.582a.1.1,0,0,1,.083-.1l1.567-.263a.508.508,0,0,0,.41-.376,6.01,6.01,0,0,1,.643-1.578.5.5,0,0,0-.026-.549l-.936-1.315a.1.1,0,0,1,.011-.128l1.12-1.12a.1.1,0,0,1,.071-.03.092.092,0,0,1,.056.019l1.3.924a.514.514,0,0,0,.556.023,5.959,5.959,0,0,1,1.571-.661.515.515,0,0,0,.372-.406l.271-1.59a.1.1,0,0,1,.1-.083h1.582a.1.1,0,0,1,.1.083l.263,1.567a.508.508,0,0,0,.376.41,6.1,6.1,0,0,1,1.612.661.508.508,0,0,0,.552-.023l1.3-.932a.112.112,0,0,1,.056-.019.1.1,0,0,1,.071.03l1.12,1.12a.1.1,0,0,1,.011.128l-.928,1.3a.508.508,0,0,0-.023.552,6.016,6.016,0,0,1,.654,1.575.5.5,0,0,0,.406.372l1.578.267a.1.1,0,0,1,.083.1v1.582Z" fill="none"/>
    </clipPath>
    <clipPath id="clip-path-3">
      <path id="Trazado_362" data-name="Trazado 362" d="M20-20H38V-38H20Z" fill="none"/>
    </clipPath>
    <clipPath id="clip-path-4">
      <path id="Trazado_366" data-name="Trazado 366" d="M29-32.889a3.884,3.884,0,0,0-3.882,3.882A3.884,3.884,0,0,0,29-25.126a3.884,3.884,0,0,0,3.882-3.882A3.884,3.884,0,0,0,29-32.889Zm0,6.749a2.869,2.869,0,0,1-2.867-2.867A2.869,2.869,0,0,1,29-31.875a2.869,2.869,0,0,1,2.867,2.867A2.869,2.869,0,0,1,29-26.14Z" fill="none"/>
    </clipPath>
  </defs>
  <g id="Grupo_358" data-name="Grupo 358" transform="translate(-19 38)" style="isolation: isolate">
    <g id="Grupo_357" data-name="Grupo 357" clip-path="url(#clip-path)">
      <g id="Grupo_354" data-name="Grupo 354" clip-path="url(#clip-path-2)">
        <g id="Grupo_353" data-name="Grupo 353" clip-path="url(#clip-path-3)">
          <path id="Trazado_361" data-name="Trazado 361" d="M15-43H42.989v27.989H15Z" fill="#fff"/>
        </g>
      </g>
      <g id="Grupo_356" data-name="Grupo 356" clip-path="url(#clip-path-4)">
        <g id="Grupo_355" data-name="Grupo 355" clip-path="url(#clip-path-3)">
          <path id="Trazado_364" data-name="Trazado 364" d="M20.114-37.889H37.878v17.764H20.114Z" fill="#fff"/>
        </g>
      </g>
    </g>
  </g>
</svg>
