<svg xmlns="http://www.w3.org/2000/svg" xmlns:xlink="http://www.w3.org/1999/xlink" width="18.199" height="18.2" viewBox="0 0 18.199 18.2">
  <defs>
    <clipPath id="clip-path">
      <path id="Trazado_244" data-name="Trazado 244" d="M179.275-37.037a1.989,1.989,0,0,1,.563.563.281.281,0,0,0,.3.188h.038a.431.431,0,0,0,.337-.225,3.319,3.319,0,0,1,1.463-1.425.369.369,0,0,0,.112-.525.369.369,0,0,0-.525-.112,5.6,5.6,0,0,0-1.462,1.237,1.244,1.244,0,0,0-.525-.375.372.372,0,0,0-.488.188A.344.344,0,0,0,179.275-37.037Z" fill="none"/>
    </clipPath>
    <clipPath id="clip-path-2">
      <path id="Trazado_247" data-name="Trazado 247" d="M182.8-40h-4.425a.376.376,0,0,0-.375.375V-35.2a.354.354,0,0,0,.375.375H182.8a.354.354,0,0,0,.375-.375v-4.425A.376.376,0,0,0,182.8-40Zm-.375,4.425H178.75V-39.25h3.675Z" fill="none"/>
    </clipPath>
    <clipPath id="clip-path-3">
      <path id="Trazado_250" data-name="Trazado 250" d="M182.8-33.588h-4.425a.354.354,0,0,0-.375.375v4.425a.354.354,0,0,0,.375.375H182.8a.354.354,0,0,0,.375-.375v-4.425A.4.4,0,0,0,182.8-33.588Zm-.375,4.425H178.75v-3.675h3.675Z" fill="none"/>
    </clipPath>
    <clipPath id="clip-path-4">
      <path id="Trazado_253" data-name="Trazado 253" d="M182.8-27.175h-4.425A.354.354,0,0,0,178-26.8v4.425a.354.354,0,0,0,.375.375H182.8a.354.354,0,0,0,.375-.375V-26.8A.4.4,0,0,0,182.8-27.175Zm-.375,4.425H178.75v-3.675h3.675Z" fill="none"/>
    </clipPath>
    <clipPath id="clip-path-5">
      <path id="Trazado_256" data-name="Trazado 256" d="M184.75-38.162h10.875a.354.354,0,0,0,.375-.375.354.354,0,0,0-.375-.375H184.75a.354.354,0,0,0-.375.375A.4.4,0,0,0,184.75-38.162Z" fill="none"/>
    </clipPath>
    <clipPath id="clip-path-6">
      <path id="Trazado_259" data-name="Trazado 259" d="M184.75-35.912h5.137a.354.354,0,0,0,.375-.375.354.354,0,0,0-.375-.375H184.75a.354.354,0,0,0-.375.375A.376.376,0,0,0,184.75-35.912Z" fill="none"/>
    </clipPath>
    <clipPath id="clip-path-7">
      <path id="Trazado_262" data-name="Trazado 262" d="M195.625-32.5H184.75a.354.354,0,0,0-.375.375.354.354,0,0,0,.375.375h10.875a.354.354,0,0,0,.375-.375A.376.376,0,0,0,195.625-32.5Z" fill="none"/>
    </clipPath>
    <clipPath id="clip-path-8">
      <path id="Trazado_265" data-name="Trazado 265" d="M184.75-29.5h5.137a.354.354,0,0,0,.375-.375.354.354,0,0,0-.375-.375H184.75a.354.354,0,0,0-.375.375A.376.376,0,0,0,184.75-29.5Z" fill="none"/>
    </clipPath>
    <clipPath id="clip-path-9">
      <path id="Trazado_268" data-name="Trazado 268" d="M195.625-26.087H184.75a.354.354,0,0,0-.375.375.354.354,0,0,0,.375.375h10.875a.354.354,0,0,0,.375-.375A.376.376,0,0,0,195.625-26.087Z" fill="none"/>
    </clipPath>
    <clipPath id="clip-path-10">
      <path id="Trazado_271" data-name="Trazado 271" d="M189.887-23.837H184.75a.354.354,0,0,0-.375.375.354.354,0,0,0,.375.375h5.137a.354.354,0,0,0,.375-.375A.354.354,0,0,0,189.887-23.837Z" fill="none"/>
    </clipPath>
  </defs>
  <g id="Grupo_365" data-name="Grupo 365" transform="translate(12311.1 1474.1)">
    <g id="Grupo_214" data-name="Grupo 214" transform="translate(-12489 -1434)" clip-path="url(#clip-path)">
      <path id="Trazado_243" data-name="Trazado 243" d="M174.043-43.638h13.108v12.351H174.043Z" fill="#28c499"/>
    </g>
    <g id="Grupo_215" data-name="Grupo 215" transform="translate(-12309.957 -1472.638)">
      <path id="Trazado_245" data-name="Trazado 245" d="M.232,1.6a1.989,1.989,0,0,1,.563.563.281.281,0,0,0,.3.188h.038a.431.431,0,0,0,.337-.225A3.319,3.319,0,0,1,2.932.7.369.369,0,0,0,3.045.176.369.369,0,0,0,2.52.063,5.6,5.6,0,0,0,1.057,1.3,1.243,1.243,0,0,0,.532.926a.372.372,0,0,0-.487.187A.344.344,0,0,0,.232,1.6Z" fill="none" stroke="#28c499" stroke-width="0.2"/>
    </g>
    <g id="Grupo_216" data-name="Grupo 216" transform="translate(-12489 -1434)" clip-path="url(#clip-path-2)">
      <path id="Trazado_246" data-name="Trazado 246" d="M173-45h15.175v15.175H173Z" fill="#28c499"/>
    </g>
    <g id="Grupo_217" data-name="Grupo 217" transform="translate(-12311 -1474)">
      <path id="Trazado_248" data-name="Trazado 248" d="M4.8,0H.375A.376.376,0,0,0,0,.375V4.8a.354.354,0,0,0,.375.375H4.8A.354.354,0,0,0,5.175,4.8V.375A.376.376,0,0,0,4.8,0ZM4.425,4.425H.75V.75H4.425Z" fill="none" stroke="#28c499" stroke-width="0.2"/>
    </g>
    <g id="Grupo_218" data-name="Grupo 218" transform="translate(-12489 -1434)" clip-path="url(#clip-path-3)">
      <path id="Trazado_249" data-name="Trazado 249" d="M173-38.588h15.175v15.175H173Z" fill="#28c499"/>
    </g>
    <g id="Grupo_219" data-name="Grupo 219" transform="translate(-12311 -1467.588)">
      <path id="Trazado_251" data-name="Trazado 251" d="M4.8,0H.375A.354.354,0,0,0,0,.375V4.8a.354.354,0,0,0,.375.375H4.8A.354.354,0,0,0,5.175,4.8V.375A.4.4,0,0,0,4.8,0ZM4.425,4.425H.75V.75H4.425Z" fill="none" stroke="#28c499" stroke-width="0.2"/>
    </g>
    <g id="Grupo_220" data-name="Grupo 220" transform="translate(-12489 -1434)" clip-path="url(#clip-path-4)">
      <path id="Trazado_252" data-name="Trazado 252" d="M173-32.175h15.175V-17H173Z" fill="#28c499"/>
    </g>
    <g id="Grupo_221" data-name="Grupo 221" transform="translate(-12311 -1461.175)">
      <path id="Trazado_254" data-name="Trazado 254" d="M4.8,0H.375A.354.354,0,0,0,0,.375V4.8a.354.354,0,0,0,.375.375H4.8A.354.354,0,0,0,5.175,4.8V.375A.4.4,0,0,0,4.8,0ZM4.425,4.425H.75V.75H4.425Z" fill="none" stroke="#28c499" stroke-width="0.2"/>
    </g>
    <g id="Grupo_222" data-name="Grupo 222" transform="translate(-12489 -1434)" clip-path="url(#clip-path-5)">
      <path id="Trazado_255" data-name="Trazado 255" d="M179.375-43.912H201v10.75H179.375Z" fill="#28c499"/>
    </g>
    <g id="Grupo_223" data-name="Grupo 223" transform="translate(-12304.625 -1472.912)">
      <path id="Trazado_257" data-name="Trazado 257" d="M.375.75H11.25a.354.354,0,0,0,.375-.375A.354.354,0,0,0,11.25,0H.375A.354.354,0,0,0,0,.375.4.4,0,0,0,.375.75Z" fill="none" stroke="#28c499" stroke-width="0.2"/>
    </g>
    <g id="Grupo_224" data-name="Grupo 224" transform="translate(-12489 -1434)" clip-path="url(#clip-path-6)">
      <path id="Trazado_258" data-name="Trazado 258" d="M179.375-41.662h15.887v10.75H179.375Z" fill="#28c499"/>
    </g>
    <g id="Grupo_225" data-name="Grupo 225" transform="translate(-12304.625 -1470.662)">
      <path id="Trazado_260" data-name="Trazado 260" d="M.375.75H5.512A.354.354,0,0,0,5.887.375.354.354,0,0,0,5.512,0H.375A.354.354,0,0,0,0,.375.376.376,0,0,0,.375.75Z" fill="none" stroke="#28c499" stroke-width="0.2"/>
    </g>
    <g id="Grupo_226" data-name="Grupo 226" transform="translate(-12489 -1434)" clip-path="url(#clip-path-7)">
      <path id="Trazado_261" data-name="Trazado 261" d="M179.375-37.5H201v10.75H179.375Z" fill="#28c499"/>
    </g>
    <g id="Grupo_227" data-name="Grupo 227" transform="translate(-12304.625 -1466.5)">
      <path id="Trazado_263" data-name="Trazado 263" d="M11.25,0H.375A.354.354,0,0,0,0,.375.354.354,0,0,0,.375.75H11.25a.354.354,0,0,0,.375-.375A.376.376,0,0,0,11.25,0Z" fill="none" stroke="#28c499" stroke-width="0.2"/>
    </g>
    <g id="Grupo_228" data-name="Grupo 228" transform="translate(-12489 -1434)" clip-path="url(#clip-path-8)">
      <path id="Trazado_264" data-name="Trazado 264" d="M179.375-35.25h15.887V-24.5H179.375Z" fill="#28c499"/>
    </g>
    <g id="Grupo_229" data-name="Grupo 229" transform="translate(-12304.625 -1464.25)">
      <path id="Trazado_266" data-name="Trazado 266" d="M.375.75H5.512A.354.354,0,0,0,5.887.375.354.354,0,0,0,5.512,0H.375A.354.354,0,0,0,0,.375.376.376,0,0,0,.375.75Z" fill="none" stroke="#28c499" stroke-width="0.2"/>
    </g>
    <g id="Grupo_230" data-name="Grupo 230" transform="translate(-12489 -1434)" clip-path="url(#clip-path-9)">
      <path id="Trazado_267" data-name="Trazado 267" d="M179.375-31.087H201v10.75H179.375Z" fill="#28c499"/>
    </g>
    <g id="Grupo_231" data-name="Grupo 231" transform="translate(-12304.625 -1460.088)">
      <path id="Trazado_269" data-name="Trazado 269" d="M11.25,0H.375A.354.354,0,0,0,0,.375.354.354,0,0,0,.375.75H11.25a.354.354,0,0,0,.375-.375A.376.376,0,0,0,11.25,0Z" fill="none" stroke="#28c499" stroke-width="0.2"/>
    </g>
    <g id="Grupo_232" data-name="Grupo 232" transform="translate(-12489 -1434)" clip-path="url(#clip-path-10)">
      <path id="Trazado_270" data-name="Trazado 270" d="M179.375-28.837h15.887v10.75H179.375Z" fill="#28c499"/>
    </g>
    <g id="Grupo_233" data-name="Grupo 233" transform="translate(-12304.625 -1457.838)">
      <path id="Trazado_272" data-name="Trazado 272" d="M5.512,0H.375A.354.354,0,0,0,0,.375.354.354,0,0,0,.375.75H5.512A.354.354,0,0,0,5.887.375.354.354,0,0,0,5.512,0Z" fill="none" stroke="#28c499" stroke-width="0.2"/>
    </g>
  </g>
</svg>
