<svg xmlns="http://www.w3.org/2000/svg" xmlns:xlink="http://www.w3.org/1999/xlink" width="15" height="16.5" viewBox="0 0 15 16.5">
  <defs>
    <clipPath id="clip-path">
      <path id="Trazado_8" data-name="Trazado 8" d="M16.5-9.25V-3A2.21,2.21,0,0,1,14.25-.75H3.75A2.21,2.21,0,0,1,1.5-3V-9.25A.709.709,0,0,1,2.25-10,.709.709,0,0,1,3-9.25V-3a.709.709,0,0,0,.75.75h10.5A.709.709,0,0,0,15-3V-9.25a.709.709,0,0,1,.75-.75A.709.709,0,0,1,16.5-9.25Z" fill="none"/>
    </clipPath>
    <clipPath id="clip-path-2">
      <path id="Trazado_10" data-name="Trazado 10" d="M8.475-17.025c.075-.075.15-.15.225-.15A.451.451,0,0,1,9-17.25a.451.451,0,0,1,.3.075c.075.075.15.075.225.15l3,3a.725.725,0,0,1,0,1.05.725.725,0,0,1-1.05,0L9.75-14.7V-6A.709.709,0,0,1,9-5.25.709.709,0,0,1,8.25-6v-8.7L6.525-12.975a.725.725,0,0,1-1.05,0,.725.725,0,0,1,0-1.05Z" fill="none"/>
    </clipPath>
  </defs>
  <g id="Grupo_13" data-name="Grupo 13" transform="translate(-2277.5 -394.75)">
    <g id="Grupo_11" data-name="Grupo 11" transform="translate(2276 412)" clip-path="url(#clip-path)">
      <path id="Trazado_7" data-name="Trazado 7" d="M-3.5-15h25V4.25h-25Z" fill="#28c499"/>
    </g>
    <g id="Grupo_12" data-name="Grupo 12" transform="translate(2276 412)" clip-path="url(#clip-path-2)">
      <path id="Trazado_9" data-name="Trazado 9" d="M.25-.25h17.5v-22H.25Z" fill="#28c499"/>
    </g>
  </g>
</svg>
