<svg xmlns="http://www.w3.org/2000/svg" xmlns:xlink="http://www.w3.org/1999/xlink" width="18" height="16.982" viewBox="0 0 18 16.982">
  <defs>
    <clipPath id="clip-path">
      <path id="Trazado_164" data-name="Trazado 164" d="M193.033-504.67a.512.512,0,0,0-.519.521v7.116h-3.679v-2.906a.513.513,0,0,0-.5-.511h-2.66a.525.525,0,0,0-.528.511v2.906h-3.669v-6.88a.509.509,0,0,0-.519-.5.505.505,0,0,0-.5.5v7.4a.505.505,0,0,0,.5.5h4.716a.505.505,0,0,0,.5-.5v-2.906h1.641v2.906a.509.509,0,0,0,.519.5h4.7a.5.5,0,0,0,.5-.5v-7.637A.508.508,0,0,0,193.033-504.67Z" fill="none"/>
    </clipPath>
    <clipPath id="clip-path-2">
      <path id="Trazado_166" data-name="Trazado 166" d="M195.853-504.264l-4.094-4.125V-511.2a.519.519,0,0,0-.528-.519.507.507,0,0,0-.5.519v1.781l-3.377-3.409a.5.5,0,0,0-.349-.161.512.512,0,0,0-.368.161l-8.48,8.509a.488.488,0,0,0,0,.719.485.485,0,0,0,.717,0l8.131-8.14,8.112,8.217a.5.5,0,0,0,.368.133.569.569,0,0,0,.368-.133A.538.538,0,0,0,195.853-504.264Z" fill="none"/>
    </clipPath>
  </defs>
  <g id="Grupo_362" data-name="Grupo 362" transform="translate(12308 1566.991)">
    <g id="Grupo_134" data-name="Grupo 134" transform="translate(-12486 -1054)" clip-path="url(#clip-path)">
      <path id="Trazado_163" data-name="Trazado 163" d="M175.459-509.67h23.073v18.661H175.459Z" fill="#28c499"/>
    </g>
    <g id="Grupo_135" data-name="Grupo 135" transform="translate(-12486 -1054)" clip-path="url(#clip-path-2)">
      <path id="Trazado_165" data-name="Trazado 165" d="M173-517.991h28v19.6H173Z" fill="#28c499"/>
    </g>
  </g>
</svg>
