<svg width="64" height="64" viewBox="0 0 64 64" fill="none" xmlns="http://www.w3.org/2000/svg">
<path d="M56.4643 44.9703C55.5693 46.0975 54.2355 46.744 52.8049 46.744C51.3749 46.744 50.0411 46.0975 49.1455 44.97C48.9011 44.6637 48.3849 44.6647 48.143 44.9703C47.248 46.0975 45.9143 46.744 44.4836 46.744C43.0536 46.744 41.7199 46.0975 40.8249 44.9703C40.7036 44.8172 40.5186 44.7281 40.3236 44.7281C40.1286 44.7281 39.9436 44.8172 39.8224 44.97C38.9268 46.0975 37.593 46.744 36.163 46.744C34.733 46.744 33.3993 46.0975 32.5036 44.97C32.2611 44.6644 31.7436 44.6644 31.5011 44.97C30.6055 46.0975 29.2718 46.744 27.8418 46.744C26.4118 46.744 25.078 46.0975 24.1824 44.97C23.9386 44.6644 23.4236 44.6644 23.1799 44.97C22.2843 46.0975 20.9505 46.744 19.5205 46.744C18.0899 46.744 16.7561 46.0975 15.8611 44.9703C15.7399 44.8172 15.5549 44.7281 15.3599 44.7281C15.1649 44.7281 14.9805 44.8172 14.8586 44.97C13.963 46.0975 12.6293 46.744 11.1993 46.744C9.76865 46.744 8.4349 46.0975 7.5399 44.9703C7.3199 44.6931 6.91802 44.6465 6.64052 44.8669C6.36365 45.0865 6.3174 45.4894 6.5374 45.7659C7.67677 47.2009 9.37615 48.024 11.1993 48.024C12.7711 48.024 14.2511 47.4122 15.3599 46.3231C16.468 47.4119 17.948 48.024 19.5205 48.024C21.0924 48.024 22.5724 47.4119 23.6811 46.3231C24.7899 47.4119 26.2699 48.024 27.8418 48.024C29.4136 48.024 30.8936 47.4119 32.0024 46.3231C33.1111 47.4119 34.5911 48.024 36.163 48.024C37.7349 48.024 39.2149 47.4119 40.323 46.3231C41.4318 47.4122 42.9118 48.024 44.4836 48.024C46.0561 48.024 47.5361 47.4119 48.6443 46.3231C49.753 47.4122 51.233 48.024 52.8049 48.024C54.628 48.024 56.3274 47.2009 57.4668 45.7659C57.6868 45.4894 57.6405 45.0865 57.3636 44.8669C57.0855 44.6469 56.6836 44.6931 56.4643 44.9703Z" fill="#11093C"/>
<path d="M7.03844 40.9125H56.9622C57.3159 40.9125 57.6022 40.626 57.6022 40.2725C57.6022 39.9191 57.3159 39.6325 56.9622 39.6325H44.8666V29.5815C47.435 32.9362 51.8615 33.3016 53.6103 33.3016C54.0628 33.3016 54.3353 33.2778 54.3503 33.2766C54.7022 33.2428 54.9597 32.9303 54.9259 32.5785C54.8928 32.2269 54.5972 31.9706 54.2278 32.0022C54.1551 32.0087 47.0275 32.6219 44.8666 26.9859V21.8432C45.8815 23.0889 47.2961 24.0087 49.0697 24.536C50.5278 24.9694 51.8416 25.03 52.4634 25.03C52.6872 25.03 52.8216 25.0222 52.8403 25.021C53.1934 24.9988 53.4616 24.6947 53.4391 24.3419C53.4166 23.9888 53.1078 23.7138 52.7603 23.7435C52.7001 23.7478 46.6935 24.0644 44.8666 19.3214V15.4595C47.1025 17.9621 50.736 18.0175 51.0291 18.0175C51.0334 18.0175 51.0372 18.0175 51.0403 18.0175C51.3934 18.0156 51.6772 17.7281 51.6759 17.375C51.6747 17.0225 51.3878 16.7375 51.0353 16.7375H51.0341C50.8308 16.7508 46.2946 16.7009 44.8666 13.0301V9.17514C46.5369 10.8292 48.9263 11.1041 49.0572 11.1175C49.0797 11.12 49.1016 11.121 49.1234 11.121C49.4472 11.121 49.7253 10.876 49.7597 10.5466C49.7959 10.195 49.5403 9.88065 49.1884 9.8444C49.1547 9.84096 45.8022 9.46502 44.8272 6.81877C44.8254 6.81393 44.8213 6.81092 44.8194 6.80616C44.8161 6.79784 44.8137 6.78975 44.81 6.78163C44.7936 6.74436 44.7655 6.71456 44.7422 6.681L44.7409 6.67901C44.7216 6.65159 44.708 6.61983 44.685 6.59616C44.6802 6.5912 44.6758 6.58663 44.6708 6.58182C44.6461 6.55784 44.6132 6.5435 44.5844 6.52354C44.5511 6.50049 44.5215 6.47264 44.4846 6.45627C44.4767 6.45276 44.4687 6.45042 44.4606 6.44725C44.4558 6.44534 44.4527 6.4412 44.4478 6.4394C44.4193 6.42893 44.3903 6.43233 44.3614 6.42608C44.3209 6.41709 44.2824 6.40374 44.2404 6.40284C44.2355 6.40272 44.2315 6.40002 44.2266 6.40002C44.2214 6.40002 44.2171 6.40288 44.2119 6.40299C44.1725 6.40397 44.1365 6.41686 44.0985 6.42491C44.0673 6.43135 44.0361 6.42803 44.0053 6.4394C44.0004 6.4412 43.9974 6.44534 43.9925 6.44725C43.9841 6.45061 43.9757 6.45327 43.9675 6.45698C43.9348 6.47147 43.9091 6.4967 43.8793 6.51643C43.8758 6.51874 43.8724 6.52104 43.869 6.52338C43.8402 6.54342 43.8071 6.55772 43.7824 6.58178C43.7772 6.58674 43.7726 6.59159 43.7677 6.59674C43.7457 6.61936 43.7329 6.64991 43.7143 6.67592C43.7131 6.6776 43.7121 6.67932 43.7109 6.681C43.6876 6.71459 43.6595 6.74444 43.643 6.7817C43.6395 6.78975 43.6371 6.79792 43.6338 6.80612C43.6319 6.81088 43.6277 6.81393 43.6259 6.81877C42.6616 9.4369 39.3303 9.8369 39.2641 9.8444C38.9128 9.88096 38.6572 10.1953 38.6934 10.5466C38.7278 10.876 39.0053 11.121 39.3297 11.121C39.3516 11.121 39.3734 11.12 39.3959 11.1175C39.5268 11.1041 41.9162 10.8292 43.5866 9.17518V13.0301C42.1661 16.6819 37.6602 16.7375 37.4222 16.7375C37.4203 16.7372 37.4191 16.7369 37.4178 16.7375C37.0653 16.7375 36.7784 17.0225 36.7772 17.375C36.7759 17.7281 37.0597 18.0156 37.4128 18.0175C37.4159 18.0175 37.4197 18.0175 37.4241 18.0175C37.7177 18.0175 41.3507 17.9618 43.5866 15.4595V19.3219C41.7684 24.0476 35.9412 23.7578 35.6928 23.7435C35.3403 23.7163 35.0366 23.99 35.0153 24.3428C34.9934 24.6953 35.2609 24.9988 35.6134 25.021C35.6322 25.0222 35.7666 25.03 35.9903 25.03C36.6122 25.03 37.9259 24.9691 39.3841 24.536C41.1572 24.0087 42.5717 23.0889 43.5866 21.8433V26.9861C41.4328 32.6058 34.5211 32.0296 34.2241 32.0022C33.8772 31.9716 33.5603 32.2275 33.5272 32.5791C33.4941 32.9306 33.7516 33.2428 34.1028 33.2766C34.1178 33.2778 34.3903 33.3016 34.8428 33.3016C36.5921 33.3016 41.0183 32.936 43.5866 29.5814V39.6325H20.4141V29.5815C22.9823 32.9362 27.4085 33.3016 29.1578 33.3016C29.6103 33.3016 29.8828 33.2778 29.8978 33.2766C30.2497 33.2428 30.5072 32.9303 30.4734 32.5785C30.4403 32.2269 30.1434 31.9706 29.7753 32.0022C29.7032 32.01 22.575 32.6217 20.4141 26.9859V21.8433C21.4288 23.0889 22.8431 24.0087 24.6166 24.536C26.0747 24.9694 27.3884 25.03 28.0103 25.03C28.2341 25.03 28.3684 25.0222 28.3872 25.021C28.7397 24.9988 29.0072 24.6953 28.9853 24.3428C28.9641 23.9903 28.6528 23.7175 28.3078 23.7435C28.0582 23.7581 22.2322 24.0491 20.4141 19.3219V15.4595C22.65 17.9621 26.2835 18.0175 26.5766 18.0175C26.5809 18.0175 26.5847 18.0175 26.5878 18.0175C26.9409 18.0156 27.2247 17.7281 27.2234 17.375C27.2222 17.0225 26.9353 16.7375 26.5828 16.7375C26.5828 16.7375 26.5797 16.7372 26.5784 16.7375C26.3398 16.7375 21.8345 16.6816 20.4141 13.0301V9.17553C22.0841 10.8293 24.4732 11.1041 24.6041 11.1175C24.6266 11.12 24.6484 11.121 24.6703 11.121C24.9941 11.121 25.2722 10.876 25.3066 10.5466C25.3428 10.195 25.0872 9.88065 24.7353 9.8444C24.7016 9.84096 21.3491 9.46502 20.3747 6.81877C20.3729 6.81393 20.3688 6.81096 20.3669 6.8062C20.3636 6.79788 20.3612 6.78975 20.3575 6.78163C20.3411 6.74436 20.313 6.71456 20.2897 6.681C20.2889 6.67991 20.2882 6.67877 20.2875 6.67768C20.2685 6.65084 20.2552 6.61956 20.2327 6.59631C20.2278 6.59131 20.2233 6.58666 20.2183 6.58182C20.1935 6.55776 20.1604 6.54334 20.1316 6.52331L20.1295 6.52194C20.097 6.49959 20.0682 6.47233 20.0323 6.45635C20.0243 6.45284 20.0162 6.45045 20.0081 6.44725C20.0033 6.44534 20.0002 6.4412 19.9953 6.4394C19.9666 6.42885 19.9374 6.43225 19.9084 6.426C19.868 6.41709 19.8297 6.40374 19.7878 6.4028C19.783 6.40268 19.7789 6.40002 19.7741 6.40002C19.7688 6.40002 19.7645 6.40288 19.7593 6.40299C19.7198 6.40393 19.6836 6.41686 19.6455 6.42499C19.6145 6.43139 19.5834 6.42807 19.5528 6.4394C19.5479 6.4412 19.5449 6.44538 19.54 6.44729C19.5316 6.45061 19.5234 6.45323 19.5151 6.4569C19.4815 6.47182 19.4548 6.49768 19.4241 6.51823C19.4217 6.51983 19.4193 6.52139 19.4169 6.52307C19.3879 6.54315 19.3547 6.55764 19.3298 6.58182C19.3248 6.58674 19.3202 6.59155 19.3152 6.59663C19.293 6.61952 19.28 6.65045 19.2612 6.67686L19.2593 6.67975C19.2355 6.71374 19.2072 6.74401 19.1905 6.78178C19.1869 6.78983 19.1845 6.79792 19.1813 6.80612C19.1794 6.81092 19.1752 6.81393 19.1734 6.81877C18.2091 9.4369 14.8778 9.8369 14.8116 9.8444C14.4603 9.88096 14.2047 10.1953 14.2409 10.5466C14.2753 10.876 14.5528 11.121 14.8772 11.121C14.8991 11.121 14.9209 11.12 14.9434 11.1175C15.0743 11.1041 17.4637 10.8292 19.1341 9.17518V13.0301C17.7136 16.6819 13.2071 16.7375 12.9691 16.7375C12.9666 16.7372 12.9666 16.7369 12.9647 16.7375C12.6122 16.7375 12.3253 17.0225 12.3241 17.375C12.3228 17.7281 12.6066 18.0156 12.9597 18.0175C12.9628 18.0175 12.9666 18.0175 12.9709 18.0175C13.2645 18.0175 16.8981 17.9619 19.1341 15.4594V19.3219C17.3153 24.0476 11.4887 23.7578 11.2397 23.7435C10.8884 23.7163 10.5834 23.99 10.5622 24.3428C10.5403 24.6953 10.8078 24.9988 11.1603 25.021C11.1791 25.0222 11.3134 25.03 11.5372 25.03C12.1591 25.03 13.4728 24.9691 14.9309 24.536C16.7045 24.0087 18.1191 23.0889 19.1341 21.8432V26.9861C16.9803 32.6058 10.0673 32.0296 9.77156 32.0022C9.42344 31.9716 9.10781 32.2275 9.07469 32.5791C9.04156 32.9306 9.29906 33.2428 9.65031 33.2766C9.66531 33.2778 9.93781 33.3016 10.3903 33.3016C12.1396 33.3016 16.5658 32.936 19.1341 29.5814V39.6325H7.03844C6.68469 39.6325 6.39844 39.9191 6.39844 40.2725C6.39844 40.626 6.68469 40.9125 7.03844 40.9125Z" fill="#11093C"/>
<path d="M7.03844 57.6H56.9622C57.3159 57.6 57.6022 57.3135 57.6022 56.96C57.6022 56.6066 57.3159 56.32 56.9622 56.32H56.0622V55.4732C56.0622 53.2782 54.2766 51.4925 52.0816 51.4925C49.8866 51.4925 48.1009 53.2782 48.1009 55.4732V56.32H39.6934V55.4732C39.6934 53.2782 37.9078 51.4925 35.7128 51.4925C34.4739 51.4925 33.3658 52.0618 32.6352 52.9521C31.8527 50.9783 29.9288 49.5769 27.6797 49.5769C24.7391 49.5769 22.3472 51.9691 22.3472 54.9094V56.32H15.9034V55.4732C15.9034 53.2782 14.1178 51.4925 11.9228 51.4925C9.72781 51.4925 7.94219 53.2782 7.94219 55.4732V56.32H7.03844C6.68469 56.32 6.39844 56.6066 6.39844 56.96C6.39844 57.3135 6.68469 57.6 7.03844 57.6ZM49.3809 55.4732C49.3809 53.9841 50.5922 52.7725 52.0816 52.7725C53.5709 52.7725 54.7822 53.9841 54.7822 55.4732V56.32H49.3809V55.4732ZM35.7128 52.7725C37.2022 52.7725 38.4134 53.9841 38.4134 55.4732V56.32H33.0122V55.4732C33.0122 53.9841 34.2234 52.7725 35.7128 52.7725ZM23.6272 54.9094C23.6272 52.6747 25.4453 50.8569 27.6797 50.8569C29.9141 50.8569 31.7322 52.6747 31.7322 54.9094V55.4732V56.32H23.6272V54.9094ZM9.22219 55.4732C9.22219 53.9841 10.4334 52.7725 11.9228 52.7725C13.4122 52.7725 14.6234 53.9841 14.6234 55.4732V56.32H9.22219V55.4732Z" fill="#11093C"/>
</svg>
