<svg width="16" height="16" viewBox="0 0 16 16" fill="none" xmlns="http://www.w3.org/2000/svg">
<path d="M12.6269 2.00011C12.3335 2.00038 12.0519 2.11602 11.8429 2.322C11.6339 2.52806 11.5143 2.80792 11.5098 3.10129L9.29679 3.49696C9.138 3.28335 8.90839 3.13322 8.64905 3.07324C8.38962 3.01326 8.11742 3.04748 7.88099 3.16965C7.64447 3.29182 7.45911 3.49411 7.358 3.74038C7.2569 3.98655 7.2466 4.26071 7.32893 4.51387C7.41127 4.76704 7.5809 4.98267 7.80748 5.12224C8.03416 5.26188 8.30306 5.31644 8.56617 5.27605L9.41418 7.16985V7.16994C9.23378 7.27859 9.08751 7.43581 8.9922 7.62367L5.56322 6.55671V6.54484C5.5635 6.25387 5.45025 5.97428 5.24776 5.76536C5.04518 5.55653 4.7693 5.43483 4.4784 5.42609C4.1876 5.41735 3.90483 5.52222 3.69009 5.71854C3.47538 5.91495 3.34566 6.18715 3.32847 6.47758C3.31118 6.7681 3.40777 7.05375 3.59775 7.27416C3.78772 7.49449 4.05616 7.6322 4.34596 7.65787L5.03969 9.38552C4.86021 9.53722 4.73325 9.74173 4.67713 9.96986C4.62101 10.1979 4.63849 10.438 4.72708 10.6556L3.54017 11.8425C3.20622 11.7073 2.82767 11.7409 2.5229 11.9329C2.21813 12.1249 2.02429 12.4519 2.00212 12.8114C1.97996 13.1709 2.1322 13.5192 2.41103 13.7471C2.68997 13.9752 3.06153 14.055 3.40947 13.9619C3.75747 13.8687 4.03926 13.6137 4.16686 13.2768C4.29445 12.9399 4.25213 12.5622 4.05315 12.2619L5.14256 11.1725V11.1726C5.43675 11.3674 5.80574 11.4119 6.13795 11.2927C6.47013 11.1734 6.72653 10.9043 6.82966 10.5668C6.93269 10.2293 6.87041 9.86283 6.66158 9.57839C6.45275 9.29385 6.12194 9.12457 5.76897 9.12172C5.72987 9.11969 5.69077 9.11969 5.65158 9.12172L5.00412 7.5167C5.14727 7.43464 5.27062 7.32213 5.36549 7.18699L8.88278 8.28292V8.28301C8.92123 8.56321 9.06456 8.81841 9.28378 8.99706C9.50309 9.17572 9.78192 9.26448 10.0642 9.24564C10.3464 9.22669 10.6109 9.10139 10.8044 8.89504C10.9978 8.6887 11.1058 8.41668 11.1065 8.13379C11.1072 7.85099 11.0006 7.57842 10.8081 7.37106C10.6157 7.16379 10.3518 7.0372 10.0697 7.01688L9.16237 4.9951C9.39319 4.78425 9.52475 4.4861 9.52501 4.17349V4.12869L11.6985 3.73301V3.73292C11.9151 4.06235 12.2893 4.25334 12.6831 4.23559C13.077 4.21792 13.4325 3.9941 13.6187 3.64654C13.8049 3.29898 13.7943 2.87912 13.5909 2.5413C13.3874 2.20359 13.0212 1.9979 12.627 2.00002L12.6269 2.00011Z" fill="#11093C"/>
</svg>
