<svg xmlns="http://www.w3.org/2000/svg" xmlns:xlink="http://www.w3.org/1999/xlink" width="20.781" height="28" viewBox="0 0 20.781 28">
  <defs>
    <clipPath id="clip-path">
      <path id="Trazado_209" data-name="Trazado 209" d="M10.391-28A10.39,10.39,0,0,0,0-17.633C0-14.747,1.5-11.04,4.467-6.615A58.531,58.531,0,0,0,9.14-.557,1.685,1.685,0,0,0,10.391,0a1.685,1.685,0,0,0,1.251-.557,58.5,58.5,0,0,0,4.673-6.058c2.964-4.425,4.467-8.132,4.467-11.018A10.39,10.39,0,0,0,10.391-28Z" fill="none"/>
    </clipPath>
    <clipPath id="clip-path-2">
      <path id="Trazado_211" data-name="Trazado 211" d="M16.675-19.206a1.682,1.682,0,0,0-1.624-1.18H12.78a.067.067,0,0,1-.064-.046l-.7-2.16h0a1.682,1.682,0,0,0-1.624-1.18,1.682,1.682,0,0,0-1.624,1.18l-.7,2.16A.067.067,0,0,1,8-20.386H5.73a1.682,1.682,0,0,0-1.624,1.18,1.682,1.682,0,0,0,.62,1.909l1.837,1.335a.067.067,0,0,1,.024.075l-.7,2.16a1.682,1.682,0,0,0,.62,1.909,1.682,1.682,0,0,0,2.007,0l1.837-1.335a.067.067,0,0,1,.079,0l1.837,1.335a1.7,1.7,0,0,0,1,.332,1.7,1.7,0,0,0,1-.332,1.682,1.682,0,0,0,.62-1.909l-.7-2.16a.067.067,0,0,1,.024-.075L16.055-17.3A1.682,1.682,0,0,0,16.675-19.206Z" fill="none"/>
    </clipPath>
  </defs>
  <g id="Grupo_96" data-name="Grupo 96" transform="translate(830 -2460)">
    <g id="Grupo_91" data-name="Grupo 91" transform="translate(-830 2488)">
      <g id="Grupo_89" data-name="Grupo 89" clip-path="url(#clip-path)">
        <path id="Trazado_208" data-name="Trazado 208" d="M-5-33H25.781V5H-5Z" fill="#28c499"/>
      </g>
      <g id="Grupo_90" data-name="Grupo 90" clip-path="url(#clip-path-2)">
        <path id="Trazado_210" data-name="Trazado 210" d="M-.981-28.772H21.762V-6.486H-.981Z" fill="#fff"/>
      </g>
    </g>
  </g>
</svg>
