<svg width="18" height="18" viewBox="0 0 18 18" fill="none" xmlns="http://www.w3.org/2000/svg">
<path d="M16.1718 9.97212L16.1802 9.98059C15.8146 10.0348 15.5338 10.3508 15.5338 10.7306V15.5338H2.46657V2.46657H7.26895C7.6882 2.46657 8.02723 2.12685 8.02723 1.70829C8.02723 1.28972 7.6882 0.95 7.26895 0.95H1.70829C1.28903 0.95 0.95 1.28972 0.95 1.70829V16.2917C0.95 16.7109 1.28906 17.05 1.70829 17.05H16.2917C16.7109 17.05 17.05 16.7109 17.05 16.2917V10.7302C17.0502 10.3133 16.7112 9.97212 16.2919 9.97212H16.1718Z" fill="#251863" stroke="#251863" stroke-width="0.1"/>
<path d="M15.5343 3.53907V6.95979C15.5343 7.37839 15.874 7.71808 16.2926 7.71808C16.7118 7.71808 17.0509 7.37836 17.0509 6.95979L17.051 1.70835C17.051 1.28912 16.712 0.950061 16.2927 0.950061H16.2528L16.2528 0.950223H11.0429C10.6236 0.950223 10.2846 1.28994 10.2846 1.70851C10.2846 2.12708 10.6236 2.4668 11.0429 2.4668H14.4622L8.9634 7.96557C8.66689 8.26209 8.66689 8.74132 8.9634 9.03784C9.11131 9.18575 9.30536 9.26007 9.49946 9.26007C9.69354 9.26007 9.88775 9.18577 10.0355 9.03784C10.0355 9.03784 10.0355 9.03783 10.0355 9.03782L15.5343 3.53907Z" fill="#251863" stroke="#251863" stroke-width="0.1"/>
</svg>
