<svg xmlns="http://www.w3.org/2000/svg" xmlns:xlink="http://www.w3.org/1999/xlink" width="19" height="14.25" viewBox="0 0 19 14.25">
  <defs>
    <clipPath id="clip-path">
      <path id="Trazado_2" data-name="Trazado 2" d="M19.688-13.439a8.293,8.293,0,0,1-2.238.567,3.681,3.681,0,0,0,1.713-1.99,8.264,8.264,0,0,1-2.477.874,4.043,4.043,0,0,0-2.845-1.137,3.757,3.757,0,0,0-3.9,3.6,3.345,3.345,0,0,0,.1.82,11.4,11.4,0,0,1-8.033-3.76,3.365,3.365,0,0,0-.527,1.809A3.534,3.534,0,0,0,3.218-9.664a4.147,4.147,0,0,1-1.765-.452v.045A3.688,3.688,0,0,0,4.578-6.541a4.257,4.257,0,0,1-1.027.126,4.042,4.042,0,0,1-.734-.067,3.874,3.874,0,0,0,3.64,2.5A8.242,8.242,0,0,1,1.617-2.445a8.964,8.964,0,0,1-.93-.049A11.691,11.691,0,0,0,6.662-.875c7.17,0,11.089-5.483,11.089-10.239l-.013-.466a7.485,7.485,0,0,0,1.949-1.859Z" fill="none" clip-rule="evenodd"/>
    </clipPath>
  </defs>
  <g id="Grupo_2" data-name="Grupo 2" transform="translate(-0.688 15.125)">
    <g id="Grupo_1" data-name="Grupo 1" clip-path="url(#clip-path)">
      <path id="Trazado_1" data-name="Trazado 1" d="M-4.312-20.125h29V4.125h-29Z" fill="#fff"/>
    </g>
  </g>
</svg>
