<svg width="16" height="16" viewBox="0 0 16 16" fill="none" xmlns="http://www.w3.org/2000/svg">
<path d="M9.81301 5.85992L6.95301 8.72659L5.85301 7.62659C5.79325 7.5568 5.7197 7.50012 5.63699 7.4601C5.55428 7.42009 5.46419 7.3976 5.37238 7.39405C5.28057 7.39051 5.18901 7.40598 5.10346 7.43949C5.01791 7.47301 4.94021 7.52385 4.87524 7.58882C4.81027 7.65379 4.75944 7.73149 4.72592 7.81704C4.6924 7.90259 4.67693 7.99414 4.68048 8.08595C4.68402 8.17777 4.70651 8.26786 4.74653 8.35057C4.78654 8.43328 4.84322 8.50682 4.91301 8.56659L6.47968 10.1399C6.54197 10.2017 6.61585 10.2506 6.69707 10.2838C6.7783 10.3169 6.86527 10.3338 6.95301 10.3333C7.1279 10.3325 7.2955 10.2631 7.41968 10.1399L10.753 6.80659C10.8155 6.74461 10.8651 6.67088 10.8989 6.58964C10.9328 6.5084 10.9502 6.42126 10.9502 6.33325C10.9502 6.24524 10.9328 6.15811 10.8989 6.07687C10.8651 5.99563 10.8155 5.92189 10.753 5.85992C10.6281 5.73575 10.4591 5.66606 10.283 5.66606C10.1069 5.66606 9.93792 5.73575 9.81301 5.85992ZM7.99968 1.33325C6.68114 1.33325 5.3922 1.72425 4.29588 2.45679C3.19955 3.18933 2.34506 4.23052 1.84048 5.4487C1.3359 6.66687 1.20387 8.00731 1.46111 9.30052C1.71834 10.5937 2.35328 11.7816 3.28563 12.714C4.21798 13.6463 5.40587 14.2813 6.69908 14.5385C7.99228 14.7957 9.33273 14.6637 10.5509 14.1591C11.7691 13.6545 12.8103 12.8 13.5428 11.7037C14.2754 10.6074 14.6663 9.31846 14.6663 7.99992C14.6663 7.12444 14.4939 6.25753 14.1589 5.4487C13.8238 4.63986 13.3328 3.90493 12.7137 3.28587C12.0947 2.66682 11.3597 2.17575 10.5509 1.84072C9.74206 1.50569 8.87516 1.33325 7.99968 1.33325ZM7.99968 13.3333C6.94484 13.3333 5.9137 13.0205 5.03664 12.4344C4.15957 11.8484 3.47599 11.0154 3.07232 10.0409C2.66865 9.06636 2.56304 7.994 2.76882 6.95944C2.97461 5.92487 3.48256 4.97456 4.22844 4.22868C4.97432 3.4828 5.92463 2.97485 6.9592 2.76906C7.99376 2.56328 9.06612 2.66889 10.0407 3.07256C11.0152 3.47623 11.8481 4.15982 12.4342 5.03688C13.0202 5.91394 13.333 6.94509 13.333 7.99992C13.333 9.41441 12.7711 10.771 11.7709 11.7712C10.7707 12.7714 9.41417 13.3333 7.99968 13.3333Z" fill="#11093C"/>
</svg>
