<svg width="24" height="24" viewBox="0 0 24 24" fill="none" xmlns="http://www.w3.org/2000/svg">
<g opacity="0.6">
<path d="M16.9503 5H7.00553C5.37017 5 4 6.32596 4 8.00552V18.6132C4 18.8342 4.1326 19.011 4.3536 19.0994C4.442 19.1436 4.4862 19.1436 4.57459 19.1436C4.70719 19.1436 4.83978 19.0994 4.97238 18.9668L7.27071 16.8011H16.9945C18.6298 16.8011 20 15.4751 20 13.7956V7.96133C19.9558 6.32597 18.6298 5 16.9503 5ZM18.8508 13.7956C18.8508 14.8563 18.0111 15.6961 16.9503 15.6961H7.00553C6.87294 15.6961 6.74033 15.7403 6.60773 15.8287L5.10497 17.2873V7.96133C5.10497 6.90056 5.94476 6.06077 7.00553 6.06077H16.9503C18.0111 6.06077 18.8508 6.90056 18.8508 7.96133V13.7956ZM15.7569 9.0221H8.50829C8.2431 9.0221 8.0221 9.2431 8.0221 9.50829C8.0221 9.77348 8.2431 9.99447 8.50829 9.99447H15.7569C16.0221 9.99447 16.2431 9.77348 16.2431 9.50829C16.2431 9.2431 16.0663 9.0221 15.7569 9.0221ZM12.5304 11.895H8.55249C8.2873 11.895 8.0663 12.116 8.0663 12.3812C8.0663 12.6464 8.2873 12.8674 8.55249 12.8674H12.5304C12.7072 12.8674 12.884 12.779 12.9724 12.6022C13.0608 12.4254 13.0608 12.2486 12.9724 12.116C12.884 11.9834 12.7072 11.895 12.5304 11.895Z" fill="black"/>
</g>
</svg>
