<svg width="24" height="24" viewBox="0 0 24 24" fill="none" xmlns="http://www.w3.org/2000/svg">
<g opacity="0.6">
<path d="M15.4106 5.90574L15.4108 5.90574C16.1397 5.90668 16.8519 6.1237 17.4573 6.52938C18.0628 6.93506 18.5344 7.51117 18.8125 8.18486C19.0906 8.85856 19.1627 9.59958 19.0196 10.3142C18.8766 11.0289 18.5248 11.6851 18.0088 12.1998L18.0088 12.1999L17.8488 12.3599L12.0001 18.2085L6.15151 12.3599L5.99153 12.1999L5.99152 12.1999C5.47621 11.6848 5.12509 11.0285 4.98252 10.3139C4.83994 9.59937 4.9123 8.85859 5.19045 8.18513C5.4686 7.51167 5.94007 6.93573 6.54532 6.53004C7.15058 6.12435 7.86247 5.90711 8.59111 5.90574L8.5912 5.90574C9.07489 5.90439 9.55404 5.99893 10.001 6.18389C10.4479 6.36886 10.8537 6.64059 11.195 6.98337L11.1951 6.98353L11.3551 7.14351L11.3553 7.14371L11.9296 7.71485L12.0003 7.78516L12.0709 7.71465L12.6372 7.14831L12.7972 6.98833L12.7974 6.98811C13.1396 6.64369 13.5469 6.37067 13.9955 6.18487C14.4441 5.99907 14.9251 5.90419 15.4106 5.90574ZM12.0709 19.5613L18.5581 13.0725L18.5581 13.0724L18.7179 12.9127C18.7179 12.9126 18.718 12.9126 18.718 12.9126C19.3765 12.2578 19.8256 11.4221 20.0084 10.5116C20.1911 9.60107 20.0992 8.65677 19.7444 7.79855C19.3895 6.94033 18.7877 6.20687 18.0153 5.69128C17.2429 5.17568 16.3347 4.90119 15.406 4.90263L15.0767 4.90315L15.0953 4.91557C14.5867 4.94848 14.0861 5.06433 13.6136 5.25919C13.0435 5.4943 12.5255 5.83977 12.0894 6.27576L12.0894 6.27577L12.0001 6.36504L11.9109 6.27581C11.0315 5.39551 9.83836 4.90061 8.59403 4.9C7.34971 4.89939 6.15611 5.3931 5.27581 6.27254C4.39551 7.15197 3.90061 8.34509 3.9 9.58941C3.89939 10.8337 4.3931 12.0273 5.27254 12.9076L5.27257 12.9077L5.43256 13.0677L5.43257 13.0677L11.9294 19.5613L12.0002 19.632L12.0709 19.5613Z" fill="#11093C" stroke="black" stroke-width="0.2"/>
</g>
</svg>
