<svg width="16" height="16" viewBox="0 0 16 16" fill="none" xmlns="http://www.w3.org/2000/svg">
<path d="M8.0013 4.66667C8.26501 4.66667 8.5228 4.58847 8.74206 4.44196C8.96133 4.29545 9.13223 4.08721 9.23314 3.84358C9.33406 3.59994 9.36046 3.33185 9.30902 3.07321C9.25757 2.81457 9.13058 2.57699 8.94411 2.39052C8.75764 2.20405 8.52006 2.07707 8.26142 2.02562C8.00278 1.97417 7.73469 2.00058 7.49106 2.10149C7.24742 2.20241 7.03919 2.37331 6.89268 2.59257C6.74617 2.81184 6.66797 3.06963 6.66797 3.33333C6.66797 3.68696 6.80845 4.02609 7.05849 4.27614C7.30854 4.52619 7.64768 4.66667 8.0013 4.66667ZM8.0013 11.3333C7.73759 11.3333 7.47981 11.4115 7.26054 11.558C7.04128 11.7045 6.87038 11.9128 6.76946 12.1564C6.66855 12.4001 6.64214 12.6681 6.69359 12.9268C6.74504 13.1854 6.87202 13.423 7.05849 13.6095C7.24496 13.7959 7.48254 13.9229 7.74118 13.9744C7.99982 14.0258 8.26791 13.9994 8.51155 13.8985C8.75518 13.7976 8.96342 13.6267 9.10993 13.4074C9.25644 13.1882 9.33464 12.9304 9.33464 12.6667C9.33464 12.313 9.19416 11.9739 8.94411 11.7239C8.69406 11.4738 8.35492 11.3333 8.0013 11.3333ZM8.0013 6.66667C7.73759 6.66667 7.47981 6.74487 7.26054 6.89137C7.04128 7.03788 6.87038 7.24612 6.76946 7.48976C6.66855 7.73339 6.64214 8.00148 6.69359 8.26012C6.74504 8.51876 6.87202 8.75634 7.05849 8.94281C7.24496 9.12928 7.48254 9.25627 7.74118 9.30771C7.99982 9.35916 8.26791 9.33276 8.51155 9.23184C8.75518 9.13092 8.96342 8.96003 9.10993 8.74076C9.25644 8.52149 9.33464 8.26371 9.33464 8C9.33464 7.64638 9.19416 7.30724 8.94411 7.05719C8.69406 6.80714 8.35492 6.66667 8.0013 6.66667Z" fill="#11093C"/>
</svg>
