<svg xmlns="http://www.w3.org/2000/svg" width="22.756" height="27.95" viewBox="0 0 22.756 27.95">
  <path id="ic_jpg" d="M19.781,27.95H4.464a2.978,2.978,0,0,1-2.975-2.975V23.642H1.2a1.2,1.2,0,0,1-1.2-1.2V15.174a1.2,1.2,0,0,1,1.2-1.2H1.49v-11A2.978,2.978,0,0,1,4.464,0H15.69l7.066,7.041V24.975A2.978,2.978,0,0,1,19.781,27.95ZM3.312,23.642v1.333a1.154,1.154,0,0,0,1.152,1.153H19.781a1.153,1.153,0,0,0,1.151-1.153L20.89,7.763l-3.819.011a2.065,2.065,0,0,1-2.063-2.063v-3.9L4.464,1.823A1.153,1.153,0,0,0,3.312,2.975v11H17.591a1.2,1.2,0,0,1,1.2,1.2v7.269a1.2,1.2,0,0,1-1.2,1.2Zm11.066-7.277A2.6,2.6,0,0,0,11.5,19a2.428,2.428,0,0,0,.71,1.833,2.809,2.809,0,0,0,2.05.68,5.619,5.619,0,0,0,1.683-.284V18.573H14.063v.89h.778v1.054a1.521,1.521,0,0,1-.561.076A1.518,1.518,0,0,1,12.7,18.94a1.53,1.53,0,0,1,1.667-1.631,2.794,2.794,0,0,1,1.175.217l.239-.912A3.432,3.432,0,0,0,14.378,16.366ZM2.727,20.15l-.436.87a1.46,1.46,0,0,0,.6.337,2.627,2.627,0,0,0,.834.118,2.382,2.382,0,0,0,.877-.139,1.345,1.345,0,0,0,.849-.955,2.76,2.76,0,0,0,.082-.684v-3.22l-.05-.05H4.388L4.339,19.64a.947.947,0,0,1-.163.625.693.693,0,0,1-.536.179,1.338,1.338,0,0,1-.486-.087,3.139,3.139,0,0,1-.427-.207Zm6.031-3.768a9.647,9.647,0,0,0-1.541.1v4.975H8.346v-1.8a3.021,3.021,0,0,0,.39.022,2.347,2.347,0,0,0,1.638-.531,1.623,1.623,0,0,0,.463-1.2,1.472,1.472,0,0,0-.537-1.167A2.432,2.432,0,0,0,8.758,16.382ZM8.727,18.8a1.82,1.82,0,0,1-.381-.029v-1.49a1.926,1.926,0,0,1,.472-.045c.566,0,.89.27.89.741C9.708,18.5,9.342,18.8,8.727,18.8Z" fill="#251863" opacity="0.3"/>
</svg>
