<svg xmlns="http://www.w3.org/2000/svg" xmlns:xlink="http://www.w3.org/1999/xlink" width="22.755" height="27.95" viewBox="0 0 22.755 27.95">
  <defs>
    <clipPath id="clip-path">
      <path id="Trazado_2" data-name="Trazado 2" d="M15.737-28H4.511a2.979,2.979,0,0,0-2.975,2.975v11H1.245a1.2,1.2,0,0,0-1.2,1.2v7.27a1.2,1.2,0,0,0,1.2,1.2h.291v1.333A2.978,2.978,0,0,0,4.511-.05H19.828A2.978,2.978,0,0,0,22.8-3.025V-20.959ZM3.8-11.618a2.419,2.419,0,0,1,1.541.4,1.474,1.474,0,0,1,.538,1.167,1.613,1.613,0,0,1-.463,1.2,2.34,2.34,0,0,1-1.638.531,2.945,2.945,0,0,1-.389-.022v1.8H2.264v-4.975A9.382,9.382,0,0,1,3.8-11.618Zm.06.86a1.972,1.972,0,0,0-.471.045v1.489a1.778,1.778,0,0,0,.381.029c.606,0,.98-.306.98-.822C4.755-10.482,4.433-10.759,3.865-10.759ZM19.828-1.872H4.511A1.154,1.154,0,0,1,3.359-3.025V-4.358H17.637a1.2,1.2,0,0,0,1.2-1.2v-7.27a1.2,1.2,0,0,0-1.2-1.2H3.359v-11a1.154,1.154,0,0,1,1.152-1.151l10.544-.011v3.9a2.064,2.064,0,0,0,2.063,2.063l3.818-.011.043,17.213A1.153,1.153,0,0,1,19.828-1.872ZM9.739-10.107v-1.474h1.047v5.042H9.59L8.513-8.485a18.593,18.593,0,0,1-.875-1.78l-.022.007c.029.665.045,1.376.045,2.2v1.518H6.612v-5.042H7.944L8.991-9.734a14.571,14.571,0,0,1,.823,1.728h.022A18.667,18.667,0,0,1,9.739-10.107Zm4.588,2.7a1.528,1.528,0,0,0,.561-.075V-8.537H14.11v-.89h1.878v2.655a5.646,5.646,0,0,1-1.683.284,2.813,2.813,0,0,1-2.05-.681A2.438,2.438,0,0,1,11.545-9a2.6,2.6,0,0,1,2.88-2.633,3.454,3.454,0,0,1,1.4.248l-.239.912a2.8,2.8,0,0,0-1.175-.216A1.525,1.525,0,0,0,12.742-9.06,1.514,1.514,0,0,0,14.327-7.407Z" fill="none"/>
    </clipPath>
  </defs>
  <g id="Grupo_2" data-name="Grupo 2" transform="translate(-0.047 28)">
    <g id="Grupo_1" data-name="Grupo 1" clip-path="url(#clip-path)">
      <path id="Trazado_1" data-name="Trazado 1" d="M-4.953-33H27.8V4.95H-4.953Z" fill="rgba(36,24,98,0.3)"/>
    </g>
  </g>
</svg>
