<svg width="18" height="18" viewBox="0 0 18 18" fill="none" xmlns="http://www.w3.org/2000/svg">
<g clip-path="url(#clip0_3696_224743)">
<path d="M17.5 9C17.5 13.6942 13.6948 17.4997 9.00063 17.5C4.3084 17.4941 0.506047 13.6919 0.5 8.99969C0.500169 4.30541 4.30568 0.5 9 0.5C13.6944 0.5 17.5 4.30558 17.5 9Z" stroke="#251863"/>
<path d="M9.82158 13.4108C9.82158 13.9246 9.40506 14.3411 8.89126 14.3411C8.37746 14.3411 7.96094 13.9246 7.96094 13.4108C7.96094 12.897 8.37746 12.4805 8.89126 12.4805C9.13832 12.4805 9.37524 12.5787 9.54976 12.7536C9.72428 12.9285 9.82208 13.1656 9.82158 13.4127V13.4108Z" fill="#251863"/>
<path d="M5.98967 6.16012C5.90832 5.92884 5.92256 5.67466 6.02922 5.45391C6.54864 4.36335 7.64616 3.66606 8.85408 3.65918H8.87291C10.5892 3.66604 11.9948 5.02508 12.0594 6.74016C12.1027 8.1309 11.2296 9.38575 9.91058 9.82867C9.91058 9.82867 9.8183 9.86069 9.8183 9.9153V10.6535C9.8183 11.1647 9.40389 11.5791 8.89269 11.5791C8.38149 11.5791 7.96707 11.1647 7.96707 10.6535V9.9153C7.97558 9.07633 8.51802 8.33616 9.31547 8.07538C9.86509 7.88913 10.2283 7.36538 10.21 6.78536C10.1724 6.07563 9.5911 5.51655 8.88045 5.50664C8.37634 5.51202 7.91945 5.80443 7.70342 6.25993C7.5427 6.60195 7.19004 6.81175 6.81278 6.78978C6.43552 6.76781 6.1096 6.51848 5.98967 6.16012Z" fill="#251863"/>
</g>
<defs>
<clipPath id="clip0_3696_224743">
<rect width="18" height="18" fill="white"/>
</clipPath>
</defs>
</svg>
