<svg width="61" height="34" viewBox="0 0 61 34" fill="none" xmlns="http://www.w3.org/2000/svg">
<path d="M59.2754 33.2118C59.0283 33.2239 58.7283 33.1776 58.4546 33.0775C58.1848 32.9788 57.9047 32.8144 57.7383 32.5632L57.4811 32.1751H57.4913C53.3801 25.9094 47.8863 20.5869 41.5405 16.557C35.064 12.444 27.8843 9.69953 20.364 8.55348L20.3639 8.55347C16.093 7.90108 11.8095 7.8288 7.5019 8.194L7.50114 8.19406C7.23783 8.21557 6.93641 8.16653 6.66375 8.06848C6.39285 7.97105 6.12258 7.81517 5.94156 7.59965L5.94012 7.59791C5.78421 7.40882 5.70692 7.16029 5.78837 6.92718C5.87354 6.68344 6.10124 6.54154 6.37778 6.51378C14.5211 5.63688 22.8629 6.82573 30.5679 9.4796L30.568 9.47962C38.2233 12.1188 45.3725 16.3448 51.2946 21.8426L51.2946 21.8426C54.6243 24.9338 57.573 28.4302 60.015 32.2491L60.0153 32.2495C60.1007 32.3838 60.1455 32.5328 60.116 32.685C60.0868 32.8361 59.9934 32.9439 59.8974 33.0151C59.715 33.1503 59.4608 33.2029 59.2754 33.2118ZM59.2754 33.2118L59.2632 32.9621L59.2752 33.2118C59.2753 33.2118 59.2753 33.2118 59.2754 33.2118Z" fill="white" stroke="white" stroke-width="0.5"/>
<path d="M5.29022 7.14157C5.74966 6.97246 6.21204 6.80892 6.67457 6.65096C7.76316 6.28207 8.8569 5.9383 9.9507 5.61966C12.1271 4.99049 14.3136 4.47272 16.5101 4.05089L16.5153 4.05942L16.686 4.0267C17.0509 3.95676 17.2121 3.653 17.2435 3.36562C17.2744 3.08251 17.1941 2.76225 17.0353 2.50554L17.0338 2.50321L17.0338 2.50322C16.6122 1.83808 15.9349 1.67822 15.3898 1.77695L15.3884 1.7772L15.3884 1.77721C12.9505 2.23304 10.5281 2.81547 8.11623 3.52442M5.29022 7.14157L8.18647 3.76435M5.29022 7.14157C8.75632 8.87732 12.0923 11.2968 15.1823 14.3976M5.29022 7.14157L4.96825 7.26085C8.48387 8.99058 11.8707 11.4285 15.0056 14.5745M8.11623 3.52442C8.11614 3.52444 8.11606 3.52447 8.11597 3.52449L8.18647 3.76435M8.11623 3.52442C8.11625 3.52441 8.11626 3.52441 8.11628 3.5244L8.18647 3.76435M8.11623 3.52442C6.93211 3.87082 5.74909 4.25913 4.57309 4.66364L4.5721 4.66398C4.43833 4.71062 4.29171 4.75164 4.12811 4.79741C4.05857 4.81687 3.98596 4.83718 3.90996 4.85915C3.66269 4.93063 3.39288 5.01631 3.13032 5.13802C2.59874 5.38443 2.08995 5.78255 1.82629 6.51468L1.82628 6.51469C1.65276 6.99667 1.79843 7.41213 2.02458 7.71207C2.2446 8.00389 2.5502 8.20306 2.759 8.29284L2.76057 8.29351C6.57524 9.90285 10.1996 12.4241 13.6122 15.7135L13.614 15.7152L13.614 15.7152C13.8081 15.8987 14.0936 16.0922 14.3951 16.1882C14.6948 16.2835 15.0723 16.2975 15.3561 16.013C15.6221 15.7463 15.6558 15.4075 15.5886 15.1175C15.523 14.8343 15.3587 14.5732 15.1823 14.3976M8.18647 3.76435C7.00742 4.10926 5.82836 4.49624 4.65441 4.90004C4.51285 4.9494 4.3545 4.9937 4.18719 5.04052C3.41339 5.25703 2.4476 5.52726 2.0615 6.59938C1.78588 7.36492 2.50556 7.91174 2.85775 8.06317C6.70627 9.68679 10.3557 12.2274 13.7857 15.5335C14.1328 15.8616 14.8014 16.2149 15.1791 15.8364C15.5568 15.4578 15.3016 14.8689 15.0056 14.5745M15.1823 14.3976C15.1824 14.3978 15.1826 14.3979 15.1827 14.398L15.0056 14.5745M15.1823 14.3976C15.1822 14.3975 15.182 14.3974 15.1819 14.3972L15.0056 14.5745" fill="white" stroke="white" stroke-width="0.5"/>
</svg>
