<svg width="61" height="34" viewBox="0 0 61 34" fill="none" xmlns="http://www.w3.org/2000/svg">
<path d="M1.72457 33.2118C1.97165 33.2239 2.27166 33.1776 2.54537 33.0775C2.81515 32.9788 3.09526 32.8144 3.26175 32.5632L3.51892 32.1751H3.50867C7.61987 25.9094 13.1137 20.5869 19.4595 16.557C25.936 12.444 33.1157 9.69953 40.636 8.55348L40.6361 8.55347C44.907 7.90108 49.1905 7.8288 53.4981 8.194L53.4989 8.19406C53.7622 8.21557 54.0636 8.16653 54.3363 8.06848C54.6072 7.97105 54.8774 7.81517 55.0584 7.59965L55.0599 7.59791C55.2158 7.40882 55.2931 7.16029 55.2116 6.92718C55.1265 6.68344 54.8988 6.54154 54.6222 6.51378C46.4789 5.63688 38.1371 6.82573 30.4321 9.4796L30.432 9.47962C22.7767 12.1188 15.6275 16.3448 9.70536 21.8426L9.70536 21.8426C6.3757 24.9338 3.427 28.4302 0.984996 32.2491L0.984714 32.2495C0.899282 32.3838 0.854517 32.5328 0.883988 32.685C0.913228 32.8361 1.00661 32.9439 1.10263 33.0151C1.28497 33.1503 1.5392 33.2029 1.72457 33.2118ZM1.72457 33.2118L1.7368 32.9621L1.72482 33.2118C1.72473 33.2118 1.72465 33.2118 1.72457 33.2118Z" fill="white" stroke="white" stroke-width="0.5"/>
<path d="M55.7098 7.14157C55.2503 6.97246 54.788 6.80892 54.3254 6.65096C53.2368 6.28207 52.1431 5.9383 51.0493 5.61966C48.8729 4.99049 46.6864 4.47272 44.4899 4.05089L44.4847 4.05942L44.314 4.0267C43.9491 3.95676 43.7879 3.653 43.7565 3.36562C43.7256 3.08251 43.8059 2.76225 43.9647 2.50554L43.9662 2.50321L43.9662 2.50322C44.3878 1.83808 45.0651 1.67822 45.6102 1.77695L45.6116 1.7772L45.6116 1.77721C48.0495 2.23304 50.4719 2.81547 52.8838 3.52442M55.7098 7.14157L52.8135 3.76435M55.7098 7.14157C52.2437 8.87732 48.9077 11.2968 45.8177 14.3976M55.7098 7.14157L56.0318 7.26085C52.5161 8.99058 49.1293 11.4285 45.9944 14.5745M52.8838 3.52442C52.8839 3.52444 52.8839 3.52447 52.884 3.52449L52.8135 3.76435M52.8838 3.52442C52.8838 3.52441 52.8837 3.52441 52.8837 3.5244L52.8135 3.76435M52.8838 3.52442C54.0679 3.87082 55.2509 4.25913 56.4269 4.66364L56.4279 4.66398C56.5617 4.71062 56.7083 4.75164 56.8719 4.79741C56.9414 4.81687 57.014 4.83718 57.09 4.85915C57.3373 4.93063 57.6071 5.01631 57.8697 5.13802C58.4013 5.38443 58.9101 5.78255 59.1737 6.51468L59.1737 6.51469C59.3472 6.99667 59.2016 7.41213 58.9754 7.71207C58.7554 8.00389 58.4498 8.20306 58.241 8.29284L58.2394 8.29351C54.4248 9.90285 50.8004 12.4241 47.3878 15.7135L47.386 15.7152L47.386 15.7152C47.1919 15.8987 46.9064 16.0922 46.6049 16.1882C46.3052 16.2835 45.9277 16.2975 45.6439 16.013C45.3779 15.7463 45.3442 15.4075 45.4114 15.1175C45.477 14.8343 45.6413 14.5732 45.8177 14.3976M52.8135 3.76435C53.9926 4.10926 55.1716 4.49624 56.3456 4.90004C56.4872 4.9494 56.6455 4.9937 56.8128 5.04052C57.5866 5.25703 58.5524 5.52726 58.9385 6.59938C59.2141 7.36492 58.4944 7.91174 58.1423 8.06317C54.2937 9.68679 50.6443 12.2274 47.2143 15.5335C46.8672 15.8616 46.1986 16.2149 45.8209 15.8364C45.4432 15.4578 45.6984 14.8689 45.9944 14.5745M45.8177 14.3976C45.8176 14.3978 45.8174 14.3979 45.8173 14.398L45.9944 14.5745M45.8177 14.3976C45.8178 14.3975 45.818 14.3974 45.8181 14.3972L45.9944 14.5745" fill="white" stroke="white" stroke-width="0.5"/>
</svg>
