<?xml version="1.0" encoding="UTF-8"?>
<svg width="64px" height="29px" viewBox="0 0 64 29" version="1.1" xmlns="http://www.w3.org/2000/svg" xmlns:xlink="http://www.w3.org/1999/xlink">
    <title>ic_arrow3</title>
    <g id="Page-1" stroke="none" stroke-width="1" fill="none" fill-rule="evenodd">
        <g id="overlay" transform="translate(-1056.000000, -41.000000)" fill="#FFFFFF">
            <path d="M1118.225,57.146 C1110,67.091 1097.665,73.727 1084.499,71.221 C1071.186,68.687 1063.361,57.737 1063.351,44.693 L1063.404,44.78 C1064.62,46.819 1065.7,49.178 1067.925,50.297 C1069.127,50.903 1070.022,49.294 1068.964,48.52 C1067.377,47.36 1066.5,45.863 1065.528,44.201 C1064.963,43.235 1064.276,41.528 1062.997,41.351 C1061.736,41.177 1061.218,42.434 1060.733,43.362 C1059.647,45.444 1058.492,47.525 1057.577,49.689 C1057.185,50.616 1058.366,51.368 1058.953,50.494 C1059.919,49.056 1060.739,47.522 1061.597,46.017 C1061.709,45.82 1061.826,45.624 1061.941,45.427 C1059.888,57.968 1069.939,69.55 1081.663,72.776 C1096.147,76.762 1110.544,69.795 1119.746,58.666 C1120.622,57.607 1119.108,56.077 1118.225,57.146" id="ic_arrow3" transform="translate(1088.754279, 57.621736) scale(1, -1) rotate(-9.000000) translate(-1088.754279, -57.621736) "></path>
        </g>
    </g>
</svg>