<svg width="61" height="34" viewBox="0 0 61 34" fill="none" xmlns="http://www.w3.org/2000/svg">
<path d="M59.2754 0.7882C59.0283 0.776093 58.7283 0.822388 58.4546 0.922525C58.1848 1.02122 57.9047 1.18556 57.7383 1.43681L57.4811 1.82491H57.4913C53.3801 8.09059 47.8863 13.4131 41.5405 17.443C35.064 21.556 27.8843 24.3005 20.364 25.4465L20.3639 25.4465C16.093 26.0989 11.8095 26.1712 7.5019 25.806L7.50114 25.8059C7.23783 25.7844 6.93641 25.8335 6.66375 25.9315C6.39285 26.0289 6.12258 26.1848 5.94156 26.4004L5.94012 26.4021C5.78421 26.5912 5.70692 26.8397 5.78837 27.0728C5.87354 27.3166 6.10124 27.4585 6.37778 27.4862C14.5211 28.3631 22.8629 27.1743 30.5679 24.5204L30.568 24.5204C38.2233 21.8812 45.3725 17.6552 51.2946 12.1574L51.2946 12.1574C54.6243 9.06617 57.573 5.56978 60.015 1.75089L60.0153 1.75045C60.1007 1.61623 60.1455 1.46719 60.116 1.31496C60.0868 1.16392 59.9934 1.05611 59.8974 0.984903C59.715 0.849676 59.4608 0.797134 59.2754 0.7882ZM59.2754 0.7882L59.2632 1.0379L59.2752 0.788189C59.2753 0.788193 59.2753 0.788197 59.2754 0.7882Z" fill="white" stroke="white" stroke-width="0.5"/>
<path d="M5.29022 26.8584C5.74966 27.0275 6.21204 27.1911 6.67457 27.349C7.76316 27.7179 8.8569 28.0617 9.9507 28.3803C12.1271 29.0095 14.3136 29.5273 16.5101 29.9491L16.5153 29.9406L16.686 29.9733C17.0509 30.0432 17.2121 30.347 17.2435 30.6344C17.2744 30.9175 17.1941 31.2378 17.0353 31.4945L17.0338 31.4968L17.0338 31.4968C16.6122 32.1619 15.9349 32.3218 15.3898 32.2231L15.3884 32.2228L15.3884 32.2228C12.9505 31.767 10.5281 31.1845 8.11623 30.4756M5.29022 26.8584L8.18647 30.2357M5.29022 26.8584C8.75632 25.1227 12.0923 22.7032 15.1823 19.6024M5.29022 26.8584L4.96825 26.7392C8.48387 25.0094 11.8707 22.5715 15.0056 19.4255M8.11623 30.4756C8.11614 30.4756 8.11606 30.4755 8.11597 30.4755L8.18647 30.2357M8.11623 30.4756C8.11625 30.4756 8.11626 30.4756 8.11628 30.4756L8.18647 30.2357M8.11623 30.4756C6.93211 30.1292 5.74909 29.7409 4.57309 29.3364L4.5721 29.336C4.43833 29.2894 4.29171 29.2484 4.12811 29.2026C4.05857 29.1831 3.98596 29.1628 3.90996 29.1409C3.66269 29.0694 3.39288 28.9837 3.13032 28.862C2.59874 28.6156 2.08995 28.2175 1.82629 27.4853L1.82628 27.4853C1.65276 27.0033 1.79843 26.5879 2.02458 26.2879C2.2446 25.9961 2.5502 25.7969 2.759 25.7072L2.76057 25.7065C6.57524 24.0971 10.1996 21.5759 13.6122 18.2865L13.614 18.2848L13.614 18.2848C13.8081 18.1013 14.0936 17.9078 14.3951 17.8118C14.6948 17.7165 15.0723 17.7025 15.3561 17.987C15.6221 18.2537 15.6558 18.5925 15.5886 18.8825C15.523 19.1657 15.3587 19.4268 15.1823 19.6024M8.18647 30.2357C7.00742 29.8907 5.82836 29.5038 4.65441 29.1C4.51285 29.0506 4.3545 29.0063 4.18719 28.9595C3.41339 28.743 2.4476 28.4727 2.0615 27.4006C1.78588 26.6351 2.50556 26.0883 2.85775 25.9368C6.70627 24.3132 10.3557 21.7726 13.7857 18.4665C14.1328 18.1384 14.8014 17.7851 15.1791 18.1636C15.5568 18.5422 15.3016 19.1311 15.0056 19.4255M15.1823 19.6024C15.1824 19.6022 15.1826 19.6021 15.1827 19.602L15.0056 19.4255M15.1823 19.6024C15.1822 19.6025 15.182 19.6026 15.1819 19.6028L15.0056 19.4255" fill="white" stroke="white" stroke-width="0.5"/>
</svg>
