<?xml version="1.0" encoding="UTF-8"?>
<svg width="53px" height="33px" viewBox="0 0 53 33" version="1.1" xmlns="http://www.w3.org/2000/svg" xmlns:xlink="http://www.w3.org/1999/xlink">
    <title>ic_arrow4</title>
    <g id="Page-1" stroke="none" stroke-width="1" fill="none" fill-rule="evenodd">
        <g id="overlay" transform="translate(-1252.000000, -210.000000)" fill="#FFFFFF">
            <path d="M1300.94182,243.8584 C1298.07082,241.1004 1295.20182,238.3414 1292.32982,235.5844 C1291.31482,234.6084 1290.01182,236.2184 1290.92582,237.2144 C1291.82782,238.1974 1292.73082,239.1804 1293.63282,240.1634 C1283.47682,234.8164 1283.88782,235.4694 1275.06182,228.0894 C1264.03482,218.8684 1265.54682,217.9764 1256.14482,207.2494 C1255.61882,206.6504 1254.69482,207.2284 1255.09982,207.9494 C1261.92182,220.1014 1263.08882,220.8274 1273.67782,229.6934 C1284.04682,238.3754 1285.46582,238.6694 1297.61382,244.5804 C1295.46782,244.3344 1293.32082,244.0954 1291.16682,243.9204 C1289.89982,243.8174 1289.45782,245.7164 1290.77482,245.9064 C1293.90782,246.3594 1297.06182,246.6744 1300.20682,247.0284 C1301.31082,247.1524 1301.82782,245.9824 1301.13482,245.1904 C1301.35682,244.7884 1301.35382,244.2534 1300.94182,243.8584 Z" id="ic_arrow4" transform="translate(1278.224515, 227.018753) scale(1, -1) rotate(-10.000000) translate(-1278.224515, -227.018753) "></path>
        </g>
    </g>
</svg>