<?xml version="1.0" encoding="UTF-8"?>
<svg width="63px" height="29px" viewBox="0 0 63 29" version="1.1" xmlns="http://www.w3.org/2000/svg" xmlns:xlink="http://www.w3.org/1999/xlink">
    <title>ic_arrow1</title>
    <g id="Page-1" stroke="none" stroke-width="1" fill="none" fill-rule="evenodd">
        <g id="overlay" transform="translate(-42.000000, -97.000000)" fill="#FFFFFF">
            <path d="M104.225,114.146 C96,124.091 83.665,130.727 70.499,128.221 C57.186,125.687 49.361,114.737 49.351,101.693 L49.404,101.78 C50.62,103.819 51.7,106.178 53.925,107.297 C55.127,107.903 56.022,106.294 54.964,105.52 C53.377,104.36 52.5,102.863 51.528,101.201 C50.963,100.235 50.276,98.528 48.997,98.351 C47.736,98.177 47.218,99.434 46.733,100.362 C45.647,102.444 44.492,104.525 43.577,106.689 C43.185,107.616 44.366,108.368 44.953,107.494 C45.919,106.056 46.739,104.522 47.597,103.017 C47.709,102.82 47.826,102.624 47.941,102.427 C45.888,114.968 55.939,126.55 67.663,129.776 C82.147,133.762 96.544,126.795 105.746,115.666 C106.622,114.607 105.108,113.077 104.225,114.146" id="ic_arrow1" transform="translate(74.754279, 114.621736) scale(1, -1) rotate(-20.000000) translate(-74.754279, -114.621736) "></path>
        </g>
    </g>
</svg>