<?xml version="1.0" encoding="UTF-8"?>
<svg width="47px" height="40px" viewBox="0 0 47 40" version="1.1" xmlns="http://www.w3.org/2000/svg" xmlns:xlink="http://www.w3.org/1999/xlink">
    <title>ic_arrow2</title>
    <g id="Page-1" stroke="none" stroke-width="1" fill="none" fill-rule="evenodd">
        <g id="overlay" transform="translate(-837.000000, -470.000000)" fill="#FFFFFF">
            <path d="M882.941817,506.8584 C880.070817,504.1004 877.201817,501.3414 874.329817,498.5844 C873.314817,497.6084 872.011817,499.2184 872.925817,500.2144 C873.827817,501.1974 874.730817,502.1804 875.632817,503.1634 C865.476817,497.8164 865.887817,498.4694 857.061817,491.0894 C846.034817,481.8684 847.546817,480.9764 838.144817,470.2494 C837.618817,469.6504 836.694817,470.2284 837.099817,470.9494 C843.921817,483.1014 845.088817,483.8274 855.677817,492.6934 C866.046817,501.3754 867.465817,501.6694 879.613817,507.5804 C877.467817,507.3344 875.320817,507.0954 873.166817,506.9204 C871.899817,506.8174 871.457817,508.7164 872.774817,508.9064 C875.907817,509.3594 879.061817,509.6744 882.206817,510.0284 C883.310817,510.1524 883.827817,508.9824 883.134817,508.1904 C883.356817,507.7884 883.353817,507.2534 882.941817,506.8584 Z" id="ic_arrow2" transform="translate(860.224515, 490.018753) scale(1, -1) translate(-860.224515, -490.018753) "></path>
        </g>
    </g>
</svg>