<?xml version="1.0" encoding="UTF-8"?>
<svg width="47px" height="40px" viewBox="0 0 47 40" version="1.1" xmlns="http://www.w3.org/2000/svg" xmlns:xlink="http://www.w3.org/1999/xlink">
    <title>ic_arrow5</title>
    <g id="Page-1" stroke="none" stroke-width="1" fill="none" fill-rule="evenodd">
        <g id="overlay" transform="translate(-100.000000, -123.000000)" fill="#FFFFFF">
            <path d="M145.941817,159.8584 C143.070817,157.1004 140.201817,154.3414 137.329817,151.5844 C136.314817,150.6084 135.011817,152.2184 135.925817,153.2144 C136.827817,154.1974 137.730817,155.1804 138.632817,156.1634 C128.476817,150.8164 128.887817,151.4694 120.061817,144.0894 C109.034817,134.8684 110.546817,133.9764 101.144817,123.2494 C100.618817,122.6504 99.6948172,123.2284 100.099817,123.9494 C106.921817,136.1014 108.088817,136.8274 118.677817,145.6934 C129.046817,154.3754 130.465817,154.6694 142.613817,160.5804 C140.467817,160.3344 138.320817,160.0954 136.166817,159.9204 C134.899817,159.8174 134.457817,161.7164 135.774817,161.9064 C138.907817,162.3594 142.061817,162.6744 145.206817,163.0284 C146.310817,163.1524 146.827817,161.9824 146.134817,161.1904 C146.356817,160.7884 146.353817,160.2534 145.941817,159.8584 Z" id="ic_arrow5" transform="translate(123.224515, 143.018753) scale(-1, -1) translate(-123.224515, -143.018753) "></path>
        </g>
    </g>
</svg>