<?xml version="1.0" encoding="UTF-8"?>
<svg width="59px" height="23px" viewBox="0 0 59 23" version="1.1" xmlns="http://www.w3.org/2000/svg" xmlns:xlink="http://www.w3.org/1999/xlink">
    <title>ic_arrow2</title>
    <g id="Page-1" stroke="none" stroke-width="1" fill="none" fill-rule="evenodd">
        <g id="overlay" transform="translate(-50.000000, -429.000000)" fill="#FFFFFF">
            <path d="M101.941817,458.8584 C99.0708172,456.1004 96.2018172,453.3414 93.3298172,450.5844 C92.3148172,449.6084 91.0118172,451.2184 91.9258172,452.2144 C92.8278172,453.1974 93.7308172,454.1804 94.6328172,455.1634 C84.4768172,449.8164 84.8878172,450.4694 76.0618172,443.0894 C65.0348172,433.8684 66.5468172,432.9764 57.1448172,422.2494 C56.6188172,421.6504 55.6948172,422.2284 56.0998172,422.9494 C62.9218172,435.1014 64.0888172,435.8274 74.6778172,444.6934 C85.0468172,453.3754 86.4658172,453.6694 98.6138172,459.5804 C96.4678172,459.3344 94.3208172,459.0954 92.1668172,458.9204 C90.8998172,458.8174 90.4578172,460.7164 91.7748172,460.9064 C94.9078172,461.3594 98.0618172,461.6744 101.206817,462.0284 C102.310817,462.1524 102.827817,460.9824 102.134817,460.1904 C102.356817,459.7884 102.353817,459.2534 101.941817,458.8584 Z" id="ic_arrow2" transform="translate(79.224515, 442.018753) scale(-1, -1) rotate(-24.000000) translate(-79.224515, -442.018753) "></path>
        </g>
    </g>
</svg>