<?xml version="1.0" encoding="UTF-8"?>
<svg width="45px" height="43px" viewBox="0 0 45 43" version="1.1" xmlns="http://www.w3.org/2000/svg" xmlns:xlink="http://www.w3.org/1999/xlink">
    <title>ic_arrow3</title>
    <g id="Page-1" stroke="none" stroke-width="1" fill="none" fill-rule="evenodd">
        <g id="overlay" transform="translate(-67.000000, -683.000000)" fill="#FFFFFF">
            <path d="M111.941817,720.8584 C109.070817,718.1004 106.201817,715.3414 103.329817,712.5844 C102.314817,711.6084 101.011817,713.2184 101.925817,714.2144 C102.827817,715.1974 103.730817,716.1804 104.632817,717.1634 C94.4768172,711.8164 94.8878172,712.4694 86.0618172,705.0894 C75.0348172,695.8684 76.5468172,694.9764 67.1448172,684.2494 C66.6188172,683.6504 65.6948172,684.2284 66.0998172,684.9494 C72.9218172,697.1014 74.0888172,697.8274 84.6778172,706.6934 C95.0468172,715.3754 96.4658172,715.6694 108.613817,721.5804 C106.467817,721.3344 104.320817,721.0954 102.166817,720.9204 C100.899817,720.8174 100.457817,722.7164 101.774817,722.9064 C104.907817,723.3594 108.061817,723.6744 111.206817,724.0284 C112.310817,724.1524 112.827817,722.9824 112.134817,722.1904 C112.356817,721.7884 112.353817,721.2534 111.941817,720.8584 Z" id="ic_arrow3" transform="translate(89.224515, 704.018753) scale(-1, -1) rotate(-84.000000) translate(-89.224515, -704.018753) "></path>
        </g>
    </g>
</svg>