<?xml version="1.0" encoding="UTF-8"?>
<svg width="57px" height="28px" viewBox="0 0 57 28" version="1.1" xmlns="http://www.w3.org/2000/svg" xmlns:xlink="http://www.w3.org/1999/xlink">
    <title>ic_arrow6</title>
    <g id="Page-1" stroke="none" stroke-width="1" fill="none" fill-rule="evenodd">
        <g id="overlay" transform="translate(-379.000000, -98.000000)" fill="#FFFFFF">
            <path d="M429.941817,129.8584 C427.070817,127.1004 424.201817,124.3414 421.329817,121.5844 C420.314817,120.6084 419.011817,122.2184 419.925817,123.2144 C420.827817,124.1974 421.730817,125.1804 422.632817,126.1634 C412.476817,120.8164 412.887817,121.4694 404.061817,114.0894 C393.034817,104.8684 394.546817,103.9764 385.144817,93.2494004 C384.618817,92.6504004 383.694817,93.2284004 384.099817,93.9494004 C390.921817,106.1014 392.088817,106.8274 402.677817,115.6934 C413.046817,124.3754 414.465817,124.6694 426.613817,130.5804 C424.467817,130.3344 422.320817,130.0954 420.166817,129.9204 C418.899817,129.8174 418.457817,131.7164 419.774817,131.9064 C422.907817,132.3594 426.061817,132.6744 429.206817,133.0284 C430.310817,133.1524 430.827817,131.9824 430.134817,131.1904 C430.356817,130.7884 430.353817,130.2534 429.941817,129.8584 Z" id="ic_arrow6" transform="translate(407.224515, 113.018753) scale(-1, -1) rotate(-17.000000) translate(-407.224515, -113.018753) "></path>
        </g>
    </g>
</svg>